<svg xmlns="http://www.w3.org/2000/svg" width="89" height="24" fill="none" viewBox="0 0 89 24">
  <path fill="url(#a)" d="M17.303 8.873c-.667-.586-1.488-.935-3.272-.935-2.927 0-6.39 1.021-8.89 2.396-1.299 1.199-3.75 3.75-2.883 4.807-.004 0-.004-.005-.009-.01.74.672 2.115.895 3.281.895 2.683 0 6.31-.98 8.914-2.374 1.294-1.19 3.717-3.717 2.86-4.78Z"/>
  <path fill="#F23F5F" d="M13.237 1.86 12.334 0C6.284 1.27.688 5.01.06 9.418l-.013.108v.005c-.186 1.516.218 3.109 1.393 4.707.005.004.005.009.01.009.036.045.067.095.104.14.009.01.013.018.022.027l.1.128c.01.013.018.022.027.036.041.05.082.104.128.154l.004.005a3.42 3.42 0 0 0 .427.404c-.867-1.062 1.584-3.613 2.877-4.807 1.688-1.457 3.894-2.836 6.35-3.903 1.792-.776 2.587-2.836 1.747-4.57Z"/>
  <path fill="#0095F8" d="M17.73 9.272a2.983 2.983 0 0 0-.427-.4l.005.005c.858 1.062-1.566 3.59-2.86 4.78-1.678 1.457-3.875 2.836-6.321 3.898-1.789.78-2.583 2.841-1.743 4.57L7.29 24c5.946-1.266 11.438-4.91 12.186-9.227 0-.009.005-.014.005-.023v.005c.01-.046.014-.09.023-.136 0-.005 0-.014.004-.018.005-.028.01-.05.01-.078 0-.013.004-.027.004-.045 0-.009 0-.018.004-.027.191-1.666-.326-3.422-1.797-5.179Zm1.752 5.456v.013c-.005-.004 0-.009 0-.013Zm.014-.16c0-.013 0-.026.004-.04 0 .014-.004.027-.004.04Zm-.01.096v-.018c.005.01 0 .014 0 .018Zm.005-.059v-.027c.005.014.005.023 0 .027Z"/>
  <path fill="#6243DC" d="M17.303 8.873c-.667-.586-1.488-.935-3.272-.935-2.927 0-6.39 1.021-8.89 2.396-1.299 1.199-3.75 3.75-2.883 4.807-.004 0-.004-.005-.009-.01.74.672 2.115.895 3.281.895 2.683 0 6.31-.98 8.914-2.374 1.294-1.19 3.717-3.717 2.86-4.78Z"/>
  <path fill="#FF9D00" d="M13.237 1.86 12.334 0C6.284 1.27.688 5.01.06 9.418c.01-.069.023-.132.037-.205-.019.1-.023.132-.032.268-.014.2-.005.445.018.608.236 1.67 2.873 1.398 4.647.481.146-.072.282-.154.414-.236 1.688-1.457 3.894-2.836 6.349-3.903 1.788-.776 2.582-2.836 1.743-4.57Z"/>
  <path fill="#0095F8" d="M19.482 13.92c-.236-1.652-2.787-1.42-4.557-.531a5.255 5.255 0 0 0-.472.263c-.004 0-.004.005-.009.005-1.679 1.457-3.876 2.836-6.322 3.898-1.788.78-2.582 2.841-1.743 4.57L7.287 24c5.946-1.266 11.437-4.91 12.186-9.227a3.268 3.268 0 0 0 .01-.853Z"/>
  <path fill="#F23F5F" d="M5.136 10.339a7.073 7.073 0 0 1-.413.236c-1.775.917-4.407 1.189-4.643-.481a3.289 3.289 0 0 1-.019-.608c.01-.137.014-.168.032-.268-.013.072-.022.136-.036.204l-.014.109v.005c-.186 1.515.218 3.109 1.394 4.706.004.005.004.01.009.01.036.044.068.094.104.14.01.009.014.018.023.027l.1.127.027.037c.04.05.082.104.127.154l.005.004c.127.15.272.273.417.395l.01.01c-.868-1.063 1.583-3.614 2.877-4.807Z"/>
  <path fill="#007ACA" d="M17.73 9.272c-.127-.154-.277-.277-.426-.4l.004.005c.858 1.062-1.566 3.59-2.86 4.78.005 0 .005-.005.01-.005.15-.09.304-.181.472-.263 1.774-.89 4.325-1.117 4.557.53a3.29 3.29 0 0 1-.005.84c.01-.045.014-.09.023-.136 0-.004 0-.013.004-.018.005-.027.01-.05.01-.077 0-.014.004-.027.004-.045 0-.01 0-.019.005-.028.19-1.67-.327-3.426-1.798-5.183Z"/>
  <path fill="#003254" fill-rule="evenodd" d="M35.08 9.278c-.313.797-.472 1.726-.472 2.78 0 .902.123 1.735.367 2.487.245.756.62 1.417 1.128 1.974.507.557 1.15.997 1.929 1.309.783.312 1.702.47 2.758.47.412 0 .82-.022 1.218-.067.398-.045.77-.104 1.114-.172.344-.073.652-.145.919-.231a4.13 4.13 0 0 0 .63-.24l-.368-2.273c-.321.136-.765.267-1.322.39a8.35 8.35 0 0 1-1.847.185c-1.15 0-2.025-.263-2.631-.793-.607-.53-.947-1.277-1.024-2.241h7.92c.018-.154.027-.326.036-.516.01-.19.014-.363.014-.517 0-2.033-.462-3.563-1.39-4.591-.928-1.028-2.219-1.54-3.872-1.54-.702 0-1.39.136-2.065.403a5.151 5.151 0 0 0-1.793 1.196c-.52.53-.937 1.19-1.25 1.987Zm7.43.449c.108.343.163.708.163 1.087h-5.171c.045-.354.131-.698.253-1.033.123-.34.295-.634.517-.896.222-.259.493-.471.815-.63.321-.158.697-.24 1.127-.24.413 0 .77.073 1.07.217.298.145.547.345.755.598.209.254.363.553.471.897ZM29.9 15.745c-.335.177-.874.263-1.608.263-.738 0-1.39-.077-1.96-.227a11.902 11.902 0 0 1-1.481-.48l-.485 2.319c.259.108.711.249 1.354.425.643.172 1.495.263 2.55.263 1.576 0 2.79-.294 3.64-.883.852-.589 1.278-1.458 1.278-2.608 0-.535-.073-.992-.209-1.377a2.775 2.775 0 0 0-.656-1.023 4.528 4.528 0 0 0-1.137-.806 14.77 14.77 0 0 0-1.675-.725c-.399-.14-.734-.272-1.01-.403a3.361 3.361 0 0 1-.666-.39 1.106 1.106 0 0 1-.358-.425 1.301 1.301 0 0 1-.104-.53c0-.398.177-.693.53-.883.349-.19.81-.285 1.377-.285.625 0 1.177.059 1.652.172a7.3 7.3 0 0 1 1.173.38l.507-2.25c-.321-.123-.806-.25-1.449-.38a10.086 10.086 0 0 0-2.02-.195c-1.39 0-2.494.317-3.305.95-.81.639-1.218 1.508-1.218 2.609 0 .566.086 1.046.263 1.435.176.394.416.725.724 1.001.308.276.67.516 1.091.725.422.203.883.398 1.39.584.825.308 1.418.593 1.78.851.358.258.54.589.54.987 0 .426-.173.73-.508.906Zm20.807 2.26a75.456 75.456 0 0 1-2.363-5.434 69.124 69.124 0 0 1-2.201-6.58h2.966c.168.675.367 1.4.589 2.169.221.774.461 1.549.715 2.319.254.774.516 1.526.784 2.25.267.73.52 1.381.751 1.965a80.995 80.995 0 0 0 1.512-4.216 90.79 90.79 0 0 0 .725-2.318c.231-.774.43-1.494.598-2.17h2.87a69.068 69.068 0 0 1-2.2 6.58 77.28 77.28 0 0 1-2.364 5.434h-2.382Zm7.975-8.727c-.313.797-.471 1.726-.471 2.78 0 .902.122 1.735.362 2.487.245.756.62 1.417 1.128 1.974.507.557 1.15.997 1.929 1.309.783.312 1.702.47 2.758.47.412 0 .82-.022 1.218-.067.398-.045.77-.104 1.114-.172.344-.073.652-.145.919-.231a4.25 4.25 0 0 0 .63-.24l-.368-2.273c-.321.136-.765.267-1.322.39a8.35 8.35 0 0 1-1.847.185c-1.15 0-2.024-.263-2.631-.793-.607-.53-.947-1.277-1.024-2.241h7.925a7.74 7.74 0 0 0 .036-.516c.01-.19.014-.363.014-.517 0-2.033-.462-3.563-1.39-4.591-.929-1.028-2.22-1.54-3.872-1.54-.702 0-1.39.136-2.065.403a5.15 5.15 0 0 0-1.793 1.196c-.521.53-.938 1.19-1.25 1.987Zm7.426.449c.109.343.163.708.163 1.087H61.1c.045-.354.131-.698.254-1.033a2.86 2.86 0 0 1 .516-.896c.222-.259.493-.471.815-.63.321-.158.697-.24 1.127-.24.413 0 .77.073 1.07.217.298.145.547.345.755.598.209.254.363.553.471.897ZM78.167 8.5a8.366 8.366 0 0 0-.952-.24 6.904 6.904 0 0 0-1.413-.127c-.308 0-.63.032-.978.09a5.836 5.836 0 0 0-.724.163v9.623h-2.78V6.571c.534-.2 1.204-.385 2.01-.562.806-.177 1.694-.263 2.676-.263.186 0 .399.014.643.037a10.992 10.992 0 0 1 1.445.226c.23.054.412.104.552.15l-.48 2.34Zm8.16-2.46c-.626-.23-1.4-.343-2.32-.343-.765 0-1.485.058-2.164.185-.675.123-1.186.245-1.54.367l.345 2.25c.335-.122.774-.23 1.308-.32.54-.091 1.128-.137 1.77-.137.476 0 .87.064 1.183.186.312.122.566.294.756.516.19.222.326.48.403.77.077.29.113.598.113.92v.457a8.783 8.783 0 0 0-3.935-.06 4.734 4.734 0 0 0-1.594.644 3.263 3.263 0 0 0-1.091 1.159c-.267.47-.403 1.055-.403 1.743 0 .72.122 1.327.358 1.816.235.494.566.888.987 1.196.42.308.928.53 1.526.665.597.14 1.254.209 1.974.209a19.73 19.73 0 0 0 2.93-.195 37.301 37.301 0 0 0 1.943-.335V10.45c0-.706-.077-1.354-.24-1.942a3.627 3.627 0 0 0-.806-1.504c-.376-.412-.874-.733-1.504-.964Zm-.137 9.877c-.444.09-1.096.136-1.951.136-.702 0-1.264-.127-1.676-.376-.412-.254-.62-.711-.62-1.368 0-.335.077-.615.23-.837.15-.222.354-.394.608-.516.253-.123.538-.209.85-.254.313-.045.621-.068.93-.068a6.273 6.273 0 0 1 1.63.204v3.079Z" clip-rule="evenodd"/>
  <defs>
    <linearGradient id="a" x1="14.406" x2="2.531" y1="10.043" y2="15.043" gradientUnits="userSpaceOnUse">
      <stop stop-color="#6243DC"/>
      <stop offset="1" stop-color="#8B56E8"/>
    </linearGradient>
  </defs>
</svg>
