<svg xmlns="http://www.w3.org/2000/svg" width="20" height="24" fill="none" viewBox="0 0 20 24">
  <path fill="url(#a)" d="M17.303 8.873c-.667-.586-1.488-.935-3.272-.935-2.927 0-6.39 1.021-8.89 2.396-1.299 1.199-3.75 3.75-2.883 4.807-.004 0-.004-.005-.009-.01.74.672 2.115.895 3.281.895 2.683 0 6.31-.98 8.914-2.374 1.294-1.19 3.717-3.717 2.86-4.78Z"/>
  <path fill="#F23F5F" d="M13.237 1.86 12.334 0C6.284 1.27.688 5.01.06 9.418l-.013.108v.005c-.186 1.516.218 3.109 1.393 4.707.005.004.005.009.01.009.036.045.067.095.104.14.009.01.013.018.022.027l.1.128c.01.013.018.022.027.036.041.05.082.104.128.154l.004.005a3.42 3.42 0 0 0 .427.404c-.867-1.062 1.584-3.613 2.877-4.807 1.688-1.457 3.894-2.836 6.35-3.903 1.792-.776 2.587-2.836 1.747-4.57Z"/>
  <path fill="#0095F8" d="M17.73 9.272a2.983 2.983 0 0 0-.427-.4l.005.005c.858 1.062-1.566 3.59-2.86 4.78-1.678 1.457-3.875 2.836-6.321 3.898-1.789.78-2.583 2.841-1.743 4.57L7.29 24c5.946-1.266 11.438-4.91 12.186-9.227 0-.009.005-.014.005-.023v.005c.01-.046.014-.09.023-.136 0-.005 0-.014.004-.018.005-.028.01-.05.01-.078 0-.013.004-.027.004-.045 0-.009 0-.018.004-.027.191-1.666-.326-3.422-1.797-5.179Zm1.752 5.456v.013c-.005-.004 0-.009 0-.013Zm.014-.16c0-.013 0-.026.004-.04 0 .014-.004.027-.004.04Zm-.01.096v-.018c.005.01 0 .014 0 .018Zm.005-.059v-.027c.005.014.005.023 0 .027Z"/>
  <path fill="#6243DC" d="M17.303 8.873c-.667-.586-1.488-.935-3.272-.935-2.927 0-6.39 1.021-8.89 2.396-1.299 1.199-3.75 3.75-2.883 4.807-.004 0-.004-.005-.009-.01.74.672 2.115.895 3.281.895 2.683 0 6.31-.98 8.914-2.374 1.294-1.19 3.717-3.717 2.86-4.78Z"/>
  <path fill="#FF9D00" d="M13.237 1.86 12.334 0C6.284 1.27.688 5.01.06 9.418c.01-.069.023-.132.037-.205-.019.1-.023.132-.032.268-.014.2-.005.445.018.608.236 1.67 2.873 1.398 4.647.481.146-.072.282-.154.414-.236 1.688-1.457 3.894-2.836 6.349-3.903 1.788-.776 2.582-2.836 1.743-4.57Z"/>
  <path fill="#0095F8" d="M19.482 13.92c-.236-1.652-2.787-1.42-4.557-.531a5.255 5.255 0 0 0-.472.263c-.004 0-.004.005-.009.005-1.679 1.457-3.876 2.836-6.322 3.898-1.788.78-2.582 2.841-1.743 4.57L7.287 24c5.946-1.266 11.437-4.91 12.186-9.227a3.268 3.268 0 0 0 .01-.853Z"/>
  <path fill="#F23F5F" d="M5.136 10.339a7.073 7.073 0 0 1-.413.236c-1.775.917-4.407 1.189-4.643-.481a3.289 3.289 0 0 1-.019-.608c.01-.137.014-.168.032-.268-.013.072-.022.136-.036.204l-.014.109v.005c-.186 1.515.218 3.109 1.394 4.706.004.005.004.01.009.01.036.044.068.094.104.14.01.009.014.018.023.027l.1.127.027.037c.04.05.082.104.127.154l.005.004c.127.15.272.273.417.395l.01.01c-.868-1.063 1.583-3.614 2.877-4.807Z"/>
  <path fill="#007ACA" d="M17.73 9.272c-.127-.154-.277-.277-.426-.4l.004.005c.858 1.062-1.566 3.59-2.86 4.78.005 0 .005-.005.01-.005.15-.09.304-.181.472-.263 1.774-.89 4.325-1.117 4.557.53a3.29 3.29 0 0 1-.005.84c.01-.045.014-.09.023-.136 0-.004 0-.013.004-.018.005-.027.01-.05.01-.077 0-.014.004-.027.004-.045 0-.01 0-.019.005-.028.19-1.67-.327-3.426-1.798-5.183Z"/>
  <defs>
    <linearGradient id="a" x1="14.406" x2="2.531" y1="10.043" y2="15.043" gradientUnits="userSpaceOnUse">
      <stop stop-color="#6243DC"/>
      <stop offset="1" stop-color="#8B56E8"/>
    </linearGradient>
  </defs>
</svg>
