<svg xmlns="http://www.w3.org/2000/svg" width="65" height="24" fill="none" viewBox="0 0 65 24">
  <path fill="currentColor" fill-rule="evenodd" d="M10.714 9.278c-.313.797-.471 1.726-.471 2.78 0 .902.122 1.735.367 2.487.244.756.62 1.417 1.127 1.974.508.557 1.15.997 1.93 1.309.783.312 1.702.47 2.757.47.412 0 .82-.022 1.218-.067.399-.045.77-.104 1.114-.172.344-.073.652-.145.92-.231.267-.082.475-.163.629-.24l-.367-2.273c-.321.136-.765.267-1.322.39a8.35 8.35 0 0 1-1.848.185c-1.15 0-2.024-.263-2.63-.793-.607-.53-.947-1.277-1.024-2.241h7.92c.018-.154.027-.326.036-.516.01-.19.014-.363.014-.517 0-2.033-.462-3.563-1.39-4.591-.929-1.028-2.22-1.54-3.872-1.54-.702 0-1.39.136-2.065.403a5.15 5.15 0 0 0-1.793 1.196c-.521.53-.938 1.19-1.25 1.987Zm7.43.449c.11.343.164.708.164 1.087h-5.171c.045-.354.13-.698.253-1.033a2.86 2.86 0 0 1 .516-.896c.222-.259.494-.471.816-.63.321-.158.697-.24 1.127-.24.412 0 .77.073 1.069.217.299.145.548.345.756.598.208.254.362.553.47.897Zm-12.61 6.018c-.336.177-.874.263-1.608.263-.738 0-1.39-.077-1.96-.227a11.902 11.902 0 0 1-1.481-.48L0 17.62c.258.108.71.249 1.354.425.643.172 1.494.263 2.55.263 1.575 0 2.789-.294 3.64-.883s1.277-1.458 1.277-2.608c0-.535-.072-.992-.208-1.377a2.774 2.774 0 0 0-.657-1.023 4.526 4.526 0 0 0-1.136-.806c-.458-.24-1.02-.48-1.676-.725a10.6 10.6 0 0 1-1.01-.403 3.358 3.358 0 0 1-.665-.39 1.106 1.106 0 0 1-.358-.425 1.301 1.301 0 0 1-.104-.53c0-.398.176-.693.53-.883.348-.19.81-.285 1.376-.285.625 0 1.178.059 1.653.172.476.118.865.244 1.173.38l.507-2.25c-.321-.123-.806-.25-1.449-.38a10.086 10.086 0 0 0-2.02-.195c-1.39 0-2.495.317-3.305.95-.81.64-1.218 1.509-1.218 2.61 0 .566.086 1.046.262 1.435.177.394.417.725.725 1.001.308.276.67.516 1.091.725.421.203.883.398 1.39.584.824.308 1.418.593 1.78.851.358.258.539.589.539.987 0 .426-.172.73-.507.906Zm20.807 2.26c-.77-1.576-1.558-3.388-2.364-5.434a69.096 69.096 0 0 1-2.2-6.58h2.966c.167.675.366 1.4.588 2.169.222.774.462 1.549.716 2.319a75.48 75.48 0 0 0 1.535 4.215 81.328 81.328 0 0 0 1.512-4.216c.254-.774.494-1.544.725-2.318.23-.774.43-1.494.598-2.17h2.87a69.096 69.096 0 0 1-2.2 6.58 77.324 77.324 0 0 1-2.364 5.434h-2.382Zm7.974-8.727c-.312.797-.47 1.726-.47 2.78 0 .902.122 1.735.362 2.487.244.756.62 1.417 1.127 1.974.508.557 1.15.997 1.93 1.309.783.312 1.702.47 2.757.47.412 0 .82-.022 1.218-.067.399-.045.77-.104 1.114-.172.344-.073.652-.145.92-.231.267-.082.475-.163.629-.24l-.367-2.273c-.321.136-.765.267-1.322.39a8.35 8.35 0 0 1-1.848.185c-1.15 0-2.024-.263-2.63-.793-.607-.53-.947-1.277-1.024-2.241h7.925c.018-.154.027-.326.036-.516.009-.19.013-.363.013-.517 0-2.033-.462-3.563-1.39-4.591-.928-1.028-2.219-1.54-3.872-1.54-.702 0-1.39.136-2.065.403a5.151 5.151 0 0 0-1.793 1.196c-.52.53-.937 1.19-1.25 1.987Zm7.427.449c.108.343.163.708.163 1.087h-5.171c.045-.354.13-.698.253-1.033a2.86 2.86 0 0 1 .516-.896c.222-.259.494-.471.816-.63.321-.158.697-.24 1.127-.24.412 0 .77.073 1.069.217.299.145.548.345.756.598.208.254.362.553.47.897ZM53.8 8.5a8.366 8.366 0 0 0-.951-.24 6.903 6.903 0 0 0-1.413-.127c-.308 0-.63.032-.978.09a5.91 5.91 0 0 0-.725.163v9.623h-2.78V6.571c.534-.2 1.204-.385 2.01-.562.807-.177 1.694-.263 2.677-.263.185 0 .398.014.643.037a10.966 10.966 0 0 1 1.444.226c.231.054.412.104.553.15l-.48 2.34Zm8.16-2.46c-.625-.23-1.4-.343-2.319-.343-.765 0-1.485.058-2.164.185-.675.123-1.187.245-1.54.367l.344 2.25a7.66 7.66 0 0 1 1.309-.32 10.639 10.639 0 0 1 1.77-.137c.476 0 .87.064 1.182.186.313.122.566.294.757.516.19.222.326.48.403.77.077.29.113.598.113.92v.457a8.788 8.788 0 0 0-3.935-.06 4.734 4.734 0 0 0-1.594.644 3.264 3.264 0 0 0-1.091 1.159c-.268.47-.404 1.055-.404 1.743 0 .72.123 1.327.358 1.816.236.494.566.888.987 1.196.422.308.929.53 1.526.665a8.66 8.66 0 0 0 1.975.209 19.73 19.73 0 0 0 2.93-.195 37.293 37.293 0 0 0 1.942-.335V10.45c0-.706-.077-1.354-.24-1.942a3.628 3.628 0 0 0-.806-1.504c-.376-.412-.874-.733-1.503-.964Zm-.136 9.877c-.444.09-1.096.136-1.952.136-.702 0-1.263-.127-1.675-.376-.412-.254-.62-.711-.62-1.368 0-.335.076-.615.23-.837a1.5 1.5 0 0 1 .607-.516c.254-.123.539-.209.851-.254.313-.045.62-.068.929-.068a6.274 6.274 0 0 1 1.63.204v3.079Z" clip-rule="evenodd"/>
</svg>
