<svg width="24" height="24" fill="currentColor" viewBox="0 0 24 24">
  <path d="M11.69 16.06h.845v-.812a2.08 2.08 0 0 0 1.223-.584c.333-.327.5-.738.5-1.234 0-.433-.163-.802-.488-1.105a4.267 4.267 0 0 0-1.21-.773v-1.7c.15.046.276.123.377.232.1.108.175.24.225.395l1.008-.429a1.736 1.736 0 0 0-.618-.855 2.522 2.522 0 0 0-.992-.443V7.94h-.87v.787c-.486.046-.895.219-1.226.519-.331.3-.497.69-.497 1.174 0 .442.166.817.498 1.125.332.308.74.572 1.225.79v1.85a1.454 1.454 0 0 1-.603-.404 1.627 1.627 0 0 1-.357-.649l-.989.417c.142.47.381.857.718 1.159.338.302.748.49 1.231.565v.787Zm.87-1.894v-1.458c.163.071.306.16.428.267.121.106.182.26.182.462 0 .227-.058.39-.173.49-.115.101-.261.18-.437.24Zm-.87-2.993a2.24 2.24 0 0 1-.443-.273c-.128-.102-.192-.252-.192-.45 0-.197.065-.346.195-.447a1 1 0 0 1 .44-.194v1.364ZM8 19.197c-2.006 0-3.707-.698-5.103-2.094S.803 14.006.803 12 1.5 8.293 2.897 6.897 5.994 4.803 8 4.803h8c2.006 0 3.707.698 5.103 2.094S23.197 9.994 23.197 12s-.698 3.707-2.094 5.103-3.097 2.094-5.103 2.094H8Z"/>
</svg>
