<svg width="24" height="24" fill="currentColor" viewBox="0 0 24 24">
  <path d="M11.798 15.952h.629v-.79a2.094 2.094 0 0 0 1.187-.564c.325-.31.488-.71.488-1.2 0-.425-.167-.78-.5-1.066a4.367 4.367 0 0 0-1.15-.703V9.692c.18.044.331.126.456.245.124.12.214.26.27.42l.805-.336a1.686 1.686 0 0 0-.601-.786 2.288 2.288 0 0 0-.93-.397v-.79h-.654v.775a2.087 2.087 0 0 0-1.187.498c-.325.283-.488.66-.488 1.13 0 .436.17.803.513 1.101.341.298.729.537 1.162.72v2.041a1.48 1.48 0 0 1-.728-.4 1.57 1.57 0 0 1-.399-.696l-.788.337c.133.444.366.809.7 1.095a2.32 2.32 0 0 0 1.215.528v.775Zm.654-1.654v-1.775c.208.095.393.21.554.343.162.133.242.32.242.563 0 .277-.075.476-.224.597-.15.121-.34.212-.572.272Zm-.654-2.946a3.09 3.09 0 0 1-.562-.343.664.664 0 0 1-.26-.559c0-.25.085-.433.255-.549.169-.116.358-.19.567-.224v1.675ZM8 18.5c-1.81 0-3.347-.63-4.608-1.892-1.261-1.26-1.892-2.796-1.892-4.606s.63-3.347 1.892-4.609C4.653 6.131 6.189 5.5 8 5.5h8c1.81 0 3.347.63 4.608 1.891 1.261 1.261 1.892 2.797 1.892 4.607s-.63 3.347-1.892 4.609C19.347 17.869 17.811 18.5 16 18.5H8ZM8 17h8c1.383 0 2.563-.488 3.538-1.463C20.512 14.563 21 13.383 21 12s-.488-2.563-1.462-3.538C18.562 7.487 17.383 7 16 7H8c-1.383 0-2.563.487-3.538 1.462C3.487 9.437 3 10.617 3 12s.487 2.563 1.462 3.537C5.437 16.512 6.617 17 8 17Z"/>
</svg>
