<svg width="24" height="24" fill="currentColor" viewBox="0 0 24 24">
  <path d="M15.25 19.23v-1.48h-2.192c-.499 0-.925-.177-1.278-.53a1.742 1.742 0 0 1-.53-1.278V7.75h-2.5v1.48c0 .423-.148.781-.443 1.077a1.465 1.465 0 0 1-1.076.443H3.769c-.422 0-.78-.148-1.076-.443A1.465 1.465 0 0 1 2.25 9.23V4.769c0-.422.148-.78.443-1.076A1.465 1.465 0 0 1 3.77 3.25h3.462c.422 0 .78.148 1.076.443.295.296.443.654.443 1.076V6.25h6.5V4.77c0-.423.148-.781.443-1.077a1.465 1.465 0 0 1 1.076-.443h3.462c.422 0 .78.148 1.076.443.295.296.443.654.443 1.076v4.462c0 .422-.148.78-.443 1.076a1.465 1.465 0 0 1-1.076.443H16.77c-.422 0-.78-.148-1.076-.443a1.465 1.465 0 0 1-.443-1.076V7.75h-2.5v8.192a.3.3 0 0 0 .086.221.3.3 0 0 0 .222.087h2.192v-1.48c0-.423.148-.781.443-1.077a1.465 1.465 0 0 1 1.076-.443h3.462c.422 0 .78.148 1.076.443.295.296.443.654.443 1.076v4.462c0 .422-.148.78-.443 1.076a1.465 1.465 0 0 1-1.076.443H16.77c-.422 0-.78-.148-1.076-.443a1.465 1.465 0 0 1-.443-1.076Zm1.5-9.98h3.5v-4.5h-3.5v4.5Zm0 10h3.5v-4.5h-3.5v4.5Zm-13-10h3.5v-4.5h-3.5v4.5Z"/>
</svg>
