<svg width="24" height="24" fill="currentColor" viewBox="0 0 24 24">
  <path d="M5.88 17.01a10.414 10.414 0 0 1 2.838-1.513 9.807 9.807 0 0 1 3.282-.55 9.73 9.73 0 0 1 3.29.559c1.049.373 1.992.876 2.83 1.51a7.922 7.922 0 0 0 1.332-2.298c.317-.844.476-1.75.476-2.718 0-2.193-.773-4.062-2.32-5.609-1.546-1.546-3.415-2.32-5.608-2.32-2.193 0-4.063.774-5.609 2.32-1.546 1.547-2.32 3.416-2.32 5.61a7.7 7.7 0 0 0 .473 2.711 7.8 7.8 0 0 0 1.336 2.299ZM12 13.055c-1 0-1.84-.34-2.524-1.021-.683-.681-1.024-1.522-1.024-2.52 0-1 .341-1.841 1.024-2.524S11 5.964 12 5.964s1.84.342 2.523 1.025c.683.683 1.025 1.524 1.025 2.523 0 1-.342 1.84-1.025 2.52-.683.681-1.524 1.022-2.523 1.022Zm0 9.15a9.939 9.939 0 0 1-3.978-.803 10.301 10.301 0 0 1-3.24-2.182 10.3 10.3 0 0 1-2.183-3.241A9.937 9.937 0 0 1 1.797 12a9.94 9.94 0 0 1 .802-3.978 10.302 10.302 0 0 1 2.182-3.24c.92-.92 2-1.648 3.241-2.183A9.938 9.938 0 0 1 12 1.797c1.411 0 2.737.267 3.977.802a10.3 10.3 0 0 1 3.241 2.183c.92.92 1.648 2 2.183 3.24A9.937 9.937 0 0 1 22.203 12a9.937 9.937 0 0 1-.802 3.978 10.302 10.302 0 0 1-2.183 3.24c-.92.92-2 1.648-3.24 2.183a9.938 9.938 0 0 1-3.978.802Z"/>
</svg>
