<svg width="24" height="24" fill="currentColor" viewBox="0 0 24 24">
  <path d="M10.952 13.048V16c0 .297.1.546.302.747.2.2.45.301.746.301.297 0 .546-.1.747-.301.2-.201.301-.45.301-.747v-2.952H16c.297 0 .546-.1.747-.301.2-.201.301-.45.301-.747s-.1-.546-.301-.746a1.015 1.015 0 0 0-.747-.302h-2.952V8c0-.297-.1-.546-.301-.746-.201-.201-.45-.302-.747-.302s-.546.1-.746.302c-.201.2-.302.45-.302.746v2.952H8c-.297 0-.546.1-.746.302-.201.2-.302.45-.302.746 0 .297.1.546.302.747.2.2.45.301.746.301h2.952ZM12 22.203a9.946 9.946 0 0 1-3.983-.802 10.297 10.297 0 0 1-3.238-2.18 10.298 10.298 0 0 1-2.18-3.237A9.946 9.946 0 0 1 1.798 12c0-1.415.268-2.743.803-3.983a10.297 10.297 0 0 1 2.18-3.238A10.297 10.297 0 0 1 8.016 2.6 9.946 9.946 0 0 1 12 1.798c1.415 0 2.743.268 3.984.803 1.24.535 2.32 1.262 3.237 2.18a10.297 10.297 0 0 1 2.18 3.237A9.946 9.946 0 0 1 22.203 12a9.946 9.946 0 0 1-.802 3.984 10.298 10.298 0 0 1-2.18 3.237 10.298 10.298 0 0 1-3.237 2.18 9.946 9.946 0 0 1-3.984.802Z"/>
</svg>
