<svg width="24" height="24" fill="currentColor" viewBox="0 0 24 24">
  <path d="M21.203 16.054 13.428 9.99a2.2 2.2 0 0 0-1.715-.466 2.17 2.17 0 0 0-1.523.925l-1.9 2.61c-.19.265-.442.421-.757.469a1.08 1.08 0 0 1-.864-.24l-3.872-3.034v-1.38c0-.473.208-.814.625-1.023.416-.21.815-.173 1.196.109l2.334 1.752 3.614-5.048c.381-.53.894-.842 1.538-.936a2.148 2.148 0 0 1 1.731.482l3.237 2.586h1.856c.63 0 1.167.222 1.61.665.444.444.665.98.665 1.61v6.982Zm-18.406 4.15v-7.455l3.339 2.664c.51.415 1.083.576 1.719.485a2.196 2.196 0 0 0 1.526-.933l1.923-2.628c.191-.265.443-.422.756-.47.313-.047.6.033.86.24l8.283 6.472v1.624H2.797Z"/>
</svg>
