<svg width="24" height="24" fill="currentColor" viewBox="0 0 24 24">
  <path d="M10.86 16.086V5.174c0-.32.11-.589.33-.809.22-.22.489-.329.808-.329.32 0 .589.11.808.33.22.22.33.488.33.808v10.912l4.666-4.667c.228-.228.496-.339.802-.333.307.007.574.124.802.352.21.228.32.495.326.801.006.307-.104.574-.332.802l-6.6 6.6a1.052 1.052 0 0 1-.373.245c-.137.052-.28.078-.429.078-.15 0-.292-.026-.429-.078a1.053 1.053 0 0 1-.373-.245l-6.605-6.606a1.074 1.074 0 0 1-.323-.79 1.138 1.138 0 0 1 1.134-1.15c.312 0 .583.115.81.343l4.649 4.648Z"/>
</svg>
