<svg width="24" height="24" fill="currentColor" viewBox="0 0 24 24">
  <path d="M3.25 17.75a.725.725 0 0 1-.535-.216A.726.726 0 0 1 2.5 17V7c0-.213.072-.39.216-.534a.726.726 0 0 1 .534-.216c.213 0 .391.072.535.216A.726.726 0 0 1 4 7v10c0 .212-.072.39-.216.534a.726.726 0 0 1-.534.216Zm5.806-5 3.307 3.308a.747.747 0 0 1 .228.534.699.699 0 0 1-.228.535.751.751 0 0 1-.53.208.699.699 0 0 1-.514-.208l-4.494-4.494a.827.827 0 0 1-.198-.298.968.968 0 0 1-.058-.336.829.829 0 0 1 .256-.631l4.485-4.495a.7.7 0 0 1 .52-.208.71.71 0 0 1 .522.206c.15.15.224.327.222.532a.708.708 0 0 1-.21.514l-3.3 3.333H20.75c.212 0 .39.072.534.216A.726.726 0 0 1 21.5 12a.726.726 0 0 1-.216.535.726.726 0 0 1-.534.215H9.056Z"/>
</svg>
