<svg width="24" height="24" fill="currentColor" viewBox="0 0 24 24">
  <path d="m11.25 11.32-1.333 1.333a.702.702 0 0 1-.517.208.71.71 0 0 1-.725-.731.7.7 0 0 1 .208-.521l2.494-2.494a.867.867 0 0 1 .633-.271c.24 0 .451.09.632.27l2.495 2.495a.7.7 0 0 1 .207.52.71.71 0 0 1-.731.732.7.7 0 0 1-.52-.208L12.76 11.32v3.806c0 .213-.072.39-.216.535a.726.726 0 0 1-.535.215.741.741 0 0 1-.539-.215.718.718 0 0 1-.22-.535V11.32Zm.752-8.646c-1.314 0-2.55.25-3.705.748a9.596 9.596 0 0 0-3.018 2.03 9.592 9.592 0 0 0-2.03 3.016 9.245 9.245 0 0 0-.749 3.705c0 1.314.25 2.549.748 3.705a9.597 9.597 0 0 0 2.03 3.017 9.592 9.592 0 0 0 3.016 2.031 9.245 9.245 0 0 0 3.704.748c1.314 0 2.55-.249 3.705-.748a9.598 9.598 0 0 0 3.018-2.03 9.592 9.592 0 0 0 2.03-3.016 9.245 9.245 0 0 0 .749-3.704c0-1.314-.25-2.549-.748-3.705a9.598 9.598 0 0 0-2.03-3.017 9.591 9.591 0 0 0-3.016-2.031 9.245 9.245 0 0 0-3.704-.749ZM12 4.174c2.233 0 4.125.775 5.675 2.325C19.225 8.05 20 9.941 20 12.174c0 2.234-.775 4.125-2.325 5.675-1.55 1.55-3.442 2.325-5.675 2.325-2.233 0-4.125-.775-5.675-2.325C4.775 16.3 4 14.408 4 12.174 4 9.941 4.775 8.05 6.325 6.5 7.875 4.95 9.767 4.174 12 4.174Z"/>
</svg>
