<svg width="24" height="24" fill="currentColor" viewBox="0 0 24 24">
  <path d="m12.11 13.312.757.756c.21.212.316.477.316.796a1.089 1.089 0 0 1-1.11 1.119c-.316 0-.583-.108-.798-.323l-2.69-2.69a1.097 1.097 0 0 1-.335-.795 1.1 1.1 0 0 1 .336-.796l2.69-2.69c.21-.215.476-.323.795-.323a1.089 1.089 0 0 1 1.113 1.118c0 .32-.106.585-.318.796l-.756.757h2.96c.32 0 .59.11.809.33.22.219.33.488.33.807 0 .32-.11.589-.33.809-.22.22-.489.329-.808.329H12.11ZM1.796 12.174c0 1.416.267 2.744.803 3.984a10.295 10.295 0 0 0 2.18 3.237 10.296 10.296 0 0 0 3.236 2.18 9.946 9.946 0 0 0 3.984.803 9.946 9.946 0 0 0 3.984-.803 10.295 10.295 0 0 0 3.237-2.18 10.295 10.295 0 0 0 2.18-3.237 9.946 9.946 0 0 0 .802-3.984 9.946 9.946 0 0 0-.803-3.983 10.296 10.296 0 0 0-2.179-3.237 10.295 10.295 0 0 0-3.237-2.18 9.946 9.946 0 0 0-3.984-.803 9.946 9.946 0 0 0-3.984.803 10.297 10.297 0 0 0-3.237 2.18 10.297 10.297 0 0 0-2.18 3.237 9.946 9.946 0 0 0-.802 3.983Z"/>
</svg>
