<svg width="24" height="24" fill="currentColor" viewBox="0 0 24 24">
  <path d="m10.862 12.285-.757.757a1.08 1.08 0 0 1-.796.317 1.09 1.09 0 0 1-1.118-1.11c0-.317.108-.583.323-.799l2.69-2.69a1.1 1.1 0 0 1 .795-.335 1.1 1.1 0 0 1 .796.336l2.69 2.69c.215.21.322.476.322.795a1.09 1.09 0 0 1-1.118 1.113 1.08 1.08 0 0 1-.796-.317l-.756-.757v2.961c0 .32-.11.589-.33.808-.22.22-.489.33-.808.33-.32 0-.588-.11-.808-.33-.22-.22-.33-.489-.33-.808v-2.96Zm1.137-10.314a9.946 9.946 0 0 0-3.984.803 10.297 10.297 0 0 0-3.237 2.18 10.297 10.297 0 0 0-2.18 3.237 9.946 9.946 0 0 0-.802 3.983c0 1.416.267 2.744.803 3.984a10.295 10.295 0 0 0 2.18 3.237 10.296 10.296 0 0 0 3.236 2.18 9.946 9.946 0 0 0 3.984.803 9.946 9.946 0 0 0 3.984-.803 10.295 10.295 0 0 0 3.237-2.18 10.295 10.295 0 0 0 2.18-3.237 9.946 9.946 0 0 0 .802-3.984 9.946 9.946 0 0 0-.803-3.983 10.296 10.296 0 0 0-2.179-3.237 10.295 10.295 0 0 0-3.237-2.18 9.946 9.946 0 0 0-3.984-.803Z"/>
</svg>
