<svg width="24" height="24" fill="currentColor" viewBox="0 0 24 24">
  <path d="M10.862 8.154 6.196 12.82a1.065 1.065 0 0 1-.802.332 1.132 1.132 0 0 1-.802-.351A1.18 1.18 0 0 1 4.266 12a1.065 1.065 0 0 1 .332-.802l6.6-6.6a1.05 1.05 0 0 1 .373-.245A1.2 1.2 0 0 1 12 4.275c.15 0 .292.026.429.078.136.052.26.133.373.245l6.605 6.606c.216.215.323.479.323.79a1.138 1.138 0 0 1-1.134 1.15c-.313 0-.583-.114-.81-.342l-4.649-4.648v10.912c0 .319-.11.588-.329.808a1.1 1.1 0 0 1-.808.33 1.1 1.1 0 0 1-.808-.33 1.1 1.1 0 0 1-.33-.808V8.154Z"/>
</svg>
