<svg width="24" height="24" fill="currentColor" viewBox="0 0 24 24">
  <path d="m10.963 19.294-6.5-6.5a1.057 1.057 0 0 1-.25-.375 1.2 1.2 0 0 1-.075-.425c0-.15.025-.291.075-.425.05-.133.133-.258.25-.375l6.5-6.5c.216-.2.479-.304.788-.313.308-.008.578.097.812.313.233.217.354.484.363.8.008.317-.105.584-.338.8l-4.55 4.55h10.675c.316 0 .587.113.813.338.224.225.337.496.337.812 0 .317-.113.588-.337.812a1.108 1.108 0 0 1-.813.338H8.038l4.55 4.55c.216.2.329.463.338.788.008.325-.105.596-.338.812a1.087 1.087 0 0 1-.8.325 1.17 1.17 0 0 1-.825-.325Z"/>
</svg>
