<svg width="24" height="24" fill="currentColor" viewBox="0 0 24 24">
  <path d="M2.934 18.137c-.319 0-.588-.11-.808-.329-.22-.22-.33-.489-.33-.808V7c0-.32.11-.589.33-.808.22-.22.49-.33.808-.33.32 0 .589.11.808.33.22.22.33.489.33.808v10c0 .32-.11.589-.33.808-.22.22-.489.33-.808.33Zm7.483-5 2.648 2.642c.228.228.34.499.339.811a1.12 1.12 0 0 1-.345.812 1.138 1.138 0 0 1-.808.313 1.074 1.074 0 0 1-.784-.32l-4.594-4.593a1.05 1.05 0 0 1-.245-.373A1.202 1.202 0 0 1 6.551 12c0-.15.025-.292.077-.429a1.05 1.05 0 0 1 .245-.373l4.594-4.594a1.08 1.08 0 0 1 .796-.316c.32 0 .585.105.796.316.224.224.332.493.326.806a1.101 1.101 0 0 1-.326.786l-2.642 2.667h10.649c.319 0 .588.11.808.329.22.22.33.489.33.808 0 .32-.11.589-.33.808-.22.22-.489.33-.808.33h-10.65Z"/>
</svg>
