<svg width="24" height="24" fill="currentColor" viewBox="0 0 24 24">
  <path d="m11.888 13.312-.756.757a1.079 1.079 0 0 0-.317.795 1.09 1.09 0 0 0 1.11 1.119c.317 0 .583-.108.798-.323l2.69-2.69c.224-.227.336-.492.336-.795a1.1 1.1 0 0 0-.336-.796l-2.69-2.69a1.068 1.068 0 0 0-.796-.323 1.09 1.09 0 0 0-1.113 1.118c0 .32.107.585.318.796l.756.757h-2.96c-.32 0-.59.11-.809.33-.22.219-.33.488-.33.807 0 .32.11.59.33.809.22.22.49.329.808.329h2.961Zm10.314-1.137a9.946 9.946 0 0 1-.803 3.983 10.297 10.297 0 0 1-2.179 3.237 10.296 10.296 0 0 1-3.237 2.18 9.946 9.946 0 0 1-3.984.803 9.946 9.946 0 0 1-3.984-.803 10.297 10.297 0 0 1-3.237-2.18 10.298 10.298 0 0 1-2.18-3.237 9.946 9.946 0 0 1-.802-3.984 9.93 9.93 0 0 1 .803-3.983 10.297 10.297 0 0 1 2.18-3.237 10.297 10.297 0 0 1 3.236-2.18A9.946 9.946 0 0 1 12 1.971c1.415 0 2.743.268 3.984.803 1.24.535 2.32 1.262 3.237 2.18A10.296 10.296 0 0 1 21.4 8.19a9.946 9.946 0 0 1 .802 3.983Z"/>
</svg>
