<svg width="24" height="24" fill="currentColor" viewBox="0 0 24 24">
  <path d="M11.203 4.501a.775.775 0 0 0 .798-.798.775.775 0 0 0-.798-.798.775.775 0 0 0-.797.798.775.775 0 0 0 .797.798Zm5.928 18.816c-1.383 0-2.562-.488-3.537-1.463-.975-.975-1.462-2.154-1.462-3.537 0-1.384.487-2.563 1.462-3.538.975-.975 2.154-1.462 3.537-1.462 1.384 0 2.563.487 3.538 1.462.975.975 1.462 2.154 1.462 3.538 0 1.383-.487 2.562-1.462 3.537-.975.975-2.154 1.463-3.538 1.463Zm-12.856-1.91a2.19 2.19 0 0 1-1.607-.669A2.19 2.19 0 0 1 2 19.131V5.275c0-.626.223-1.161.668-1.607A2.19 2.19 0 0 1 4.275 3h4.003a3.15 3.15 0 0 1 1.159-1.456A3.05 3.05 0 0 1 11.203 1c.65 0 1.238.181 1.767.544A3.15 3.15 0 0 1 14.129 3h4.002a2.19 2.19 0 0 1 1.607.668c.446.446.669.981.669 1.607v5.432a.888.888 0 0 1-.432.793.993.993 0 0 1-.923.097 6.06 6.06 0 0 0-.934-.206 7.067 7.067 0 0 0-.986-.068c-.184 0-.355.004-.513.012-.158.009-.32.03-.488.063a2.998 2.998 0 0 0-.3-.11 11.067 11.067 0 0 0-.312-.054 2.414 2.414 0 0 0-.387-.03H7.275a.968.968 0 0 0-.713.287.967.967 0 0 0-.287.712.97.97 0 0 0 .287.713c.192.191.43.287.713.287h5.113a6.64 6.64 0 0 0-.819.89 6.934 6.934 0 0 0-.655 1.039H7.275a.967.967 0 0 0-.713.287.968.968 0 0 0-.287.712.97.97 0 0 0 .287.713c.192.192.43.287.713.287h2.967a3.796 3.796 0 0 0-.089.58 8.443 8.443 0 0 0 .024 1.51c.031.288.085.567.162.837.087.331.036.639-.152.923-.189.284-.447.425-.774.425H4.275Zm12.267-2.5v1.91c0 .157.059.295.177.413a.565.565 0 0 0 .412.177.565.565 0 0 0 .413-.177.565.565 0 0 0 .177-.413v-1.91h1.91a.565.565 0 0 0 .413-.177.566.566 0 0 0 0-.826.566.566 0 0 0-.413-.177h-1.91v-1.91a.566.566 0 0 0-.177-.413.566.566 0 0 0-.413-.177.566.566 0 0 0-.412.177.566.566 0 0 0-.177.413v1.91h-1.91a.566.566 0 0 0-.413.177.566.566 0 0 0 0 .826.565.565 0 0 0 .413.177h1.91ZM7.275 9.275h7.857a.97.97 0 0 0 .712-.287.967.967 0 0 0 .287-.713.967.967 0 0 0-.287-.713.968.968 0 0 0-.712-.287H7.275a.968.968 0 0 0-.713.287.968.968 0 0 0-.287.713c0 .283.096.52.287.713.192.191.43.287.713.287Z"/>
</svg>
