<svg width="24" height="24" fill="currentColor" viewBox="0 0 24 24">
  <path d="M11.5 22.227c-1.598 0-2.951-.555-4.062-1.666-1.11-1.11-1.666-2.464-1.666-4.06V5.91c0-1.152.41-2.137 1.226-2.956.817-.82 1.802-1.23 2.953-1.23 1.151 0 2.137.41 2.956 1.23.82.82 1.23 1.804 1.23 2.955v9.542c0 .736-.255 1.36-.767 1.87a2.545 2.545 0 0 1-1.87.768c-.736 0-1.36-.256-1.871-.767a2.545 2.545 0 0 1-.767-1.87V6.75c0-.242.08-.443.243-.602a.827.827 0 0 1 .603-.238.817.817 0 0 1 .84.84v8.702a.93.93 0 0 0 .273.683.918.918 0 0 0 .679.275c.27 0 .496-.091.678-.275a.93.93 0 0 0 .274-.683V5.91c0-.7-.242-1.291-.725-1.775-.484-.483-1.075-.725-1.775-.725s-1.292.242-1.775.725c-.484.484-.725 1.075-.725 1.775V16.5c0 1.116.395 2.07 1.187 2.861.791.791 1.745 1.187 2.86 1.187 1.117 0 2.07-.396 2.861-1.187.792-.791 1.188-1.745 1.188-2.86V6.75a.82.82 0 0 1 .237-.603.816.816 0 0 1 .602-.238c.243 0 .443.08.602.238.159.159.238.36.238.602v9.75c0 1.597-.556 2.95-1.666 4.061-1.111 1.11-2.465 1.666-4.062 1.666Z"/>
</svg>
