<svg width="24" height="24" fill="currentColor" viewBox="0 0 24 24">
  <path d="M6.5 17.86a.725.725 0 0 1-.534-.215.726.726 0 0 1-.216-.534v-6.026a.69.69 0 0 1 .216-.517.74.74 0 0 1 .535-.207c.212 0 .39.071.534.215a.726.726 0 0 1 .215.534v6.026a.689.689 0 0 1-.215.517.741.741 0 0 1-.535.207Zm5.5 0a.725.725 0 0 1-.534-.215.726.726 0 0 1-.216-.534v-6.026a.69.69 0 0 1 .216-.517.74.74 0 0 1 .535-.207c.212 0 .39.071.534.215a.727.727 0 0 1 .215.534v6.026a.689.689 0 0 1-.216.517.74.74 0 0 1-.534.207Zm-8.505 3.5a.689.689 0 0 1-.518-.215.74.74 0 0 1-.207-.535c0-.212.071-.39.215-.534a.726.726 0 0 1 .535-.216h16.986c.206 0 .379.072.517.216a.741.741 0 0 1 .208.535c0 .212-.072.39-.216.534a.726.726 0 0 1-.534.215H3.495Zm14.005-3.5a.725.725 0 0 1-.534-.215.726.726 0 0 1-.216-.534v-6.026a.69.69 0 0 1 .216-.517.74.74 0 0 1 .535-.207c.212 0 .39.071.534.215a.726.726 0 0 1 .215.534v6.026a.689.689 0 0 1-.215.517.74.74 0 0 1-.535.207ZM12.794 2.81l7.945 3.874c.158.083.28.198.364.346a.988.988 0 0 1 .128.502.787.787 0 0 1-.247.59.836.836 0 0 1-.603.239H3.625a.853.853 0 0 1-.599-.239.773.773 0 0 1-.256-.59.99.99 0 0 1 .124-.5.775.775 0 0 1 .377-.333l7.935-3.888c.25-.115.514-.172.793-.172s.544.057.795.172ZM6.316 6.86h11.369L12 4.11 6.316 6.86Z"/>
</svg>
