<svg width="24" height="24" fill="currentColor" viewBox="0 0 24 24">
  <path d="M4.5 16.904c0-.256.087-.47.26-.644a.874.874 0 0 1 .644-.26H9.5c.256 0 .47.087.644.26.173.173.26.388.26.644v1.692c0 .256-.087.47-.26.644a.875.875 0 0 1-.644.26H5.404a.874.874 0 0 1-.644-.26.874.874 0 0 1-.26-.644v-1.692Zm0-5.75c0-.256.087-.47.26-.644a.874.874 0 0 1 .644-.26h13.192c.256 0 .47.087.644.26.173.173.26.388.26.644v1.692c0 .256-.087.47-.26.644a.875.875 0 0 1-.644.26H5.404a.874.874 0 0 1-.644-.26.875.875 0 0 1-.26-.644v-1.692Zm0-5.75c0-.256.087-.47.26-.644a.874.874 0 0 1 .644-.26h8.284c.26 0 .477.087.65.26a.877.877 0 0 1 .258.644v1.692c0 .256-.087.47-.26.644a.875.875 0 0 1-.644.26H5.408a.879.879 0 0 1-.65-.26.877.877 0 0 1-.258-.644V5.404Z"/>
</svg>
