<svg width="24" height="24" fill="currentColor" viewBox="0 0 24 24">
  <path d="M3.797 17.155c0-.319.11-.588.33-.808.219-.22.488-.33.807-.33h5.012c.32 0 .589.11.808.33.22.22.33.49.33.808v1.91c0 .32-.11.59-.33.809-.22.22-.489.33-.808.33H4.934a1.1 1.1 0 0 1-.808-.33 1.1 1.1 0 0 1-.33-.808v-1.91Zm0-6.107c0-.32.11-.589.33-.808.219-.22.488-.33.807-.33h14.132c.319 0 .588.11.808.33.22.22.33.489.33.808v1.904c0 .32-.11.589-.33.808-.22.22-.489.33-.808.33H4.934c-.319 0-.588-.11-.808-.33-.22-.22-.33-.489-.33-.808v-1.904Zm0-6.114c0-.319.11-.588.33-.808.219-.22.488-.33.807-.33h9.132c.319 0 .588.11.808.33.22.22.33.489.33.808v1.91c0 .32-.11.589-.33.809a1.1 1.1 0 0 1-.808.329H4.934a1.1 1.1 0 0 1-.808-.33 1.1 1.1 0 0 1-.33-.808v-1.91Z"/>
</svg>
