<svg width="24" height="24" fill="currentColor" viewBox="0 0 24 24">
  <path d="M2.934 21.203c-.32 0-.588-.11-.808-.33a1.094 1.094 0 0 1-.33-.807c0-.32.11-.589.33-.808.22-.22.489-.33.808-.33h18.132c.319 0 .588.11.808.33.22.22.33.489.33.808 0 .319-.11.588-.33.808a1.1 1.1 0 0 1-.808.33H2.934Zm1.5-3.394a1.58 1.58 0 0 1-1.16-.478 1.579 1.579 0 0 1-.477-1.16v-3.737c0-.455.159-.841.477-1.16a1.579 1.579 0 0 1 1.16-.477c.455 0 .842.159 1.16.477.318.319.478.705.478 1.16v3.737c0 .455-.16.842-.478 1.16a1.58 1.58 0 0 1-1.16.478Zm5.042 0a1.58 1.58 0 0 1-1.16-.478 1.579 1.579 0 0 1-.478-1.16V7.434c0-.455.16-.841.478-1.16a1.58 1.58 0 0 1 1.16-.477c.455 0 .841.159 1.16.477.318.319.478.705.478 1.16v8.737c0 .455-.16.842-.478 1.16a1.58 1.58 0 0 1-1.16.478Zm5.042 0a1.58 1.58 0 0 1-1.16-.478 1.58 1.58 0 0 1-.478-1.16v-5.737c0-.455.16-.841.478-1.16a1.58 1.58 0 0 1 1.16-.477c.455 0 .841.159 1.16.477.318.319.477.705.477 1.16v5.737c0 .455-.159.842-.477 1.16a1.58 1.58 0 0 1-1.16.478Zm5.048 0a1.58 1.58 0 0 1-1.16-.478 1.579 1.579 0 0 1-.478-1.16V4.434c0-.455.16-.841.478-1.16a1.579 1.579 0 0 1 1.16-.477c.454 0 .841.159 1.16.477.318.319.477.705.477 1.16v11.737c0 .455-.16.842-.477 1.16a1.58 1.58 0 0 1-1.16.478Z"/>
</svg>
