<svg width="24" height="24" fill="currentColor" viewBox="0 0 24 24">
  <path d="M4.5 5.404c0-.256.087-.47.26-.644a.874.874 0 0 1 .644-.26H6.5c.256 0 .47.087.644.26.173.173.26.388.26.644v1.692c0 .256-.087.47-.26.644A.875.875 0 0 1 6.5 8H5.404a.875.875 0 0 1-.644-.26.875.875 0 0 1-.26-.644V5.404Zm3.789 0c0-.256.086-.47.26-.644a.875.875 0 0 1 .643-.26h1.692c.257 0 .471.087.644.26.174.173.26.388.26.644v1.692c0 .256-.086.47-.26.644a.875.875 0 0 1-.644.26H9.192a.875.875 0 0 1-.644-.26.875.875 0 0 1-.26-.644V5.404Zm4.384 0c0-.256.087-.47.26-.644a.874.874 0 0 1 .644-.26h5.019c.256 0 .47.087.644.26.173.173.26.388.26.644v1.692c0 .256-.087.47-.26.644a.875.875 0 0 1-.644.26h-5.019a.875.875 0 0 1-.644-.26.875.875 0 0 1-.26-.644V5.404ZM4.5 11.164c0-.257.087-.471.26-.644a.874.874 0 0 1 .644-.26h5.019c.256 0 .47.086.644.26.173.173.26.387.26.644v1.692c0 .256-.087.47-.26.644a.875.875 0 0 1-.644.26H5.404a.875.875 0 0 1-.644-.26.874.874 0 0 1-.26-.644v-1.692Zm7.711 0c0-.257.087-.471.26-.644a.874.874 0 0 1 .645-.26h1.692c.256 0 .47.086.644.26.173.173.26.387.26.644v1.692c0 .256-.087.47-.26.644a.876.876 0 0 1-.644.26h-1.692a.875.875 0 0 1-.644-.26.874.874 0 0 1-.26-.644v-1.692Zm4.385 0c0-.257.087-.471.26-.644a.874.874 0 0 1 .644-.26h1.096c.256 0 .47.086.644.26.173.173.26.387.26.644v1.692c0 .256-.087.47-.26.644a.875.875 0 0 1-.644.26H17.5a.875.875 0 0 1-.644-.26.874.874 0 0 1-.26-.644v-1.692Zm-9.269 5.74c0-.256.087-.47.26-.644A.875.875 0 0 1 8.23 16h1.692c.256 0 .47.087.644.26.173.173.26.388.26.644v1.692c0 .256-.087.47-.26.644a.874.874 0 0 1-.644.26H8.231a.875.875 0 0 1-.644-.26.875.875 0 0 1-.26-.644v-1.692Zm4.384 0c0-.256.087-.47.26-.644a.875.875 0 0 1 .644-.26h5.981c.256 0 .47.087.644.26.173.173.26.388.26.644v1.692c0 .256-.087.47-.26.644a.874.874 0 0 1-.644.26h-5.98a.874.874 0 0 1-.645-.26.874.874 0 0 1-.26-.644v-1.692Zm-7.211 0c0-.256.087-.47.26-.644a.874.874 0 0 1 .644-.26h.135c.256 0 .47.087.644.26.173.173.26.388.26.644v1.692c0 .256-.087.47-.26.644a.874.874 0 0 1-.644.26h-.135a.874.874 0 0 1-.644-.26.874.874 0 0 1-.26-.644v-1.692Z"/>
</svg>
