<svg width="24" height="24" fill="currentColor" viewBox="0 0 24 24">
  <path d="M3.797 4.934c0-.319.11-.588.33-.808.219-.22.488-.33.807-.33h8.947c.319 0 .588.11.808.33.22.22.33.489.33.808v1.904c0 .32-.11.59-.33.809-.22.22-.49.329-.808.329H4.934a1.1 1.1 0 0 1-.808-.33 1.095 1.095 0 0 1-.33-.808V4.934Zm12.227 0c0-.319.11-.588.33-.808.219-.22.488-.33.808-.33h1.904c.319 0 .588.11.808.33.22.22.33.489.33.808v1.904c0 .32-.11.59-.33.809a1.1 1.1 0 0 1-.808.329h-1.904c-.32 0-.59-.11-.809-.33a1.094 1.094 0 0 1-.329-.808V4.934ZM3.797 11.048c0-.32.11-.589.33-.808.219-.22.488-.33.807-.33h5.917c.319 0 .588.11.808.33.22.22.33.489.33.808v1.904c0 .32-.11.589-.33.808a1.1 1.1 0 0 1-.808.33H4.934c-.319 0-.588-.11-.808-.33-.22-.22-.33-.489-.33-.808v-1.904Zm9.203 0c0-.32.11-.589.33-.808.219-.22.489-.33.808-.33h1.904c.32 0 .589.11.808.33.22.22.33.489.33.808v1.904c0 .32-.11.589-.33.808-.22.22-.489.33-.808.33h-1.904c-.32 0-.589-.11-.809-.33a1.097 1.097 0 0 1-.329-.808v-1.904ZM3.797 17.16c0-.319.11-.588.33-.808.219-.22.488-.33.807-.33H7.84c.319 0 .588.11.808.33.22.22.33.489.33.808v1.905c0 .319-.11.588-.33.808-.22.22-.489.33-.808.33H4.934a1.1 1.1 0 0 1-.808-.33 1.1 1.1 0 0 1-.33-.808V17.16Zm6.185 0c0-.319.11-.588.33-.808.22-.22.489-.33.808-.33h1.904c.32 0 .589.11.808.33.22.22.33.489.33.808v1.905c0 .319-.11.588-.33.808-.22.22-.489.33-.808.33H11.12c-.32 0-.589-.11-.808-.33a1.1 1.1 0 0 1-.33-.808V17.16Z"/>
</svg>
