<svg width="24" height="24" fill="currentColor" viewBox="0 0 24 24">
  <path d="M3.797 4.934c0-.319.11-.588.33-.808.219-.22.488-.33.807-.33h.947c.319 0 .588.11.808.33.22.22.33.489.33.808v1.904c0 .32-.11.59-.33.809-.22.22-.49.329-.808.329h-.947a1.1 1.1 0 0 1-.808-.33 1.095 1.095 0 0 1-.33-.808V4.934Zm4.221 0c0-.319.11-.588.33-.808.219-.22.488-.33.808-.33h1.904c.319 0 .588.11.808.33.22.22.33.489.33.808v1.904c0 .32-.11.59-.33.809a1.1 1.1 0 0 1-.808.329H9.156a1.1 1.1 0 0 1-.809-.33 1.094 1.094 0 0 1-.329-.808V4.934Zm5.18 0c0-.319.11-.588.329-.808.22-.22.489-.33.808-.33h4.73c.32 0 .59.11.81.33a1.1 1.1 0 0 1 .328.808v1.904c0 .32-.11.59-.329.809a1.1 1.1 0 0 1-.808.329h-4.731c-.32 0-.589-.11-.808-.33a1.095 1.095 0 0 1-.33-.808V4.934Zm-9.401 6.114c0-.32.11-.589.33-.808.219-.22.488-.33.807-.33h4.917c.319 0 .588.11.808.33.22.22.33.489.33.808v1.904c0 .32-.11.589-.33.808a1.1 1.1 0 0 1-.808.33H4.934c-.319 0-.588-.11-.808-.33-.22-.22-.33-.489-.33-.808v-1.904Zm8.191 0c0-.32.11-.589.33-.808.22-.22.489-.33.808-.33h1.904c.32 0 .589.11.808.33.22.22.33.489.33.808v1.904c0 .32-.11.589-.33.808-.22.22-.489.33-.808.33h-1.904c-.32 0-.589-.11-.808-.33-.22-.22-.33-.489-.33-.808v-1.904Zm5.18 0c0-.316.118-.567.356-.755.237-.187.498-.315.781-.383h.76c.32 0 .59.11.81.33a1.1 1.1 0 0 1 .328.808v1.904c0 .32-.11.589-.329.808-.22.22-.489.33-.808.33h-.76a2 2 0 0 1-.782-.384.912.912 0 0 1-.356-.754v-1.904ZM6.982 17.16c0-.319.11-.588.33-.808.22-.22.488-.33.808-.33h1.904c.32 0 .589.11.808.33.22.22.33.489.33.808v1.905c0 .319-.11.588-.33.808-.22.22-.489.33-.808.33H8.12c-.32 0-.589-.11-.808-.33a1.1 1.1 0 0 1-.33-.808V17.16Zm5.18 0c0-.319.11-.588.329-.808.22-.22.489-.33.808-.33h5.767c.319 0 .588.11.808.33.22.22.33.489.33.808v1.905c0 .319-.11.588-.33.808a1.1 1.1 0 0 1-.808.33h-5.767c-.32 0-.589-.11-.808-.33a1.1 1.1 0 0 1-.33-.808V17.16Zm-8.365-.09c0-.295.105-.543.314-.745a1.06 1.06 0 0 1 .764-.302c.307 0 .568.099.784.296a.975.975 0 0 1 .323.752v2.083a.975.975 0 0 1-.323.752 1.119 1.119 0 0 1-.784.296c-.3 0-.554-.1-.764-.302a.993.993 0 0 1-.314-.746v-2.083Z"/>
</svg>
