<svg width="24" height="24" fill="currentColor" viewBox="0 0 24 24">
  <path d="M12 22.203a9.905 9.905 0 0 1-3.978-.805 10.343 10.343 0 0 1-3.24-2.186 10.293 10.293 0 0 1-2.183-3.243 9.959 9.959 0 0 1-.802-3.981c0-1.411.267-2.736.802-3.975a10.275 10.275 0 0 1 2.182-3.235c.92-.917 2-1.644 3.241-2.179A9.937 9.937 0 0 1 12 1.797a9.94 9.94 0 0 1 3.978.802c1.24.535 2.32 1.261 3.24 2.18.92.917 1.648 1.996 2.183 3.234a9.915 9.915 0 0 1 .802 3.975 9.958 9.958 0 0 1-.802 3.98 10.292 10.292 0 0 1-2.183 3.244c-.92.92-2 1.649-3.24 2.186a9.905 9.905 0 0 1-3.978.805Zm0-2.275a7.87 7.87 0 0 0 2.516-.407 7.409 7.409 0 0 0 2.228-1.203L5.67 7.249a7.737 7.737 0 0 0-1.598 4.739c0 2.213.769 4.09 2.307 5.63 1.538 1.54 3.411 2.31 5.62 2.31Zm6.336-3.201a7.818 7.818 0 0 0 1.592-4.739c0-2.21-.769-4.081-2.307-5.615C16.083 4.839 14.21 4.072 12 4.072a7.86 7.86 0 0 0-2.501.401 7.71 7.71 0 0 0-2.232 1.18l11.069 11.074Z"/>
</svg>
