<svg width="24" height="24" fill="currentColor" viewBox="0 0 24 24">
  <path d="M6.75 22.203a2.92 2.92 0 0 1-2.084-.825c-.58-.55-.87-1.23-.87-2.04V5.454c0-.701.219-1.325.654-1.87a2.851 2.851 0 0 1 1.7-1.037l7.128-1.41c.705-.149 1.332.004 1.884.46.55.456.826 1.045.826 1.766v11.554a2.27 2.27 0 0 1-.51 1.458c-.34.425-.777.687-1.311.786l-7.588 1.521a.728.728 0 0 0-.402.235.614.614 0 0 0-.165.421c0 .183.074.338.222.463.148.125.32.187.516.187h11.238V4.904c0-.31.107-.573.32-.787a1.07 1.07 0 0 1 .788-.32c.311 0 .573.107.787.32.214.214.32.476.32.787v15.024a2.19 2.19 0 0 1-.665 1.61 2.19 2.19 0 0 1-1.61.665H6.75Zm1.594-6.074c.257-.058.468-.187.634-.386.166-.2.25-.43.25-.69V5.557c0-.353-.134-.64-.402-.859a1.056 1.056 0 0 0-.924-.224 1.1 1.1 0 0 0-.638.386 1.064 1.064 0 0 0-.252.697v9.494c0 .353.135.638.404.856.27.218.58.292.928.22Z"/>
</svg>
