<svg width="24" height="24" fill="currentColor" viewBox="0 0 24 24">
  <path d="M6.865 21.5a2.357 2.357 0 0 1-1.668-.652 2.12 2.12 0 0 1-.697-1.614V5.583c0-.576.186-1.087.559-1.532A2.457 2.457 0 0 1 6.48 3.2l7.163-1.455a1.702 1.702 0 0 1 1.501.357c.442.358.663.825.663 1.4V15.13c0 .432-.136.814-.407 1.148a1.731 1.731 0 0 1-1.03.625l-7.73 1.613a.883.883 0 0 0-.452.257.646.646 0 0 0-.189.46c0 .222.086.405.259.55a.917.917 0 0 0 .606.216h10.827a.3.3 0 0 0 .221-.087.3.3 0 0 0 .087-.22V5.25a.73.73 0 0 1 .215-.535.725.725 0 0 1 .535-.215.73.73 0 0 1 .535.215.725.725 0 0 1 .215.535v14.442c0 .499-.177.925-.53 1.278-.353.353-.78.53-1.278.53H6.866Zm1.827-4.921 5.375-1.11a.306.306 0 0 0 .24-.298V3.53a.3.3 0 0 0-.115-.24.296.296 0 0 0-.26-.068l-5.24 1.071V16.58Zm-1.5.304V4.596l-.404.085a1.015 1.015 0 0 0-.565.314.843.843 0 0 0-.223.588v11.646a2.507 2.507 0 0 1 .64-.227l.552-.12Z"/>
</svg>
