<svg width="24" height="24" fill="currentColor" viewBox="0 0 24 24">
  <path d="M12.038 20.143c-2.257 0-4.184-.785-5.78-2.355-1.597-1.57-2.396-3.477-2.396-5.722v-.181l-.78.78a.98.98 0 0 1-.73.29 1 1 0 0 1-.73-.296.99.99 0 0 1-.293-.73.99.99 0 0 1 .293-.73l2.576-2.582c.228-.228.495-.342.802-.342.306 0 .573.114.801.342L8.377 11.2a.99.99 0 0 1 .293.73.99.99 0 0 1-.293.73.994.994 0 0 1-.732.293.994.994 0 0 1-.733-.293l-.775-.774v.163c0 1.615.574 2.988 1.72 4.121 1.148 1.133 2.541 1.7 4.18 1.7.26 0 .512-.016.758-.048.247-.03.491-.084.733-.16.32-.091.625-.085.917.02.291.103.514.296.667.578.158.295.179.59.065.886a.962.962 0 0 1-.639.593 6.882 6.882 0 0 1-1.234.309c-.42.064-.842.096-1.266.096Zm-.076-14c-.259 0-.511.016-.758.047-.246.032-.49.085-.732.16-.32.092-.628.085-.927-.019a1.196 1.196 0 0 1-.677-.578.978.978 0 0 1-.064-.867.96.96 0 0 1 .62-.594 7.731 7.731 0 0 1 2.539-.424c2.256 0 4.184.785 5.782 2.355 1.599 1.57 2.398 3.478 2.398 5.723v.181l.775-.774a.99.99 0 0 1 .73-.293.99.99 0 0 1 .73.293c.195.195.292.44.292.732a.994.994 0 0 1-.293.733l-2.576 2.577c-.227.227-.494.34-.798.338a1.115 1.115 0 0 1-.799-.338l-2.576-2.583a.994.994 0 0 1-.293-.732c0-.294.098-.538.293-.733a.994.994 0 0 1 .733-.293c.293 0 .537.097.733.293l.774.78v-.163c0-1.615-.574-2.989-1.723-4.121-1.15-1.133-2.544-1.7-4.183-1.7Z"/>
</svg>
