<svg width="24" height="24" fill="currentColor" viewBox="0 0 24 24">
  <path d="M2.934 10.45V5.937a.97.97 0 0 1 .288-.714.965.965 0 0 1 .71-.289h3.315c.284 0 .521.096.713.289.191.192.287.43.287.714v4.513a.972.972 0 0 1-.287.714.966.966 0 0 1-.713.288H3.933a.965.965 0 0 1-.711-.288.972.972 0 0 1-.288-.714Zm7.403 1.002a.966.966 0 0 1-.713-.288.972.972 0 0 1-.287-.714V5.937c0-.284.096-.522.287-.714a.966.966 0 0 1 .713-.289h3.329c.281 0 .518.096.71.289.191.192.287.43.287.714v4.513a.972.972 0 0 1-.287.714.963.963 0 0 1-.71.288h-3.33Zm6.416 0a.966.966 0 0 1-.713-.288.972.972 0 0 1-.287-.714V5.937c0-.284.095-.522.287-.714a.966.966 0 0 1 .713-.289h3.314c.282 0 .52.096.711.289a.97.97 0 0 1 .288.714v4.513a.972.972 0 0 1-.288.714.965.965 0 0 1-.71.288h-3.315Zm-9.506 7.614H3.933a.965.965 0 0 1-.711-.288.972.972 0 0 1-.288-.715v-4.512c0-.284.096-.523.288-.715a.965.965 0 0 1 .71-.288h3.315c.284 0 .521.096.713.288.191.192.287.43.287.715v4.512a.972.972 0 0 1-.287.715.967.967 0 0 1-.713.288Zm3.09 0a.967.967 0 0 1-.713-.288.972.972 0 0 1-.287-.715v-4.512c0-.284.096-.523.287-.715a.966.966 0 0 1 .713-.288h3.329c.281 0 .518.096.71.288.191.192.287.43.287.715v4.512a.972.972 0 0 1-.287.715.963.963 0 0 1-.71.288h-3.33Zm6.416 0a.966.966 0 0 1-.713-.288.972.972 0 0 1-.287-.715v-4.512c0-.284.095-.523.287-.715a.966.966 0 0 1 .713-.288h3.314c.282 0 .52.096.711.288a.97.97 0 0 1 .288.715v4.512a.972.972 0 0 1-.288.715.965.965 0 0 1-.71.288h-3.315Z"/>
</svg>
