<svg width="24" height="24" fill="currentColor" viewBox="0 0 24 24">
  <path d="M4.308 19.5c-.505 0-.933-.175-1.283-.525a1.745 1.745 0 0 1-.525-1.283V6.308c0-.505.175-.933.525-1.283.35-.35.778-.525 1.283-.525h15.384c.505 0 .933.175 1.283.525.35.35.525.778.525 1.283v11.384c0 .505-.175.933-.525 1.283-.35.35-.778.525-1.283.525H4.308ZM12.75 18h2.875V6H12.75v12Zm-4.375 0h2.875V6H8.375v12Zm-4.067 0h2.567V6H4.308a.3.3 0 0 0-.221.087.3.3 0 0 0-.087.22v11.385a.3.3 0 0 0 .087.221.3.3 0 0 0 .22.087Zm12.817 0h2.567a.3.3 0 0 0 .221-.087.3.3 0 0 0 .087-.22V6.307a.3.3 0 0 0-.087-.221.3.3 0 0 0-.22-.087h-2.568v12Z"/>
</svg>
