<svg width="24" height="24" fill="currentColor" viewBox="0 0 24 24">
  <path d="M9.048 16.548c-.7 0-1.292-.242-1.775-.725-.484-.484-.725-1.075-.725-1.775s.241-1.292.725-1.775c.483-.483 1.075-.725 1.775-.725s1.291.242 1.775.725c.483.483.725 1.075.725 1.775s-.242 1.291-.725 1.775a2.416 2.416 0 0 1-1.775.725Zm-3.976 5.655a2.19 2.19 0 0 1-1.61-.665 2.193 2.193 0 0 1-.666-1.61V6.072c0-.63.222-1.167.666-1.61a2.19 2.19 0 0 1 1.61-.665H6v-.929c0-.299.104-.552.311-.76.208-.207.461-.311.76-.311.3 0 .552.104.758.311.205.208.308.461.308.76v.929h7.725v-.929c0-.299.104-.552.312-.76.207-.207.46-.311.76-.311s.552.104.757.311c.206.208.309.461.309.76v.929h.928c.63 0 1.166.221 1.61.665.443.443.665.98.665 1.61v13.856c0 .63-.222 1.167-.665 1.61-.444.444-.98.665-1.61.665H5.072Zm0-2.275h13.856V10H5.072v9.928Z"/>
</svg>
