<svg width="24" height="24" fill="currentColor" viewBox="0 0 24 24">
  <path d="M7.5 18.75V17.5H6.404a.874.874 0 0 1-.644-.26.874.874 0 0 1-.26-.644V7.408c0-.26.087-.477.26-.65a.876.876 0 0 1 .644-.258H7.5V5.25c0-.213.072-.39.216-.534A.726.726 0 0 1 8.25 4.5c.213 0 .391.072.534.216A.725.725 0 0 1 9 5.25V6.5h1.096c.256 0 .47.087.644.26.173.173.26.388.26.644v9.188c0 .26-.087.477-.26.65a.876.876 0 0 1-.644.258H9v1.25c0 .212-.072.39-.216.534a.726.726 0 0 1-.534.216.725.725 0 0 1-.535-.216.726.726 0 0 1-.215-.534ZM7 16h2.5V8H7v8Zm8 2.75v-4.058h-1.096a.875.875 0 0 1-.644-.26.875.875 0 0 1-.26-.643V9.308c0-.256.087-.471.26-.644a.875.875 0 0 1 .644-.26H15V5.25c0-.213.072-.39.216-.534a.726.726 0 0 1 .534-.216c.213 0 .391.072.535.216a.725.725 0 0 1 .215.534v3.154h1.096c.256 0 .47.087.644.26.173.173.26.388.26.644v4.48a.875.875 0 0 1-.26.644.874.874 0 0 1-.644.26H16.5v4.058c0 .212-.072.39-.216.534a.726.726 0 0 1-.534.216.725.725 0 0 1-.534-.216.726.726 0 0 1-.216-.534Zm-.5-5.558H17V9.904h-2.5v3.288Z"/>
</svg>
