<svg width="24" height="24" fill="currentColor" viewBox="0 0 24 24">
  <path d="M7.715 10.696c-.439 0-.768-.194-.988-.581-.22-.388-.213-.772.019-1.153l3.832-6.26c.224-.361.547-.541.97-.541.422 0 .745.18.97.54l3.832 6.26c.232.382.238.766.018 1.154-.22.387-.548.581-.988.581H7.715Zm9.5 11.143c-1.306 0-2.416-.456-3.33-1.369-.916-.913-1.373-2.022-1.373-3.328s.457-2.416 1.372-3.33c.915-.916 2.025-1.373 3.331-1.373s2.415.457 3.328 1.372c.913.915 1.37 2.025 1.37 3.331s-.457 2.415-1.37 3.328c-.913.913-2.022 1.37-3.328 1.37Zm-13.99-.5c-.32 0-.589-.11-.808-.329-.22-.22-.33-.489-.33-.808v-6.126c0-.319.11-.588.33-.808.22-.22.489-.33.808-.33h6.131c.32 0 .589.11.809.33.22.22.329.49.329.808v6.126c0 .32-.11.588-.33.808-.219.22-.488.33-.808.33H3.225Z"/>
</svg>
