<svg width="24" height="24" fill="currentColor" viewBox="0 0 24 24">
  <path fill-rule="evenodd" d="M17.512 19.425c-1.625 1.183-3.454 1.775-5.487 1.775a8.902 8.902 0 0 1-3.575-.725 9.441 9.441 0 0 1-2.925-1.963 9.143 9.143 0 0 1-1.975-2.925A8.988 8.988 0 0 1 2.825 12c0-1.267.242-2.463.725-3.588a9.159 9.159 0 0 1 1.975-2.925A9.452 9.452 0 0 1 8.45 3.525a8.903 8.903 0 0 1 3.575-.725c1.383 0 2.688.287 3.913.862A8.961 8.961 0 0 1 19.075 6.1V4.9c0-.3.1-.55.3-.75.2-.2.45-.3.75-.3s.55.1.75.3c.2.2.3.45.3.75v3.95c0 .333-.108.608-.325.825a1.117 1.117 0 0 1-.825.325H16.05c-.283 0-.53-.1-.738-.3A.998.998 0 0 1 15 8.95c0-.3.104-.55.312-.75.209-.2.455-.3.738-.3h1.55a7.396 7.396 0 0 0-2.475-2.075c-.967-.5-2-.75-3.1-.75-1.933 0-3.571.67-4.913 2.012C5.771 8.43 5.1 10.067 5.1 12c0 1.933.67 3.571 2.012 4.913 1.342 1.341 2.98 2.012 4.913 2.012 1.5 0 2.858-.437 4.075-1.312a6.59 6.59 0 0 0 2.5-3.463c.1-.3.279-.546.537-.738.259-.191.546-.254.863-.187.333.083.579.275.737.575.159.3.188.617.088.95-.583 1.933-1.688 3.492-3.313 4.675Zm-1.987-5.375-2.45-2.45V8.05c0-.3-.1-.55-.3-.75-.2-.2-.45-.3-.75-.3s-.55.1-.75.3c-.2.2-.3.45-.3.75v3.925a1.14 1.14 0 0 0 .35.825l2.725 2.7c.2.2.446.3.738.3.291 0 .537-.1.737-.3.183-.183.275-.421.275-.713a1.05 1.05 0 0 0-.275-.737Z" clip-rule="evenodd"/>
</svg>
