<svg width="24" height="24" fill="currentColor" viewBox="0 0 24 24">
  <path d="m21.25 17.688-1.075-1.05a2.42 2.42 0 0 0 .613-.813c.141-.308.212-.654.212-1.037 0-.7-.242-1.292-.725-1.776-.483-.483-1.075-.725-1.775-.725H17v-2c0-1.383-.487-2.562-1.462-3.538-.975-.974-2.155-1.462-3.538-1.462-.45 0-.883.054-1.3.162-.417.11-.817.28-1.2.513l-1.075-1.1a7.245 7.245 0 0 1 1.738-.813A6.285 6.285 0 0 1 12 3.787c1.817 0 3.354.63 4.613 1.887 1.258 1.26 1.887 2.797 1.887 4.613v.5h.3c1.067.084 1.95.509 2.65 1.275.7.767 1.05 1.676 1.05 2.726a4.06 4.06 0 0 1-.312 1.575c-.209.5-.521.941-.938 1.325Zm-1.65 3.3-2.225-2.2H6.5c-1.4 0-2.583-.484-3.55-1.45-.967-.967-1.45-2.15-1.45-3.55 0-1.25.404-2.338 1.213-3.263.808-.925 1.795-1.47 2.962-1.638.033-.2.092-.42.175-.662.083-.242.183-.47.3-.688l-3.5-3.475a.782.782 0 0 1-.2-.538c0-.208.067-.387.2-.537.15-.133.33-.2.538-.2.208 0 .379.067.512.2l16.95 16.95a.755.755 0 0 1 .213.525.635.635 0 0 1-.213.526.72.72 0 0 1-.525.224.72.72 0 0 1-.525-.224Zm-13.1-3.7h9.35L7.3 8.712a3.59 3.59 0 0 0-.225.75c-.05.267-.075.542-.075.825h-.5c-.967 0-1.792.342-2.475 1.025A3.372 3.372 0 0 0 3 13.788c0 .966.342 1.791 1.025 2.474A3.372 3.372 0 0 0 6.5 17.288Z"/>
</svg>
