<svg width="24" height="24" fill="currentColor" viewBox="0 0 24 24">
  <path d="M5.404 19.5a.874.874 0 0 1-.644-.26.874.874 0 0 1-.26-.644V9.789c0-.257.087-.471.26-.644a.874.874 0 0 1 .644-.26h1.692c.256 0 .47.086.644.26.173.173.26.387.26.644v8.807c0 .256-.087.47-.26.644a.875.875 0 0 1-.644.26H5.404Zm0-11.5a.875.875 0 0 1-.644-.26.875.875 0 0 1-.26-.644V5.404c0-.256.087-.47.26-.644a.874.874 0 0 1 .644-.26h1.692c.256 0 .47.087.644.26.173.173.26.388.26.644v1.692c0 .256-.087.47-.26.644a.875.875 0 0 1-.644.26H5.404Zm5.76 11.5a.874.874 0 0 1-.644-.26.874.874 0 0 1-.26-.644l-.01-5.923c0-.256.087-.47.26-.644a.875.875 0 0 1 .644-.26h1.692c.256 0 .47.087.644.26.173.173.26.388.26.644v5.923c0 .256-.087.47-.26.644a.875.875 0 0 1-.644.26h-1.682Zm-.01-8.616a.875.875 0 0 1-.644-.26.874.874 0 0 1-.26-.643V8.289c0-.257.087-.471.26-.644a.875.875 0 0 1 .644-.26h1.692c.256 0 .47.086.644.26.173.173.26.387.26.644V9.98c0 .256-.087.47-.26.644a.875.875 0 0 1-.644.26h-1.692Zm5.75 8.616a.875.875 0 0 1-.644-.26.874.874 0 0 1-.26-.644v-3.029c0-.256.087-.47.26-.644a.875.875 0 0 1 .644-.26h1.692c.256 0 .47.087.644.26.173.174.26.388.26.644v3.029c0 .256-.087.47-.26.644a.874.874 0 0 1-.644.26h-1.692Zm0-5.721a.875.875 0 0 1-.644-.26.875.875 0 0 1-.26-.644v-1.692c0-.256.087-.471.26-.644a.875.875 0 0 1 .644-.26h1.692c.256 0 .47.086.644.26.173.173.26.388.26.644v1.692c0 .256-.087.47-.26.644a.874.874 0 0 1-.644.26h-1.692Z"/>
</svg>
