<svg width="24" height="24" fill="currentColor" viewBox="0 0 24 24">
  <path d="M7 14.614h10a.728.728 0 0 0 .75-.75.731.731 0 0 0-.212-.539.731.731 0 0 0-.538-.211H7a.728.728 0 0 0-.75.75.726.726 0 0 0 .75.75Zm0-3h10a.728.728 0 0 0 .75-.75.731.731 0 0 0-.212-.539.731.731 0 0 0-.538-.211H7a.728.728 0 0 0-.75.75.726.726 0 0 0 .75.75Zm0-3h10a.728.728 0 0 0 .75-.75.728.728 0 0 0-.75-.75H7a.726.726 0 0 0-.75.75.726.726 0 0 0 .75.75Zm12.975 11.75-2.025-2H4.3c-.5 0-.925-.175-1.275-.526a1.736 1.736 0 0 1-.525-1.274v-11.4c0-.5.175-.925.525-1.275.35-.35.775-.525 1.275-.525h15.4c.5 0 .925.175 1.275.525.35.35.525.775.525 1.275v14.55c0 .4-.183.679-.55.838-.367.157-.692.095-.975-.189ZM4 5.163v11.7h14.575L20 18.287V5.164a.292.292 0 0 0-.087-.213.292.292 0 0 0-.213-.087H4.3a.289.289 0 0 0-.212.087.29.29 0 0 0-.088.213Zm0 0v13.124V4.864v.3Z"/>
</svg>
