<svg width="24" height="24" fill="currentColor" viewBox="0 0 24 24">
  <path d="M7 14.792h10c.283 0 .52-.095.712-.287a.968.968 0 0 0 .288-.713.968.968 0 0 0-.288-.712.968.968 0 0 0-.712-.288H7a.967.967 0 0 0-.713.288.968.968 0 0 0-.287.712.97.97 0 0 0 .287.713c.192.192.43.287.713.287Zm0-3h10c.283 0 .52-.095.712-.287a.968.968 0 0 0 .288-.713.968.968 0 0 0-.288-.712.968.968 0 0 0-.712-.288H7a.968.968 0 0 0-.713.288.968.968 0 0 0-.287.712.97.97 0 0 0 .287.713c.192.192.43.287.713.287Zm0-3h10c.283 0 .52-.095.712-.287A.968.968 0 0 0 18 7.792a.968.968 0 0 0-.288-.712.968.968 0 0 0-.712-.288H7a.968.968 0 0 0-.713.288.968.968 0 0 0-.287.712.97.97 0 0 0 .287.713c.192.192.43.287.713.287Zm13.27 12.27-2.067-2.066H4.072a2.19 2.19 0 0 1-1.61-.666 2.193 2.193 0 0 1-.665-1.61V4.865c0-.63.221-1.166.665-1.61.443-.443.98-.665 1.61-.665h15.856c.63 0 1.166.222 1.61.665.443.444.665.98.665 1.61v15.378c0 .51-.232.864-.696 1.063-.464.199-.877.118-1.237-.242Z"/>
</svg>
