<svg width="24" height="24" fill="currentColor" viewBox="0 0 24 24">
  <path d="M12 22.3a.726.726 0 0 1-.75-.75v-2.9L9.9 20a.68.68 0 0 1-.5.2.72.72 0 0 1-.525-.225.733.733 0 0 1-.225-.537c0-.209.075-.38.225-.513l2.5-2.5A.861.861 0 0 1 12 16.15c.233 0 .442.092.625.275l2.525 2.525c.133.133.2.296.2.488a.79.79 0 0 1-.225.537.766.766 0 0 1-.525.2.766.766 0 0 1-.525-.2l-1.325-1.3v2.9c0 .217-.07.392-.212.525a.755.755 0 0 1-.538.2Zm-7.025-8.1c-.2 0-.37-.075-.512-.225a.74.74 0 0 1-.213-.525.727.727 0 0 1 .75-.75h14.025a.7.7 0 0 1 .513.212.731.731 0 0 1 .212.538c0 .2-.07.375-.212.525A.71.71 0 0 1 19 14.2H4.975Zm0-2.9c-.2 0-.37-.071-.512-.213a.726.726 0 0 1-.213-.537c0-.2.071-.375.213-.525A.706.706 0 0 1 5 9.8h14.025c.2 0 .371.075.513.225.141.15.212.325.212.525a.728.728 0 0 1-.75.75H4.975Zm6.4-3.725L8.85 5.05a.664.664 0 0 1-.2-.488.79.79 0 0 1 .225-.537c.15-.133.325-.2.525-.2s.375.067.525.2L11.25 5.35V2.425c0-.217.071-.392.213-.525.141-.133.32-.2.537-.2.217 0 .396.07.538.212a.731.731 0 0 1 .212.538v2.9L14.1 4c.133-.133.3-.2.5-.2s.375.075.525.225c.15.15.225.329.225.537 0 .209-.075.38-.225.513l-2.5 2.5A.861.861 0 0 1 12 7.85a.861.861 0 0 1-.625-.275Z"/>
</svg>
