<svg width="24" height="24" fill="currentColor" viewBox="0 0 24 24">
  <path d="M12 22.775c-.3 0-.558-.104-.775-.312a1.02 1.02 0 0 1-.325-.763v-2.075l-.85.85a.965.965 0 0 1-.738.325c-.291 0-.545-.117-.762-.35-.2-.2-.3-.454-.3-.763 0-.308.1-.562.3-.762l2.65-2.65c.233-.233.5-.35.8-.35.3 0 .567.117.8.35l2.675 2.675c.2.2.3.446.3.737 0 .292-.108.546-.325.763a.978.978 0 0 1-.75.325c-.3 0-.558-.108-.775-.325l-.825-.8v2.075c0 .3-.108.55-.325.75-.217.2-.475.3-.775.3Zm-7.025-8.25a.926.926 0 0 1-.7-.288.99.99 0 0 1-.275-.712.97.97 0 0 1 .287-.713.97.97 0 0 1 .713-.287h14.025c.283 0 .517.096.7.287.183.192.275.43.275.713s-.096.52-.288.712a.965.965 0 0 1-.712.288H4.975Zm0-3a.926.926 0 0 1-.7-.288.99.99 0 0 1-.275-.712.97.97 0 0 1 .287-.713A.97.97 0 0 1 5 9.525h14.025c.283 0 .517.096.7.287.183.192.275.43.275.713s-.096.52-.288.712a.965.965 0 0 1-.712.288H4.975ZM11.2 7.75 8.525 5.075c-.2-.217-.3-.47-.3-.763 0-.291.108-.545.325-.762.2-.2.454-.3.762-.3.309 0 .563.1.763.3l.825.875V2.3c0-.3.108-.554.325-.762.217-.209.475-.313.775-.313.3 0 .558.108.775.325.217.217.325.475.325.775v2.1l.85-.875a.965.965 0 0 1 .738-.325c.291 0 .545.108.762.325.2.217.3.48.3.787 0 .309-.1.563-.3.763L12.8 7.75a1.14 1.14 0 0 1-.8.325c-.3 0-.567-.108-.8-.325Z"/>
</svg>
