<svg width="24" height="24" fill="currentColor" viewBox="0 0 24 24">
  <path d="M5.072 22.218a2.19 2.19 0 0 1-1.607-.668 2.19 2.19 0 0 1-.668-1.607V6.087c0-.626.223-1.162.668-1.607a2.19 2.19 0 0 1 1.607-.668H9.02c.207-.596.59-1.083 1.148-1.462A3.195 3.195 0 0 1 12 1.782c.687 0 1.306.19 1.86.568.552.38.934.866 1.146 1.462h3.922a2.19 2.19 0 0 1 1.607.668c.445.445.668.981.668 1.607v13.856c0 .626-.223 1.161-.668 1.607a2.19 2.19 0 0 1-1.607.668H5.072Zm0-2.275h13.856V6.087H16.97v1.958c0 .319-.11.588-.33.808-.219.22-.488.33-.807.33H8.167c-.319 0-.588-.11-.808-.33-.22-.22-.33-.489-.33-.808V6.087H5.073v13.856ZM12 5.997a.97.97 0 0 0 .713-.288.967.967 0 0 0 .287-.712.967.967 0 0 0-.287-.713.967.967 0 0 0-.713-.287.968.968 0 0 0-.713.287.968.968 0 0 0-.287.713c0 .283.096.52.287.712.192.192.43.288.713.288Z"/>
</svg>
