<svg width="24" height="24" fill="currentColor" viewBox="0 0 24 24">
  <path d="m11.523 19.173-.268-.006c-2.39-.067-4.41-.947-6.058-2.64-1.648-1.69-2.472-3.734-2.472-6.129 0-2.442.852-4.513 2.556-6.213 1.704-1.7 3.777-2.55 6.22-2.55a8.52 8.52 0 0 1 3.416.687 8.887 8.887 0 0 1 4.672 4.671 8.52 8.52 0 0 1 .686 3.417c0 2.325-.664 4.459-1.992 6.402a15.223 15.223 0 0 1-4.999 4.652 1.293 1.293 0 0 1-.562.15.938.938 0 0 1-.52-.137 1.304 1.304 0 0 1-.397-.376 1.044 1.044 0 0 1-.181-.543l-.101-1.385Zm-.042-3.228c.307 0 .568-.107.782-.32.214-.215.32-.475.32-.783 0-.307-.106-.568-.32-.782a1.064 1.064 0 0 0-.782-.32c-.307 0-.568.107-.782.32a1.064 1.064 0 0 0-.32.782c0 .308.106.568.32.782.214.214.475.321.782.321Zm-2.205-7.63c.203.087.406.09.607.01.201-.081.368-.213.5-.396.147-.188.313-.332.499-.432.186-.1.396-.15.63-.15.372 0 .676.105.912.316.236.21.354.477.354.8a1.3 1.3 0 0 1-.19.65c-.127.22-.339.477-.636.77-.408.362-.719.713-.93 1.052-.213.339-.319.67-.319.99 0 .22.077.407.23.56a.764.764 0 0 0 .561.231.706.706 0 0 0 .53-.228c.145-.152.26-.33.342-.534a2.27 2.27 0 0 1 .444-.757c.2-.23.387-.43.558-.6.382-.395.661-.767.838-1.117.177-.35.266-.71.266-1.08 0-.786-.265-1.417-.794-1.891-.529-.475-1.237-.712-2.124-.712a3.12 3.12 0 0 0-1.529.384A3.023 3.023 0 0 0 8.907 7.23a.75.75 0 0 0-.073.633c.07.21.218.362.442.453Z"/>
</svg>
