<svg width="24" height="24" fill="currentColor" viewBox="0 0 24 24">
  <path d="M5.308 21.346a1.74 1.74 0 0 1-1.277-.53 1.74 1.74 0 0 1-.531-1.277V6.153c0-.497.177-.923.531-1.277a1.74 1.74 0 0 1 1.277-.53h4.406c.138-.488.421-.892.848-1.212.428-.32.907-.481 1.438-.481.551 0 1.038.16 1.46.48.423.321.703.725.842 1.212h4.39c.497 0 .923.177 1.277.531.354.354.531.78.531 1.277v13.384c0 .498-.177.923-.531 1.277a1.74 1.74 0 0 1-1.277.531H5.308Zm0-1.5h13.384a.294.294 0 0 0 .212-.096.294.294 0 0 0 .096-.212V6.154a.294.294 0 0 0-.096-.212.294.294 0 0 0-.212-.096H16.5v1.712c0 .256-.086.47-.259.644a.869.869 0 0 1-.641.26H8.4a.869.869 0 0 1-.641-.26.877.877 0 0 1-.259-.644V5.846H5.308a.294.294 0 0 0-.212.096.294.294 0 0 0-.096.212v13.384c0 .077.032.148.096.212a.294.294 0 0 0 .212.096Zm6.694-13.884a.87.87 0 0 0 .643-.26.88.88 0 0 0 .259-.646.87.87 0 0 0-.26-.643.88.88 0 0 0-.646-.26.87.87 0 0 0-.643.261.88.88 0 0 0-.259.645.87.87 0 0 0 .26.644.88.88 0 0 0 .646.259Z"/>
</svg>
