<svg width="24" height="24" fill="currentColor" viewBox="0 0 24 24">
  <path d="M12.346 18.5H11.5c-2.227 0-4.118-.776-5.67-2.329-1.554-1.553-2.33-3.442-2.33-5.67 0-2.226.776-4.116 2.33-5.67C7.381 3.277 9.271 2.5 11.498 2.5c1.113 0 2.154.208 3.121.624a8.06 8.06 0 0 1 2.542 1.714 8.067 8.067 0 0 1 1.714 2.54 7.81 7.81 0 0 1 .624 3.122c0 2.073-.56 3.988-1.68 5.744-1.121 1.757-2.54 3.17-4.258 4.24a.928.928 0 0 1-.385.112.614.614 0 0 1-.354-.087.92.92 0 0 1-.273-.247.693.693 0 0 1-.127-.37l-.077-1.392ZM14 18.35c1.183-1 2.146-2.17 2.887-3.513A8.824 8.824 0 0 0 18 10.5c0-1.817-.63-3.354-1.887-4.613C14.854 4.63 13.317 4 11.5 4c-1.817 0-3.354.63-4.613 1.887C5.63 7.146 5 8.683 5 10.5c0 1.817.63 3.354 1.887 4.613C8.146 16.37 9.683 17 11.5 17H14v1.35Zm-2.495-2.577a.845.845 0 0 0 .623-.258.852.852 0 0 0 .257-.624.845.845 0 0 0-.259-.623.852.852 0 0 0-.624-.257.845.845 0 0 0-.622.259.852.852 0 0 0-.257.624c0 .244.086.451.258.622.172.171.38.257.624.257ZM9.38 8.288c.15.065.3.065.449.002a.823.823 0 0 0 .366-.303c.144-.213.328-.38.554-.501.226-.122.483-.182.771-.182.446 0 .808.12 1.086.361.279.241.418.559.418.952 0 .244-.064.479-.192.705-.128.226-.35.498-.667.815-.424.392-.732.744-.925 1.056-.194.312-.29.622-.29.93 0 .166.056.307.17.424a.55.55 0 0 0 .411.176c.16 0 .295-.06.403-.182a.997.997 0 0 0 .223-.433 1.79 1.79 0 0 1 .392-.732c.204-.243.42-.479.648-.707.363-.363.629-.715.797-1.056.169-.342.253-.683.253-1.025 0-.726-.25-1.31-.749-1.752-.5-.442-1.152-.663-1.958-.663-.512 0-.984.124-1.416.373-.432.249-.77.569-1.016.96a.552.552 0 0 0-.051.462.52.52 0 0 0 .323.32Z"/>
</svg>
