<svg width="24" height="24" fill="currentColor" viewBox="0 0 24 24">
  <path d="M19 20.75a2.675 2.675 0 0 1-1.663-.562 2.573 2.573 0 0 1-.962-1.438H11a3.613 3.613 0 0 1-2.65-1.1c-.733-.733-1.1-1.617-1.1-2.65s.367-1.917 1.1-2.65a3.613 3.613 0 0 1 2.65-1.1h2c.617 0 1.146-.221 1.588-.663.441-.441.662-.97.662-1.587s-.22-1.146-.662-1.588A2.168 2.168 0 0 0 13 6.75H7.625a2.727 2.727 0 0 1-.975 1.438A2.621 2.621 0 0 1 5 8.75a2.654 2.654 0 0 1-1.95-.8A2.654 2.654 0 0 1 2.25 6c0-.767.267-1.417.8-1.95A2.654 2.654 0 0 1 5 3.25c.617 0 1.167.187 1.65.562.483.375.808.855.975 1.438H13c1.033 0 1.917.367 2.65 1.1.733.733 1.1 1.617 1.1 2.65s-.367 1.917-1.1 2.65a3.613 3.613 0 0 1-2.65 1.1h-2c-.617 0-1.146.22-1.587.662A2.166 2.166 0 0 0 8.75 15c0 .617.221 1.146.663 1.587.441.442.97.663 1.587.663h5.375a2.727 2.727 0 0 1 .975-1.438A2.621 2.621 0 0 1 19 15.25c.767 0 1.417.267 1.95.8.533.533.8 1.183.8 1.95 0 .767-.267 1.417-.8 1.95-.533.533-1.183.8-1.95.8ZM5 7.25c.35 0 .646-.121.888-.363.241-.241.362-.537.362-.887s-.12-.646-.362-.888A1.21 1.21 0 0 0 5 4.75c-.35 0-.646.12-.887.362A1.208 1.208 0 0 0 3.75 6c0 .35.121.646.363.887.241.242.537.363.887.363Z"/>
</svg>
