<svg width="24" height="24" fill="currentColor" viewBox="0 0 24 24">
  <path d="M9.654 17.654c-.505 0-.933-.175-1.283-.525a1.745 1.745 0 0 1-.525-1.283V4.308c0-.505.175-.933.525-1.283.35-.35.778-.525 1.283-.525h8.538c.505 0 .933.175 1.283.525.35.35.525.778.525 1.283v11.538c0 .505-.175.933-.525 1.283-.35.35-.778.525-1.283.525H9.654Zm0-1.5h8.538a.294.294 0 0 0 .212-.096.294.294 0 0 0 .096-.212V4.308a.294.294 0 0 0-.096-.212.294.294 0 0 0-.212-.096H9.654a.294.294 0 0 0-.212.096.294.294 0 0 0-.096.212v11.538c0 .077.032.148.096.212a.294.294 0 0 0 .212.096ZM4.808 7.346a.782.782 0 0 1-.576-.232A.781.781 0 0 1 4 6.538c0-.228.077-.42.232-.575a.782.782 0 0 1 .576-.232.78.78 0 0 1 .575.232.781.781 0 0 1 .232.575.78.78 0 0 1-.232.576.781.781 0 0 1-.575.232Zm0 3.539a.782.782 0 0 1-.576-.233.781.781 0 0 1-.232-.575c0-.229.077-.42.232-.576a.782.782 0 0 1 .576-.232c.229 0 .42.078.575.232a.781.781 0 0 1 .232.576.78.78 0 0 1-.232.575.782.782 0 0 1-.575.233Zm0 3.538a.782.782 0 0 1-.576-.232.781.781 0 0 1-.232-.576.78.78 0 0 1 .232-.575.782.782 0 0 1 .576-.232.78.78 0 0 1 .575.232.781.781 0 0 1 .232.575.78.78 0 0 1-.232.576.781.781 0 0 1-.575.232Zm0 3.539a.782.782 0 0 1-.576-.233.782.782 0 0 1-.232-.575c0-.229.077-.42.232-.576a.782.782 0 0 1 .576-.232c.229 0 .42.078.575.232a.782.782 0 0 1 .232.576.78.78 0 0 1-.232.575.781.781 0 0 1-.575.233Zm0 3.538a.782.782 0 0 1-.576-.232.781.781 0 0 1-.232-.576.78.78 0 0 1 .232-.575.782.782 0 0 1 .576-.232.78.78 0 0 1 .575.232.781.781 0 0 1 .232.575c0 .23-.077.42-.232.576a.782.782 0 0 1-.575.232Zm3.538 0a.782.782 0 0 1-.575-.232.781.781 0 0 1-.233-.576.78.78 0 0 1 .233-.575.782.782 0 0 1 .575-.232c.229 0 .42.077.576.232a.781.781 0 0 1 .232.575c0 .23-.078.42-.232.576a.782.782 0 0 1-.576.232Zm3.539 0a.781.781 0 0 1-.576-.232.781.781 0 0 1-.232-.576.78.78 0 0 1 .232-.575.781.781 0 0 1 .576-.232.78.78 0 0 1 .575.232.781.781 0 0 1 .232.575c0 .23-.077.42-.232.576a.782.782 0 0 1-.575.232Zm3.538 0a.782.782 0 0 1-.575-.232.781.781 0 0 1-.233-.576.78.78 0 0 1 .233-.575.781.781 0 0 1 .575-.232.78.78 0 0 1 .575.232.782.782 0 0 1 .233.575c0 .23-.078.42-.233.576a.781.781 0 0 1-.575.232Z"/>
</svg>
