<svg width="24" height="24" fill="currentColor" viewBox="0 0 24 24">
  <path d="M3.865 20.75c-.409 0-.76-.148-1.056-.443a1.443 1.443 0 0 1-.444-1.057V4.75c0-.409.148-.761.444-1.057a1.443 1.443 0 0 1 1.056-.443h6.5c.41 0 .761.148 1.057.443.296.296.443.648.443 1.057v2.5h8.27c.409 0 .76.148 1.056.443.296.296.444.648.444 1.057v10.5c0 .409-.148.761-.444 1.057a1.443 1.443 0 0 1-1.056.443H3.865Zm0-1.5h6.5v-2.5h-6.5v2.5Zm0-4h6.5v-2.5h-6.5v2.5Zm0-4h6.5v-2.5h-6.5v2.5Zm0-4h6.5v-2.5h-6.5v2.5Zm8 12h8.27V8.75h-8.27v10.5Zm2.193-6.5v-1.5h3.692v1.5h-3.692Zm0 4v-1.5h3.692v1.5h-3.692Z"/>
</svg>
