<svg width="24" height="24" fill="currentColor" viewBox="0 0 24 24">
  <path d="M12.055 21.04c-2.56 0-4.716-.874-6.468-2.624-1.752-1.75-2.627-3.904-2.627-6.465 0-2.232.706-4.194 2.118-5.886C6.49 4.374 8.351 3.348 10.661 2.99c.5-.094.895.034 1.184.384.29.35.33.753.124 1.208a5.941 5.941 0 0 0-.532 1.291 5.136 5.136 0 0 0-.186 1.388c0 1.528.536 2.827 1.608 3.897 1.072 1.07 2.374 1.604 3.906 1.604.472 0 .943-.061 1.412-.186a5.213 5.213 0 0 0 1.272-.514c.414-.19.801-.16 1.162.091.36.25.494.638.4 1.164-.305 2.24-1.312 4.088-3.02 5.542-1.71 1.455-3.688 2.183-5.936 2.183Z"/>
</svg>
