<svg width="24" height="24" fill="currentColor" viewBox="0 0 24 24">
  <path d="M12.953 7.788v-4c0-.32.11-.589.329-.808.22-.22.489-.33.808-.33h6.131c.32 0 .59.11.809.33.22.22.329.489.329.808v4c0 .32-.11.588-.33.808-.219.22-.488.33-.808.33H14.09c-.32 0-.589-.11-.808-.33-.22-.22-.33-.489-.33-.808ZM2.642 12.027v-8.24c0-.318.11-.588.329-.807.22-.22.489-.33.808-.33h6.132c.319 0 .588.11.808.33.22.22.33.489.33.808v8.239c0 .32-.11.589-.33.808a1.1 1.1 0 0 1-.808.33H3.779c-.32 0-.588-.11-.808-.33-.22-.22-.33-.489-.33-.808Zm10.31 8.185v-8.239c0-.319.11-.588.33-.808.22-.22.489-.33.808-.33h6.131c.32 0 .59.11.809.33.22.22.329.489.329.808v8.24c0 .319-.11.588-.33.807-.219.22-.488.33-.808.33H14.09c-.32 0-.589-.11-.808-.33a1.095 1.095 0 0 1-.33-.808Zm-10.31 0v-4c0-.319.11-.588.329-.808.22-.22.489-.33.808-.33h6.132c.319 0 .588.11.808.33.22.22.33.49.33.808v4c0 .32-.11.589-.33.808a1.1 1.1 0 0 1-.808.33H3.779c-.32 0-.588-.11-.808-.33a1.095 1.095 0 0 1-.33-.808Z"/>
</svg>
