<svg width="24" height="24" fill="currentColor" viewBox="0 0 24 24">
  <path d="M13.25 8.091V4.41a.88.88 0 0 1 .26-.65.88.88 0 0 1 .647-.259h5.44a.882.882 0 0 1 .903.909v3.68a.88.88 0 0 1-.26.65.881.881 0 0 1-.647.259h-5.44a.881.881 0 0 1-.903-.909ZM3.5 11.6V4.4c0-.255.087-.469.26-.641a.881.881 0 0 1 .647-.259h5.44c.257 0 .472.086.644.259a.871.871 0 0 1 .259.641v7.2a.867.867 0 0 1-.26.641.881.881 0 0 1-.647.259h-5.44a.874.874 0 0 1-.644-.259.871.871 0 0 1-.259-.641Zm9.75 8v-7.2c0-.255.087-.469.26-.641a.88.88 0 0 1 .647-.259h5.44c.257 0 .472.086.644.259a.871.871 0 0 1 .259.641v7.2a.867.867 0 0 1-.26.641.881.881 0 0 1-.647.259h-5.44a.874.874 0 0 1-.644-.259.87.87 0 0 1-.259-.641Zm-9.75-.01v-3.68a.88.88 0 0 1 .26-.65.881.881 0 0 1 .648-.26h5.44a.882.882 0 0 1 .903.909v3.682a.88.88 0 0 1-.26.65.881.881 0 0 1-.647.259h-5.44a.881.881 0 0 1-.903-.909ZM5 11h4.25V5H5v6Zm9.75 8H19v-6h-4.25v6Zm0-11.5H19V5h-4.25v2.5ZM5 19h4.25v-2.5H5V19Z"/>
</svg>
