<svg width="24" height="24" fill="currentColor" viewBox="0 0 24 24">
  <path d="M5.308 20.5c-.505 0-.933-.175-1.283-.525a1.745 1.745 0 0 1-.525-1.283V5.308c0-.505.175-.933.525-1.283.35-.35.778-.525 1.283-.525h13.384c.505 0 .933.175 1.283.525.35.35.525.778.525 1.283v13.384c0 .505-.175.933-.525 1.283-.35.35-.778.525-1.283.525H5.308ZM5 8.662h14V5.308a.294.294 0 0 0-.096-.212.294.294 0 0 0-.212-.096H5.308a.294.294 0 0 0-.212.096.294.294 0 0 0-.096.212v3.354Zm0 5.176h14v-3.676H5v3.676ZM5.308 19h13.384a.294.294 0 0 0 .212-.096.294.294 0 0 0 .096-.212v-3.354H5v3.354c0 .077.032.148.096.212a.294.294 0 0 0 .212.096ZM7.287 7.727a.87.87 0 0 1-.644-.26.879.879 0 0 1-.258-.645.87.87 0 0 1 .26-.644.879.879 0 0 1 .645-.259.87.87 0 0 1 .644.26.88.88 0 0 1 .258.646.87.87 0 0 1-.26.643.879.879 0 0 1-.645.259Zm0 5.177a.871.871 0 0 1-.644-.26.88.88 0 0 1-.258-.646.87.87 0 0 1 .26-.643.88.88 0 0 1 .645-.259c.257 0 .471.087.644.26a.88.88 0 0 1 .258.646.871.871 0 0 1-.26.643.88.88 0 0 1-.645.259Zm0 5.177a.87.87 0 0 1-.644-.26.88.88 0 0 1-.258-.646.87.87 0 0 1 .26-.643.879.879 0 0 1 .645-.259.87.87 0 0 1 .644.26.879.879 0 0 1 .258.645.87.87 0 0 1-.26.644.879.879 0 0 1-.645.259Z"/>
</svg>
