<svg width="24" height="24" fill="currentColor" viewBox="0 0 24 24">
  <path d="M5 8.808h14v-2.5a.294.294 0 0 0-.096-.212.294.294 0 0 0-.212-.096H5.308a.294.294 0 0 0-.212.096.294.294 0 0 0-.096.212v2.5ZM5.308 21.5c-.505 0-.933-.175-1.283-.525a1.745 1.745 0 0 1-.525-1.283V6.308c0-.505.175-.933.525-1.283.35-.35.778-.525 1.283-.525h1.384V3.154c0-.22.074-.402.22-.55a.746.746 0 0 1 .55-.22.749.749 0 0 1 .769.77V4.5h7.577V3.135a.73.73 0 0 1 .215-.535.727.727 0 0 1 .535-.215c.213 0 .39.072.534.215a.726.726 0 0 1 .216.535V4.5h1.384c.505 0 .933.175 1.283.525.35.35.525.778.525 1.283v4.713a.725.725 0 0 1-.215.535.726.726 0 0 1-.535.215.726.726 0 0 1-.535-.215.725.725 0 0 1-.215-.535v-.713H5v9.384c0 .077.032.148.096.212a.294.294 0 0 0 .212.096h6.117a.73.73 0 0 1 .535.215.726.726 0 0 1 .215.535.726.726 0 0 1-.215.535.726.726 0 0 1-.535.215H5.308Zm12.884 1c-1.248 0-2.31-.438-3.186-1.314-.876-.875-1.314-1.937-1.314-3.186 0-1.249.438-2.31 1.314-3.187.875-.875 1.938-1.313 3.186-1.313 1.25 0 2.311.438 3.187 1.313.875.876 1.313 1.938 1.313 3.187 0 1.249-.438 2.31-1.313 3.186-.876.876-1.938 1.314-3.187 1.314Zm.443-4.68V15.5a.425.425 0 0 0-.131-.312.425.425 0 0 0-.312-.13.425.425 0 0 0-.311.13.425.425 0 0 0-.131.312v2.304a.904.904 0 0 0 .271.648l1.525 1.525c.087.087.19.132.307.136a.42.42 0 0 0 .316-.136.432.432 0 0 0 .14-.311.432.432 0 0 0-.14-.312l-1.534-1.535Z"/>
</svg>
