<svg width="24" height="24" fill="currentColor" viewBox="0 0 24 24">
  <path d="M5.072 22.203c-.63 0-1.166-.222-1.61-.665a2.193 2.193 0 0 1-.665-1.61V6.072c0-.63.222-1.167.665-1.61.444-.444.98-.665 1.61-.665H6v-.935c0-.299.104-.551.312-.757.207-.206.46-.308.76-.308s.552.102.757.308c.206.206.309.458.309.757v.935h7.725v-.935c0-.299.104-.551.311-.757.208-.206.461-.308.76-.308.3 0 .552.102.758.308.205.206.308.458.308.757v.935h.928c.63 0 1.167.221 1.61.665.444.443.665.98.665 1.61v4.513c0 .32-.11.589-.329.808a1.1 1.1 0 0 1-.808.33 1.1 1.1 0 0 1-.808-.33c-.22-.22-.33-.489-.33-.808V10H5.072v9.928h5.77c.32 0 .59.11.806.33.217.219.325.489.325.808 0 .319-.108.588-.325.808-.217.22-.486.33-.806.33h-5.77ZM18.108 23c-1.384 0-2.563-.488-3.538-1.463-.975-.975-1.462-2.154-1.462-3.537 0-1.384.487-2.563 1.462-3.538.975-.975 2.154-1.462 3.538-1.462 1.383 0 2.562.487 3.537 1.462.975.975 1.463 2.154 1.463 3.538 0 1.383-.488 2.562-1.463 3.537-.975.975-2.154 1.463-3.537 1.463Zm.548-5.218v-2.288a.52.52 0 0 0-.163-.38.528.528 0 0 0-.762 0 .516.516 0 0 0-.165.38v2.245a1.12 1.12 0 0 0 .336.815l1.5 1.5a.53.53 0 0 0 .76-.007.522.522 0 0 0 0-.758l-1.506-1.507Z"/>
</svg>
