<svg width="24" height="24" fill="currentColor" viewBox="0 0 24 24">
  <path d="M6.934 21.275c-.63 0-1.166-.222-1.61-.665A2.193 2.193 0 0 1 4.66 19V6.138c-.319 0-.588-.11-.808-.33-.22-.22-.33-.489-.33-.808 0-.32.11-.588.33-.808.22-.22.489-.33.808-.33h4.21c0-.319.11-.588.329-.808.22-.22.489-.329.808-.329h3.988c.32 0 .589.11.808.33.22.219.33.488.33.808h4.209c.319 0 .588.11.808.329.22.22.33.489.33.808 0 .32-.11.589-.33.808-.22.22-.489.33-.808.33V19c0 .63-.222 1.166-.665 1.61-.444.443-.98.665-1.61.665H6.934ZM8.892 16c0 .3.103.552.309.757.205.206.458.309.757.309.3 0 .553-.103.76-.309.208-.205.312-.458.312-.757V9.138c0-.3-.104-.553-.311-.76a1.035 1.035 0 0 0-.76-.312c-.3 0-.553.104-.758.311a1.04 1.04 0 0 0-.309.76V16Zm4.078 0c0 .3.104.552.311.757.208.206.462.309.76.309.3 0 .553-.103.758-.309a1.03 1.03 0 0 0 .309-.757V9.138c0-.3-.103-.553-.309-.76a1.025 1.025 0 0 0-.757-.312c-.3 0-.553.104-.76.311a1.034 1.034 0 0 0-.312.76V16Z"/>
</svg>
