<svg width="24" height="24" fill="currentColor" viewBox="0 0 24 24">
  <path d="M16.692 20.442c.505 0 .933-.175 1.283-.525.35-.35.525-.777.525-1.283V5.942h.25a.726.726 0 0 0 .535-.215.726.726 0 0 0 .215-.535.726.726 0 0 0-.215-.534.726.726 0 0 0-.535-.216H15a.84.84 0 0 0-.264-.63.889.889 0 0 0-.64-.254H9.904a.889.889 0 0 0-.64.253.84.84 0 0 0-.264.631H5.25a.726.726 0 0 0-.535.216.726.726 0 0 0-.215.534.73.73 0 0 0 .215.535.726.726 0 0 0 .535.215h.25v12.692c0 .506.175.933.525 1.283.35.35.778.525 1.283.525h9.384ZM17 5.942v12.692a.3.3 0 0 1-.087.222.3.3 0 0 1-.22.086H7.307a.3.3 0 0 1-.221-.086.3.3 0 0 1-.087-.222V5.942h10Zm-2.404 10.25a.726.726 0 0 1-.215.535.726.726 0 0 1-.535.215.726.726 0 0 1-.534-.215.726.726 0 0 1-.216-.535v-7.5c0-.213.072-.39.216-.534a.726.726 0 0 1 .534-.216c.213 0 .391.072.535.216a.726.726 0 0 1 .215.534v7.5Zm-3.692 0a.726.726 0 0 1-.216.535.726.726 0 0 1-.534.215.726.726 0 0 1-.535-.215.726.726 0 0 1-.215-.535v-7.5c0-.213.072-.39.215-.534a.726.726 0 0 1 .535-.216c.213 0 .39.072.534.216a.726.726 0 0 1 .216.534v7.5ZM17 5.942v12.692a.3.3 0 0 1-.087.222.3.3 0 0 1-.22.086H17v-13Z"/>
</svg>
