<svg width="24" height="24" fill="currentColor" viewBox="0 0 24 24">
  <path d="M9.048 18.018h5.91a1 1 0 0 0 .743-.303c.2-.201.299-.45.299-.745s-.1-.543-.3-.742c-.2-.2-.446-.3-.742-.3H9.042c-.295 0-.543.1-.743.3-.2.2-.299.447-.299.742s.1.544.302.745c.202.202.45.303.746.303Zm0-4h5.91a1 1 0 0 0 .743-.303c.2-.201.299-.45.299-.745s-.1-.543-.3-.742c-.2-.2-.446-.3-.742-.3H9.042c-.295 0-.543.1-.743.3-.2.2-.299.447-.299.742s.1.544.302.745c.202.202.45.303.746.303Zm-2.976 8.185a2.19 2.19 0 0 1-1.61-.665 2.192 2.192 0 0 1-.665-1.61V4.072c0-.63.221-1.167.665-1.61a2.19 2.19 0 0 1 1.61-.665h7.073a2.247 2.247 0 0 1 1.597.658l4.803 4.803a2.248 2.248 0 0 1 .659 1.597v11.073a2.19 2.19 0 0 1-.666 1.61 2.19 2.19 0 0 1-1.61.665H6.072Zm6.856-14.269c0 .32.11.589.33.808.22.22.489.33.808.33h3.862l-5-5v3.862Z"/>
</svg>
