<svg width="24" height="24" fill="currentColor" viewBox="0 0 24 24">
  <path d="M13.033 22.407c-1.793 0-3.324-.62-4.593-1.858-1.268-1.239-1.902-2.75-1.902-4.536v-7.57L3.292 5.2A.994.994 0 0 1 3 4.466c0-.293.098-.538.293-.733a.994.994 0 0 1 .733-.293c.293 0 .537.098.733.293l16.874 16.875c.195.195.292.44.29.732a1.004 1.004 0 0 1-1.026 1.026.99.99 0 0 1-.73-.293l-2.07-2.07a6.748 6.748 0 0 1-2.219 1.753 6.299 6.299 0 0 1-2.845.65Zm-4.28-11.748v5.354c-.013 1.175.402 2.167 1.245 2.974.844.807 1.857 1.21 3.04 1.21.723 0 1.384-.16 1.984-.483a4.328 4.328 0 0 0 1.488-1.298l-1.167-1.166a2.827 2.827 0 0 1-2.311 1.126c-.806 0-1.49-.277-2.054-.832a2.754 2.754 0 0 1-.845-2.037v-3.468l-1.38-1.38Zm3.595 3.595v1.253c0 .193.065.351.195.475a.68.68 0 0 0 .49.186.65.65 0 0 0 .443-.162.646.646 0 0 0 .223-.401l-1.35-1.35Zm4.976-.805V7.138c0-.312.107-.574.32-.788a1.07 1.07 0 0 1 .788-.32c.311 0 .574.107.787.32.214.214.32.476.32.788v8.526l-2.215-2.215ZM13.73 9.847v-3.21a2.39 2.39 0 0 0-.735-1.727c-.477-.467-1.06-.7-1.747-.7-.434 0-.827.097-1.181.293a2.623 2.623 0 0 0-.881.788L7.61 3.717a4.77 4.77 0 0 1 1.597-1.255A4.569 4.569 0 0 1 11.247 2c1.302 0 2.41.448 3.325 1.345s1.372 1.993 1.372 3.286v5.431l-2.215-2.215Zm-3.215-3.24a.842.842 0 0 1 .349-.263c.142-.058.29-.087.444-.087.295 0 .542.1.742.3.2.2.3.447.3.742v1.162l-1.835-1.854Z"/>
</svg>
