<svg width="24" height="24" fill="currentColor" viewBox="0 0 24 24">
  <path d="M11.897 21.09c-.295 0-.543-.1-.745-.3a1.003 1.003 0 0 1-.303-.742v-1.126a5.213 5.213 0 0 1-2.002-.896c-.572-.427-1.035-1.017-1.39-1.771a.93.93 0 0 1-.003-.81 1.11 1.11 0 0 1 .644-.604.944.944 0 0 1 .782.016c.268.118.48.314.638.588.28.476.63.836 1.05 1.08.422.245.932.367 1.53.367.67 0 1.23-.145 1.68-.435.449-.29.673-.743.673-1.357 0-.556-.185-1.003-.555-1.343-.371-.34-1.22-.72-2.545-1.141-1.417-.442-2.396-.985-2.938-1.628-.54-.643-.811-1.422-.811-2.338 0-1.067.345-1.911 1.035-2.531.69-.62 1.427-.984 2.212-1.09V3.951a1 1 0 0 1 .303-.742c.202-.2.45-.3.745-.3a1.016 1.016 0 0 1 1.042 1.042v1.076a4.403 4.403 0 0 1 1.659.63 4.08 4.08 0 0 1 1.17 1.15c.167.237.198.501.094.794-.103.292-.31.503-.622.632a1.007 1.007 0 0 1-.76.015 2.182 2.182 0 0 1-.784-.514 2.147 2.147 0 0 0-.739-.502c-.284-.117-.63-.175-1.04-.175-.705 0-1.236.15-1.594.451-.357.301-.536.676-.536 1.123 0 .522.235.936.705 1.24.47.305 1.33.636 2.58.994 1.165.342 2.05.88 2.656 1.615.606.735.909 1.591.909 2.569 0 1.2-.354 2.113-1.062 2.742-.708.628-1.587 1.022-2.636 1.18v1.076c0 .295-.1.543-.3.742-.199.2-.446.3-.742.3Z"/>
</svg>
