<svg width="24" height="24" fill="currentColor" viewBox="0 0 24 24">
  <path d="M1.66 13.337a1.055 1.055 0 0 1-.326-.796c.007-.306.122-.571.345-.795.224-.212.49-.32.796-.327.307-.006.572.103.796.327L6.725 15.2l.401.4.401.402c.224.224.333.487.326.79a1.116 1.116 0 0 1-.345.79 1.167 1.167 0 0 1-.802.331 1.065 1.065 0 0 1-.802-.332L1.66 13.337Zm10.69 1.64 8.393-8.392c.224-.224.488-.332.792-.326.305.006.571.121.799.345.215.224.327.49.335.796.009.307-.101.574-.329.802l-9.188 9.188a1.099 1.099 0 0 1-.802.342c-.306 0-.573-.114-.801-.342l-4.25-4.25a1.064 1.064 0 0 1-.32-.79c.002-.31.11-.58.325-.807.228-.224.498-.336.809-.336.31 0 .578.112.802.336l3.435 3.435Zm4.135-6.768-3.339 3.34a1.068 1.068 0 0 1-.786.316c-.313 0-.582-.105-.805-.317a1.098 1.098 0 0 1-.336-.805 1.1 1.1 0 0 1 .336-.805l3.34-3.34c.21-.21.473-.316.786-.316.312 0 .58.105.804.316a1.1 1.1 0 0 1 .337.806c0 .312-.113.58-.337.805Z"/>
</svg>
