<svg width="24" height="24" fill="currentColor" viewBox="0 0 24 24">
  <path d="m7.594 12 4.058 4.073a.74.74 0 0 1 .22.514.698.698 0 0 1-.22.54.718.718 0 0 1-.527.217.718.718 0 0 1-.527-.217l-4.494-4.494A.83.83 0 0 1 5.848 12a.83.83 0 0 1 .256-.633l4.494-4.494a.745.745 0 0 1 .515-.22.698.698 0 0 1 .54.22.72.72 0 0 1 .216.527.718.718 0 0 1-.217.527L7.594 12Zm6.35 0 4.058 4.073a.74.74 0 0 1 .22.514.698.698 0 0 1-.22.54.718.718 0 0 1-.527.217.718.718 0 0 1-.527-.217l-4.494-4.494a.831.831 0 0 1-.256-.633.832.832 0 0 1 .256-.633l4.494-4.494a.745.745 0 0 1 .515-.22.698.698 0 0 1 .54.22.72.72 0 0 1 .216.527.718.718 0 0 1-.217.527L13.944 12Z"/>
</svg>
