<svg width="24" height="24" fill="currentColor" viewBox="0 0 24 24">
  <path d="m12 13.47-4.073 4.057a.745.745 0 0 1-.514.22.698.698 0 0 1-.54-.22.718.718 0 0 1-.217-.527c0-.206.072-.382.217-.527l4.494-4.494a.831.831 0 0 1 .633-.256.832.832 0 0 1 .633.256l4.494 4.494c.138.138.212.31.22.514a.698.698 0 0 1-.22.54.718.718 0 0 1-.527.217.718.718 0 0 1-.527-.217L12 13.469Zm0-6-4.073 4.057a.745.745 0 0 1-.514.22.698.698 0 0 1-.54-.22.718.718 0 0 1-.217-.527c0-.206.072-.382.217-.527l4.494-4.494A.831.831 0 0 1 12 5.723a.832.832 0 0 1 .633.256l4.494 4.494c.138.138.212.31.22.514a.698.698 0 0 1-.22.54.718.718 0 0 1-.527.217.718.718 0 0 1-.527-.217L12 7.469Z"/>
</svg>
