<svg width="24" height="24" fill="currentColor" viewBox="0 0 24 24">
  <path d="m7.975 12 3.785 3.804c.211.212.32.474.326.787.007.312-.102.58-.326.805a1.079 1.079 0 0 1-.796.317 1.08 1.08 0 0 1-.795-.317l-4.594-4.594a1.05 1.05 0 0 1-.246-.373A1.204 1.204 0 0 1 5.252 12c0-.15.026-.292.077-.429.052-.136.134-.26.246-.373l4.594-4.594a1.1 1.1 0 0 1 .786-.326 1.07 1.07 0 0 1 .805.326c.211.212.317.477.317.796 0 .32-.106.585-.317.796L7.975 12Zm6.678 0 3.779 3.804c.21.212.32.474.326.787.007.312-.102.58-.326.805a1.079 1.079 0 0 1-.796.317 1.08 1.08 0 0 1-.796-.317l-4.594-4.594a1.05 1.05 0 0 1-.245-.373 1.2 1.2 0 0 1-.077-.429c0-.15.025-.292.077-.429a1.05 1.05 0 0 1 .245-.373l4.594-4.594a1.1 1.1 0 0 1 .787-.326c.313-.006.58.103.805.326.21.212.317.477.317.796 0 .32-.106.585-.317.796L14.652 12Z"/>
</svg>
