<svg width="24" height="24" fill="currentColor" viewBox="0 0 24 24">
  <path d="M12 14.106 8.196 17.89c-.211.212-.474.32-.786.327a1.057 1.057 0 0 1-.806-.333 1.079 1.079 0 0 1-.316-.795c0-.32.105-.585.316-.796l4.594-4.594c.112-.112.237-.194.373-.246a1.222 1.222 0 0 1 .858 0c.136.052.26.134.373.246l4.594 4.594c.211.211.32.472.326.783.006.311-.102.58-.326.808a1.069 1.069 0 0 1-.796.323c-.32 0-.586-.107-.802-.323L12 14.105Zm0-6.185-3.804 3.785a1.1 1.1 0 0 1-.786.326 1.067 1.067 0 0 1-.806-.326 1.08 1.08 0 0 1-.316-.796c0-.319.105-.584.316-.795l4.594-4.6c.112-.112.237-.194.373-.246a1.2 1.2 0 0 1 .43-.077c.148 0 .291.025.428.077.136.052.26.134.373.246l4.594 4.6a1.1 1.1 0 0 1 .326.786c.006.313-.102.58-.326.805a1.08 1.08 0 0 1-.796.317 1.08 1.08 0 0 1-.796-.317L12 7.92Z"/>
</svg>
