<svg width="24" height="24" fill="currentColor" viewBox="0 0 24 24">
  <path d="M8.9 20.175a1.994 1.994 0 0 1-1.462-.613 1.994 1.994 0 0 1-.613-1.462c0-.583.204-1.079.613-1.487A1.994 1.994 0 0 1 8.9 16c.583 0 1.079.204 1.487.613.409.408.613.904.613 1.487 0 .567-.204 1.054-.613 1.462a2.023 2.023 0 0 1-1.487.613Zm6.2 0a2.023 2.023 0 0 1-1.487-.613A1.994 1.994 0 0 1 13 18.1c0-.583.204-1.079.613-1.487A2.023 2.023 0 0 1 15.1 16c.567 0 1.054.204 1.462.613.409.408.613.904.613 1.487 0 .567-.204 1.054-.613 1.462a1.994 1.994 0 0 1-1.462.613ZM8.9 14.1a1.975 1.975 0 0 1-1.462-.625A2.037 2.037 0 0 1 6.825 12c0-.583.204-1.08.613-1.488A1.995 1.995 0 0 1 8.9 9.9c.583 0 1.079.204 1.487.612.409.409.613.905.613 1.488 0 .567-.204 1.058-.613 1.475A2.003 2.003 0 0 1 8.9 14.1Zm6.2 0a2.003 2.003 0 0 1-1.487-.625A2.037 2.037 0 0 1 13 12c0-.583.204-1.08.613-1.488A2.024 2.024 0 0 1 15.1 9.9c.567 0 1.054.204 1.462.612.409.409.613.905.613 1.488 0 .567-.204 1.058-.613 1.475a1.975 1.975 0 0 1-1.462.625ZM8.9 8a1.994 1.994 0 0 1-1.462-.613A2.023 2.023 0 0 1 6.825 5.9c0-.567.204-1.054.613-1.462A1.994 1.994 0 0 1 8.9 3.825c.583 0 1.079.204 1.487.613.409.408.613.895.613 1.462 0 .583-.204 1.079-.613 1.487A2.023 2.023 0 0 1 8.9 8Zm6.2 0a2.023 2.023 0 0 1-1.487-.613A2.023 2.023 0 0 1 13 5.9c0-.567.204-1.054.613-1.462a2.023 2.023 0 0 1 1.487-.613c.567 0 1.054.204 1.462.613.409.408.613.895.613 1.462 0 .583-.204 1.079-.613 1.487A1.994 1.994 0 0 1 15.1 8Z"/>
</svg>
