<svg width="24" height="24" fill="currentColor" viewBox="0 0 24 24">
  <path d="M15.742 12.884 11.128 8.26l4.857-4.857c.208-.208.439-.361.693-.459a2.203 2.203 0 0 1 1.603.01c.262.104.492.26.692.468l1.632 1.639c.208.195.36.425.458.689a2.226 2.226 0 0 1 0 1.596 1.97 1.97 0 0 1-.458.695l-4.863 4.844Zm3.257 9.052-6.148-6.123-4.75 4.731a2.248 2.248 0 0 1-1.597.659h-2.57c-.319 0-.588-.11-.807-.33a1.094 1.094 0 0 1-.33-.807v-2.538a2.247 2.247 0 0 1 .659-1.597l4.756-4.757L2.06 5.002a.97.97 0 0 1-.303-.733c.006-.281.114-.525.322-.733.208-.208.455-.312.742-.312s.534.104.742.312l16.922 16.921a.977.977 0 0 1 .302.74 1.046 1.046 0 0 1-.321.739 1.003 1.003 0 0 1-.733.312c-.28 0-.525-.104-.733-.312Zm-1.53-13.999 1.4-1.394-1.406-1.412-1.406 1.4 1.412 1.406Z"/>
</svg>
