<svg width="24" height="24" fill="currentColor" viewBox="0 0 24 24">
  <path d="M5.024 18.963h1.25l9.25-9.25-1.225-1.25-9.275 9.275v1.225Zm13.7-10.35-3.375-3.35 1.325-1.3a1.442 1.442 0 0 1 1.063-.425c.425 0 .779.141 1.062.425l1.225 1.225c.284.3.433.654.45 1.062.017.408-.125.754-.425 1.038l-1.325 1.325Zm-14.3 11.85a.867.867 0 0 1-.637-.262.869.869 0 0 1-.263-.638v-2.1a.899.899 0 0 1 .275-.65L14.274 6.338l3.375 3.375L7.174 20.188a.93.93 0 0 1-.312.213.944.944 0 0 1-.338.062h-2.1ZM14.9 9.088l-.6-.625 1.225 1.25-.625-.625Z"/>
</svg>
