<svg width="24" height="24" fill="currentColor" viewBox="0 0 24 24">
  <path d="M5.308 21.5c-.505 0-.933-.175-1.283-.525a1.745 1.745 0 0 1-.525-1.283V6.308c0-.505.175-.933.525-1.283.35-.35.778-.525 1.283-.525h1.384V3.154c0-.22.074-.402.22-.55a.746.746 0 0 1 .55-.22.749.749 0 0 1 .769.77V4.5h7.577V3.135a.73.73 0 0 1 .215-.535.727.727 0 0 1 .535-.215c.213 0 .39.072.534.215a.726.726 0 0 1 .216.535V4.5h1.384c.505 0 .933.175 1.283.525.35.35.525.778.525 1.283v4.313a.725.725 0 0 1-.215.535.726.726 0 0 1-.535.215.726.726 0 0 1-.535-.215.725.725 0 0 1-.215-.535v-.313H5v9.384c0 .077.032.148.096.212a.294.294 0 0 0 .212.096h5.865a.73.73 0 0 1 .535.215.726.726 0 0 1 .215.535.726.726 0 0 1-.215.535.726.726 0 0 1-.535.215H5.308ZM5 8.808h14v-2.5a.294.294 0 0 0-.096-.212.294.294 0 0 0-.212-.096H5.308a.294.294 0 0 0-.212.096.294.294 0 0 0-.096.212v2.5Zm9.116 11.788v-1.361c0-.121.021-.236.065-.345a.91.91 0 0 1 .206-.303l5.157-5.133a1.07 1.07 0 0 1 .404-.263c.145-.05.29-.075.435-.075a1.214 1.214 0 0 1 .854.353l.925.935c.107.124.19.259.25.404.059.145.088.29.088.434 0 .145-.027.292-.08.442-.055.15-.14.288-.259.412l-5.132 5.133a.903.903 0 0 1-.648.271h-1.362a.876.876 0 0 1-.645-.259.876.876 0 0 1-.258-.645Zm1.192-.288h.95l3.246-3.262-.46-.475-.465-.469-3.271 3.256v.95Zm3.736-3.737-.465-.469.925.944-.46-.475Z"/>
</svg>
