<svg width="24" height="24" fill="currentColor" viewBox="0 0 24 24">
  <path d="m15.117 12.252-1.054-1.054 2.435-2.434-1.262-1.262-2.434 2.435-1.054-1.054L16.69 3.93c.151-.15.318-.26.501-.328a1.632 1.632 0 0 1 1.158.004c.188.071.354.184.499.34l1.22 1.236c.156.145.267.312.333.5.066.19.099.379.099.568 0 .202-.035.394-.104.577-.07.183-.178.348-.327.497l-4.952 4.927ZM5 19h1.26l5.308-5.308-.62-.642-.642-.62L5 17.74V19Zm14.254 2.362-6.616-6.59-5.227 5.21a1.817 1.817 0 0 1-1.275.517H4.404a.875.875 0 0 1-.644-.259.874.874 0 0 1-.26-.644V17.88a1.818 1.818 0 0 1 .517-1.275l5.227-5.227-6.606-6.63a.705.705 0 0 1-.22-.523c.002-.2.08-.376.236-.532a.735.735 0 0 1 .534-.232c.201 0 .38.077.535.232l16.6 16.6a.714.714 0 0 1 .22.53.751.751 0 0 1-.236.54.727.727 0 0 1-.526.232.727.727 0 0 1-.527-.232Zm-8.305-8.311-.642-.62 1.262 1.261-.62-.642Z"/>
</svg>
