<svg width="24" height="24" fill="currentColor" viewBox="0 0 24 24">
  <path d="M12 22.198a2.22 2.22 0 0 1-.861-.172 2.558 2.558 0 0 1-.755-.486L2.46 13.616a2.56 2.56 0 0 1-.487-.755A2.222 2.222 0 0 1 1.802 12c0-.299.057-.59.17-.874.115-.284.277-.531.488-.742l7.924-7.924a2.14 2.14 0 0 1 .755-.501 2.478 2.478 0 0 1 1.735.001c.284.106.531.272.742.5l7.924 7.924c.228.21.394.458.5.742a2.478 2.478 0 0 1 .001 1.735 2.135 2.135 0 0 1-.501.755l-7.924 7.924a2.194 2.194 0 0 1-.742.487 2.325 2.325 0 0 1-.874.171Zm0-9.15c.309 0 .568-.105.776-.314.21-.208.314-.467.314-.776v-3.82c0-.31-.105-.568-.314-.777A1.055 1.055 0 0 0 12 7.048a1.05 1.05 0 0 0-.776.313 1.055 1.055 0 0 0-.314.776v3.821c0 .309.105.568.314.776.208.21.467.314.776.314Zm0 3.18c.309 0 .568-.105.776-.314.21-.21.314-.468.314-.777 0-.308-.105-.567-.314-.776a1.054 1.054 0 0 0-.776-.313 1.05 1.05 0 0 0-.776.313 1.055 1.055 0 0 0-.314.776c0 .31.105.568.314.777.208.209.467.313.776.313Z"/>
</svg>
