<svg width="24" height="24" fill="currentColor" viewBox="0 0 24 24">
  <path d="M12 22.122a9.885 9.885 0 0 1-3.954-.796 10.227 10.227 0 0 1-3.22-2.167 10.226 10.226 0 0 1-2.167-3.22 9.885 9.885 0 0 1-.797-3.954c0-1.83.451-3.523 1.353-5.076a9.95 9.95 0 0 1 3.682-3.677.973.973 0 0 1 .841-.09c.3.099.519.29.66.572.124.266.138.54.042.825a1.22 1.22 0 0 1-.518.662A8.034 8.034 0 0 0 5.1 8.071a7.622 7.622 0 0 0-1.053 3.914c0 2.217.77 4.097 2.313 5.64 1.542 1.541 3.421 2.312 5.639 2.312 2.217 0 4.097-.77 5.64-2.313 1.541-1.542 2.312-3.422 2.312-5.64A7.621 7.621 0 0 0 18.9 8.073a8.034 8.034 0 0 0-2.82-2.87 1.22 1.22 0 0 1-.519-.663 1.073 1.073 0 0 1 .042-.825c.128-.283.335-.48.621-.59a.853.853 0 0 1 .804.07 9.958 9.958 0 0 1 3.73 3.668c.92 1.559 1.38 3.267 1.38 5.123a9.885 9.885 0 0 1-.796 3.954 10.226 10.226 0 0 1-2.167 3.22 10.227 10.227 0 0 1-3.22 2.167 9.885 9.885 0 0 1-3.954.796Zm-1.138-10.285V3.015c0-.32.11-.589.33-.808a1.1 1.1 0 0 1 .808-.33c.319 0 .588.11.808.33.22.22.33.489.33.808v8.822l1.666-1.648a1.1 1.1 0 0 1 .786-.326c.313-.006.582.102.806.326.21.211.316.477.316.796 0 .32-.105.584-.316.796l-3.594 3.594a1.098 1.098 0 0 1-.802.341 1.1 1.1 0 0 1-.802-.341L7.604 11.78a1.102 1.102 0 0 1-.326-.787 1.066 1.066 0 0 1 .326-.805 1.08 1.08 0 0 1 .796-.317c.319 0 .584.106.796.317l1.666 1.648Z"/>
</svg>
