<svg width="24" height="24" fill="currentColor" viewBox="0 0 24 24">
  <path d="M12 21.495a9.234 9.234 0 0 1-3.703-.749 9.607 9.607 0 0 1-3.016-2.032 9.607 9.607 0 0 1-2.032-3.016 9.235 9.235 0 0 1-.749-3.703c0-1.854.49-3.549 1.47-5.085a9.344 9.344 0 0 1 3.943-3.48.775.775 0 0 1 .615-.031c.21.074.359.213.443.415a.726.726 0 0 1-.014.575.859.859 0 0 1-.4.43A7.949 7.949 0 0 0 5.25 7.734 7.69 7.69 0 0 0 4 11.995c0 2.234.775 4.125 2.325 5.675 1.55 1.55 3.442 2.325 5.675 2.325 2.233 0 4.125-.775 5.675-2.325C19.225 16.12 20 14.228 20 11.995a7.69 7.69 0 0 0-1.25-4.26 7.948 7.948 0 0 0-3.308-2.917.858.858 0 0 1-.399-.429.726.726 0 0 1-.014-.575.719.719 0 0 1 .412-.43c.2-.085.395-.08.584.015a9.354 9.354 0 0 1 3.982 3.472c.995 1.542 1.493 3.25 1.493 5.124 0 1.313-.25 2.547-.749 3.703a9.608 9.608 0 0 1-2.032 3.016 9.608 9.608 0 0 1-3.016 2.032c-1.156.5-2.39.75-3.703.75Zm-.75-8.729V3.255c0-.213.072-.391.216-.535A.726.726 0 0 1 12 2.505c.213 0 .391.072.534.215a.726.726 0 0 1 .216.535v9.511l2.323-2.307a.744.744 0 0 1 .514-.22.697.697 0 0 1 .54.22c.145.145.217.32.217.527a.718.718 0 0 1-.217.526l-3.494 3.495a.867.867 0 0 1-.633.27.867.867 0 0 1-.633-.27l-3.494-3.495a.744.744 0 0 1-.22-.514.698.698 0 0 1 .22-.54.718.718 0 0 1 .527-.217c.206 0 .382.073.527.218l2.323 2.307Z"/>
</svg>
