<svg width="24" height="24" fill="currentColor" viewBox="0 0 24 24">
  <path d="M6.519 10.534c.139.144.31.216.516.216h9.103a.688.688 0 0 0 .516-.216.738.738 0 0 0 .208-.534.74.74 0 0 0-.208-.534.688.688 0 0 0-.516-.216H7.035a.688.688 0 0 0-.516.216.738.738 0 0 0-.208.534c0 .212.069.39.208.534Zm0 4c.139.144.31.216.516.216h9.103a.688.688 0 0 0 .516-.216.738.738 0 0 0 .208-.534.74.74 0 0 0-.208-.534.688.688 0 0 0-.516-.216H7.035a.688.688 0 0 0-.516.216.738.738 0 0 0-.208.534c0 .212.069.39.208.534Z"/>
</svg>
