<svg width="24" height="24" fill="currentColor" viewBox="0 0 24 24">
  <path d="M11.999 17.203c.332 0 .61-.112.836-.337.226-.224.338-.503.338-.835a1.15 1.15 0 0 0-.337-.84 1.126 1.126 0 0 0-.835-.34c-.332 0-.61.113-.836.34a1.146 1.146 0 0 0-.338.84c0 .332.112.61.337.835.224.225.503.337.835.337ZM12 13.012c.32 0 .589-.11.808-.33.22-.219.33-.488.33-.808V8.012c0-.32-.11-.589-.33-.808-.22-.22-.489-.33-.808-.33-.32 0-.589.11-.808.33-.22.22-.33.489-.33.808v3.862c0 .32.11.59.33.809.22.22.489.329.808.329Zm0 9.191a9.946 9.946 0 0 1-3.984-.803 10.296 10.296 0 0 1-3.237-2.18 10.296 10.296 0 0 1-2.18-3.236A9.947 9.947 0 0 1 1.798 12c0-1.415.267-2.743.803-3.984A10.297 10.297 0 0 1 4.78 4.78 10.297 10.297 0 0 1 8.015 2.6 9.946 9.946 0 0 1 12 1.798c1.415 0 2.743.267 3.984.803 1.24.535 2.32 1.261 3.237 2.18a10.297 10.297 0 0 1 2.18 3.236A9.946 9.946 0 0 1 22.202 12a9.947 9.947 0 0 1-.803 3.984 10.297 10.297 0 0 1-2.18 3.237 10.296 10.296 0 0 1-3.236 2.18 9.946 9.946 0 0 1-3.984.802Z"/>
</svg>
