<svg width="24" height="24" fill="currentColor" viewBox="0 0 24 24">
  <path d="M15.175 20.5c-1.947 0-3.648-.547-5.1-1.641a8.642 8.642 0 0 1-3.054-4.205h-2.75a.726.726 0 0 1-.534-.216.726.726 0 0 1-.216-.535c0-.212.072-.39.216-.534a.726.726 0 0 1 .534-.215h2.425a6.85 6.85 0 0 1-.081-1.218 8.61 8.61 0 0 1 .081-1.09H4.271a.726.726 0 0 1-.534-.216.726.726 0 0 1-.216-.534c0-.213.072-.39.216-.534a.726.726 0 0 1 .534-.216h2.77a8.594 8.594 0 0 1 3.038-4.205c1.45-1.094 3.149-1.641 5.096-1.641.933 0 1.82.137 2.665.41a8.813 8.813 0 0 1 2.352 1.173.621.621 0 0 1 .285.49.616.616 0 0 1-.207.515.777.777 0 0 1-.547.237.971.971 0 0 1-.584-.167 7.365 7.365 0 0 0-1.865-.855A7.235 7.235 0 0 0 15.175 5c-1.538 0-2.877.41-4.016 1.233-1.14.821-1.973 1.86-2.501 3.113h5.71c.212 0 .39.072.534.216a.726.726 0 0 1 .215.535c0 .212-.072.39-.215.534a.727.727 0 0 1-.535.215H8.221a6.53 6.53 0 0 0-.094 1.27c.01.421.042.767.094 1.038h6.146c.213 0 .391.072.535.216a.726.726 0 0 1 .215.534c0 .213-.072.39-.215.534a.726.726 0 0 1-.535.216H8.648c.535 1.254 1.372 2.291 2.51 3.113 1.14.822 2.479 1.233 4.017 1.233.732 0 1.433-.103 2.104-.31a7.398 7.398 0 0 0 1.86-.863.938.938 0 0 1 .582-.162c.213.01.397.093.552.248.149.139.217.31.204.514a.622.622 0 0 1-.285.49 8.817 8.817 0 0 1-2.352 1.172 8.585 8.585 0 0 1-2.665.411Z"/>
</svg>
