<svg width="24" height="24" fill="currentColor" viewBox="0 0 24 24">
  <path d="m10.95 15.402 3.451-3.451c.208-.208.46-.312.755-.312s.547.104.755.312c.208.208.312.46.312.755s-.104.547-.312.755l-4.165 4.159a1.1 1.1 0 0 1-.796.336 1.1 1.1 0 0 1-.796-.336L8.09 15.56a1.027 1.027 0 0 1-.312-.754c0-.295.104-.547.312-.755.208-.208.46-.312.755-.312s.547.104.755.312l1.351 1.351Zm-5.878 6.801c-.63 0-1.166-.222-1.61-.665a2.193 2.193 0 0 1-.665-1.61V6.072c0-.63.222-1.167.665-1.61.444-.444.98-.665 1.61-.665H6v-.935c0-.299.104-.551.312-.757.207-.206.46-.308.76-.308s.552.102.757.308c.206.206.309.458.309.757v.935h7.725v-.935c0-.299.104-.551.311-.757.208-.206.461-.308.76-.308.3 0 .552.102.758.308.205.206.308.458.308.757v.935h.928c.63 0 1.167.221 1.61.665.444.443.665.98.665 1.61v13.856c0 .63-.221 1.166-.665 1.61-.443.443-.98.665-1.61.665H5.072Zm0-2.275h13.856V10H5.072v9.928Z"/>
</svg>
