<svg width="24" height="24" fill="currentColor" viewBox="0 0 24 24">
  <path d="M5 21.75a.728.728 0 0 1-.75-.75.728.728 0 0 1 .75-.75h14c.217 0 .396.07.538.212a.731.731 0 0 1 .212.538c0 .217-.07.396-.212.538a.731.731 0 0 1-.538.212H5Zm0-18A.726.726 0 0 1 4.25 3 .728.728 0 0 1 5 2.25h14c.217 0 .396.07.538.212A.731.731 0 0 1 19.75 3a.728.728 0 0 1-.75.75H5Zm7 14.525a.922.922 0 0 1-.337-.063.81.81 0 0 1-.288-.187L8.85 15.5a.678.678 0 0 1-.2-.5c0-.2.075-.375.225-.525a.72.72 0 0 1 .525-.225c.2 0 .375.075.525.225l1.325 1.3v-7.55L9.925 9.55a.766.766 0 0 1-.525.2.72.72 0 0 1-.525-.225A.72.72 0 0 1 8.65 9c0-.2.075-.375.225-.525l2.5-2.5a.822.822 0 0 1 .288-.188.935.935 0 0 1 .675 0 .825.825 0 0 1 .287.188L15.15 8.5c.133.133.2.3.2.5a.72.72 0 0 1-.225.525.72.72 0 0 1-.525.225.72.72 0 0 1-.525-.225l-1.325-1.3v7.55l1.325-1.325c.15-.133.325-.2.525-.2s.375.075.525.225a.72.72 0 0 1 .225.525.72.72 0 0 1-.225.525l-2.5 2.5a.813.813 0 0 1-.287.187.93.93 0 0 1-.338.063Z"/>
</svg>
