<svg width="24" height="24" fill="currentColor" viewBox="0 0 24 24">
  <path d="M5 22.375c-.317 0-.587-.112-.812-.337a1.108 1.108 0 0 1-.338-.813c0-.317.113-.583.338-.8.225-.217.495-.325.812-.325h14c.317 0 .587.108.812.325.225.217.338.483.338.8 0 .317-.113.588-.338.813a1.107 1.107 0 0 1-.812.337H5ZM5 3.9c-.317 0-.587-.108-.812-.325a1.066 1.066 0 0 1-.338-.8c0-.317.113-.588.338-.813.225-.225.495-.337.812-.337h14c.317 0 .587.112.812.337.225.225.338.496.338.813 0 .317-.113.583-.338.8A1.128 1.128 0 0 1 19 3.9H5Zm7 14.7a1.2 1.2 0 0 1-.8-.3l-2.625-2.625c-.2-.2-.3-.446-.3-.737 0-.292.108-.546.325-.763.217-.2.471-.3.763-.3.291 0 .545.1.762.3l.775.725V9.1l-.775.75c-.217.2-.467.3-.75.3s-.542-.108-.775-.325c-.2-.2-.3-.454-.3-.763 0-.308.1-.562.3-.762l2.6-2.6a1.2 1.2 0 0 1 .8-.3 1.2 1.2 0 0 1 .8.3l2.625 2.625c.2.2.3.446.3.737 0 .292-.108.546-.325.763-.217.2-.47.3-.762.3-.292 0-.546-.1-.763-.3L13.1 9.1v5.8l.775-.75c.217-.2.467-.3.75-.3s.542.108.775.325c.2.2.3.454.3.763 0 .308-.1.562-.3.762l-2.6 2.6a1.2 1.2 0 0 1-.8.3Z"/>
</svg>
