<svg width="24" height="24" fill="currentColor" viewBox="0 0 24 24">
  <path d="M10.775 19.812 9.35 18.487a63.98 63.98 0 0 1-4.762-4.763C3.196 12.166 2.5 10.496 2.5 8.712c0-1.416.48-2.604 1.438-3.563.958-.958 2.145-1.437 3.562-1.437.8 0 1.596.188 2.388.562.791.376 1.495.98 2.112 1.813.617-.833 1.321-1.437 2.113-1.813.791-.374 1.587-.562 2.387-.562 1.417 0 2.604.48 3.562 1.437.959.96 1.438 2.147 1.438 3.563 0 1.8-.708 3.488-2.125 5.062a65.31 65.31 0 0 1-4.75 4.738l-1.4 1.275c-.35.334-.758.5-1.225.5-.467 0-.875-.158-1.225-.475Zm.5-12.2c-.533-.833-1.1-1.441-1.7-1.825-.6-.383-1.292-.575-2.075-.575-1 0-1.833.334-2.5 1-.667.667-1 1.5-1 2.5 0 .8.258 1.638.775 2.512a16.212 16.212 0 0 0 1.95 2.613 36.426 36.426 0 0 0 2.537 2.537c.909.826 1.755 1.597 2.538 2.313a.27.27 0 0 0 .2.075.27.27 0 0 0 .2-.075c.783-.716 1.63-1.487 2.538-2.313a36.419 36.419 0 0 0 2.537-2.537 16.216 16.216 0 0 0 1.95-2.613c.517-.874.775-1.712.775-2.512 0-1-.333-1.833-1-2.5-.667-.666-1.5-1-2.5-1-.783 0-1.475.192-2.075.575-.6.384-1.167.992-1.7 1.825a.87.87 0 0 1-.325.275.888.888 0 0 1-.4.1.888.888 0 0 1-.4-.1.87.87 0 0 1-.325-.275Z"/>
</svg>
