<svg width="24" height="24" fill="currentColor" viewBox="0 0 24 24">
  <path d="M21 14.25a.75.75 0 0 1-.75.75h-1.125v4.5a.75.75 0 1 1-1.5 0V15H16.5a.75.75 0 1 1 0-1.5h3.75a.75.75 0 0 1 .75.75ZM8.625 16.125A2.625 2.625 0 0 1 6 18.75h-.75v.75a.75.75 0 1 1-1.5 0v-5.25a.75.75 0 0 1 .75-.75H6a2.625 2.625 0 0 1 2.625 2.625Zm-1.5 0A1.125 1.125 0 0 0 6 15h-.75v2.25H6a1.125 1.125 0 0 0 1.125-1.125Zm7.875 0a2.625 2.625 0 0 1-2.625 2.625h-.75v.75a.75.75 0 1 1-1.5 0v-5.25a.75.75 0 0 1 .75-.75h1.5A2.625 2.625 0 0 1 15 16.125Zm-1.5 0A1.125 1.125 0 0 0 12.375 15h-.75v2.25h.75a1.125 1.125 0 0 0 1.125-1.125ZM3.75 10.5V3.75a1.5 1.5 0 0 1 1.5-1.5h9a.75.75 0 0 1 .53.22l5.25 5.25a.748.748 0 0 1 .22.53v2.25a.75.75 0 0 1-.75.75h-15a.75.75 0 0 1-.75-.75Zm10.5-2.25h4.125L14.25 4.125V8.25Z"/>
</svg>
