<svg width="24" height="24" fill="currentColor" viewBox="0 0 24 24">
  <path d="M12 14.25a.75.75 0 0 1-.75.75h-.75v4.5a.75.75 0 1 1-1.5 0V15h-.75a.75.75 0 1 1 0-1.5h3a.75.75 0 0 1 .75.75Zm-6-.75a.75.75 0 0 0-.75.75v1.875h-1.5V14.25a.75.75 0 1 0-1.5 0v5.25a.75.75 0 1 0 1.5 0v-1.875h1.5V19.5a.75.75 0 1 0 1.5 0v-5.25A.75.75 0 0 0 6 13.5Zm16.5 5.25h-1.125v-4.5a.75.75 0 1 0-1.5 0v5.25a.75.75 0 0 0 .75.75H22.5a.75.75 0 1 0 0-1.5Zm-4.3-5.223a.75.75 0 0 0-.843.337l-1.607 2.678-1.607-2.678a.75.75 0 0 0-1.393.386v5.25a.75.75 0 1 0 1.5 0v-2.543l.857 1.43a.75.75 0 0 0 1.286 0l.857-1.43V19.5a.75.75 0 1 0 1.5 0v-5.25a.75.75 0 0 0-.55-.723Zm1.3-2.277a.75.75 0 0 1-.75-.75V9h-4.5a.75.75 0 0 1-.75-.75v-4.5H5.25v6.75a.75.75 0 1 1-1.5 0V3.75a1.5 1.5 0 0 1 1.5-1.5h9a.75.75 0 0 1 .53.22l5.25 5.25a.748.748 0 0 1 .22.53v2.25a.75.75 0 0 1-.75.75ZM17.69 7.5 15 4.81V7.5h2.69Z"/>
</svg>
