<svg width="24" height="24" fill="currentColor" viewBox="0 0 24 24">
  <path d="m20.03 7.72-5.25-5.25a.75.75 0 0 0-.53-.22h-9a1.5 1.5 0 0 0-1.5 1.5v6.75a.75.75 0 0 0 .75.75h11.25a.75.75 0 0 1 .75.75v9a.75.75 0 0 0 .75.75h1.5a1.5 1.5 0 0 0 1.5-1.5v-12a.75.75 0 0 0-.22-.53Zm-5.78.53V4.125l4.125 4.125H14.25ZM6 13.5H4.5a.75.75 0 0 0-.75.75v5.25a.75.75 0 1 0 1.5 0v-.75H6c.18 0 .36-.019.537-.055l.69 1.18a.75.75 0 0 0 1.296-.75l-.667-1.146A2.625 2.625 0 0 0 6 13.5Zm0 3.75h-.75V15H6a1.125 1.125 0 1 1 0 2.25Zm8.607 1.154a1.953 1.953 0 0 1-.861 1.428c-.487.324-1.09.418-1.64.418a5.731 5.731 0 0 1-1.418-.188.751.751 0 1 1 .403-1.444c.41.112 1.401.253 1.832-.034.083-.055.172-.142.201-.368.033-.25-.067-.385-1.198-.712-.877-.253-2.344-.678-2.156-2.167a1.927 1.927 0 0 1 .843-1.401c1.11-.75 2.88-.31 3.078-.259a.75.75 0 1 1-.381 1.451c-.421-.11-1.428-.24-1.86.053a.427.427 0 0 0-.187.344c-.011.084-.013.102.104.178.217.14.605.251.98.36.918.265 2.47.718 2.26 2.341Z"/>
</svg>
