<svg width="24" height="24" fill="currentColor" viewBox="0 0 24 24">
  <path d="m20.03 7.72-5.25-5.25a.75.75 0 0 0-.53-.22h-9a1.5 1.5 0 0 0-1.5 1.5v6.75a.75.75 0 0 0 .75.75H15a.75.75 0 0 1 .75.75v9a.75.75 0 0 0 .75.75h2.25a1.5 1.5 0 0 0 1.5-1.5v-12a.75.75 0 0 0-.22-.53Zm-5.78.53V4.125l4.125 4.125H14.25Zm-.393 10.154a1.953 1.953 0 0 1-.861 1.428c-.487.324-1.09.418-1.64.418a5.73 5.73 0 0 1-1.418-.188.75.75 0 1 1 .403-1.444c.41.112 1.406.253 1.832-.034.083-.055.172-.142.201-.368.033-.25-.067-.385-1.198-.712-.877-.253-2.344-.678-2.156-2.167a1.927 1.927 0 0 1 .843-1.401c1.11-.75 2.88-.31 3.078-.259a.75.75 0 1 1-.381 1.451c-.421-.11-1.428-.24-1.86.053a.427.427 0 0 0-.187.344c-.011.084-.013.102.104.178.217.14.605.251.98.36.918.265 2.47.718 2.26 2.341ZM7.5 14.25v3.563a2.437 2.437 0 1 1-4.875 0 .75.75 0 1 1 1.5 0 .937.937 0 0 0 1.875 0V14.25a.75.75 0 1 1 1.5 0Z"/>
</svg>
