<svg width="24" height="24" fill="currentColor" viewBox="0 0 24 24">
  <path d="m20.03 7.72-5.25-5.25a.75.75 0 0 0-.53-.22h-9a1.5 1.5 0 0 0-1.5 1.5v6.75a.75.75 0 0 0 .75.75h15a.75.75 0 0 0 .75-.75V8.25a.75.75 0 0 0-.22-.53Zm-5.78.53V4.125l4.125 4.125H14.25Zm-6.043 6.252-1.875 5.25a.75.75 0 0 1-1.413 0l-1.875-5.25a.75.75 0 0 1 1.413-.504l1.168 3.272 1.17-3.272a.75.75 0 0 1 1.412.504ZM17.25 15v1.125h1.5a.75.75 0 1 1 0 1.5h-1.5v1.125h2.25a.75.75 0 1 1 0 1.5h-3a.75.75 0 0 1-.75-.75v-5.25a.75.75 0 0 1 .75-.75h3a.75.75 0 1 1 0 1.5h-2.25Zm-3-.75v3.563a2.438 2.438 0 1 1-4.875 0V14.25a.75.75 0 1 1 1.5 0v3.563a.938.938 0 0 0 1.875 0V14.25a.75.75 0 1 1 1.5 0Z"/>
</svg>
