<svg width="24" height="24" fill="currentColor" viewBox="0 0 24 24">
  <path d="m20.11 14.686-1.563 2.189 1.563 2.19a.75.75 0 0 1-1.218.87l-1.267-1.77-1.265 1.77a.749.749 0 0 1-1.371-.302.751.751 0 0 1 .153-.569l1.561-2.189-1.563-2.19a.75.75 0 0 1 1.218-.87l1.267 1.77 1.265-1.77a.75.75 0 0 1 1.218.87h.002Zm-8.522 1.374c-.375-.108-.764-.22-.98-.36-.117-.077-.116-.093-.104-.178a.425.425 0 0 1 .187-.344c.431-.292 1.438-.162 1.86-.052a.75.75 0 1 0 .386-1.452c-.198-.051-1.968-.489-3.078.26a1.93 1.93 0 0 0-.844 1.4c-.188 1.49 1.28 1.914 2.156 2.167 1.13.327 1.23.461 1.198.712-.029.226-.118.312-.2.368-.431.287-1.422.146-1.833.033a.752.752 0 1 0-.404 1.448 5.68 5.68 0 0 0 1.424.188c.546 0 1.153-.094 1.64-.418a1.952 1.952 0 0 0 .861-1.428c.206-1.623-1.342-2.076-2.27-2.344ZM7.5 13.5H3.75a.75.75 0 1 0 0 1.5h1.125v4.5a.75.75 0 1 0 1.5 0V15H7.5a.75.75 0 1 0 0-1.5Zm12.75-5.25v2.25a.75.75 0 1 1-1.5 0V9h-4.5a.75.75 0 0 1-.75-.75v-4.5H5.25v6.75a.75.75 0 1 1-1.5 0V3.75a1.5 1.5 0 0 1 1.5-1.5h9a.75.75 0 0 1 .53.22l5.25 5.25a.748.748 0 0 1 .22.53Zm-2.56-.75L15 4.81V7.5h2.69Z"/>
</svg>
