<svg width="24" height="24" fill="currentColor" viewBox="0 0 24 24">
  <path d="M8.233 18.404a1.952 1.952 0 0 1-.861 1.428c-.487.324-1.09.418-1.64.418a5.739 5.739 0 0 1-1.42-.188.75.75 0 0 1 .404-1.444c.41.112 1.401.253 1.833-.034.082-.055.171-.142.2-.368.033-.25-.066-.385-1.198-.712-.877-.253-2.344-.678-2.156-2.167a1.927 1.927 0 0 1 .844-1.401c1.11-.75 2.88-.31 3.077-.259a.75.75 0 0 1-.381 1.451c-.42-.11-1.428-.24-1.86.053a.426.426 0 0 0-.187.344c-.01.084-.013.102.105.178.217.14.604.251.98.36.918.265 2.47.718 2.26 2.341ZM20.25 8.25v2.25a.75.75 0 1 1-1.5 0V9h-4.5a.75.75 0 0 1-.75-.75v-4.5H5.25v6.75a.75.75 0 1 1-1.5 0V3.75a1.5 1.5 0 0 1 1.5-1.5h9a.75.75 0 0 1 .53.22l5.25 5.25a.75.75 0 0 1 .22.53ZM15 7.5h2.69L15 4.81V7.5Zm-1.247 6.044a.749.749 0 0 0-.959.454l-1.169 3.272-1.169-3.272a.749.749 0 1 0-1.412.504l1.875 5.25a.75.75 0 0 0 1.413 0l1.875-5.25a.75.75 0 0 0-.454-.958ZM19.5 16.5h-.75a.75.75 0 1 0 0 1.5v.496a1.254 1.254 0 0 1-.75.254c-.827 0-1.5-.844-1.5-1.875 0-1.031.673-1.875 1.5-1.875.253.001.499.079.706.223a.75.75 0 0 0 .84-1.243A2.754 2.754 0 0 0 18 13.5c-1.654 0-3 1.514-3 3.375 0 1.86 1.346 3.375 3 3.375a2.817 2.817 0 0 0 2.042-.9.75.75 0 0 0 .208-.518V17.25a.75.75 0 0 0-.75-.75Z"/>
</svg>
