<svg width="24" height="24" fill="currentColor" viewBox="0 0 24 24">
  <path d="M4.5 11.25h15a.75.75 0 0 0 .75-.75V8.25a.749.749 0 0 0-.22-.53l-5.25-5.25a.75.75 0 0 0-.53-.22h-9a1.5 1.5 0 0 0-1.5 1.5v6.75a.75.75 0 0 0 .75.75Zm9.75-7.125 4.125 4.125H14.25V4.125Zm.375 15.375a.75.75 0 0 1-.75.75H11.25a.75.75 0 0 1-.75-.75v-5.25a.75.75 0 1 1 1.5 0v4.5h1.875a.75.75 0 0 1 .75.75ZM8.86 14.686l-1.564 2.189 1.564 2.19a.75.75 0 0 1-1.219.87l-1.266-1.77-1.265 1.77a.75.75 0 1 1-1.219-.87l1.562-2.19-1.563-2.19a.75.75 0 1 1 1.218-.87l1.267 1.77 1.265-1.77a.75.75 0 0 1 1.218.87h.002Zm11.37 3.718a1.95 1.95 0 0 1-.86 1.428c-.487.324-1.095.418-1.64.418a5.682 5.682 0 0 1-1.424-.188.75.75 0 0 1 .404-1.444c.41.113 1.4.254 1.832-.033.083-.056.172-.143.201-.368.032-.25-.067-.385-1.198-.712-.876-.253-2.344-.678-2.156-2.167a1.93 1.93 0 0 1 .839-1.401c1.11-.75 2.88-.31 3.078-.259a.75.75 0 1 1-.382 1.451c-.42-.11-1.427-.24-1.858.053a.425.425 0 0 0-.187.344c-.01.084-.013.101.105.178.216.14.604.251.98.36.925.264 2.473.717 2.266 2.34Z"/>
</svg>
