<svg width="24" height="24" fill="currentColor" viewBox="0 0 24 24">
  <path d="M11.25 13.5h-1.5a.75.75 0 0 0-.75.75v5.25a.75.75 0 1 0 1.5 0v-.75h.75a2.625 2.625 0 0 0 0-5.25Zm0 3.75h-.75V15h.75a1.125 1.125 0 1 1 0 2.25Zm9 0v1.582a.75.75 0 0 1-.208.518 2.82 2.82 0 0 1-2.042.9c-1.655 0-3-1.514-3-3.375 0-1.86 1.345-3.375 3-3.375.551.002 1.09.169 1.545.48a.751.751 0 0 1-.844 1.243A1.238 1.238 0 0 0 18 15c-.827 0-1.5.844-1.5 1.875 0 1.031.673 1.875 1.5 1.875.27-.003.533-.092.75-.254V18a.75.75 0 1 1 0-1.5h.75a.75.75 0 0 1 .75.75Zm-12.75-3v3.563a2.437 2.437 0 1 1-4.875 0 .75.75 0 1 1 1.5 0 .937.937 0 0 0 1.875 0V14.25a.75.75 0 1 1 1.5 0Zm12.53-6.53-5.25-5.25a.75.75 0 0 0-.53-.22h-9a1.5 1.5 0 0 0-1.5 1.5v6.75a.75.75 0 1 0 1.5 0V3.75h8.25v4.5a.75.75 0 0 0 .75.75h4.5v1.5a.75.75 0 1 0 1.5 0V8.25a.75.75 0 0 0-.22-.53ZM15 7.5V4.81l2.69 2.69H15Z"/>
</svg>
