<svg width="24" height="24" fill="currentColor" viewBox="0 0 24 24">
  <path d="M12 18.606c1.014 0 1.87-.363 2.568-1.089.698-.725 1.047-1.596 1.047-2.613v-3.539a.726.726 0 0 0-.215-.534.726.726 0 0 0-.535-.216.725.725 0 0 0-.534.216.726.726 0 0 0-.216.534v3.539c0 .601-.203 1.118-.608 1.552-.406.433-.908.65-1.507.65a1.989 1.989 0 0 1-1.5-.65 2.177 2.177 0 0 1-.615-1.552v-5.48c0-.209.066-.384.198-.527a.634.634 0 0 1 .484-.214c.202 0 .366.071.493.214.127.143.19.318.19.526v4.73c0 .214.072.392.215.535a.726.726 0 0 0 .535.216.726.726 0 0 0 .535-.216.726.726 0 0 0 .215-.534v-4.73c0-.618-.21-1.145-.629-1.584a2.064 2.064 0 0 0-1.554-.657c-.616 0-1.134.219-1.554.657a2.21 2.21 0 0 0-.628 1.583v5.48c0 1.018.351 1.889 1.054 2.614.704.726 1.557 1.089 2.561 1.089ZM6.308 21.5c-.505 0-.933-.175-1.283-.525a1.745 1.745 0 0 1-.525-1.283V4.308c0-.505.175-.933.525-1.283.35-.35.778-.525 1.283-.525h8.557L19.5 7.135v12.557c0 .505-.175.933-.525 1.283-.35.35-.778.525-1.283.525H6.308Zm0-1.5h11.384a.294.294 0 0 0 .212-.096.294.294 0 0 0 .096-.212V7.885h-2.98a.876.876 0 0 1-.646-.26.876.876 0 0 1-.259-.644V4H6.308a.294.294 0 0 0-.212.096.294.294 0 0 0-.096.212v15.384c0 .077.032.148.096.212a.294.294 0 0 0 .212.096Z"/>
</svg>
