<svg width="24" height="24" fill="currentColor" viewBox="0 0 24 24">
  <path d="m20.03 7.72-5.25-5.25a.75.75 0 0 0-.53-.22h-9a1.5 1.5 0 0 0-1.5 1.5v6.75a.75.75 0 0 0 .75.75h15a.75.75 0 0 0 .75-.75V8.25a.75.75 0 0 0-.22-.53Zm-5.78.53V4.125l4.125 4.125H14.25ZM4.5 16.875c0 1.031.673 1.875 1.5 1.875a1.336 1.336 0 0 0 .958-.437.75.75 0 0 1 1.084 1.037 2.819 2.819 0 0 1-2.042.9c-1.654 0-3-1.514-3-3.375 0-1.86 1.346-3.375 3-3.375a2.817 2.817 0 0 1 2.042.9.75.75 0 0 1-1.084 1.037A1.33 1.33 0 0 0 6 15c-.827 0-1.5.844-1.5 1.875Zm9.732 1.53a1.953 1.953 0 0 1-.861 1.427c-.487.324-1.09.418-1.64.418a5.747 5.747 0 0 1-1.424-.188.75.75 0 0 1 .404-1.444c.41.112 1.402.253 1.833-.034.082-.055.171-.142.2-.368.032-.25-.067-.385-1.198-.712-.876-.253-2.343-.678-2.156-2.167a1.93 1.93 0 0 1 .844-1.401c1.11-.75 2.88-.31 3.079-.259a.75.75 0 0 1-.382 1.451c-.421-.11-1.428-.24-1.86.053a.428.428 0 0 0-.187.344c-.01.084-.012.102.105.178.217.14.605.251.98.36.92.265 2.469.718 2.263 2.341Zm5.974-3.903-1.875 5.25a.75.75 0 0 1-1.413 0l-1.875-5.25a.75.75 0 1 1 1.413-.504l1.169 3.272 1.168-3.272a.75.75 0 0 1 1.413.504Z"/>
</svg>
