<svg width="24" height="24" fill="currentColor" viewBox="0 0 24 24">
  <path d="M4.875 13.5h-1.5a.75.75 0 0 0-.75.75v5.25a.75.75 0 0 0 .75.75h1.5a3.375 3.375 0 0 0 0-6.75Zm0 5.25h-.75V15h.75a1.875 1.875 0 1 1 0 3.75Zm15.893-.46a.75.75 0 0 1 .024 1.06 2.82 2.82 0 0 1-2.042.9c-1.655 0-3-1.514-3-3.375 0-1.86 1.345-3.375 3-3.375a2.817 2.817 0 0 1 2.042.9.75.75 0 0 1-1.084 1.037A1.334 1.334 0 0 0 18.75 15c-.827 0-1.5.844-1.5 1.875 0 1.031.673 1.875 1.5 1.875a1.336 1.336 0 0 0 .958-.437.75.75 0 0 1 1.06-.023ZM12 13.5c-1.655 0-3 1.514-3 3.375 0 1.86 1.345 3.375 3 3.375s3-1.514 3-3.375c0-1.86-1.345-3.375-3-3.375Zm0 5.25c-.827 0-1.5-.844-1.5-1.875 0-1.031.673-1.875 1.5-1.875s1.5.844 1.5 1.875c0 1.031-.673 1.875-1.5 1.875Zm-7.5-7.5a.75.75 0 0 0 .75-.75V3.75h8.25v4.5a.75.75 0 0 0 .75.75h4.5v1.5a.75.75 0 1 0 1.5 0V8.25a.75.75 0 0 0-.22-.53l-5.25-5.25a.75.75 0 0 0-.53-.22h-9a1.5 1.5 0 0 0-1.5 1.5v6.75a.75.75 0 0 0 .75.75ZM15 4.81l2.69 2.69H15V4.81Z"/>
</svg>
