<svg width="24" height="24" fill="currentColor" viewBox="0 0 24 24">
  <path d="M13.897 14.363a.75.75 0 0 0-.727-.036l-1.99.974a1.5 1.5 0 0 0-1.43-1.051H4.5a1.5 1.5 0 0 0-1.5 1.5v3.75A1.5 1.5 0 0 0 4.5 21h5.25a1.5 1.5 0 0 0 1.447-1.113l1.954 1.031a.75.75 0 0 0 1.099-.668V15a.75.75 0 0 0-.353-.637ZM9.75 19.5H4.5v-3.75h5.25v3.75Zm3-.491-1.5-.79v-1.282l1.5-.734v2.806Zm7.28-11.29-5.25-5.25a.75.75 0 0 0-.53-.219h-9a1.5 1.5 0 0 0-1.5 1.5V12a.75.75 0 1 0 1.5 0V3.75h8.25v4.5a.75.75 0 0 0 .75.75h4.5v11.25H16.5a.75.75 0 1 0 0 1.5h2.25a1.5 1.5 0 0 0 1.5-1.5v-12a.75.75 0 0 0-.22-.53ZM15 4.81l2.69 2.69H15V4.81Z"/>
</svg>
