<svg width="24" height="24" fill="currentColor" viewBox="0 0 24 24">
  <path d="M12 18.928c1.113 0 2.058-.391 2.835-1.175.777-.783 1.165-1.725 1.165-2.825v-2.976a.968.968 0 0 0-.287-.712.968.968 0 0 0-.713-.288.968.968 0 0 0-.712.288.968.968 0 0 0-.288.712v2.976c0 .55-.193 1.021-.578 1.413-.385.392-.86.587-1.422.587-.55 0-1.02-.195-1.412-.587A1.926 1.926 0 0 1 10 14.928V9.452c0-.15.05-.27.147-.362a.498.498 0 0 1 .353-.138.49.49 0 0 1 .363.138.49.49 0 0 1 .137.362v4.476c0 .284.096.521.288.713a.964.964 0 0 0 .712.287.966.966 0 0 0 .713-.287.968.968 0 0 0 .287-.713V9.452c0-.7-.242-1.291-.725-1.775-.483-.483-1.075-.725-1.775-.725s-1.292.242-1.775.725A2.416 2.416 0 0 0 8 9.452v5.476c0 1.1.392 2.042 1.175 2.825.783.784 1.725 1.175 2.825 1.175Zm-5.928 3.275c-.63 0-1.166-.221-1.61-.665a2.193 2.193 0 0 1-.665-1.61V4.072c0-.63.222-1.166.665-1.61.444-.443.98-.665 1.61-.665h8.892l5.24 5.239v12.892a2.19 2.19 0 0 1-.666 1.61 2.19 2.19 0 0 1-1.61.665H6.072ZM14 4.072v2.79c0 .32.11.59.33.809.22.22.488.33.808.33h2.79L14 4.07Z"/>
</svg>
