<svg width="24" height="24" fill="currentColor" viewBox="0 0 24 24">
  <path d="M5.625 13.5h-1.5a.75.75 0 0 0-.75.75v5.25a.75.75 0 1 0 1.5 0v-.75h.75a2.625 2.625 0 0 0 0-5.25Zm0 3.75h-.75V15h.75a1.125 1.125 0 1 1 0 2.25ZM21 18.832a.75.75 0 0 1-.208.518 2.82 2.82 0 0 1-2.042.9c-1.655 0-3-1.514-3-3.375 0-1.86 1.345-3.375 3-3.375a2.76 2.76 0 0 1 1.545.48.752.752 0 1 1-.844 1.243A1.238 1.238 0 0 0 18.75 15c-.827 0-1.5.844-1.5 1.875 0 1.031.673 1.875 1.5 1.875a1.27 1.27 0 0 0 .75-.255V18a.75.75 0 1 1 0-1.5h.75a.75.75 0 0 1 .75.75v1.582Zm-6.375-4.582v5.25a.75.75 0 0 1-1.36.436l-2.39-3.342V19.5a.75.75 0 1 1-1.5 0v-5.25a.75.75 0 0 1 1.36-.436l2.39 3.342V14.25a.75.75 0 1 1 1.5 0Zm-10.125-3a.75.75 0 0 0 .75-.75V3.75h8.25v4.5a.75.75 0 0 0 .75.75h4.5v1.5a.75.75 0 1 0 1.5 0V8.25a.75.75 0 0 0-.22-.53l-5.25-5.25a.75.75 0 0 0-.53-.22h-9a1.5 1.5 0 0 0-1.5 1.5v6.75a.75.75 0 0 0 .75.75ZM15 4.81l2.69 2.69H15V4.81Z"/>
</svg>
