<svg width="24" height="24" fill="currentColor" viewBox="0 0 24 24">
  <path d="m20.03 7.72-5.25-5.25a.75.75 0 0 0-.53-.22h-9a1.5 1.5 0 0 0-1.5 1.5v6.75a.75.75 0 0 0 .75.75h15a.75.75 0 0 0 .75-.75V8.25a.75.75 0 0 0-.22-.53Zm-5.78.53V4.125l4.125 4.125H14.25ZM8.233 18.404a1.952 1.952 0 0 1-.861 1.428c-.487.324-1.09.418-1.64.418a5.739 5.739 0 0 1-1.42-.188.75.75 0 0 1 .404-1.444c.41.112 1.401.253 1.833-.034.082-.055.171-.142.2-.368.033-.25-.066-.385-1.198-.712-.877-.253-2.344-.678-2.156-2.167a1.927 1.927 0 0 1 .844-1.401c1.11-.75 2.88-.31 3.077-.259a.75.75 0 0 1-.381 1.451c-.42-.11-1.428-.24-1.86.053a.426.426 0 0 0-.187.344c-.01.084-.013.102.105.178.217.14.604.251.98.36.918.265 2.47.718 2.26 2.341Zm5.974-3.902-1.875 5.25a.75.75 0 0 1-1.413 0l-1.875-5.25a.75.75 0 1 1 1.412-.504l1.17 3.272 1.167-3.272a.75.75 0 0 1 1.413.504h.001Zm6.043 2.748v1.582a.75.75 0 0 1-.208.518 2.82 2.82 0 0 1-2.042.9c-1.654 0-3-1.514-3-3.375 0-1.86 1.346-3.375 3-3.375.552.002 1.09.169 1.545.48a.75.75 0 0 1-.839 1.243A1.244 1.244 0 0 0 18 15c-.827 0-1.5.844-1.5 1.875 0 1.031.673 1.875 1.5 1.875.271-.002.534-.09.75-.254V18a.75.75 0 1 1 0-1.5h.75a.75.75 0 0 1 .75.75Z"/>
</svg>
