<svg width="24" height="24" fill="currentColor" viewBox="0 0 24 24">
  <path d="M4.25 12h15a.75.75 0 0 0 .75-.75V9a.75.75 0 0 0-.22-.53l-5.25-5.25A.75.75 0 0 0 14 3H5a1.5 1.5 0 0 0-1.5 1.5v6.75a.75.75 0 0 0 .75.75ZM14 4.875 18.125 9H14V4.875ZM20.75 15a.75.75 0 0 1-.75.75h-2.25v1.5h1.5a.75.75 0 1 1 0 1.5h-1.5v1.5a.75.75 0 1 1-1.5 0V15a.75.75 0 0 1 .75-.75h3a.75.75 0 0 1 .75.75Zm-15-.75h-1.5a.75.75 0 0 0-.75.75v5.25a.75.75 0 1 0 1.5 0v-.75h.75a2.625 2.625 0 0 0 0-5.25Zm0 3.75H5v-2.25h.75a1.125 1.125 0 1 1 0 2.25Zm6-3.75h-1.5a.75.75 0 0 0-.75.75v5.25a.75.75 0 0 0 .75.75h1.5a3.375 3.375 0 0 0 0-6.75Zm0 5.25H11v-3.75h.75a1.875 1.875 0 1 1 0 3.75Z"/>
</svg>
