<svg width="24" height="24" fill="currentColor" viewBox="0 0 24 24">
  <path d="m14.444 11.62-1.07-1.07L16.95 6H8.825l-1.5-1.5H18.49c.314 0 .542.139.684.416.142.276.116.543-.076.8l-4.654 5.903Zm-.944 4.003v2.992a.856.856 0 0 1-.254.631.856.856 0 0 1-.63.254h-1.231a.856.856 0 0 1-.631-.254.856.856 0 0 1-.254-.63v-5.993l-7.9-7.9a.715.715 0 0 1-.213-.514.749.749 0 0 1 .213-.54.735.735 0 0 1 .535-.232c.2 0 .379.077.534.232l16.677 16.677a.704.704 0 0 1 .22.522.743.743 0 0 1-.235.532.784.784 0 0 1-.527.225.699.699 0 0 1-.527-.225L13.5 15.623Z"/>
</svg>
