<svg width="24" height="24" fill="currentColor" viewBox="0 0 24 24">
  <path d="M19.277 21.4 2.585 4.723a.735.735 0 0 1-.233-.535c0-.2.078-.38.233-.534a.735.735 0 0 1 .534-.233c.202 0 .38.078.535.233l16.692 16.692c.155.155.233.33.233.527a.727.727 0 0 1-.233.527.735.735 0 0 1-.534.233.735.735 0 0 1-.535-.233Zm-3.383-8.65a.754.754 0 0 1-.541-.215.706.706 0 0 1-.224-.531.74.74 0 0 1 .215-.526.723.723 0 0 1 .55-.228h.943c.212 0 .39.072.534.216a.727.727 0 0 1 .216.534c0 .213-.072.39-.216.534a.726.726 0 0 1-.534.216h-.943ZM11.144 8a.755.755 0 0 1-.541-.215.706.706 0 0 1-.224-.53c0-.2.071-.375.215-.527a.723.723 0 0 1 .55-.228h8.606c.213 0 .39.072.534.216a.726.726 0 0 1 .216.534c0 .213-.072.39-.216.534A.725.725 0 0 1 19.75 8h-8.606Zm-.115 9.5a.725.725 0 0 1-.534-.216.726.726 0 0 1-.216-.534c0-.213.072-.391.216-.535a.725.725 0 0 1 .534-.215h1.933c.212 0 .39.072.534.216a.727.727 0 0 1 .216.534c0 .213-.072.39-.216.534a.726.726 0 0 1-.534.216h-1.933Zm-3.875-4.75a.725.725 0 0 1-.534-.216.726.726 0 0 1-.216-.534c0-.213.072-.391.216-.535a.725.725 0 0 1 .534-.215h3.458v1.5H7.154ZM4.25 8a.725.725 0 0 1-.534-.216.726.726 0 0 1-.216-.534c0-.213.072-.391.216-.535A.726.726 0 0 1 4.25 6.5h1.612V8H4.25Z"/>
</svg>
