<svg width="24" height="24" fill="currentColor" viewBox="0 0 24 24">
  <path d="M3.233 9.693a.576.576 0 0 1-.248-.351c-.033-.143.004-.287.112-.433a10.596 10.596 0 0 1 3.885-3.345 10.92 10.92 0 0 1 5.008-1.19c1.767 0 3.432.38 4.997 1.141 1.565.76 2.868 1.86 3.91 3.297.116.173.154.33.115.468a.69.69 0 0 1-.233.351.564.564 0 0 1-.4.122c-.152-.01-.282-.093-.39-.246a8.856 8.856 0 0 0-3.48-2.954 10.37 10.37 0 0 0-4.519-1.029 10.001 10.001 0 0 0-4.487 1.023 8.997 8.997 0 0 0-3.456 2.966c-.116.174-.252.27-.407.286a.553.553 0 0 1-.407-.106Zm11.66 12.355c-1.813-.421-3.269-1.29-4.367-2.608-1.098-1.318-1.647-2.916-1.647-4.795 0-.857.304-1.58.912-2.168.608-.59 1.343-.883 2.205-.883.862 0 1.597.29 2.205.87.608.581.912 1.296.912 2.145 0 .53.196.979.589 1.346.393.367.86.55 1.403.55a1.91 1.91 0 0 0 1.381-.55c.379-.367.568-.816.568-1.346 0-1.901-.692-3.501-2.075-4.8-1.382-1.299-3.04-1.948-4.97-1.948-1.93 0-3.585.654-4.961 1.963-1.377 1.309-2.066 2.91-2.066 4.802 0 .472.039 1 .116 1.584.077.584.243 1.238.499 1.962a.601.601 0 0 1-.01.463.566.566 0 0 1-.32.289.558.558 0 0 1-.448-.012.615.615 0 0 1-.31-.348 9.616 9.616 0 0 1-.514-1.878 12.33 12.33 0 0 1-.162-2.04c0-2.233.8-4.11 2.398-5.63 1.598-1.52 3.518-2.28 5.759-2.28 2.254 0 4.185.758 5.794 2.271 1.609 1.514 2.413 3.382 2.413 5.602 0 .854-.3 1.57-.9 2.15-.599.58-1.33.871-2.192.871-.862 0-1.6-.285-2.217-.855-.617-.57-.925-1.28-.925-2.13 0-.534-.192-.984-.576-1.351a1.942 1.942 0 0 0-1.391-.551c-.543 0-1.006.184-1.39.55a1.796 1.796 0 0 0-.577 1.352c0 1.605.467 2.949 1.401 4.032.935 1.084 2.19 1.832 3.767 2.245.17.046.283.136.341.268a.64.64 0 0 1 .031.423.697.697 0 0 1-.227.345c-.114.097-.263.127-.45.09ZM6.465 4.474a.575.575 0 0 1-.469.077.554.554 0 0 1-.35-.289.547.547 0 0 1-.045-.416.611.611 0 0 1 .286-.342c.942-.52 1.929-.91 2.961-1.173a12.72 12.72 0 0 1 3.148-.394c1.075 0 2.122.129 3.143.387 1.02.258 2.008.631 2.962 1.119.174.095.276.212.307.35a.641.641 0 0 1-.04.407.659.659 0 0 1-.298.308c-.137.073-.296.061-.479-.034a12.58 12.58 0 0 0-2.722-1.037 11.67 11.67 0 0 0-2.873-.357c-.967 0-1.918.112-2.853.337-.935.226-1.828.578-2.678 1.057Zm2.89 17.176c-.983-1.025-1.728-2.085-2.235-3.18-.507-1.095-.761-2.37-.761-3.825 0-1.536.55-2.835 1.65-3.897 1.1-1.062 2.429-1.592 3.987-1.592 1.554 0 2.89.526 4.006 1.58 1.117 1.054 1.675 2.345 1.675 3.873a.62.62 0 0 1-.152.435.539.539 0 0 1-.42.167.555.555 0 0 1-.413-.167.592.592 0 0 1-.165-.435c0-1.218-.446-2.24-1.34-3.068-.892-.828-1.956-1.242-3.191-1.242-1.239 0-2.297.418-3.176 1.254-.878.835-1.317 1.866-1.317 3.092 0 1.318.22 2.447.664 3.387.442.94 1.112 1.882 2.008 2.828a.562.562 0 0 1 .024.796.528.528 0 0 1-.422.177.607.607 0 0 1-.422-.183Zm7.676-1.658c-1.527 0-2.847-.495-3.958-1.485-1.112-.99-1.668-2.285-1.668-3.886 0-.157.052-.293.156-.41a.53.53 0 0 1 .416-.173.53.53 0 0 1 .416.173.595.595 0 0 1 .156.41c0 1.282.444 2.306 1.332 3.072.888.766 1.938 1.15 3.15 1.15.116 0 .268-.01.458-.032.189-.02.382-.043.578-.069a.56.56 0 0 1 .429.093.55.55 0 0 1 .219.38.463.463 0 0 1-.1.394.713.713 0 0 1-.348.221 3.42 3.42 0 0 1-.77.144c-.229.012-.384.018-.466.018Z"/>
</svg>
