<svg width="24" height="24" fill="currentColor" viewBox="0 0 24 24">
  <path d="m7.148 16.852-2.365-1.289a.424.424 0 0 1-.245-.34.45.45 0 0 1 .133-.392l.233-.223a.445.445 0 0 1 .19-.114.375.375 0 0 1 .204-.008l2.171.31 4.025-4.025-6.81-3.7a.612.612 0 0 1-.336-.476.62.62 0 0 1 .185-.557l.192-.192a.651.651 0 0 1 .291-.172.69.69 0 0 1 .342-.005l8.93 2.277 3.435-3.413a1.19 1.19 0 0 1 .875-.358c.345 0 .637.12.875.358.239.238.358.531.358.88 0 .348-.12.64-.358.88l-3.41 3.428 2.268 8.89a.793.793 0 0 1-.008.373.695.695 0 0 1-.185.316l-.096.096a.697.697 0 0 1-.62.213.69.69 0 0 1-.534-.38l-3.66-6.714-4.005 4.006.3 2.15a.478.478 0 0 1-.02.258.603.603 0 0 1-.141.217l-.097.096a.537.537 0 0 1-.475.165.528.528 0 0 1-.41-.286l-1.232-2.27Z"/>
</svg>
