<svg width="24" height="24" fill="currentColor" viewBox="0 0 24 24">
  <path d="M5.573 20.75c-.667 0-1.211-.18-1.633-.542-.421-.362-.632-.84-.632-1.437 0-.45.117-.812.352-1.085.236-.274.535-.411.898-.411.346 0 .64.12.884.358s.366.525.366.861a.711.711 0 0 1-.31.594c.032.032.077.06.135.082a.53.53 0 0 0 .192.034.677.677 0 0 0 .535-.301c.138-.19.25-.484.334-.88l1.56-8.273H6.096a.726.726 0 0 1-.535-.216A.726.726 0 0 1 5.346 9c0-.213.072-.391.215-.534a.726.726 0 0 1 .535-.216h2.437l.505-2.734c.13-.704.42-1.258.87-1.661.451-.403 1.004-.605 1.66-.605.656 0 1.195.193 1.616.578.422.385.633.87.633 1.457 0 .429-.117.78-.353 1.054a1.13 1.13 0 0 1-.897.411c-.346 0-.64-.118-.884-.353a1.164 1.164 0 0 1-.366-.872.69.69 0 0 1 .32-.594.353.353 0 0 0-.15-.096.58.58 0 0 0-.206-.039.684.684 0 0 0-.5.275c-.123.163-.218.404-.283.723l-.425 2.456h3.83c.213 0 .392.072.535.216a.726.726 0 0 1 .216.534.722.722 0 0 1-.185.496.699.699 0 0 1-.458.239h-.47l1.863 2.125 1.863-2.125h-.47a.698.698 0 0 1-.459-.239.721.721 0 0 1-.184-.496c0-.213.072-.391.215-.534a.725.725 0 0 1 .535-.216h3c.212 0 .39.072.534.216a.726.726 0 0 1 .216.534.726.726 0 0 1-.216.534.726.726 0 0 1-.534.216h-.666L16.402 13l2.846 3.25h.656c.212 0 .39.072.534.215a.726.726 0 0 1 .216.535.726.726 0 0 1-.216.535.726.726 0 0 1-.534.215h-3a.725.725 0 0 1-.535-.215.726.726 0 0 1-.215-.535.72.72 0 0 1 .184-.496.698.698 0 0 1 .458-.239h.471l-1.863-2.14-1.864 2.14h.471a.7.7 0 0 1 .458.239.722.722 0 0 1 .185.496.726.726 0 0 1-.216.535.726.726 0 0 1-.534.215h-3a.725.725 0 0 1-.535-.215.726.726 0 0 1-.215-.535.73.73 0 0 1 .215-.535.725.725 0 0 1 .535-.215h.665L14.406 13l-2.837-3.25H9.784l-1.6 8.398c-.158.853-.459 1.5-.9 1.94-.442.441-1.012.662-1.711.662Z"/>
</svg>
