<svg width="24" height="24" fill="currentColor" viewBox="0 0 24 24">
  <path d="M21.375 12a1.125 1.125 0 0 1-1.125 1.125h-9.376a1.125 1.125 0 0 1 0-2.25h9.376A1.125 1.125 0 0 1 21.375 12Zm-10.5-4.875h9.375a1.125 1.125 0 1 0 0-2.25h-9.376a1.125 1.125 0 0 0 0 2.25Zm9.375 9.75h-9.376a1.125 1.125 0 0 0 0 2.25h9.376a1.125 1.125 0 1 0 0-2.25ZM4.125 5.56v4.19a1.125 1.125 0 1 0 2.25 0v-6a1.125 1.125 0 0 0-1.628-1.006l-1.5.75a1.125 1.125 0 0 0 .878 2.062v.004Zm3.724 9.08a2.597 2.597 0 0 0-1.05-1.746 2.708 2.708 0 0 0-3.715.512 2.598 2.598 0 0 0-.391.707 1.125 1.125 0 0 0 2.114.77.376.376 0 0 1 .054-.094.448.448 0 0 1 .61-.077.357.357 0 0 1 .141.381.34.34 0 0 1-.062.123l-.013.016-2.688 3.595a1.125 1.125 0 0 0 .9 1.798h3a1.125 1.125 0 1 0 0-2.25H6l1.34-1.792a2.575 2.575 0 0 0 .51-1.942Z"/>
</svg>
