<svg width="24" height="24" fill="currentColor" viewBox="0 0 24 24">
  <path d="M10.058 18.75a.726.726 0 0 1-.535-.216.726.726 0 0 1-.215-.534.73.73 0 0 1 .215-.535.726.726 0 0 1 .535-.215h9.692c.212 0 .39.072.534.216A.726.726 0 0 1 20.5 18a.726.726 0 0 1-.216.535.726.726 0 0 1-.534.215h-9.692Zm0-6a.726.726 0 0 1-.535-.216.726.726 0 0 1-.215-.534.73.73 0 0 1 .215-.535.726.726 0 0 1 .535-.215h9.692c.212 0 .39.072.534.216A.726.726 0 0 1 20.5 12a.726.726 0 0 1-.216.535.726.726 0 0 1-.534.215h-9.692Zm0-6a.726.726 0 0 1-.535-.216A.726.726 0 0 1 9.308 6a.73.73 0 0 1 .215-.535.726.726 0 0 1 .535-.215h9.692c.212 0 .39.072.534.216A.726.726 0 0 1 20.5 6a.726.726 0 0 1-.216.535.726.726 0 0 1-.534.215h-9.692ZM5.163 19.663c-.457 0-.849-.163-1.174-.488A1.602 1.602 0 0 1 3.5 18c0-.457.163-.85.489-1.175a1.602 1.602 0 0 1 1.174-.488c.458 0 .85.162 1.175.488.326.326.489.718.489 1.175 0 .457-.163.849-.489 1.175a1.602 1.602 0 0 1-1.175.488Zm0-6c-.457 0-.849-.162-1.174-.488A1.602 1.602 0 0 1 3.5 12c0-.457.163-.85.489-1.175a1.602 1.602 0 0 1 1.174-.489c.458 0 .85.163 1.175.49.326.325.489.716.489 1.174 0 .457-.163.849-.489 1.175a1.602 1.602 0 0 1-1.175.488Zm0-6c-.457 0-.849-.162-1.174-.488A1.602 1.602 0 0 1 3.5 6c0-.457.163-.85.489-1.175a1.602 1.602 0 0 1 1.174-.488c.458 0 .85.162 1.175.488.326.326.489.718.489 1.175 0 .457-.163.849-.489 1.175a1.602 1.602 0 0 1-1.175.488Z"/>
</svg>
