<svg width="24" height="24" fill="currentColor" viewBox="0 0 24 24">
  <path d="M21 12a.75.75 0 0 1-.75.75H9.75a.75.75 0 1 1 0-1.5h10.5A.75.75 0 0 1 21 12ZM9.75 6.75h10.5a.75.75 0 1 0 0-1.5H9.75a.75.75 0 0 0 0 1.5Zm10.5 10.5H9.75a.75.75 0 0 0 0 1.5h10.5a.75.75 0 1 0 0-1.5ZM4.086 5.171l.414-.208V9.75a.75.75 0 0 0 1.5 0v-6a.75.75 0 0 0-1.086-.671l-1.5.75a.75.75 0 1 0 .672 1.342Zm3.392 9.521a2.224 2.224 0 0 0-.9-1.495 2.33 2.33 0 0 0-3.197.44 2.214 2.214 0 0 0-.335.606.75.75 0 1 0 1.406.513.735.735 0 0 1 .11-.2.822.822 0 0 1 1.33.07.717.717 0 0 1-.053.833l-2.69 3.592a.75.75 0 0 0 .601 1.199h3a.75.75 0 1 0 0-1.5h-1.5l1.789-2.393a2.2 2.2 0 0 0 .44-1.664Z"/>
</svg>