<svg width="24" height="24" fill="currentColor" viewBox="0 0 24 24">
  <path d="M12 22.203a9.946 9.946 0 0 1-3.984-.803 10.296 10.296 0 0 1-3.237-2.18 10.295 10.295 0 0 1-2.18-3.236A9.946 9.946 0 0 1 1.798 12c0-1.415.267-2.743.803-3.984A10.297 10.297 0 0 1 4.78 4.78 10.297 10.297 0 0 1 8.016 2.6 9.946 9.946 0 0 1 12 1.798c1.415 0 2.743.267 3.984.803 1.24.535 2.32 1.261 3.237 2.179a10.297 10.297 0 0 1 2.18 3.237A9.946 9.946 0 0 1 22.202 12a9.946 9.946 0 0 1-.803 3.983 10.296 10.296 0 0 1-2.18 3.238 10.296 10.296 0 0 1-3.236 2.18 9.946 9.946 0 0 1-3.984.802Zm0-2.275c2.146 0 3.973-.723 5.48-2.17 1.509-1.446 2.309-3.224 2.4-5.334 0-.088-.003-.18-.01-.275a3.717 3.717 0 0 1-.009-.238 1.882 1.882 0 0 1-.68 1.023c-.343.267-.743.4-1.199.4h-1.958c-.57 0-1.058-.202-1.463-.608a1.995 1.995 0 0 1-.609-1.463v-1.036H9.81V8.203c0-.571.203-1.06.608-1.467.406-.407.894-.61 1.463-.61h1.036c0-.41.11-.769.328-1.08.218-.31.485-.546.801-.705a10.32 10.32 0 0 0-1-.196A7.28 7.28 0 0 0 12 4.072c-2.217 0-4.093.767-5.627 2.3C4.839 7.908 4.072 9.783 4.072 12c0 .02 0 .04.003.06l.003.06h4.635c1.144 0 2.12.404 2.93 1.213.809.81 1.213 1.785 1.213 2.928v1.038H9.75v2.29a8.04 8.04 0 0 0 1.101.253c.37.057.753.086 1.15.086Z"/>
</svg>
