<svg width="24" height="24" fill="currentColor" viewBox="0 0 24 24">
  <path d="M5 11c-.409 0-.761-.148-1.057-.443A1.443 1.443 0 0 1 3.5 9.5V5c0-.409.148-.761.443-1.057A1.443 1.443 0 0 1 5 3.5h4.5c.409 0 .761.148 1.057.443.295.296.443.648.443 1.057v4.5c0 .409-.148.761-.443 1.057A1.443 1.443 0 0 1 9.5 11H5Zm0 9.5c-.409 0-.761-.148-1.057-.443A1.443 1.443 0 0 1 3.5 19v-4.5c0-.409.148-.761.443-1.057A1.443 1.443 0 0 1 5 13h4.5c.409 0 .761.148 1.057.443.295.296.443.648.443 1.057V19c0 .409-.148.761-.443 1.057A1.443 1.443 0 0 1 9.5 20.5H5Zm9.5-9.5c-.409 0-.761-.148-1.057-.443A1.443 1.443 0 0 1 13 9.5V5c0-.409.148-.761.443-1.057A1.443 1.443 0 0 1 14.5 3.5H19c.409 0 .761.148 1.057.443.295.296.443.648.443 1.057v4.5c0 .409-.148.761-.443 1.057A1.443 1.443 0 0 1 19 11h-4.5Zm0 9.5c-.409 0-.761-.148-1.057-.443A1.443 1.443 0 0 1 13 19v-4.5c0-.409.148-.761.443-1.057A1.443 1.443 0 0 1 14.5 13H19c.409 0 .761.148 1.057.443.295.296.443.648.443 1.057V19c0 .409-.148.761-.443 1.057A1.443 1.443 0 0 1 19 20.5h-4.5ZM5 9.5h4.5V5H5v4.5Zm9.5 0H19V5h-4.5v4.5Zm0 9.5H19v-4.5h-4.5V19ZM5 19h4.5v-4.5H5V19Z"/>
</svg>
