<svg width="24" height="24" fill="currentColor" viewBox="0 0 24 24">
  <path d="M5.072 11a2.19 2.19 0 0 1-1.607-.668 2.19 2.19 0 0 1-.668-1.607V5.072c0-.626.223-1.162.668-1.607a2.19 2.19 0 0 1 1.607-.668h3.653a2.19 2.19 0 0 1 1.607.668c.445.445.668.981.668 1.607v3.653a2.19 2.19 0 0 1-.668 1.607A2.19 2.19 0 0 1 8.725 11H5.072Zm0 10.203a2.19 2.19 0 0 1-1.607-.668 2.19 2.19 0 0 1-.668-1.607v-3.653c0-.626.223-1.161.668-1.607A2.19 2.19 0 0 1 5.072 13h3.653a2.19 2.19 0 0 1 1.607.668c.445.446.668.981.668 1.607v3.653a2.19 2.19 0 0 1-.668 1.607 2.19 2.19 0 0 1-1.607.668H5.072ZM15.275 11a2.19 2.19 0 0 1-1.607-.668A2.19 2.19 0 0 1 13 8.725V5.072c0-.626.223-1.162.668-1.607a2.19 2.19 0 0 1 1.607-.668h3.653a2.19 2.19 0 0 1 1.607.668c.446.445.668.981.668 1.607v3.653a2.19 2.19 0 0 1-.668 1.607 2.19 2.19 0 0 1-1.607.668h-3.653Zm0 10.203a2.19 2.19 0 0 1-1.607-.668A2.19 2.19 0 0 1 13 18.928v-3.653c0-.626.223-1.161.668-1.607A2.19 2.19 0 0 1 15.275 13h3.653a2.19 2.19 0 0 1 1.607.668c.446.446.668.981.668 1.607v3.653a2.19 2.19 0 0 1-.668 1.607 2.19 2.19 0 0 1-1.607.668h-3.653Z"/>
</svg>
