<svg width="24" height="24" fill="currentColor" viewBox="0 0 24 24">
  <path d="M.815 17.29c0-.603.155-1.158.467-1.664a3.097 3.097 0 0 1 1.246-1.16c1.046-.52 2.11-.912 3.192-1.174a14.108 14.108 0 0 1 6.608-.003c1.082.26 2.142.65 3.18 1.171.519.266.934.652 1.246 1.156a3.13 3.13 0 0 1 .467 1.674v.74c0 .63-.221 1.166-.665 1.61-.444.443-.98.665-1.61.665H3.09c-.63 0-1.167-.222-1.61-.665a2.192 2.192 0 0 1-.665-1.61v-.74Zm17.73 3.015c.228-.336.397-.698.509-1.085.111-.388.167-.784.167-1.19v-.893c0-.76-.204-1.506-.612-2.235-.409-.728-1.016-1.352-1.822-1.872.823.104 1.614.282 2.374.534.76.252 1.463.55 2.109.896.616.334 1.089.727 1.42 1.181.33.455.495.95.495 1.484v.905c0 .63-.221 1.166-.665 1.61-.443.443-.98.665-1.61.665h-2.364Zm-9.527-8.407c-1.132 0-2.099-.4-2.9-1.202-.801-.8-1.202-1.767-1.202-2.9 0-1.131.4-2.098 1.202-2.899.801-.801 1.768-1.202 2.9-1.202s2.098.4 2.9 1.202c.801.801 1.202 1.768 1.202 2.9s-.401 2.098-1.202 2.9c-.802.8-1.768 1.201-2.9 1.201ZM19.31 7.797c0 1.128-.402 2.093-1.205 2.896-.803.804-1.769 1.205-2.897 1.205-.187 0-.42-.021-.7-.065a5.817 5.817 0 0 1-.718-.153 5.987 5.987 0 0 0 1.418-3.884 5.987 5.987 0 0 0-1.418-3.883c.238-.087.473-.145.706-.174a5.77 5.77 0 0 1 .712-.044c1.128 0 2.094.402 2.897 1.205.803.803 1.205 1.769 1.205 2.897Z"/>
</svg>
