<svg width="24" height="24" fill="currentColor" viewBox="0 0 24 24">
  <path d="M1.798 17.085c0-.516.133-.976.4-1.38a2.72 2.72 0 0 1 1.065-.944c.95-.465 1.906-.823 2.867-1.075.96-.252 2.017-.378 3.168-.378 1.151 0 2.207.126 3.168.378.961.252 1.917.61 2.867 1.075.445.225.8.54 1.066.944.266.404.399.864.399 1.38v.703c0 .403-.148.757-.443 1.062a1.442 1.442 0 0 1-1.076.458H3.317c-.421 0-.78-.148-1.076-.444a1.465 1.465 0 0 1-.443-1.076v-.703Zm18.885 2.223h-2.271a3.173 3.173 0 0 0 .386-1.52v-.826c0-.657-.16-1.282-.482-1.877a4.546 4.546 0 0 0-1.368-1.531c.67.1 1.307.255 1.91.464.602.21 1.177.458 1.725.744.516.275.915.6 1.197.974.281.374.422.783.422 1.226v.826c0 .422-.148.78-.443 1.076a1.465 1.465 0 0 1-1.076.444ZM9.298 11.692c-.962 0-1.786-.342-2.472-1.028-.685-.685-1.028-1.51-1.028-2.472s.343-1.786 1.028-2.471c.686-.686 1.51-1.029 2.472-1.029.963 0 1.787.343 2.472 1.029.685.685 1.028 1.509 1.028 2.471 0 .963-.343 1.787-1.028 2.472a3.368 3.368 0 0 1-2.472 1.028Zm8.635-3.5c0 .963-.343 1.787-1.029 2.472a3.366 3.366 0 0 1-2.471 1.028c-.113 0-.257-.012-.431-.038a3.793 3.793 0 0 1-.43-.085c.394-.474.697-1 .908-1.578a5.19 5.19 0 0 0-.006-3.593 5.78 5.78 0 0 0-.903-1.583 1.87 1.87 0 0 1 .43-.1 4.04 4.04 0 0 1 .432-.023c.962 0 1.786.343 2.471 1.029.686.685 1.029 1.509 1.029 2.471ZM3.298 17.808h12v-.723a1.01 1.01 0 0 0-.157-.558c-.104-.163-.27-.305-.497-.427a11.797 11.797 0 0 0-2.542-.964 11.5 11.5 0 0 0-2.804-.328 11.5 11.5 0 0 0-2.804.328c-.872.218-1.719.54-2.542.964-.227.122-.393.264-.497.427a1.01 1.01 0 0 0-.157.558v.723Zm6-7.616c.55 0 1.02-.195 1.413-.587.391-.392.587-.863.587-1.413s-.196-1.02-.587-1.412a1.926 1.926 0 0 0-1.413-.588c-.55 0-1.02.196-1.412.588a1.926 1.926 0 0 0-.588 1.412c0 .55.196 1.021.588 1.413.391.392.862.587 1.412.587Z"/>
</svg>
