<svg width="24" height="24" fill="currentColor" viewBox="0 0 24 24">
  <path d="M11.943 17.63c.365 0 .676-.127.932-.383a1.27 1.27 0 0 0 .383-.933c0-.367-.128-.676-.383-.93a1.275 1.275 0 0 0-.932-.379c-.367 0-.677.127-.933.38a1.257 1.257 0 0 0-.383.929c0 .366.127.677.383.933s.566.384.933.384Zm.067 4.204a9.946 9.946 0 0 1-3.983-.803 10.296 10.296 0 0 1-3.237-2.18 10.295 10.295 0 0 1-2.18-3.237 9.946 9.946 0 0 1-.803-3.984c0-1.415.268-2.743.803-3.983A10.297 10.297 0 0 1 4.79 4.41a10.297 10.297 0 0 1 3.237-2.18 9.946 9.946 0 0 1 3.983-.803c1.416 0 2.744.268 3.984.803 1.24.535 2.32 1.262 3.237 2.18a10.296 10.296 0 0 1 2.18 3.237 9.946 9.946 0 0 1 .803 3.983 9.946 9.946 0 0 1-.803 3.984 10.295 10.295 0 0 1-2.18 3.237 10.295 10.295 0 0 1-3.237 2.18 9.946 9.946 0 0 1-3.984.803Zm.082-14.378c.385 0 .72.124 1.004.373.285.248.427.559.427.931 0 .347-.106.656-.317.928-.21.271-.45.524-.717.758a6.62 6.62 0 0 0-1.016 1.106 2.25 2.25 0 0 0-.44 1.356c0 .247.093.454.279.621a.94.94 0 0 0 .65.252.952.952 0 0 0 .679-.265c.187-.177.313-.396.38-.658.074-.334.22-.632.44-.893s.457-.51.711-.749a5.74 5.74 0 0 0 .976-1.203c.267-.439.4-.923.4-1.453 0-.858-.342-1.562-1.028-2.114-.686-.552-1.485-.827-2.398-.827a4.26 4.26 0 0 0-1.845.412c-.581.274-1.03.69-1.345 1.248a.951.951 0 0 0-.12.68.79.79 0 0 0 .369.548c.245.145.501.19.77.134a1.12 1.12 0 0 0 .675-.446c.176-.234.393-.416.652-.545.26-.13.531-.194.814-.194Z"/>
</svg>
