<svg width="24" height="24" fill="currentColor" viewBox="0 0 24 24">
  <path d="m12.694 11.7 2.75 2.75c.133.133.2.304.2.513a.781.781 0 0 1-.2.537.733.733 0 0 1-.537.225.734.734 0 0 1-.538-.225l-2.925-2.925a1.1 1.1 0 0 1-.187-.313.922.922 0 0 1-.063-.337V7.75a.726.726 0 0 1 .75-.75c.2 0 .375.071.525.213.15.141.225.32.225.537v3.95Zm-.825 8.8c-1.95 0-3.687-.587-5.212-1.762s-2.521-2.696-2.988-4.563a.78.78 0 0 1 .063-.625c.108-.2.27-.325.487-.375a.644.644 0 0 1 .575.125c.167.133.283.308.35.525.4 1.533 1.225 2.779 2.475 3.737A6.802 6.802 0 0 0 11.869 19c1.95 0 3.604-.68 4.963-2.038 1.358-1.358 2.037-3.012 2.037-4.962 0-1.95-.679-3.604-2.037-4.963C15.473 5.679 13.819 5 11.869 5a6.705 6.705 0 0 0-3.062.725 7.409 7.409 0 0 0-2.463 2h1.85c.217 0 .396.07.538.212a.731.731 0 0 1 .212.538.728.728 0 0 1-.75.75H4.769a.869.869 0 0 1-.638-.263.867.867 0 0 1-.262-.637V4.9a.728.728 0 0 1 .75-.75c.217 0 .396.07.538.212a.731.731 0 0 1 .212.538v1.625a8.43 8.43 0 0 1 2.925-2.238 8.411 8.411 0 0 1 3.575-.787c1.183 0 2.292.225 3.325.675A8.676 8.676 0 0 1 17.894 6a8.53 8.53 0 0 1 1.812 2.688A8.272 8.272 0 0 1 20.369 12a8.272 8.272 0 0 1-.663 3.312A8.53 8.53 0 0 1 17.894 18a8.676 8.676 0 0 1-2.7 1.825 8.236 8.236 0 0 1-3.325.675Z"/>
</svg>
