<svg width="24" height="24" fill="currentColor" viewBox="0 0 24 24">
  <path d="M17.048 21.09v-9.957c0-.378-.081-.727-.243-1.048a2.102 2.102 0 0 0-.69-.793L9.988 4.866a2 2 0 0 1 .674-1.387 2.11 2.11 0 0 1 1.475-.569h8.725c.626 0 1.162.223 1.607.669.446.445.668.98.668 1.606v13.63a2.19 2.19 0 0 1-.668 1.607 2.191 2.191 0 0 1-1.607.668h-3.814Zm0-4.09h2v-2h-2v2Zm0-4h2v-2h-2v2Zm0-4h2V7h-2v2ZM.862 19.952v-7.831a2.22 2.22 0 0 1 .964-1.852l4.82-3.438c.4-.282.838-.423 1.313-.423.476 0 .913.141 1.31.423l4.815 3.438a2.23 2.23 0 0 1 .964 1.852v7.831c0 .32-.11.589-.33.808-.22.22-.489.33-.808.33H9.958v-6.18h-4v6.18H2c-.32 0-.589-.11-.808-.33-.22-.22-.33-.489-.33-.808Z"/>
</svg>
