<svg width="24" height="24" fill="currentColor" viewBox="0 0 24 24">
  <path d="M17.115 8.885h1.77v-1.77h-1.77v1.77Zm0 4h1.77v-1.77h-1.77v1.77Zm0 4h1.77v-1.77h-1.77v1.77ZM16.5 20.5V19H21V5h-9.308v1.794l-1.5-1.084v-.74c0-.403.148-.748.444-1.037a1.46 1.46 0 0 1 1.056-.433H21c.409 0 .761.148 1.057.443.295.296.443.648.443 1.057v14c0 .409-.148.761-.443 1.057A1.443 1.443 0 0 1 21 20.5h-4.5Zm-15-.904V12.18a1.8 1.8 0 0 1 .201-.834 1.7 1.7 0 0 1 .562-.637l4.693-3.345A1.772 1.772 0 0 1 8 7.027c.378 0 .726.112 1.044.336l4.692 3.345c.241.164.429.376.563.637a1.8 1.8 0 0 1 .201.834v7.417c0 .256-.087.47-.26.644a.875.875 0 0 1-.644.26H9.135v-4.75h-2.27v4.75H2.404a.875.875 0 0 1-.644-.26.875.875 0 0 1-.26-.644ZM3 19h2.365v-4.75h5.27V19H13v-7L8 8.47 3 12v7Z"/>
</svg>
