<svg width="24" height="24" fill="currentColor" viewBox="0 0 24 24">
  <path d="M5.072 21.203a2.19 2.19 0 0 1-1.61-.665 2.193 2.193 0 0 1-.665-1.61V5.072c0-.63.221-1.167.665-1.61a2.19 2.19 0 0 1 1.61-.665h13.856c.63 0 1.167.221 1.61.665.444.443.665.98.665 1.61v13.856a2.19 2.19 0 0 1-.665 1.61 2.19 2.19 0 0 1-1.61.665H5.072Zm1.952-4.131h9.952a.537.537 0 0 0 .51-.311.52.52 0 0 0-.056-.597l-2.726-3.675a.54.54 0 0 0-.454-.233.541.541 0 0 0-.46.227l-2.54 3.397-1.79-2.397a.54.54 0 0 0-.46-.227.54.54 0 0 0-.454.233L6.57 16.164a.52.52 0 0 0-.056.597c.108.207.278.31.51.31ZM8.5 10.138a1.58 1.58 0 0 0 1.161-.477 1.58 1.58 0 0 0 .476-1.161 1.58 1.58 0 0 0-.476-1.161A1.58 1.58 0 0 0 8.5 6.863a1.58 1.58 0 0 0-1.161.476A1.58 1.58 0 0 0 6.862 8.5c0 .457.16.844.477 1.161a1.58 1.58 0 0 0 1.161.476Z"/>
</svg>
