<svg width="24" height="24" fill="currentColor" viewBox="0 0 24 24">
  <path d="m15.5 16.91 4.795-4.795c.207-.207.468-.31.783-.31.316 0 .577.103.784.31.207.207.31.468.308.78a1.069 1.069 0 0 1-.314.782l-5.554 5.56c-.23.228-.497.342-.803.342-.306 0-.573-.114-.8-.342l-2.76-2.76a1.059 1.059 0 0 1-.312-.781 1.06 1.06 0 0 1 1.095-1.092c.315 0 .576.104.784.311L15.5 16.91ZM5.072 21.203a2.19 2.19 0 0 1-1.607-.668 2.19 2.19 0 0 1-.668-1.607V5.072c0-.626.223-1.161.668-1.607a2.19 2.19 0 0 1 1.607-.668H9.02c.207-.596.59-1.083 1.148-1.462A3.194 3.194 0 0 1 12 .767c.687 0 1.306.19 1.86.568.552.38.934.866 1.146 1.462h3.922a2.19 2.19 0 0 1 1.607.668c.446.446.668.981.668 1.607v3.79c0 .32-.11.59-.329.809-.22.22-.489.329-.808.329-.32 0-.589-.11-.808-.33a1.094 1.094 0 0 1-.33-.807V5.072H16.97V7.03c0 .32-.11.588-.33.808-.219.22-.488.33-.807.33H8.168c-.32 0-.589-.11-.809-.33a1.097 1.097 0 0 1-.329-.808V5.072H5.072v13.856h4.79c.32 0 .59.11.809.33.22.22.33.489.33.808 0 .319-.11.588-.33.808a1.1 1.1 0 0 1-.808.33H5.072ZM12 4.983a.971.971 0 0 0 .713-.288.967.967 0 0 0 .287-.713.967.967 0 0 0-.287-.712.967.967 0 0 0-.713-.288.967.967 0 0 0-.712.288.968.968 0 0 0-.288.712c0 .283.096.52.288.713a.968.968 0 0 0 .712.287Z"/>
</svg>
