<svg width="24" height="24" fill="currentColor" viewBox="0 0 24 24">
  <path d="M4.308 19.5c-.505 0-.933-.175-1.283-.525a1.745 1.745 0 0 1-.525-1.283V6.308c0-.505.175-.933.525-1.283.35-.35.778-.525 1.283-.525h15.384c.505 0 .933.175 1.283.525.35.35.525.778.525 1.283v11.384c0 .505-.175.933-.525 1.283-.35.35-.778.525-1.283.525H4.308Zm0-1.5h15.384a.3.3 0 0 0 .221-.087.3.3 0 0 0 .087-.22V6.307a.3.3 0 0 0-.087-.221.3.3 0 0 0-.22-.087H4.307a.3.3 0 0 0-.221.087.3.3 0 0 0-.087.22v11.385a.3.3 0 0 0 .087.221.3.3 0 0 0 .22.087Zm2.758-3.058a.475.475 0 0 0 .488-.488V9.62a.544.544 0 0 0-.163-.4.544.544 0 0 0-.4-.163.67.67 0 0 0-.402.13l-1.145.82a.424.424 0 0 0-.188.282.455.455 0 0 0 .082.347.418.418 0 0 0 .29.204.493.493 0 0 0 .355-.074l.594-.42v4.107a.474.474 0 0 0 .489.488Zm3.053 0H13c.12 0 .224-.043.312-.13a.425.425 0 0 0 .13-.312.425.425 0 0 0-.13-.312.425.425 0 0 0-.312-.13h-1.985l-.03-.07c.324-.3.604-.573.838-.816l.638-.66c.288-.294.5-.586.637-.877.137-.29.206-.602.206-.935 0-.47-.174-.862-.521-1.174-.348-.312-.792-.468-1.333-.468-.314 0-.616.076-.907.228a1.96 1.96 0 0 0-.71.623.307.307 0 0 0-.03.337.46.46 0 0 0 .266.246.507.507 0 0 0 .352.005.741.741 0 0 0 .312-.2c.096-.103.205-.183.326-.24a.914.914 0 0 1 .391-.084c.27 0 .488.071.656.214a.705.705 0 0 1 .252.563c0 .196-.037.373-.11.532-.073.158-.226.36-.46.607a41.686 41.686 0 0 1-.896.915l-1.094 1.075c-.027.027-.074.137-.14.33v.272c0 .127.045.235.135.326.09.09.2.135.326.135Zm6.881 0c.568 0 1.027-.162 1.378-.485.35-.324.526-.743.526-1.257 0-.332-.088-.613-.264-.843a1.517 1.517 0 0 0-.744-.507v-.05c.26-.101.458-.253.598-.455.14-.202.21-.454.21-.757 0-.45-.164-.817-.492-1.102-.327-.286-.748-.428-1.262-.428-.352 0-.66.079-.925.237a2.258 2.258 0 0 0-.642.559.27.27 0 0 0-.025.302.527.527 0 0 0 .252.236.57.57 0 0 0 .347.023.612.612 0 0 0 .306-.184.878.878 0 0 1 .309-.216.977.977 0 0 1 .378-.073.84.84 0 0 1 .58.202.648.648 0 0 1 .228.506.72.72 0 0 1-.27.588c-.179.147-.409.22-.688.22a.425.425 0 0 0-.312.13.425.425 0 0 0-.13.312c0 .12.043.224.13.311a.426.426 0 0 0 .312.131c.352 0 .634.072.843.215a.68.68 0 0 1 .315.593.805.805 0 0 1-.29.615.967.967 0 0 1-.668.262c-.213 0-.392-.037-.538-.11a1.05 1.05 0 0 1-.389-.354.51.51 0 0 0-.614-.196.54.54 0 0 0-.271.24.347.347 0 0 0-.005.33c.183.32.428.568.735.743.307.175.668.262 1.082.262Z"/>
</svg>
