<svg width="24" height="24" fill="currentColor" viewBox="0 0 24 24">
  <path d="M12 22.203a9.845 9.845 0 0 1-3.953-.805 10.379 10.379 0 0 1-3.25-2.195 10.378 10.378 0 0 1-2.195-3.25A9.844 9.844 0 0 1 1.796 12c0-1.408.269-2.728.806-3.963a10.408 10.408 0 0 1 2.195-3.24 10.377 10.377 0 0 1 3.25-2.195A9.844 9.844 0 0 1 12 1.796c1.407 0 2.728.269 3.962.806a10.409 10.409 0 0 1 3.24 2.195 10.41 10.41 0 0 1 2.195 3.24A9.823 9.823 0 0 1 22.204 12a9.843 9.843 0 0 1-.805 3.952 10.38 10.38 0 0 1-2.195 3.25 10.41 10.41 0 0 1-3.241 2.195 9.822 9.822 0 0 1-3.962.806Zm-.012-2.32c.417-.591.784-1.211 1.1-1.86.318-.647.576-1.334.776-2.06H10.13c.2.726.455 1.413.766 2.06.31.649.674 1.269 1.092 1.86Zm-2.57-.4a11.345 11.345 0 0 1-.788-1.7c-.217-.591-.4-1.198-.55-1.82H5.165a8.07 8.07 0 0 0 1.786 2.158 7.094 7.094 0 0 0 2.467 1.363Zm5.146 0a7.156 7.156 0 0 0 2.472-1.362 8.016 8.016 0 0 0 1.792-2.157h-2.914c-.15.621-.336 1.228-.557 1.82a11.79 11.79 0 0 1-.793 1.7Zm-10.244-5.5h3.36A12.892 12.892 0 0 1 7.53 12a12.862 12.862 0 0 1 .15-1.982H4.32A7.82 7.82 0 0 0 4.071 12a7.84 7.84 0 0 0 .25 1.982Zm5.359 0h4.634c.05-.334.085-.66.106-.982a15.3 15.3 0 0 0 0-2.004 11.84 11.84 0 0 0-.106-.978H9.68A12.862 12.862 0 0 0 9.53 12a12.892 12.892 0 0 0 .15 1.982Zm6.634 0h3.352a7.852 7.852 0 0 0 .25-1.982 7.833 7.833 0 0 0-.25-1.982h-3.352A13.975 13.975 0 0 1 16.452 12a14.008 14.008 0 0 1-.138 1.982Zm-.4-5.952h2.914a7.972 7.972 0 0 0-1.792-2.155 7.18 7.18 0 0 0-2.472-1.36c.308.542.572 1.108.793 1.698.221.59.407 1.195.557 1.817Zm-5.784 0h3.734a11.447 11.447 0 0 0-.77-2.058 13.274 13.274 0 0 0-1.106-1.857 12.986 12.986 0 0 0-1.092 1.857 12.206 12.206 0 0 0-.766 2.058Zm-4.965 0H8.08c.15-.622.333-1.227.55-1.817.217-.59.48-1.156.788-1.698a7.119 7.119 0 0 0-2.467 1.36A8.025 8.025 0 0 0 5.165 8.03Z"/>
</svg>
