<svg width="24" height="24" fill="currentColor" viewBox="0 0 24 24">
  <path d="M13.755 22.462a1.148 1.148 0 0 1-.83-.411 14.882 14.882 0 0 1-2.838-4.533c-.681-1.697-1.026-3.555-1.026-5.52 0-1.964.345-3.821 1.026-5.52a14.907 14.907 0 0 1 2.847-4.542c.208-.243.495-.385.821-.401h.007c.364 0 .637.114.85.329.247.245.357.557.318.898a1.48 1.48 0 0 1-.352.799 12.524 12.524 0 0 0-3.21 8.438 12.524 12.524 0 0 0 3.199 8.425c.213.252.332.522.363.813a1.06 1.06 0 0 1-.32.897c-.214.216-.49.33-.794.33l-.06-.002Z"/>
</svg>
