<svg width="24" height="24" fill="currentColor" viewBox="0 0 24 24">
  <path d="M2.797 15.188c0-.187.042-.361.127-.523.085-.161.202-.292.352-.391l1.195-.857a2.145 2.145 0 0 1 1.488-.416 2.267 2.267 0 0 1 1.42.64l4.758 4.62 3.488-2.799a2.67 2.67 0 0 1 .67-.373c.241-.091.494-.137.759-.137h3.012c.319 0 .588.11.808.33.22.219.33.488.33.808 0 .319-.11.588-.33.808-.22.22-.489.33-.808.33h-3.018l-3.494 2.797a2.162 2.162 0 0 1-1.525.498 2.262 2.262 0 0 1-1.49-.64l-4.75-4.614-1.202.857c-.377.265-.77.293-1.178.084-.408-.21-.612-.55-.612-1.023Zm0-6.205c0-.186.04-.357.118-.513.078-.155.192-.289.342-.4L6.27 5.873c.456-.327.959-.47 1.51-.431a2.173 2.173 0 0 1 1.423.655l3.008 3.008 7.201-5.207c.377-.27.77-.3 1.178-.09.408.21.612.55.612 1.022 0 .187-.042.358-.127.513a1.244 1.244 0 0 1-.351.4l-7.17 5.208a2.26 2.26 0 0 1-1.51.426 2.174 2.174 0 0 1-1.424-.656L7.613 7.715l-3.02 2.2c-.381.27-.776.3-1.184.09-.408-.209-.612-.55-.612-1.022Z"/>
</svg>
