<svg width="24" height="24" fill="currentColor" viewBox="0 0 24 24">
  <path d="M10 20.203a1.986 1.986 0 0 1-1.46-.608 1.998 1.998 0 0 1-.606-1.464c0-.57.202-1.056.607-1.46.404-.404.89-.605 1.459-.605h10.137a1.99 1.99 0 0 1 1.46.607c.404.404.606.89.606 1.458 0 .57-.202 1.058-.607 1.464-.404.405-.89.608-1.459.608H10Zm0-6.137a1.986 1.986 0 0 1-1.46-.609 1.998 1.998 0 0 1-.606-1.463c0-.57.202-1.057.607-1.46.404-.404.89-.606 1.459-.606h10.137a1.99 1.99 0 0 1 1.46.607c.404.405.606.89.606 1.459 0 .57-.202 1.057-.607 1.463-.404.406-.89.609-1.459.609H10Zm0-6.138a1.99 1.99 0 0 1-1.46-.607 1.99 1.99 0 0 1-.606-1.459c0-.568.202-1.054.607-1.459A1.99 1.99 0 0 1 10 3.797h10.137c.569 0 1.055.202 1.46.606.404.405.606.891.606 1.46a1.99 1.99 0 0 1-.607 1.458c-.404.405-.89.607-1.459.607H10Zm-6.132 0a1.99 1.99 0 0 1-1.459-.607 1.99 1.99 0 0 1-.606-1.459c0-.568.202-1.054.606-1.459a1.99 1.99 0 0 1 1.46-.606 1.99 1.99 0 0 1 1.458.606c.405.405.607.891.607 1.46a1.99 1.99 0 0 1-.607 1.458 1.99 1.99 0 0 1-1.459.607Zm0 6.138c-.57 0-1.057-.203-1.463-.609a1.995 1.995 0 0 1-.608-1.463c0-.57.203-1.057.608-1.46a2 2 0 0 1 1.464-.606c.57 0 1.056.202 1.46.607.403.405.605.89.605 1.459 0 .57-.202 1.057-.607 1.463-.404.406-.89.609-1.459.609Zm0 6.137c-.57 0-1.057-.203-1.463-.608a1.995 1.995 0 0 1-.608-1.464c0-.57.203-1.056.608-1.46a2 2 0 0 1 1.464-.605c.57 0 1.056.202 1.46.607.403.404.605.89.605 1.458 0 .57-.202 1.058-.607 1.464-.404.405-.89.608-1.459.608Z"/>
</svg>
