<svg width="24" height="24" fill="currentColor" viewBox="0 0 24 24">
  <path d="M11.999 21.848c-.249 0-.497-.044-.744-.131a1.96 1.96 0 0 1-.664-.393 40.609 40.609 0 0 1-2.934-2.949c-.85-.954-1.559-1.88-2.127-2.78-.568-.9-1-1.771-1.293-2.614-.293-.843-.44-1.66-.44-2.45 0-2.554.824-4.59 2.474-6.105C7.92 2.91 9.83 2.152 12 2.152s4.08.758 5.73 2.274c1.649 1.516 2.473 3.55 2.473 6.106 0 .79-.147 1.606-.44 2.449-.294.843-.725 1.714-1.293 2.614a21.46 21.46 0 0 1-2.127 2.78 40.625 40.625 0 0 1-2.934 2.949 1.964 1.964 0 0 1-.666.393 2.233 2.233 0 0 1-.744.13ZM12 12.415c.57 0 1.056-.2 1.457-.602.402-.402.603-.888.603-1.458s-.201-1.055-.603-1.457A1.985 1.985 0 0 0 12 8.296c-.57 0-1.056.2-1.457.602a1.985 1.985 0 0 0-.603 1.457c0 .57.201 1.056.603 1.458.401.401.887.602 1.457.602Z"/>
</svg>
