<svg width="24" height="24" fill="currentColor" viewBox="0 0 24 24">
  <path d="M17.808 17.808c.416 0 .77-.146 1.062-.438.292-.292.438-.646.438-1.062 0-.417-.146-.771-.438-1.063a1.447 1.447 0 0 0-1.062-.437 1.45 1.45 0 0 0-1.063.437 1.446 1.446 0 0 0-.437 1.063c0 .416.145.77.437 1.062.292.292.646.438 1.063.438Zm0 3c.5 0 .966-.117 1.4-.35a3.014 3.014 0 0 0 1.075-.975 4.455 4.455 0 0 0-1.2-.513 5.044 5.044 0 0 0-1.275-.162c-.434 0-.859.054-1.275.162-.417.108-.817.28-1.2.513.283.416.641.741 1.075.975.433.233.9.35 1.4.35ZM9 8.5h6v-2c0-.833-.292-1.542-.875-2.125A2.893 2.893 0 0 0 12 3.5c-.833 0-1.542.292-2.125.875A2.893 2.893 0 0 0 9 6.5v2Zm3.461 13H6.308c-.505 0-.933-.175-1.283-.525a1.745 1.745 0 0 1-.525-1.283v-9.384c0-.505.175-.933.525-1.283.35-.35.778-.525 1.283-.525H7.5v-2c0-1.249.438-2.31 1.313-3.186C9.69 2.438 10.751 2 12 2c1.249 0 2.31.438 3.187 1.314.875.875 1.313 1.937 1.313 3.186v2h1.192c.505 0 .933.175 1.283.525.35.35.525.778.525 1.283v1.242a3.946 3.946 0 0 0-.697-.167 5.424 5.424 0 0 0-.803-.056v-1.02a.3.3 0 0 0-.087-.22.3.3 0 0 0-.22-.087H6.307a.3.3 0 0 0-.221.086.3.3 0 0 0-.087.222v9.384a.3.3 0 0 0 .087.221.3.3 0 0 0 .22.087h5.416a6.1 6.1 0 0 0 .304.783c.108.224.253.463.434.717Zm5.347.808c-1.249 0-2.311-.438-3.187-1.314-.876-.875-1.313-1.938-1.313-3.186 0-1.249.438-2.311 1.313-3.187.876-.876 1.938-1.313 3.187-1.313 1.248 0 2.31.438 3.186 1.313.876.876 1.314 1.938 1.314 3.187 0 1.248-.438 2.31-1.314 3.186-.875.876-1.938 1.314-3.186 1.314Z"/>
</svg>
