<svg width="24" height="24" fill="currentColor" viewBox="0 0 24 24">
  <path d="M10.1 15.725a.805.805 0 0 1-.225-.55c0-.2.075-.375.225-.525l1.9-1.9H4.35A.728.728 0 0 1 3.6 12c0-.217.07-.396.212-.538a.731.731 0 0 1 .538-.212H12l-1.9-1.925a.72.72 0 0 1-.225-.525c0-.2.075-.375.225-.525a.72.72 0 0 1 .525-.225c.2 0 .375.067.525.2l3.1 3.125c.1.083.167.179.2.287a1.147 1.147 0 0 1 0 .675.604.604 0 0 1-.2.288l-3.125 3.125a.66.66 0 0 1-.512.212.753.753 0 0 1-.513-.237Zm2.525 5.025c-.2 0-.375-.07-.525-.212a.71.71 0 0 1-.225-.538.71.71 0 0 1 .225-.538.742.742 0 0 1 .525-.212H18.6c.067 0 .133-.033.2-.1s.1-.133.1-.2V5.05c0-.067-.033-.133-.1-.2s-.133-.1-.2-.1h-5.975a.74.74 0 0 1-.525-.213.706.706 0 0 1-.225-.537.71.71 0 0 1 .225-.538.741.741 0 0 1 .525-.212H18.6c.5 0 .925.175 1.275.525.35.35.525.775.525 1.275v13.9c0 .5-.175.925-.525 1.275-.35.35-.775.525-1.275.525h-5.975Z"/>
</svg>
