<svg width="24" height="24" fill="currentColor" viewBox="0 0 24 24">
  <path d="M9.05 16.475a1.248 1.248 0 0 1-.325-.838c0-.308.108-.57.325-.787l1.7-1.7h-6.9c-.317 0-.583-.113-.8-.338A1.127 1.127 0 0 1 2.725 12c0-.317.108-.587.325-.812.217-.225.483-.338.8-.338h6.9l-1.7-1.7a1.115 1.115 0 0 1 0-1.625c.2-.217.458-.325.775-.325s.583.108.8.325L14.3 11.2c.117.117.2.242.25.375a1.2 1.2 0 0 1 .075.425 1.2 1.2 0 0 1-.075.425c-.05.133-.133.258-.25.375l-3.7 3.7a.992.992 0 0 1-.788.3 1.123 1.123 0 0 1-.762-.325ZM13.1 21.2c-.333 0-.608-.108-.825-.325a1.087 1.087 0 0 1-.325-.8c0-.333.108-.608.325-.825.217-.217.492-.325.825-.325H19V5.075h-5.9c-.333 0-.608-.108-.825-.325a1.118 1.118 0 0 1-.325-.825c0-.317.108-.583.325-.8.217-.217.492-.325.825-.325H19c.633 0 1.171.22 1.613.662.441.442.662.98.662 1.613v13.85c0 .633-.22 1.171-.662 1.613-.442.441-.98.662-1.613.662h-5.9Z"/>
</svg>
