<svg width="24" height="24" fill="currentColor" viewBox="0 0 24 24">
  <path d="M15.813 15.725a.805.805 0 0 1-.226-.55c0-.2.075-.375.226-.525l1.9-1.9h-7.65a.726.726 0 0 1-.75-.75.728.728 0 0 1 .75-.75h7.65l-1.9-1.925a.72.72 0 0 1-.226-.525c0-.2.075-.375.226-.525a.72.72 0 0 1 .524-.225c.2 0 .367.067.5.2l3.125 3.125a.825.825 0 0 1 .189.287.944.944 0 0 1 0 .675.823.823 0 0 1-.189.288l-3.125 3.125c-.15.167-.32.242-.511.225a.81.81 0 0 1-.514-.25ZM5.588 20.75c-.5 0-.925-.175-1.275-.525a1.736 1.736 0 0 1-.525-1.275V5.05c0-.5.175-.925.525-1.275.35-.35.775-.525 1.275-.525h5.974c.2 0 .376.07.526.212a.71.71 0 0 1 .225.538.706.706 0 0 1-.226.537.74.74 0 0 1-.524.213H5.588c-.067 0-.134.033-.2.1-.067.067-.1.133-.1.2v13.9c0 .067.033.133.1.2.066.067.133.1.2.1h5.974c.2 0 .376.07.526.212a.71.71 0 0 1 .225.538.71.71 0 0 1-.226.538.742.742 0 0 1-.524.212H5.588Z"/>
</svg>
