<svg width="24" height="24" fill="currentColor" viewBox="0 0 24 24">
  <path d="M15.462 16.475a1.248 1.248 0 0 1-.325-.838c0-.308.109-.57.325-.787l1.725-1.7h-6.925c-.316 0-.583-.113-.8-.338A1.127 1.127 0 0 1 9.137 12c0-.317.109-.587.325-.812.217-.225.484-.338.8-.338h6.925l-1.725-1.7a1.073 1.073 0 0 1-.338-.813 1.21 1.21 0 0 1 .338-.812c.217-.217.48-.325.788-.325.308 0 .57.108.787.325l3.7 3.675a1.2 1.2 0 0 1 .3.8 1.2 1.2 0 0 1-.3.8l-3.7 3.7c-.25.233-.52.337-.812.312a1.25 1.25 0 0 1-.763-.337ZM5.237 21.2c-.633 0-1.17-.22-1.612-.662a2.195 2.195 0 0 1-.663-1.613V5.075c0-.633.221-1.171.663-1.613A2.194 2.194 0 0 1 5.237 2.8h5.9a1.114 1.114 0 0 1 1.15 1.125c0 .333-.108.608-.325.825a1.118 1.118 0 0 1-.825.325h-5.9v13.85h5.9c.334 0 .609.108.825.325.217.217.325.492.325.825 0 .317-.108.583-.325.8a1.118 1.118 0 0 1-.825.325h-5.9Z"/>
</svg>
