<svg width="24" height="24" fill="currentColor" viewBox="0 0 24 24">
  <path d="m19.025 20.625-5.55-5.55A6.32 6.32 0 0 1 11.75 16c-.65.233-1.342.35-2.075.35-1.85 0-3.417-.646-4.7-1.938C3.69 13.121 3.05 11.55 3.05 9.7c0-1.85.641-3.42 1.925-4.713 1.283-1.291 2.85-1.937 4.7-1.937s3.42.646 4.713 1.937c1.291 1.292 1.937 2.863 1.937 4.713 0 .733-.113 1.425-.337 2.075a5.728 5.728 0 0 1-.913 1.7l5.575 5.6c.2.2.3.454.3.763 0 .308-.108.57-.325.787a1.102 1.102 0 0 1-.812.325c-.325 0-.588-.108-.788-.325Zm-9.35-6.575c1.216 0 2.25-.421 3.1-1.263.85-.841 1.275-1.87 1.275-3.087s-.425-2.246-1.275-3.088c-.85-.841-1.883-1.262-3.1-1.262s-2.246.42-3.087 1.262c-.842.842-1.263 1.871-1.263 3.088s.42 2.246 1.263 3.087c.841.842 1.87 1.263 3.087 1.263Z"/>
</svg>
