<svg width="24" height="24" fill="currentColor" viewBox="0 0 24 24">
  <path d="M3.075 8.55c-.334 0-.609-.108-.825-.325a1.118 1.118 0 0 1-.325-.825 1.114 1.114 0 0 1 1.15-1.125H6.15c.316 0 .587.108.813.325.224.217.337.483.337.8a1.1 1.1 0 0 1-.337.825 1.131 1.131 0 0 1-.813.325H3.075Zm0 5.1c-.334 0-.609-.113-.825-.338a1.128 1.128 0 0 1-.325-.812c0-.317.108-.587.325-.812.216-.225.491-.338.825-.338H6.15c.316 0 .587.113.813.338.224.225.337.495.337.812 0 .317-.113.587-.337.812a1.109 1.109 0 0 1-.813.338H3.075Zm17.15 4.15-3.1-3.1c-.4.283-.837.496-1.312.638a5.107 5.107 0 0 1-1.463.212c-1.417 0-2.625-.5-3.625-1.5s-1.5-2.217-1.5-3.65c0-1.417.5-2.625 1.5-3.625s2.208-1.5 3.625-1.5c1.433 0 2.65.5 3.65 1.5s1.5 2.208 1.5 3.625c0 .5-.071.987-.213 1.462a4.45 4.45 0 0 1-.637 1.313l3.1 3.1c.216.2.325.454.325.763a.992.992 0 0 1-.325.762.978.978 0 0 1-.75.325c-.3 0-.558-.108-.775-.325Zm-5.875-4.45c.833 0 1.537-.283 2.113-.85.575-.567.862-1.267.862-2.1 0-.817-.287-1.513-.862-2.088-.576-.575-1.28-.862-2.113-.862-.817 0-1.512.287-2.087.862A2.844 2.844 0 0 0 11.4 10.4c0 .833.287 1.533.863 2.1.575.567 1.27.85 2.087.85ZM3.075 18.725c-.334 0-.609-.108-.825-.325a1.087 1.087 0 0 1-.325-.8c0-.333.108-.608.325-.825.216-.217.491-.325.825-.325h7.9c.316 0 .583.108.8.325.216.217.325.492.325.825 0 .317-.108.583-.325.8a1.087 1.087 0 0 1-.8.325h-7.9Z"/>
</svg>
