<svg width="24" height="24" fill="currentColor" viewBox="0 0 24 24">
  <path d="M3.48 8.225A.706.706 0 0 1 2.945 8a.74.74 0 0 1-.213-.525.726.726 0 0 1 .75-.75h3.2a.726.726 0 0 1 .75.75.74.74 0 0 1-.213.525.706.706 0 0 1-.537.225h-3.2Zm0 4.875a.726.726 0 0 1-.75-.75.728.728 0 0 1 .75-.75h3.2a.728.728 0 0 1 .75.75.726.726 0 0 1-.75.75h-3.2Zm16.526 4.375-3.3-3.3a4.248 4.248 0 0 1-1.238.637 4.42 4.42 0 0 1-1.362.213c-1.25 0-2.313-.438-3.187-1.313-.876-.875-1.313-1.937-1.313-3.187 0-1.25.437-2.313 1.313-3.188.874-.875 1.937-1.312 3.187-1.312 1.25 0 2.312.437 3.187 1.312s1.313 1.938 1.313 3.188c0 .467-.075.92-.225 1.362a4.95 4.95 0 0 1-.625 1.238l3.3 3.3a.74.74 0 0 1 .213.512.694.694 0 0 1-.213.538.733.733 0 0 1-.537.225.655.655 0 0 1-.513-.225Zm-5.9-3.95c.833 0 1.541-.292 2.125-.875a2.893 2.893 0 0 0 .875-2.125c0-.833-.292-1.542-.875-2.125a2.893 2.893 0 0 0-2.125-.875c-.834 0-1.542.292-2.125.875a2.893 2.893 0 0 0-.875 2.125c0 .833.291 1.542.875 2.125a2.893 2.893 0 0 0 2.125.875ZM3.48 17.975a.728.728 0 0 1-.75-.75c0-.2.07-.375.213-.525a.706.706 0 0 1 .537-.225h8.2c.216 0 .395.075.537.225a.74.74 0 0 1 .213.525.728.728 0 0 1-.75.75h-8.2Z"/>
</svg>
