<svg width="24" height="24" fill="currentColor" viewBox="0 0 24 24">
  <path fill-rule="evenodd" d="M3.5 9.077v9.615c0 .497.177.923.531 1.277.354.354.78.53 1.277.53h13.384a1.74 1.74 0 0 0 1.277-.53 1.74 1.74 0 0 0 .531-1.277V5.925a1.74 1.74 0 0 0-.531-1.277 1.74 1.74 0 0 0-1.277-.531H8.662v4.96H3.5ZM19 5.925v3.152h-3.662v-3.46h3.354a.3.3 0 0 1 .221.086.3.3 0 0 1 .087.222Zm-5.162-.308v3.46h-3.676v-3.46h3.676ZM19 15.54h-3.662V19h3.354a.3.3 0 0 0 .221-.087.3.3 0 0 0 .087-.22V15.54Zm-5.162 0h-3.676V19h3.676v-3.46Zm-5.176 0H5v3.152a.3.3 0 0 0 .087.221.3.3 0 0 0 .22.087h3.354v-3.46Zm5.176-4.962h-3.676v3.46h3.676v-3.46Zm5.162 0h-3.662v3.46H19v-3.46Zm-10.338 0H5v3.46h3.662v-3.46Z" clip-rule="evenodd"/>
</svg>
