<svg width="24" height="24" fill="currentColor" viewBox="0 0 24 24">
  <path fill-rule="evenodd" d="M2.797 8.898v10.03c0 .63.222 1.166.665 1.61.444.443.98.665 1.61.665h13.856c.63 0 1.167-.222 1.61-.665.444-.444.665-.98.665-1.61V5.89a2.19 2.19 0 0 0-.665-1.61 2.193 2.193 0 0 0-1.61-.665H8.35v5.283H2.797Zm16.131 7.022h-3.277v3.008h3.277V15.92Zm-5.277 0H10.35v3.008h3.302V15.92Zm-5.302 0H5.072v3.008h3.277V15.92ZM18.93 5.89v3.008h-3.28V5.89h3.277Zm-5.278 0v3.008H10.35V5.89h3.302Zm0 5.012H10.35v3.014h3.302v-3.014Zm5.277 0h-3.277v3.014h3.277v-3.014Zm-10.579 0H5.072v3.014h3.277v-3.014Z" clip-rule="evenodd"/>
</svg>
