<svg width="24" height="24" fill="currentColor" viewBox="0 0 24 24">
  <path d="M4 18.225c-.317 0-.587-.108-.812-.325a1.066 1.066 0 0 1-.338-.8c0-.333.113-.608.338-.825.225-.217.495-.325.812-.325h16c.317 0 .587.108.812.325.225.217.338.492.338.825 0 .317-.113.583-.338.8a1.128 1.128 0 0 1-.812.325H4Zm0-5.075c-.317 0-.587-.113-.812-.338A1.105 1.105 0 0 1 2.85 12c0-.317.113-.587.338-.812.225-.225.495-.338.812-.338h16c.317 0 .587.113.812.338.225.225.338.495.338.812 0 .317-.113.587-.338.812a1.105 1.105 0 0 1-.812.338H4Zm0-5.1c-.317 0-.587-.108-.812-.325A1.095 1.095 0 0 1 2.85 6.9c0-.317.113-.583.338-.8.225-.217.495-.325.812-.325h16c.317 0 .587.108.812.325.225.217.338.483.338.8 0 .333-.113.608-.338.825A1.128 1.128 0 0 1 20 8.05H4Z"/>
</svg>
