<svg width="24" height="24" fill="currentColor" viewBox="0 0 24 24">
  <path d="M4.072 18.108a2.19 2.19 0 0 1-1.61-.666 2.193 2.193 0 0 1-.665-1.61V5.073c0-.63.222-1.167.665-1.61a2.19 2.19 0 0 1 1.61-.665h15.856c.63 0 1.167.221 1.61.665.444.443.665.98.665 1.61v10.76a2.19 2.19 0 0 1-.665 1.61 2.19 2.19 0 0 1-1.61.666H17l.754.76a1.12 1.12 0 0 1 .336.814v.438c0 .307-.104.564-.312.772a1.048 1.048 0 0 1-.772.311H6.994a1.05 1.05 0 0 1-.772-.311 1.049 1.049 0 0 1-.312-.772v-.438a1.122 1.122 0 0 1 .336-.815l.754-.76H4.072Z"/>
</svg>
