<svg width="24" height="24" fill="currentColor" viewBox="0 0 24 24">
  <path fill-rule="evenodd" d="M7.904 21.412a9.946 9.946 0 0 0 3.983.803 9.946 9.946 0 0 0 3.984-.803 10.297 10.297 0 0 0 3.237-2.18 10.298 10.298 0 0 0 2.18-3.237 9.946 9.946 0 0 0 .803-3.984 9.946 9.946 0 0 0-.803-3.983 10.297 10.297 0 0 0-2.18-3.238 10.297 10.297 0 0 0-3.237-2.179 9.946 9.946 0 0 0-3.984-.803 9.946 9.946 0 0 0-3.983.803 10.297 10.297 0 0 0-3.238 2.18 10.297 10.297 0 0 0-2.179 3.237 9.946 9.946 0 0 0-.803 3.983c0 1.416.268 2.744.803 3.984a10.298 10.298 0 0 0 2.18 3.237 10.297 10.297 0 0 0 3.237 2.18Zm-1.778-8.604c.22.22.489.33.808.33h10.132c.319 0 .588-.11.808-.33.22-.22.33-.489.33-.808 0-.32-.11-.588-.33-.808-.22-.22-.489-.33-.808-.33H6.934c-.319 0-.588.11-.808.33-.22.22-.33.489-.33.808 0 .32.11.589.33.808Z" clip-rule="evenodd"/>
</svg>
