<svg width="24" height="24" fill="currentColor" viewBox="0 0 24 24">
  <path d="M19.275 12c0 .417-.146.77-.438 1.062a1.444 1.444 0 0 1-1.062.438c-.417 0-.771-.146-1.063-.438A1.446 1.446 0 0 1 16.275 12c0-.417.145-.77.437-1.062a1.447 1.447 0 0 1 1.063-.438c.416 0 .77.146 1.062.438.292.291.438.645.438 1.062ZM13.5 12c0 .417-.146.77-.438 1.062A1.444 1.444 0 0 1 12 13.5c-.417 0-.771-.146-1.062-.438A1.444 1.444 0 0 1 10.5 12c0-.417.146-.77.438-1.062A1.444 1.444 0 0 1 12 10.5c.416 0 .77.146 1.062.438.292.291.438.645.438 1.062Zm-5.775 0c0 .417-.146.77-.438 1.062a1.444 1.444 0 0 1-1.062.438c-.417 0-.771-.146-1.063-.438A1.446 1.446 0 0 1 4.725 12c0-.417.145-.77.437-1.062a1.447 1.447 0 0 1 1.063-.438c.416 0 .77.146 1.062.438.292.291.438.645.438 1.062Z"/>
</svg>
