<svg width="24" height="24" fill="currentColor" viewBox="0 0 24 24">
  <path d="M19.5 3h-2.25v-.75a.75.75 0 1 0-1.5 0V3h-3v-.75a.75.75 0 1 0-1.5 0V3h-3v-.75a.75.75 0 0 0-1.5 0V3H4.5a.75.75 0 0 0-.75.75v15a3 3 0 0 0 3 3h10.5a3 3 0 0 0 3-3v-15A.75.75 0 0 0 19.5 3Zm-8.25 2.25a.75.75 0 1 1 1.5 0V6a.75.75 0 1 1-1.5 0v-.75ZM7.5 6.75A.75.75 0 0 1 6.75 6v-.75a.75.75 0 0 1 1.5 0V6a.75.75 0 0 1-.75.75Zm7.5 9H9a.75.75 0 1 1 0-1.5h6a.75.75 0 1 1 0 1.5Zm0-3H9a.75.75 0 1 1 0-1.5h6a.75.75 0 1 1 0 1.5ZM17.25 6a.75.75 0 1 1-1.5 0v-.75a.75.75 0 1 1 1.5 0V6Z"/>
</svg>
