<svg width="24" height="24" fill="currentColor" viewBox="0 0 24 24">
  <path d="m9.108 16.137-.813 3.24a1.058 1.058 0 0 1-.379.6 1.063 1.063 0 0 1-.684.232c-.36 0-.654-.143-.882-.429a1.008 1.008 0 0 1-.2-.944l.677-2.699H4.245c-.377 0-.68-.146-.907-.438a1.07 1.07 0 0 1-.2-.98c.059-.26.191-.468.399-.624a1.15 1.15 0 0 1 .708-.233h3.148l.934-3.725H5.745c-.377 0-.68-.146-.907-.438a1.07 1.07 0 0 1-.2-.98c.059-.26.191-.468.399-.624a1.15 1.15 0 0 1 .708-.233h3.148l.813-3.239a1.072 1.072 0 0 1 1.062-.826c.36 0 .655.143.883.428.228.286.294.601.199.945l-.676 2.692h3.719l.813-3.239a1.072 1.072 0 0 1 1.063-.826c.36 0 .654.143.882.428.228.286.294.601.199.945l-.677 2.692h2.582c.377 0 .68.146.908.439.228.292.294.618.199.979-.058.261-.19.47-.398.624a1.15 1.15 0 0 1-.709.233h-3.147l-.934 3.725h2.581c.377 0 .68.146.908.439.228.292.294.618.199.979-.058.261-.19.47-.398.624a1.15 1.15 0 0 1-.709.233h-3.147l-.813 3.24a1.058 1.058 0 0 1-.379.6 1.063 1.063 0 0 1-.684.232c-.36 0-.654-.143-.882-.429a1.008 1.008 0 0 1-.2-.944l.677-2.699h-3.72Zm.565-2.275h3.72l.934-3.725h-3.72l-.934 3.725Z"/>
</svg>
