<svg width="24" height="24" fill="currentColor" viewBox="0 0 24 24">
  <path d="M14.316 17.909a.72.72 0 0 0 .525-.225.72.72 0 0 0 .225-.525.72.72 0 0 0-.225-.525.72.72 0 0 0-.525-.225.72.72 0 0 0-.525.225.72.72 0 0 0-.225.525c0 .2.075.375.225.525a.72.72 0 0 0 .525.225Zm2.75 0a.72.72 0 0 0 .525-.225.72.72 0 0 0 .225-.525.72.72 0 0 0-.225-.525.72.72 0 0 0-.525-.225.72.72 0 0 0-.525.225.72.72 0 0 0-.225.525c0 .2.075.375.225.525a.72.72 0 0 0 .525.225Zm2.75 0a.72.72 0 0 0 .525-.225.72.72 0 0 0 .225-.525.72.72 0 0 0-.225-.525.72.72 0 0 0-.525-.225.72.72 0 0 0-.525.225.72.72 0 0 0-.225.525c0 .2.075.375.225.525a.72.72 0 0 0 .525.225Zm-2.75 4.25c-1.384 0-2.563-.488-3.538-1.463-.975-.975-1.462-2.154-1.462-3.537 0-1.384.487-2.563 1.462-3.538.975-.975 2.154-1.462 3.538-1.462 1.383 0 2.562.487 3.537 1.462.975.975 1.463 2.154 1.463 3.538 0 1.383-.488 2.562-1.463 3.537-.975.975-2.154 1.463-3.537 1.463ZM7.209 8.117h7.857c.283 0 .52-.096.712-.288a.967.967 0 0 0 .288-.712.967.967 0 0 0-.288-.713.968.968 0 0 0-.712-.287H7.209a.968.968 0 0 0-.712.287.968.968 0 0 0-.288.713c0 .283.096.52.288.712a.965.965 0 0 0 .712.288Zm3.574 12.131H4.209a2.19 2.19 0 0 1-1.607-.668 2.19 2.19 0 0 1-.668-1.607V4.117c0-.626.223-1.161.668-1.607a2.19 2.19 0 0 1 1.607-.668h13.857a2.19 2.19 0 0 1 1.606.668c.446.446.669.981.669 1.607v6.903a7.034 7.034 0 0 0-1.585-.641 6.564 6.564 0 0 0-1.69-.214 11.6 11.6 0 0 0-.513.011c-.158.008-.32.027-.487.058a1.822 1.822 0 0 0-.482-.144 3.196 3.196 0 0 0-.518-.045H7.209a.968.968 0 0 0-.712.287.968.968 0 0 0-.288.713c0 .283.096.52.288.713a.968.968 0 0 0 .712.287h5.113c-.3.271-.573.568-.818.89a6.935 6.935 0 0 0-.656 1.038H7.21a.968.968 0 0 0-.712.288.968.968 0 0 0-.288.712c0 .284.096.521.288.713a.968.968 0 0 0 .712.287h2.968a3.8 3.8 0 0 0-.09.58 8.25 8.25 0 0 0-.021.612c0 .562.055 1.089.165 1.582.11.493.293.993.552 1.501Z"/>
</svg>
