<svg width="24" height="24" fill="currentColor" viewBox="0 0 24 24">
  <path d="M12 21.5c-1.314 0-2.55-.25-3.705-.748a9.594 9.594 0 0 1-3.016-2.03 9.59 9.59 0 0 1-2.03-3.016 9.247 9.247 0 0 1-.749-3.704c0-1.314.25-2.55.748-3.705a9.596 9.596 0 0 1 2.03-3.017 9.591 9.591 0 0 1 3.016-2.031 9.245 9.245 0 0 1 3.704-.749c1.314 0 2.55.25 3.705.748a9.595 9.595 0 0 1 3.018 2.031 9.594 9.594 0 0 1 2.03 3.016A9.25 9.25 0 0 1 21.5 12c0 .45-.028.892-.085 1.325a8.26 8.26 0 0 1-.269 1.275 2.893 2.893 0 0 0-.615-.487 2.359 2.359 0 0 0-.748-.284 6.64 6.64 0 0 0 .165-.897c.035-.303.052-.614.052-.932 0-2.233-.775-4.125-2.325-5.675C16.125 4.775 14.233 4 12 4c-2.233 0-4.125.775-5.675 2.325C4.775 7.875 4 9.767 4 12c0 2.234.775 4.125 2.325 5.675C7.875 19.225 9.767 20 12 20c.876 0 1.709-.131 2.5-.395a8.162 8.162 0 0 0 2.18-1.107c.156.207.338.393.546.558.208.165.434.297.678.394a9.556 9.556 0 0 1-2.713 1.509c-.997.36-2.06.541-3.191.541Zm7.106-3.75a.967.967 0 0 1-.71-.29.964.964 0 0 1-.29-.71c0-.28.096-.516.29-.71a.964.964 0 0 1 .71-.29c.28 0 .516.097.71.29.193.193.29.43.29.71 0 .28-.097.516-.29.71a.964.964 0 0 1-.71.29Zm-6.356-6.054 3.25 3.25a.72.72 0 0 1 .212.523A.707.707 0 0 1 16 16a.717.717 0 0 1-.527.218.717.717 0 0 1-.527-.218l-3.425-3.425a.9.9 0 0 1-.271-.648V7.75c0-.212.072-.39.216-.534A.726.726 0 0 1 12 7c.213 0 .391.072.535.216a.726.726 0 0 1 .215.534v3.946Z"/>
</svg>
