<svg width="24" height="24" fill="currentColor" viewBox="0 0 24 24">
  <path d="M12.421 22.239a9.844 9.844 0 0 1-3.952-.805 10.374 10.374 0 0 1-3.25-2.195 10.375 10.375 0 0 1-2.195-3.251 9.846 9.846 0 0 1-.806-3.953c0-1.41.275-2.736.825-3.977.55-1.24 1.296-2.32 2.239-3.24a10.646 10.646 0 0 1 3.3-2.183 10.172 10.172 0 0 1 4.025-.802c1.359 0 2.643.234 3.852.702a10.174 10.174 0 0 1 3.185 1.942 9.288 9.288 0 0 1 2.175 2.936 8.428 8.428 0 0 1 .806 3.66c0 1.941-.587 3.454-1.76 4.539-1.172 1.085-2.617 1.627-4.336 1.627h-1.712c-.134 0-.23.038-.286.113a.418.418 0 0 0-.085.257c0 .192.114.452.34.779.226.327.339.722.339 1.186 0 .865-.251 1.526-.754 1.981-.502.456-1.152.684-1.95.684Zm-5.428-9.203c.434 0 .792-.142 1.075-.425.284-.284.425-.642.425-1.075 0-.434-.141-.792-.425-1.075-.283-.284-.641-.425-1.075-.425-.433 0-.791.142-1.075.425-.283.283-.425.641-.425 1.075 0 .433.142.792.425 1.075.284.283.642.425 1.075.425ZM9.957 9.09c.434 0 .792-.142 1.075-.425.284-.284.425-.642.425-1.075 0-.434-.141-.792-.425-1.075-.283-.284-.641-.425-1.075-.425-.433 0-.791.141-1.075.425-.283.283-.425.641-.425 1.075 0 .433.142.791.425 1.075.284.283.642.425 1.075.425Zm4.929 0c.433 0 .791-.142 1.075-.425.283-.284.425-.642.425-1.075 0-.434-.142-.792-.425-1.075-.284-.284-.642-.425-1.075-.425-.434 0-.792.141-1.075.425-.284.283-.425.641-.425 1.075 0 .433.141.791.425 1.075.283.283.641.425 1.075.425Zm2.946 3.946c.433 0 .791-.142 1.075-.425.283-.284.425-.642.425-1.075 0-.434-.142-.792-.425-1.075-.284-.284-.642-.425-1.075-.425-.434 0-.792.142-1.075.425-.284.283-.425.641-.425 1.075 0 .433.142.792.425 1.075.283.283.641.425 1.075.425Z"/>
</svg>
