<svg width="24" height="24" fill="currentColor" viewBox="0 0 24 24">
  <path d="M14.75 18.5c-.409 0-.761-.148-1.057-.443A1.443 1.443 0 0 1 13.25 17V7c0-.409.148-.761.443-1.057A1.443 1.443 0 0 1 14.75 5.5H17c.409 0 .761.148 1.057.443.295.296.443.648.443 1.057v10c0 .409-.148.761-.443 1.057A1.443 1.443 0 0 1 17 18.5h-2.25ZM7 18.5c-.409 0-.761-.148-1.057-.443A1.443 1.443 0 0 1 5.5 17V7c0-.409.148-.761.443-1.057A1.443 1.443 0 0 1 7 5.5h2.25c.409 0 .761.148 1.057.443.295.296.443.648.443 1.057v10c0 .409-.148.761-.443 1.057a1.443 1.443 0 0 1-1.057.443H7Zm7.75-1.5H17V7h-2.25v10ZM7 17h2.25V7H7v10Z"/>
</svg>
