<svg width="24" height="24" fill="currentColor" viewBox="0 0 24 24">
  <path d="M16.18 19.365a2.19 2.19 0 0 1-1.607-.668 2.19 2.19 0 0 1-.669-1.607V6.91c0-.625.223-1.16.669-1.606a2.19 2.19 0 0 1 1.607-.669 2.19 2.19 0 0 1 1.606.669c.446.445.668.98.668 1.606v10.18c0 .625-.222 1.16-.668 1.607a2.191 2.191 0 0 1-1.607.668Zm-8.36 0a2.19 2.19 0 0 1-1.606-.668 2.191 2.191 0 0 1-.668-1.607V6.91c0-.625.222-1.16.668-1.606a2.19 2.19 0 0 1 1.607-.669 2.19 2.19 0 0 1 1.606.669c.446.445.669.98.669 1.606v10.18a2.19 2.19 0 0 1-.669 1.607 2.19 2.19 0 0 1-1.606.668Z"/>
</svg>
