<svg width="24" height="24" fill="currentColor" viewBox="0 0 24 24">
  <path d="M14.09 12.904c.833 0 1.541-.291 2.125-.875a2.893 2.893 0 0 0 .875-2.125c0-.833-.292-1.541-.875-2.125a2.893 2.893 0 0 0-2.126-.875c-.833 0-1.541.292-2.125.875a2.893 2.893 0 0 0-.875 2.125c0 .834.292 1.542.875 2.125a2.893 2.893 0 0 0 2.125.875ZM7.274 16.09a2.19 2.19 0 0 1-1.607-.668A2.19 2.19 0 0 1 5 13.815V6c0-.626.223-1.161.668-1.607a2.19 2.19 0 0 1 1.607-.668H20.91a2.19 2.19 0 0 1 1.607.668c.445.446.668.981.668 1.607v7.815a2.19 2.19 0 0 1-.668 1.607 2.19 2.19 0 0 1-1.607.668H7.275Zm-4.186 4.185a2.19 2.19 0 0 1-1.606-.668A2.19 2.19 0 0 1 .814 18V8.227c0-.319.11-.588.33-.808.22-.22.489-.33.808-.33.32 0 .589.11.808.33.22.22.33.49.33.808V18h15.772c.32 0 .589.11.808.33.22.219.33.488.33.808 0 .319-.11.588-.33.808-.22.22-.489.33-.808.33H3.09Zm4.096-12.37c.55 0 1.02-.196 1.413-.588a1.93 1.93 0 0 0 .587-1.413h-2v2Zm13.815 0v-2h-2c0 .55.196 1.02.587 1.412.392.392.863.587 1.413.587Zm-13.815 6h2a1.93 1.93 0 0 0-.587-1.413 1.926 1.926 0 0 0-1.413-.588v2Zm11.815 0h2v-2c-.55 0-1.021.195-1.413.587A1.926 1.926 0 0 0 19 13.904Z"/>
</svg>
