<svg width="24" height="24" fill="currentColor" viewBox="0 0 24 24">
  <path d="M7.453 11.114a3.51 3.51 0 0 1-2.584-1.073 3.536 3.536 0 0 1-1.066-2.588c0-1.011.355-1.872 1.066-2.584a3.525 3.525 0 0 1 2.584-1.066c1.011 0 1.874.355 2.588 1.066a3.51 3.51 0 0 1 1.072 2.584 3.527 3.527 0 0 1-1.072 2.588 3.527 3.527 0 0 1-2.588 1.072Zm0-2.276c.384 0 .712-.134.981-.404.27-.27.404-.597.404-.982s-.134-.71-.404-.976a1.346 1.346 0 0 0-.982-.398c-.385 0-.71.133-.976.398a1.328 1.328 0 0 0-.398.976c0 .385.133.713.398.982.266.27.591.404.976.404Zm9.094 11.365a3.53 3.53 0 0 1-2.588-1.07 3.52 3.52 0 0 1-1.072-2.586c0-1.01.357-1.872 1.072-2.585a3.531 3.531 0 0 1 2.588-1.07c1.011 0 1.873.357 2.587 1.071a3.525 3.525 0 0 1 1.07 2.586 3.52 3.52 0 0 1-1.072 2.585 3.525 3.525 0 0 1-2.585 1.07Zm0-2.275c.386 0 .71-.134.977-.403a1.34 1.34 0 0 0 .398-.978c0-.384-.133-.71-.398-.978a1.323 1.323 0 0 0-.977-.402 1.34 1.34 0 0 0-.981.403 1.33 1.33 0 0 0-.405.98c0 .383.135.709.405.977.27.267.597.401.981.401Zm-11.955 1.48a1.078 1.078 0 0 1-.317-.796c0-.32.106-.584.317-.796l13.236-13.23a1.07 1.07 0 0 1 .793-.314 1.085 1.085 0 0 1 1.11 1.11c0 .315-.106.579-.318.79L6.183 19.407a1.08 1.08 0 0 1-.795.317c-.32 0-.584-.105-.796-.317Z"/>
</svg>
