<svg width="24" height="24" fill="currentColor" viewBox="0 0 24 24">
  <path d="M12 11.997c-1.16 0-2.15-.41-2.971-1.232-.822-.821-1.232-1.811-1.232-2.971 0-1.16.41-2.15 1.232-2.969.82-.819 1.811-1.229 2.971-1.229 1.16 0 2.15.41 2.972 1.23.82.818 1.231 1.808 1.231 2.968s-.41 2.15-1.231 2.971c-.822.821-1.812 1.232-2.972 1.232Zm-5.928 8.407c-.63 0-1.166-.222-1.61-.666a2.193 2.193 0 0 1-.665-1.61v-.74c0-.602.156-1.157.467-1.664a3.098 3.098 0 0 1 1.246-1.16c1.046-.52 2.11-.911 3.192-1.174a14.108 14.108 0 0 1 6.608-.003c1.082.26 2.143.651 3.18 1.172.519.266.934.651 1.246 1.156a3.12 3.12 0 0 1 .467 1.673v.74a2.19 2.19 0 0 1-.665 1.61 2.19 2.19 0 0 1-1.61.666H6.072Z"/>
</svg>
