<svg width="24" height="24" fill="currentColor" viewBox="0 0 24 24">
  <path d="M12 11.7c-.966 0-1.791-.346-2.475-1.038C8.842 9.971 8.5 9.15 8.5 8.2c0-.967.342-1.792 1.025-2.475A3.373 3.373 0 0 1 12 4.7c.967 0 1.792.342 2.475 1.025A3.372 3.372 0 0 1 15.5 8.2c0 .95-.341 1.77-1.025 2.462-.683.692-1.508 1.038-2.475 1.038Zm5.975 7.6H6.025c-.433 0-.796-.146-1.087-.437A1.447 1.447 0 0 1 4.5 17.8v-.725c0-.483.133-.933.4-1.35a2.76 2.76 0 0 1 1.075-.975 14.36 14.36 0 0 1 2.988-1.088A13.003 13.003 0 0 1 12 13.3c1.017 0 2.03.12 3.038.362s2.004.605 2.987 1.088c.45.233.809.558 1.075.975.267.417.4.867.4 1.35v.725c0 .417-.146.771-.438 1.063a1.476 1.476 0 0 1-1.087.437ZM6 17.8h12v-.725c0-.2-.058-.383-.175-.55a1.474 1.474 0 0 0-.475-.425 13.985 13.985 0 0 0-2.637-.963 11.064 11.064 0 0 0-5.426 0c-.891.225-1.77.546-2.637.963-.2.117-.358.258-.475.425a.938.938 0 0 0-.175.55v.725Zm6-7.6c.55 0 1.021-.196 1.413-.588.392-.391.587-.862.587-1.412 0-.55-.195-1.021-.587-1.413A1.928 1.928 0 0 0 12 6.2c-.55 0-1.02.196-1.412.587A1.927 1.927 0 0 0 10 8.2c0 .55.196 1.02.588 1.412.392.392.862.588 1.412.588Z"/>
</svg>
