<svg width="24" height="24" fill="currentColor" viewBox="0 0 24 24">
  <path d="M12 17.548c1.262 0 2.335-.443 3.22-1.328.885-.885 1.328-1.958 1.328-3.22 0-1.262-.443-2.335-1.328-3.22-.885-.885-1.958-1.328-3.22-1.328-1.262 0-2.335.443-3.22 1.328-.885.885-1.328 1.958-1.328 3.22 0 1.262.443 2.335 1.328 3.22.885.885 1.958 1.328 3.22 1.328Zm0-2.156c-.672 0-1.239-.23-1.7-.692-.462-.461-.692-1.028-.692-1.7 0-.672.23-1.239.692-1.7.461-.462 1.028-.692 1.7-.692.672 0 1.239.23 1.7.692.462.461.692 1.028.692 1.7 0 .672-.23 1.239-.692 1.7-.461.462-1.028.692-1.7.692Zm-7.928 5.811a2.19 2.19 0 0 1-1.61-.665 2.193 2.193 0 0 1-.665-1.61V7.072c0-.63.222-1.167.665-1.61a2.19 2.19 0 0 1 1.61-.665h2.97l1.262-1.308a2.23 2.23 0 0 1 .74-.508c.287-.123.584-.184.89-.184h4.131c.308 0 .604.061.89.184.287.122.533.292.74.508l1.263 1.308h2.97c.63 0 1.167.221 1.61.665.444.443.665.98.665 1.61v11.856a2.19 2.19 0 0 1-.665 1.61 2.19 2.19 0 0 1-1.61.665H4.072Z"/>
</svg>
