<svg width="24" height="24" fill="currentColor" viewBox="0 0 24 24">
  <path d="M10.192 7.808V3.5h8.5c.505 0 .933.175 1.283.525.35.35.525.778.525 1.283v2.5H10.192ZM5.308 20.5c-.505 0-.933-.175-1.283-.525a1.745 1.745 0 0 1-.525-1.283v-8.5h4.308V20.5h-2.5ZM3.5 7.808v-2.5c0-.505.175-.933.525-1.283.35-.35.778-.525 1.283-.525h2.5v4.308H3.5Zm8.485 10.788 1.307 1.323c.139.139.21.31.213.515a.724.724 0 0 1-.228.539.718.718 0 0 1-.527.217.718.718 0 0 1-.527-.217l-2.494-2.494a.867.867 0 0 1-.271-.633c0-.24.09-.452.27-.633l2.495-2.494a.744.744 0 0 1 .514-.22.698.698 0 0 1 .54.22c.145.145.22.318.225.52a.732.732 0 0 1-.21.534l-1.307 1.323h2.861c.62 0 1.15-.22 1.59-.66.44-.44.66-.97.66-1.59v-2.892l-1.323 1.323a.726.726 0 0 1-.522.213.707.707 0 0 1-.532-.213.718.718 0 0 1-.217-.527c0-.207.072-.382.217-.527l2.495-2.494a.867.867 0 0 1 .632-.271.87.87 0 0 1 .633.27l2.494 2.495c.139.138.21.313.213.522a.707.707 0 0 1-.213.532.717.717 0 0 1-.527.217.717.717 0 0 1-.527-.217l-1.323-1.323v2.892c0 1.036-.366 1.92-1.098 2.652a3.613 3.613 0 0 1-2.652 1.098h-2.861Z"/>
</svg>
