<svg width="24" height="24" fill="currentColor" viewBox="0 0 24 24">
  <path d="M3.855 4.71a.827.827 0 0 1-.61-.245.827.827 0 0 1-.245-.61c0-.242.082-.445.246-.61A.827.827 0 0 1 3.856 3c.242 0 .445.082.609.246a.827.827 0 0 1 .245.61.827.827 0 0 1-.245.609.827.827 0 0 1-.61.245Zm4.073 0a.827.827 0 0 1-.61-.245.827.827 0 0 1-.246-.61c0-.242.082-.445.246-.61A.827.827 0 0 1 7.928 3c.242 0 .445.082.609.246a.827.827 0 0 1 .246.61.827.827 0 0 1-.246.609.827.827 0 0 1-.61.245Zm4.072 0a.827.827 0 0 1-.61-.245.828.828 0 0 1-.245-.61c0-.242.082-.445.246-.61A.827.827 0 0 1 12 3c.242 0 .445.082.61.246a.828.828 0 0 1 .245.61.828.828 0 0 1-.246.609.827.827 0 0 1-.609.245Zm4.072 0a.827.827 0 0 1-.609-.245.828.828 0 0 1-.246-.61c0-.242.082-.445.246-.61a.827.827 0 0 1 .61-.245c.242 0 .445.082.609.246a.828.828 0 0 1 .246.61.828.828 0 0 1-.246.609.827.827 0 0 1-.61.245Zm4.073 0a.827.827 0 0 1-.61-.245.828.828 0 0 1-.245-.61c0-.242.082-.445.245-.61a.827.827 0 0 1 .61-.245c.242 0 .445.082.61.246a.828.828 0 0 1 .245.61.828.828 0 0 1-.246.609.827.827 0 0 1-.61.245ZM3.855 8.783a.827.827 0 0 1-.61-.246.827.827 0 0 1-.245-.61c0-.242.082-.445.246-.609a.827.827 0 0 1 .61-.246c.242 0 .445.082.609.246a.827.827 0 0 1 .245.61.827.827 0 0 1-.245.609.827.827 0 0 1-.61.246Zm16.29 0a.827.827 0 0 1-.61-.246.828.828 0 0 1-.245-.61.83.83 0 0 1 .245-.609.827.827 0 0 1 .61-.246c.242 0 .445.082.61.246a.828.828 0 0 1 .245.61.828.828 0 0 1-.246.609.827.827 0 0 1-.61.246Zm-16.29 4.072a.828.828 0 0 1-.61-.246A.827.827 0 0 1 3 12c0-.242.082-.445.246-.61a.828.828 0 0 1 .61-.245c.242 0 .445.082.609.246A.827.827 0 0 1 4.71 12a.827.827 0 0 1-.245.61.828.828 0 0 1-.61.245Zm16.29 0a.827.827 0 0 1-.61-.246.827.827 0 0 1-.245-.609c0-.242.082-.445.245-.61a.827.827 0 0 1 .61-.245c.242 0 .445.082.61.246A.827.827 0 0 1 21 12a.827.827 0 0 1-.246.61.827.827 0 0 1-.61.245Zm-16.29 4.073a.828.828 0 0 1-.61-.246.827.827 0 0 1-.245-.61c0-.242.082-.445.246-.609a.828.828 0 0 1 .61-.246c.242 0 .445.082.609.246a.827.827 0 0 1 .245.61.827.827 0 0 1-.245.609.828.828 0 0 1-.61.246Zm16.29 0a.827.827 0 0 1-.61-.246.827.827 0 0 1-.245-.61.83.83 0 0 1 .245-.609.827.827 0 0 1 .61-.246c.242 0 .445.082.61.246a.827.827 0 0 1 .245.61.827.827 0 0 1-.246.609.827.827 0 0 1-.61.246ZM3.855 21a.828.828 0 0 1-.61-.246.827.827 0 0 1-.245-.61c0-.241.082-.445.246-.608a.828.828 0 0 1 .61-.246.83.83 0 0 1 .609.245.827.827 0 0 1 .245.61.827.827 0 0 1-.245.61.828.828 0 0 1-.61.245Zm4.073 0a.828.828 0 0 1-.61-.246.827.827 0 0 1-.246-.61c0-.241.082-.445.246-.608a.828.828 0 0 1 .61-.246.83.83 0 0 1 .609.245.827.827 0 0 1 .246.61.827.827 0 0 1-.246.61.828.828 0 0 1-.61.245ZM12 21a.827.827 0 0 1-.61-.246.827.827 0 0 1-.245-.61c0-.241.082-.445.246-.608A.827.827 0 0 1 12 19.29c.242 0 .445.082.61.245a.827.827 0 0 1 .245.61.827.827 0 0 1-.246.61A.827.827 0 0 1 12 21Zm4.072 0a.827.827 0 0 1-.609-.246.827.827 0 0 1-.246-.61c0-.241.082-.445.246-.608a.827.827 0 0 1 .61-.246.83.83 0 0 1 .609.245.827.827 0 0 1 .246.61.827.827 0 0 1-.246.61.827.827 0 0 1-.61.245Zm4.073 0a.827.827 0 0 1-.61-.246.827.827 0 0 1-.245-.61c0-.241.082-.445.245-.608a.827.827 0 0 1 .61-.246c.242 0 .445.082.61.245a.827.827 0 0 1 .245.61.827.827 0 0 1-.246.61.827.827 0 0 1-.61.245Z"/>
</svg>
