<svg width="24" height="24" fill="currentColor" viewBox="0 0 24 24">
  <path d="M4.112 5.225c-.312 0-.575-.108-.79-.322A1.074 1.074 0 0 1 3 4.113c0-.313.107-.576.322-.79A1.07 1.07 0 0 1 4.112 3c.313 0 .576.107.79.322.215.215.323.478.323.79 0 .313-.108.576-.322.79a1.074 1.074 0 0 1-.79.323Zm3.947 0c-.312 0-.575-.108-.79-.322a1.074 1.074 0 0 1-.322-.79c0-.313.107-.576.322-.79A1.07 1.07 0 0 1 8.059 3c.312 0 .576.107.79.322.215.215.322.478.322.79 0 .313-.107.576-.322.79a1.074 1.074 0 0 1-.79.323Zm3.941 0c-.312 0-.576-.108-.79-.322a1.075 1.075 0 0 1-.322-.79c0-.313.107-.576.322-.79.214-.216.478-.323.79-.323.312 0 .576.107.79.322.215.215.322.478.322.79 0 .313-.107.576-.322.79a1.075 1.075 0 0 1-.79.323Zm3.947 0c-.312 0-.576-.108-.79-.322a1.075 1.075 0 0 1-.323-.79c0-.313.108-.576.322-.79.215-.216.479-.323.79-.323.313 0 .576.107.791.322.215.215.322.478.322.79 0 .313-.107.576-.322.79a1.074 1.074 0 0 1-.79.323Zm3.94 0c-.311 0-.575-.108-.79-.322a1.075 1.075 0 0 1-.322-.79c0-.313.108-.576.322-.79.215-.216.479-.323.79-.323.313 0 .576.107.79.322.216.215.323.478.323.79 0 .313-.107.576-.322.79a1.074 1.074 0 0 1-.79.323ZM4.113 9.165c-.312 0-.575-.107-.79-.321A1.074 1.074 0 0 1 3 8.054c0-.313.107-.576.322-.791.215-.215.478-.322.79-.322.313 0 .576.107.79.322.215.215.323.478.323.79 0 .312-.108.576-.322.79a1.075 1.075 0 0 1-.79.323Zm15.776 0c-.313 0-.576-.107-.79-.321a1.075 1.075 0 0 1-.323-.79c0-.313.108-.576.322-.791.215-.215.479-.322.79-.322.313 0 .576.107.79.322.216.215.323.478.323.79 0 .312-.107.576-.322.79a1.074 1.074 0 0 1-.79.323ZM4.112 13.113c-.312 0-.575-.107-.79-.322A1.074 1.074 0 0 1 3 12c0-.312.107-.576.322-.79.215-.215.478-.322.79-.322.313 0 .576.107.79.322.215.214.323.478.323.79 0 .312-.108.576-.322.79a1.075 1.075 0 0 1-.79.322Zm15.776 0a1.07 1.07 0 0 1-.79-.322 1.074 1.074 0 0 1-.323-.79c0-.312.108-.576.322-.79.215-.215.479-.322.79-.322.313 0 .576.107.79.322.216.214.323.478.323.79 0 .312-.107.576-.322.79a1.074 1.074 0 0 1-.79.322Zm-15.776 3.94c-.312 0-.575-.107-.79-.322a1.075 1.075 0 0 1-.322-.79c0-.312.107-.576.322-.79.215-.215.478-.322.79-.322.313 0 .576.107.79.322.215.214.323.478.323.79 0 .312-.108.575-.322.79a1.075 1.075 0 0 1-.79.322Zm15.776 0a1.07 1.07 0 0 1-.79-.322 1.075 1.075 0 0 1-.323-.79c0-.312.108-.576.322-.79.215-.215.479-.322.79-.322.313 0 .576.107.79.322.216.214.323.478.323.79 0 .312-.107.575-.322.79a1.074 1.074 0 0 1-.79.322ZM4.112 21c-.312 0-.575-.107-.79-.322a1.074 1.074 0 0 1-.322-.79c0-.313.107-.576.322-.79.215-.215.478-.323.79-.323.313 0 .576.108.79.322.215.215.323.479.323.79 0 .313-.108.576-.322.79a1.075 1.075 0 0 1-.79.323Zm3.947 0c-.312 0-.575-.107-.79-.322a1.074 1.074 0 0 1-.322-.79c0-.313.107-.576.322-.79.215-.215.478-.323.79-.323.312 0 .576.108.79.322.215.215.322.479.322.79 0 .313-.107.576-.322.79a1.075 1.075 0 0 1-.79.323ZM12 21c-.312 0-.576-.107-.79-.322a1.074 1.074 0 0 1-.322-.79c0-.313.107-.576.322-.79.214-.215.478-.323.79-.323.312 0 .576.108.79.322.215.215.322.479.322.79 0 .313-.107.576-.322.79A1.075 1.075 0 0 1 12 21Zm3.947 0c-.312 0-.576-.107-.79-.322a1.074 1.074 0 0 1-.323-.79c0-.313.108-.576.322-.79.215-.215.479-.323.79-.323.313 0 .576.108.791.322.215.215.322.479.322.79 0 .313-.107.576-.322.79a1.074 1.074 0 0 1-.79.323Zm3.94 0c-.311 0-.575-.107-.79-.322a1.074 1.074 0 0 1-.322-.79c0-.313.108-.576.322-.79.215-.215.479-.323.79-.323.313 0 .576.108.79.322.216.215.323.479.323.79 0 .313-.107.576-.322.79a1.074 1.074 0 0 1-.79.323Z"/>
</svg>
