<svg width="24" height="24" fill="currentColor" viewBox="0 0 24 24">
  <path d="M4 16.221c-.32 0-.589-.11-.808-.33a1.094 1.094 0 0 1-.33-.807c0-.32.11-.589.33-.809.22-.22.489-.329.808-.329h5.862c.32 0 .589.11.809.33.22.22.329.489.329.808 0 .319-.11.588-.33.808-.22.22-.489.33-.808.33H4Zm0-4.185a1.1 1.1 0 0 1-.808-.33c-.22-.22-.33-.489-.33-.808 0-.319.11-.588.33-.808.22-.22.489-.33.808-.33h9.815c.319 0 .588.11.808.33.22.22.33.489.33.808 0 .32-.11.589-.33.808a1.1 1.1 0 0 1-.808.33H4ZM4 7.85a1.1 1.1 0 0 1-.808-.329 1.1 1.1 0 0 1-.33-.808c0-.32.11-.589.33-.808.22-.22.489-.33.808-.33h9.815c.319 0 .588.11.808.33.22.22.33.489.33.808 0 .32-.11.589-.33.808a1.1 1.1 0 0 1-.808.33H4Zm12.44 11.036a1.22 1.22 0 0 1-.426-.075 1.022 1.022 0 0 1-.37-.242l-2.15-2.15a1.1 1.1 0 0 1-.326-.786 1.075 1.075 0 0 1 .332-.811 1.1 1.1 0 0 1 .783-.327c.31-.006.578.096.802.308l1.355 1.329 3.435-3.43c.228-.223.496-.333.805-.329.309.005.577.12.805.349.215.228.326.494.333.798a1.06 1.06 0 0 1-.333.799l-4.244 4.25a1.016 1.016 0 0 1-.373.242c-.136.05-.28.075-.428.075Z"/>
</svg>
