<svg width="24" height="24" fill="currentColor" viewBox="0 0 24 24">
  <path d="M4 15.75a.725.725 0 0 1-.534-.216A.726.726 0 0 1 3.25 15c0-.213.072-.391.216-.534A.725.725 0 0 1 4 14.25h6c.213 0 .39.072.534.216a.726.726 0 0 1 .216.534.722.722 0 0 1-.216.534.725.725 0 0 1-.534.216H4Zm0-4a.725.725 0 0 1-.534-.216A.726.726 0 0 1 3.25 11c0-.213.072-.391.216-.534A.725.725 0 0 1 4 10.25h10c.213 0 .39.072.534.216a.726.726 0 0 1 .216.534.722.722 0 0 1-.216.534.726.726 0 0 1-.534.216H4Zm0-4a.725.725 0 0 1-.534-.216A.726.726 0 0 1 3.25 7c0-.213.072-.391.216-.535A.725.725 0 0 1 4 6.25h10c.213 0 .39.072.534.216A.726.726 0 0 1 14.75 7a.726.726 0 0 1-.216.535.726.726 0 0 1-.534.215H4Zm12.349 10.527a.838.838 0 0 1-.634-.258l-2.042-2.042a.745.745 0 0 1-.22-.514.7.7 0 0 1 .222-.542.733.733 0 0 1 .517-.223.732.732 0 0 1 .535.21l1.623 1.607 3.708-3.707a.714.714 0 0 1 .53-.22c.204.002.384.08.541.235.143.155.218.33.223.527a.7.7 0 0 1-.225.527l-4.144 4.144a.828.828 0 0 1-.298.198.967.967 0 0 1-.336.058Z"/>
</svg>
