<svg width="24" height="24" fill="currentColor" viewBox="0 0 24 24">
  <path d="M4.083 3.583v6.179-.025 9.846-16Zm3 9.75h2.798c.124-.287.27-.554.435-.801a5.42 5.42 0 0 1 .557-.7h-3.79a.725.725 0 0 0-.534.216.726.726 0 0 0-.216.535c0 .213.072.39.216.534a.726.726 0 0 0 .534.216Zm0 4h2.28a4.686 4.686 0 0 1-.11-1.5h-2.17a.725.725 0 0 0-.534.216.726.726 0 0 0-.216.534c0 .213.072.39.216.534a.726.726 0 0 0 .534.216Zm-2.694 3.75c-.504 0-.931-.175-1.281-.525a1.745 1.745 0 0 1-.525-1.283V3.89c0-.505.175-.932.525-1.282.35-.35.778-.525 1.283-.525h7.194a1.8 1.8 0 0 1 1.275.527l4.196 4.196a1.802 1.802 0 0 1 .527 1.275v2.011a4.21 4.21 0 0 0-.735-.216 8.434 8.434 0 0 0-.765-.114v-1.68h-3.6a.87.87 0 0 1-.641-.258.87.87 0 0 1-.259-.641v-3.6H4.391a.294.294 0 0 0-.212.096.294.294 0 0 0-.096.211v15.385c0 .077.032.148.096.212a.294.294 0 0 0 .212.096h5.9c.195.296.415.57.659.823.244.252.508.478.793.677H4.389Zm11.196-2.346c.743 0 1.371-.257 1.884-.77.512-.514.768-1.142.768-1.886s-.257-1.372-.77-1.884c-.514-.512-1.142-.768-1.886-.768-.743 0-1.371.257-1.884.77-.512.514-.768 1.142-.768 1.886 0 .743.257 1.371.77 1.883.514.512 1.142.769 1.886.769Zm5.626 2.973a.712.712 0 0 1-.527.207.715.715 0 0 1-.528-.207l-2.211-2.222a3.797 3.797 0 0 1-1.11.56 4.187 4.187 0 0 1-1.252.189c-1.154 0-2.135-.404-2.942-1.212-.808-.808-1.212-1.788-1.212-2.942 0-1.154.404-2.135 1.212-2.943.807-.807 1.788-1.211 2.942-1.211 1.154 0 2.135.404 2.942 1.211.808.808 1.212 1.789 1.212 2.943 0 .433-.063.85-.19 1.253a3.798 3.798 0 0 1-.558 1.108l2.22 2.212a.712.712 0 0 1 .209.526.716.716 0 0 1-.207.528Z"/>
</svg>
