<svg width="24" height="24" fill="currentColor" viewBox="0 0 24 24">
  <path d="M2.797 21.063V2.391c0-.133.057-.223.17-.27.115-.048.22-.024.315.07l.659.66a.545.545 0 0 0 .802-.006l.722-.728a.545.545 0 0 1 .801-.006l.735.734a.544.544 0 0 0 .398.168.544.544 0 0 0 .397-.168l.74-.74a.544.544 0 0 1 .398-.168c.154 0 .286.056.398.168l.74.74a.555.555 0 0 0 .796-.006l.734-.728a.555.555 0 0 1 .796-.006l.74.74a.544.544 0 0 0 .398.168.544.544 0 0 0 .398-.168l.74-.74a.544.544 0 0 1 .398-.168c.153 0 .286.056.398.168l.74.74a.544.544 0 0 0 .398.168.544.544 0 0 0 .398-.168l.746-.74a.544.544 0 0 1 .398-.168.54.54 0 0 1 .397.168l.735.734c.116.116.25.174.404.174a.535.535 0 0 0 .397-.174l.636-.641c.095-.095.2-.12.313-.072.114.048.171.138.171.27v18.667c0 .241-.106.405-.317.49-.212.085-.404.043-.574-.128l-.229-.228a.535.535 0 0 0-.397-.174.554.554 0 0 0-.404.174l-.735.734a.544.544 0 0 1-.397.168.544.544 0 0 1-.398-.168l-.746-.74a.544.544 0 0 0-.398-.168.544.544 0 0 0-.398.168l-.74.74a.544.544 0 0 1-.398.168.543.543 0 0 1-.398-.168l-.74-.74a.544.544 0 0 0-.398-.168.544.544 0 0 0-.398.168l-.74.74a.544.544 0 0 1-.398.168.544.544 0 0 1-.398-.168l-.74-.74a.544.544 0 0 0-.398-.168.544.544 0 0 0-.398.168l-.74.74a.544.544 0 0 1-.398.168.544.544 0 0 1-.397-.168l-.74-.74a.544.544 0 0 0-.398-.168.544.544 0 0 0-.398.168l-.746.74a.544.544 0 0 1-.398.168.544.544 0 0 1-.398-.168l-.734-.734a.554.554 0 0 0-.404-.174.535.535 0 0 0-.398.174l-.228.228c-.17.17-.362.213-.574.128-.212-.085-.318-.249-.318-.49Zm4.323-4.015h9.76c.296 0 .544-.1.746-.303.202-.201.302-.45.302-.745s-.1-.544-.302-.745a1.013 1.013 0 0 0-.745-.303H7.12c-.296 0-.544.101-.746.303-.201.201-.302.45-.302.745s.1.544.302.745c.202.202.45.303.746.303Zm0-4h9.76c.296 0 .544-.1.746-.303.202-.201.302-.45.302-.745s-.1-.544-.302-.745a1.013 1.013 0 0 0-.745-.303H7.12c-.296 0-.544.101-.746.303-.201.201-.302.45-.302.745s.1.544.302.745c.202.202.45.303.746.303Zm0-4h9.76c.296 0 .544-.1.746-.303.202-.201.302-.45.302-.745s-.1-.544-.302-.745a1.013 1.013 0 0 0-.745-.303H7.12c-.296 0-.544.101-.746.303-.201.201-.302.45-.302.745s.1.544.302.745c.202.202.45.303.746.303Z"/>
</svg>
