<svg width="24" height="24" fill="currentColor" viewBox="0 0 24 24">
  <path d="M14.048 17.161c.299 0 .552-.104.757-.311a1.04 1.04 0 0 0 .309-.76V13c0-.3-.103-.552-.309-.758a1.03 1.03 0 0 0-.757-.308h-3.024v-.958h3.024c.299 0 .552-.103.757-.309a1.03 1.03 0 0 0 .309-.757c0-.3-.103-.553-.309-.76a1.025 1.025 0 0 0-.757-.312h-.934c0-.299-.103-.551-.309-.757a1.03 1.03 0 0 0-.757-.308c-.3 0-.553.102-.76.308a1.025 1.025 0 0 0-.312.757H9.952c-.3 0-.552.104-.757.312a1.04 1.04 0 0 0-.309.76V13c0 .3.103.552.309.757.205.206.458.309.757.309h3.024v.958H9.952c-.3 0-.552.103-.757.308a1.03 1.03 0 0 0-.309.758c0 .299.103.552.309.76.205.207.458.311.757.311h.934c0 .3.103.552.309.758.205.205.458.308.757.308.3 0 .553-.103.76-.308.208-.206.312-.459.312-.758h1.024Zm-7.976 5.042c-.63 0-1.167-.222-1.61-.665a2.193 2.193 0 0 1-.665-1.61V4.072c0-.63.221-1.167.665-1.61a2.19 2.19 0 0 1 1.61-.665h7.073c.303 0 .593.057.87.173.278.116.52.278.727.485l4.802 4.802c.208.208.37.45.485.728.116.277.174.567.174.87v11.073c0 .63-.222 1.166-.665 1.61-.444.443-.98.665-1.61.665H6.072Z"/>
</svg>
