<svg width="24" height="24" fill="currentColor" viewBox="0 0 24 24">
  <path d="M14 16.75a.726.726 0 0 0 .535-.215.726.726 0 0 0 .215-.535v-3a.726.726 0 0 0-.215-.535.726.726 0 0 0-.535-.215h-3.25v-1.5H14a.726.726 0 0 0 .535-.215.726.726 0 0 0 .215-.535.726.726 0 0 0-.215-.535A.726.726 0 0 0 14 9.25h-1.25V9a.726.726 0 0 0-.215-.535A.726.726 0 0 0 12 8.25a.726.726 0 0 0-.535.215.726.726 0 0 0-.215.535v.25H10a.726.726 0 0 0-.535.215.726.726 0 0 0-.215.535v3a.73.73 0 0 0 .215.535.726.726 0 0 0 .535.215h3.25v1.5H10a.726.726 0 0 0-.535.215.726.726 0 0 0-.215.535.73.73 0 0 0 .215.535.726.726 0 0 0 .535.215h1.25V17a.73.73 0 0 0 .215.535.726.726 0 0 0 .535.215.726.726 0 0 0 .535-.215.726.726 0 0 0 .215-.535v-.25H14ZM6.308 21.5c-.505 0-.933-.175-1.283-.525a1.745 1.745 0 0 1-.525-1.283V4.308c0-.505.175-.933.525-1.283.35-.35.778-.525 1.283-.525h6.732a1.793 1.793 0 0 1 1.275.527l4.658 4.658A1.78 1.78 0 0 1 19.5 8.96v10.732c0 .505-.175.933-.525 1.283-.35.35-.778.525-1.283.525H6.308ZM17.692 20a.294.294 0 0 0 .212-.096.294.294 0 0 0 .096-.212V8.85L13.15 4H6.308a.294.294 0 0 0-.212.096.294.294 0 0 0-.096.212v15.384c0 .077.032.148.096.212a.294.294 0 0 0 .212.096h11.384Z"/>
</svg>
