<svg width="24" height="24" fill="currentColor" viewBox="0 0 24 24">
  <path d="M19.577 12.05a.743.743 0 0 1-.448-.16.682.682 0 0 1-.271-.407 7.583 7.583 0 0 0-.356-1.116 6.607 6.607 0 0 0-.539-1.046.663.663 0 0 1-.105-.458.71.71 0 0 1 .207-.428.786.786 0 0 1 .641-.228.702.702 0 0 1 .555.345c.249.392.465.8.647 1.226.183.425.324.875.424 1.349.064.25.02.466-.134.649a.77.77 0 0 1-.621.274Zm-6.527 8.517a.75.75 0 0 1 .164-.453.695.695 0 0 1 .413-.276 7.253 7.253 0 0 0 1.105-.34 6.331 6.331 0 0 0 1.047-.535.663.663 0 0 1 .458-.105c.168.02.31.09.428.207a.78.78 0 0 1 .228.637.699.699 0 0 1-.345.55 8.73 8.73 0 0 1-1.246.64 9.928 9.928 0 0 1-1.32.44.71.71 0 0 1-.653-.126c-.186-.149-.28-.362-.28-.639Zm5.015-2.902a.658.658 0 0 1-.203-.415.667.667 0 0 1 .101-.471c.212-.335.391-.683.539-1.046.147-.363.266-.735.356-1.116a.693.693 0 0 1 .263-.407.732.732 0 0 1 .456-.16c.27 0 .48.091.628.274.15.183.192.4.127.65-.11.45-.252.89-.427 1.318a8.239 8.239 0 0 1-.644 1.256.702.702 0 0 1-.555.345.786.786 0 0 1-.64-.228Zm-7.923 3.652c-1.92-.456-3.498-1.45-4.735-2.979C4.169 16.81 3.55 15.046 3.55 13.05c0-2.359.827-4.365 2.48-6.02 1.654-1.653 3.66-2.48 6.02-2.48h.457L11.2 3.242a.717.717 0 0 1-.217-.527c0-.206.077-.387.232-.542a.717.717 0 0 1 .527-.217.77.77 0 0 1 .542.217l2.48 2.494a.83.83 0 0 1 .255.633.83.83 0 0 1-.256.633L12.27 8.427a.718.718 0 0 1-.527.217.717.717 0 0 1-.527-.217.717.717 0 0 1-.217-.527c0-.206.072-.382.217-.527l1.323-1.323h-.488c-1.95 0-3.604.68-4.963 2.038C5.73 9.446 5.05 11.1 5.05 13.05c0 1.642.51 3.094 1.528 4.355a6.936 6.936 0 0 0 3.904 2.453.693.693 0 0 1 .408.263c.107.139.16.29.16.456 0 .26-.089.465-.267.613-.177.15-.39.191-.64.127Z"/>
</svg>
