<svg width="24" height="24" fill="currentColor" viewBox="0 0 24 24">
  <path d="M19.804 12.116c-.232 0-.458-.082-.677-.246a1.142 1.142 0 0 1-.435-.618 6.023 6.023 0 0 0-.642-1.556 1.067 1.067 0 0 1-.134-.72c.04-.26.146-.476.32-.646.282-.265.605-.38.97-.342.365.037.639.216.821.535.2.346.382.702.542 1.065.16.363.29.741.385 1.134.1.365.031.689-.205.97-.236.283-.551.424-.945.424Zm-6.754 8.747c0-.231.083-.457.248-.677.166-.22.373-.364.621-.434.27-.071.533-.16.792-.265.258-.105.507-.229.747-.371.219-.129.459-.175.72-.137.26.037.478.143.652.317.27.281.386.605.35.97a1.01 1.01 0 0 1-.531.82c-.36.202-.722.38-1.087.534a9.795 9.795 0 0 1-1.119.394c-.369.1-.693.034-.973-.196s-.42-.548-.42-.955Zm5.192-2.967a1.05 1.05 0 0 1-.314-.643 1.1 1.1 0 0 1 .134-.736c.143-.24.266-.488.369-.747a6.89 6.89 0 0 0 .261-.79c.07-.25.212-.455.425-.619.213-.164.442-.245.687-.245.406 0 .724.139.951.417.228.277.293.601.193.97a10.185 10.185 0 0 1-.92 2.206 1.015 1.015 0 0 1-.82.534c-.362.038-.684-.078-.966-.347Zm-8.566 4.081c-2.004-.557-3.643-1.65-4.917-3.278-1.275-1.628-1.912-3.489-1.912-5.583 0-2.532.878-4.69 2.634-6.471 1.756-1.782 3.896-2.689 6.42-2.72h.126l-.714-.72a1.102 1.102 0 0 1-.263-.763 1.1 1.1 0 0 1 .342-.788 1.08 1.08 0 0 1 .796-.317c.319 0 .59.106.814.317l2.581 2.6c.112.112.193.235.242.37.05.135.075.277.075.426 0 .15-.025.291-.075.426a1.02 1.02 0 0 1-.242.37l-2.6 2.6a1.079 1.079 0 0 1-.796.316 1.08 1.08 0 0 1-.795-.316 1.076 1.076 0 0 1-.326-.766c-.006-.3.077-.549.248-.748l.733-.733h-.164c-1.895.048-3.495.74-4.802 2.074-1.306 1.334-1.96 2.949-1.96 4.843 0 1.569.473 2.96 1.419 4.177a6.875 6.875 0 0 0 3.646 2.453c.253.07.46.212.622.425.161.213.242.444.242.692 0 .394-.137.703-.41.927-.274.224-.595.286-.964.187Z"/>
</svg>
