<svg width="24" height="24" fill="currentColor" viewBox="0 0 24 24">
  <path d="M4.346 19.562c.408.409.904.613 1.487.613.567 0 1.054-.204 1.462-.613.41-.408.613-.895.613-1.462 0-.583-.204-1.079-.613-1.487A1.994 1.994 0 0 0 5.833 16c-.583 0-1.079.204-1.487.613a2.023 2.023 0 0 0-.613 1.487c0 .567.205 1.054.613 1.462Zm6.175 0c.409.409.896.613 1.462.613.584 0 1.08-.204 1.487-.613a1.99 1.99 0 0 0 .614-1.462c0-.583-.205-1.079-.614-1.487A2.023 2.023 0 0 0 11.983 16c-.566 0-1.053.204-1.462.613A2.023 2.023 0 0 0 9.91 18.1c0 .567.204 1.054.612 1.462Zm6.176 0a2.02 2.02 0 0 0 1.486.613 1.99 1.99 0 0 0 1.462-.613 1.99 1.99 0 0 0 .614-1.462c0-.583-.205-1.079-.614-1.487A1.994 1.994 0 0 0 18.183 16a2.02 2.02 0 0 0-1.486.613 2.023 2.023 0 0 0-.613 1.487c0 .567.204 1.054.613 1.462Zm-6.176-6.087c.409.417.896.625 1.462.625a2 2 0 0 0 1.487-.625c.41-.417.614-.908.614-1.475 0-.583-.205-1.08-.614-1.488a2.024 2.024 0 0 0-1.487-.612c-.566 0-1.053.204-1.462.612A2.026 2.026 0 0 0 9.91 12c0 .567.204 1.058.612 1.475Zm6.176 0a2 2 0 0 0 1.486.625c.567 0 1.055-.208 1.462-.625.41-.417.614-.908.614-1.475 0-.583-.205-1.08-.614-1.488a1.995 1.995 0 0 0-1.462-.612c-.583 0-1.078.204-1.486.612A2.026 2.026 0 0 0 16.084 12c0 .567.204 1.058.613 1.475Zm0-6.088A2.02 2.02 0 0 0 18.183 8a1.99 1.99 0 0 0 1.462-.613c.41-.408.614-.904.614-1.487 0-.567-.205-1.054-.614-1.462a1.994 1.994 0 0 0-1.462-.613 2.02 2.02 0 0 0-1.486.613 1.994 1.994 0 0 0-.613 1.462c0 .583.204 1.079.613 1.487Z"/>
</svg>
