<svg width="24" height="24" fill="currentColor" viewBox="0 0 24 24">
  <path d="M16.884 20.384c-.962 0-1.786-.342-2.472-1.028-.685-.685-1.028-1.51-1.028-2.472s.343-1.786 1.028-2.471c.686-.686 1.51-1.028 2.472-1.028.963 0 1.787.342 2.472 1.028a3.366 3.366 0 0 1 1.028 2.471c0 .963-.342 1.787-1.028 2.472a3.368 3.368 0 0 1-2.472 1.028Zm0-1.5c.55 0 1.021-.195 1.413-.587.391-.392.587-.863.587-1.413s-.196-1.02-.587-1.412a1.926 1.926 0 0 0-1.413-.588c-.55 0-1.02.196-1.412.588a1.926 1.926 0 0 0-.588 1.412c0 .55.196 1.021.588 1.413.391.392.862.587 1.412.587Zm-9.769-1.5c-.962 0-1.786-.342-2.472-1.028-.685-.685-1.028-1.51-1.028-2.472s.343-1.786 1.028-2.471c.686-.686 1.51-1.028 2.472-1.028.963 0 1.787.342 2.472 1.028.685.685 1.028 1.509 1.028 2.471 0 .963-.343 1.787-1.028 2.472a3.368 3.368 0 0 1-2.472 1.028Zm0-1.5c.55 0 1.021-.195 1.413-.587.391-.392.587-.863.587-1.413s-.196-1.02-.587-1.412a1.926 1.926 0 0 0-1.413-.588c-.55 0-1.02.196-1.412.588a1.926 1.926 0 0 0-.588 1.412c0 .55.196 1.021.588 1.413.391.392.862.587 1.412.587ZM11 9.692c-.963 0-1.787-.343-2.472-1.028C7.842 7.98 7.5 7.154 7.5 6.192s.342-1.786 1.028-2.472c.685-.685 1.51-1.028 2.472-1.028s1.786.343 2.472 1.028c.685.686 1.028 1.51 1.028 2.472 0 .963-.343 1.787-1.028 2.472-.686.685-1.51 1.028-2.472 1.028Zm0-1.5c.55 0 1.02-.196 1.412-.587.392-.392.588-.863.588-1.413s-.196-1.02-.588-1.412A1.926 1.926 0 0 0 11 4.192c-.55 0-1.021.196-1.413.588A1.926 1.926 0 0 0 9 6.192c0 .55.196 1.021.587 1.413A1.93 1.93 0 0 0 11 8.192Z"/>
</svg>
