<svg width="24" height="24" fill="currentColor" viewBox="0 0 24 24">
  <path d="M17.227 21.43c-1.16 0-2.15-.41-2.968-1.231-.82-.822-1.23-1.812-1.23-2.972s.41-2.15 1.23-2.968c.819-.82 1.808-1.229 2.968-1.229s2.15.41 2.972 1.229c.82.819 1.231 1.808 1.231 2.968s-.41 2.15-1.231 2.972c-.822.82-1.812 1.231-2.972 1.231ZM6.773 18.4c-1.16 0-2.15-.41-2.972-1.228-.821-.82-1.232-1.809-1.232-2.969s.41-2.15 1.232-2.971C4.622 10.41 5.613 10 6.773 10s2.149.41 2.968 1.232c.82.82 1.229 1.811 1.229 2.971 0 1.16-.41 2.15-1.229 2.969-.82.819-1.809 1.229-2.968 1.229Zm4.364-8.292c-1.16 0-2.15-.41-2.971-1.23C7.345 8.06 6.934 7.07 6.934 5.91s.41-2.15 1.232-2.971c.821-.821 1.811-1.232 2.971-1.232 1.16 0 2.15.41 2.972 1.232.821.821 1.232 1.812 1.232 2.971 0 1.16-.411 2.15-1.232 2.969s-1.812 1.229-2.972 1.229Z"/>
</svg>
