<svg width="24" height="24" fill="currentColor" viewBox="0 0 24 24">
  <path d="M13.09 11.552V8.12c0-.31-.105-.568-.314-.777A1.054 1.054 0 0 0 12 7.03a1.05 1.05 0 0 0-.776.313 1.054 1.054 0 0 0-.314.777v3.837a1.113 1.113 0 0 0 .336.815l3.205 3.204c.203.203.456.305.76.305a1.051 1.051 0 0 0 1.076-1.07c0-.308-.104-.565-.31-.772l-2.887-2.887ZM12 22.203a9.946 9.946 0 0 1-3.984-.803 10.296 10.296 0 0 1-3.237-2.18 10.296 10.296 0 0 1-2.18-3.236A9.947 9.947 0 0 1 1.798 12c0-1.415.267-2.743.803-3.984A10.297 10.297 0 0 1 4.78 4.78 10.297 10.297 0 0 1 8.015 2.6 9.946 9.946 0 0 1 12 1.798c1.415 0 2.743.267 3.984.803 1.24.535 2.32 1.261 3.237 2.18a10.296 10.296 0 0 1 2.18 3.236A9.946 9.946 0 0 1 22.202 12a9.947 9.947 0 0 1-.803 3.984 10.295 10.295 0 0 1-2.18 3.237 10.295 10.295 0 0 1-3.236 2.18 9.947 9.947 0 0 1-3.984.802Z"/>
</svg>
