<svg width="24" height="24" fill="currentColor" viewBox="0 0 24 24">
  <path d="M13.914 21.061a1.451 1.451 0 0 1-1.07.431c-.425 0-.781-.143-1.069-.43l-8.8-8.8a1.622 1.622 0 0 1-.34-.5 1.486 1.486 0 0 1-.125-.604v-7.15c0-.41.148-.762.443-1.057a1.443 1.443 0 0 1 1.057-.443h7.15a1.572 1.572 0 0 1 1.085.446l8.8 8.815c.293.294.442.652.445 1.076a1.43 1.43 0 0 1-.426 1.066l-7.15 7.15Zm-1.074-1.053 7.155-7.15-8.83-8.85H4.01v7.15l8.83 8.85ZM6.51 7.758c.347 0 .642-.122.886-.365.243-.242.365-.537.365-.884s-.121-.642-.364-.886a1.202 1.202 0 0 0-.885-.365c-.347 0-.642.121-.886.364a1.202 1.202 0 0 0-.365.885c0 .346.122.642.364.885.243.244.538.366.885.366Z"/>
</svg>
