<svg width="24" height="24" fill="currentColor" viewBox="0 0 24 24">
  <path d="M19.5 13.5a1.48 1.48 0 0 1-.977 1.4l-4.842 1.782L11.9 21.52a1.492 1.492 0 0 1-2.802 0l-1.786-4.832-4.839-1.782a1.492 1.492 0 0 1 0-2.801l4.842-1.781 1.781-4.839a1.493 1.493 0 0 1 2.802 0l1.781 4.843 4.838 1.78A1.479 1.479 0 0 1 19.5 13.5Zm-5.25-9h1.5V6a.75.75 0 1 0 1.5 0V4.5h1.5a.75.75 0 1 0 0-1.5h-1.5V1.5a.75.75 0 1 0-1.5 0V3h-1.5a.75.75 0 1 0 0 1.5Zm8.25 3h-.75v-.75a.75.75 0 1 0-1.5 0v.75h-.75a.75.75 0 1 0 0 1.5h.75v.75a.75.75 0 1 0 1.5 0V9h.75a.75.75 0 1 0 0-1.5Z"/>
</svg>
