<svg width="24" height="24" fill="currentColor" viewBox="0 0 24 24">
  <path d="M6.275 7.866v1.271c0 .32-.11.59-.33.809a1.1 1.1 0 0 1-.808.329 1.1 1.1 0 0 1-.808-.33A1.1 1.1 0 0 1 4 9.138v-4c0-.319.11-.588.33-.808.219-.22.488-.329.808-.329h4c.319 0 .588.11.808.33.22.219.329.488.329.808 0 .319-.11.588-.33.808a1.1 1.1 0 0 1-.808.329h-1.27l4.815 4.816a2.245 2.245 0 0 1 .659 1.597v6.575c0 .32-.11.589-.33.808a1.1 1.1 0 0 1-.808.33 1.1 1.1 0 0 1-.808-.33 1.1 1.1 0 0 1-.33-.808v-6.606l-4.79-4.79Zm11.856.012-2.085 2.11a1.108 1.108 0 0 1-.811.343c-.313 0-.583-.114-.811-.342a1.13 1.13 0 0 1-.345-.821c-.002-.32.111-.593.339-.82l2.11-2.073H15.27a1.1 1.1 0 0 1-.808-.33 1.1 1.1 0 0 1-.33-.808c0-.319.11-.588.33-.808.22-.22.489-.329.808-.329h4c.32 0 .589.11.808.33.22.219.33.488.33.808v4c0 .319-.11.588-.33.808-.22.22-.489.329-.808.329a1.1 1.1 0 0 1-.808-.33 1.1 1.1 0 0 1-.33-.808V7.878Z"/>
</svg>
