<svg width="24" height="24" fill="currentColor" viewBox="0 0 24 24">
  <path d="m8.85 17.018 3.15-1.9 3.15 1.925-.825-3.6 2.775-2.4-3.65-.325-1.45-3.4-1.45 3.375-3.65.325 2.775 2.425-.825 3.575Zm3.15-.136-3.89 2.346a.72.72 0 0 1-.436.107.792.792 0 0 1-.395-.148.839.839 0 0 1-.273-.331.647.647 0 0 1-.031-.453l1.033-4.417-3.435-2.974a.737.737 0 0 1-.245-.387.702.702 0 0 1 .028-.428.845.845 0 0 1 .233-.34.807.807 0 0 1 .415-.171l4.533-.396 1.76-4.172a.68.68 0 0 1 .29-.344.819.819 0 0 1 .825 0 .68.68 0 0 1 .292.344l1.76 4.171 4.532.397a.807.807 0 0 1 .416.172.845.845 0 0 1 .232.34.702.702 0 0 1 .028.427.737.737 0 0 1-.245.387l-3.435 2.974 1.033 4.417a.647.647 0 0 1-.03.453.838.838 0 0 1-.274.331.792.792 0 0 1-.395.148.72.72 0 0 1-.436-.107L12 16.882Z"/>
</svg>
