<svg width="24" height="24" fill="currentColor" viewBox="0 0 24 24">
  <path d="M6.5 15.692V8.308c0-.499.177-.925.53-1.278.353-.353.779-.53 1.278-.53h7.384c.499 0 .925.177 1.278.53.353.353.53.779.53 1.278v7.384c0 .499-.177.925-.53 1.278-.353.353-.779.53-1.278.53H8.308c-.499 0-.925-.177-1.278-.53a1.741 1.741 0 0 1-.53-1.278ZM8.308 16h7.384a.3.3 0 0 0 .222-.087.3.3 0 0 0 .086-.22V8.307a.3.3 0 0 0-.086-.221.3.3 0 0 0-.222-.087H8.308a.3.3 0 0 0-.221.087.3.3 0 0 0-.087.22v7.385a.3.3 0 0 0 .087.221.3.3 0 0 0 .22.087Z"/>
</svg>
