<svg width="24" height="24" fill="currentColor" viewBox="0 0 24 24">
  <path d="M4.999 6c-.32 0-.589-.11-.808-.33a1.094 1.094 0 0 1-.33-.807c0-.32.11-.589.33-.809.22-.22.489-.329.808-.329h14c.32 0 .589.11.808.33.22.219.33.488.33.808 0 .319-.11.588-.33.808-.22.22-.489.33-.808.33h-14Zm0 14.275c-.32 0-.589-.11-.808-.33a1.094 1.094 0 0 1-.33-.807v-4.869h-.145a1.096 1.096 0 0 1-.846-.434 1.074 1.074 0 0 1-.212-.933l1.024-5a1.12 1.12 0 0 1 .397-.65c.208-.168.446-.252.715-.252h14.41c.27 0 .507.084.715.252.207.168.34.385.397.65l1.024 5a1.09 1.09 0 0 1-.212.954c-.22.28-.502.42-.846.42h-.145v4.862c0 .319-.11.588-.33.808-.22.22-.489.33-.808.33-.32 0-.589-.11-.808-.33a1.1 1.1 0 0 1-.33-.808v-4.863h-3.725v4.863c0 .319-.11.588-.329.808-.22.22-.489.33-.808.33h-8ZM6.136 18h5.725v-3.725H6.136V18Z"/>
</svg>
