<svg width="24" height="24" fill="currentColor" viewBox="0 0 24 24">
  <path d="M4.962 5.75a.726.726 0 0 1-.535-.216A.726.726 0 0 1 4.212 5a.73.73 0 0 1 .215-.535.726.726 0 0 1 .535-.215h14.077c.212 0 .39.072.534.216a.726.726 0 0 1 .216.534.726.726 0 0 1-.216.535.726.726 0 0 1-.534.215H4.962Zm.192 14a.875.875 0 0 1-.644-.26.875.875 0 0 1-.26-.644V13.75h-.31a.873.873 0 0 1-.702-.334.835.835 0 0 1-.176-.76l1-4.693a.88.88 0 0 1 .319-.512.887.887 0 0 1 .57-.201h14.1a.89.89 0 0 1 .569.2.88.88 0 0 1 .319.513l1 4.693a.835.835 0 0 1-.176.76.873.873 0 0 1-.703.334h-.31V19c0 .212-.072.39-.215.534a.726.726 0 0 1-.535.216.725.725 0 0 1-.534-.216.726.726 0 0 1-.216-.534v-5.25h-4.5v5.096c0 .256-.086.47-.26.644a.875.875 0 0 1-.644.26H5.154Zm.596-1.5h6.5v-4.5h-6.5v4.5Zm-1.084-6h14.669l-.764-3.5H5.43l-.763 3.5Z"/>
</svg>
