<svg width="24" height="24" fill="currentColor" viewBox="0 0 24 24">
  <path d="M12.944 20.122a1.102 1.102 0 0 1-.345-.796c-.002-.302.11-.567.339-.795l2.654-2.654h-8.78c-.63 0-1.167-.222-1.61-.665a2.193 2.193 0 0 1-.666-1.61V4.674c0-.32.11-.589.33-.809.22-.22.488-.329.808-.329.319 0 .588.11.808.33.22.219.33.488.33.808v8.928h8.78l-2.667-2.673a1.062 1.062 0 0 1-.333-.799c.007-.304.117-.57.333-.798a1.13 1.13 0 0 1 .795-.352 1.06 1.06 0 0 1 .796.333l4.625 4.625c.112.112.194.236.245.373a1.202 1.202 0 0 1 0 .857 1.052 1.052 0 0 1-.245.373l-4.58 4.58a1.105 1.105 0 0 1-.81.343c-.31 0-.58-.114-.807-.342Z"/>
</svg>
