<svg width="24" height="24" fill="currentColor" viewBox="0 0 24 24">
  <path d="M13.162 19.613a.715.715 0 0 1-.228-.532.732.732 0 0 1 .228-.523l3.153-3.153H6.996c-.498 0-.924-.177-1.278-.53a1.742 1.742 0 0 1-.53-1.278V4.905c0-.213.072-.391.216-.535a.725.725 0 0 1 .534-.215.73.73 0 0 1 .535.215.725.725 0 0 1 .215.535v8.692a.3.3 0 0 0 .087.221.3.3 0 0 0 .221.087h9.32l-3.17-3.17a.7.7 0 0 1-.225-.526.784.784 0 0 1 .225-.527.742.742 0 0 1 .532-.236c.2-.002.373.072.522.22l4.356 4.356a.827.827 0 0 1 .255.633.826.826 0 0 1-.256.633l-4.324 4.325a.735.735 0 0 1-.535.232.735.735 0 0 1-.534-.232Z"/>
</svg>
