<svg width="24" height="24" fill="currentColor" viewBox="0 0 24 24">
  <path d="M18.692 20.5H5.308c-.505 0-.933-.175-1.283-.525a1.745 1.745 0 0 1-.525-1.283V5.308c0-.505.175-.933.525-1.283.35-.35.778-.525 1.283-.525h13.384c.505 0 .933.175 1.283.525.35.35.525.778.525 1.283v13.384c0 .505-.175.933-.525 1.283-.35.35-.778.525-1.283.525ZM5 8.25h14V5.308a.294.294 0 0 0-.096-.212.294.294 0 0 0-.212-.096H5.308a.294.294 0 0 0-.212.096.294.294 0 0 0-.096.212V8.25Zm3.692 1.5H5v8.942c0 .077.032.148.096.212a.294.294 0 0 0 .212.096h3.384V9.75Zm6.616 0V19h3.384a.294.294 0 0 0 .212-.096.294.294 0 0 0 .096-.212V9.75h-3.692Zm-1.5 0h-3.616V19h3.616V9.75Z"/>
</svg>
