<svg width="24" height="24" fill="currentColor" viewBox="0 0 24 24">
  <path d="M12 22.203a9.952 9.952 0 0 1-3.984-.802 10.295 10.295 0 0 1-3.237-2.18 10.295 10.295 0 0 1-2.18-3.237A9.952 9.952 0 0 1 1.797 12c0-1.415.267-2.743.802-3.984a10.295 10.295 0 0 1 2.18-3.238A10.295 10.295 0 0 1 8.016 2.6 9.952 9.952 0 0 1 12 1.797c.76 0 1.505.082 2.233.248.728.165 1.43.407 2.107.725a.996.996 0 0 1 .553.654.965.965 0 0 1-.143.851 1.26 1.26 0 0 1-.747.528 1.39 1.39 0 0 1-.932-.076 8.187 8.187 0 0 0-1.507-.485A7.318 7.318 0 0 0 12 4.072c-2.197 0-4.067.77-5.612 2.313C4.844 7.928 4.072 9.8 4.072 12s.772 4.072 2.316 5.615c1.545 1.542 3.415 2.313 5.612 2.313 2.193 0 4.063-.77 5.609-2.31 1.546-1.54 2.32-3.405 2.32-5.594a4.466 4.466 0 0 0-.039-.59 1.545 1.545 0 0 1 .21-.917 1.19 1.19 0 0 1 .728-.563c.306-.088.59-.053.851.105a.882.882 0 0 1 .442.695c.03.206.05.41.063.614.013.203.02.414.02.632a9.952 9.952 0 0 1-.803 3.984 10.294 10.294 0 0 1-2.18 3.237 10.295 10.295 0 0 1-3.237 2.18 9.952 9.952 0 0 1-3.984.802Zm-1.418-8.612 9.27-9.295c.207-.208.465-.315.774-.32.31-.007.574.1.794.32.207.207.31.468.31.783s-.103.577-.31.784L11.384 15.918a1.098 1.098 0 0 1-.802.342c-.306 0-.574-.114-.801-.342l-2.76-2.76a1.059 1.059 0 0 1-.312-.781 1.063 1.063 0 0 1 1.095-1.092c.315 0 .576.104.784.311l1.994 1.995Z"/>
</svg>
