<svg width="24" height="24" fill="currentColor" viewBox="0 0 24 24">
  <path d="M8.776 19.2c-.63 0-1.166-.221-1.61-.665a2.193 2.193 0 0 1-.665-1.61v-9.85c0-.63.222-1.167.665-1.61.444-.444.98-.665 1.61-.665h3.74c1.135 0 2.166.35 3.093 1.05.927.701 1.39 1.651 1.39 2.85 0 .802-.182 1.448-.545 1.936-.364.488-.742.842-1.135 1.062v.018c.492.211.979.587 1.46 1.127.48.54.72 1.286.72 2.238 0 1.443-.536 2.49-1.607 3.142-1.072.652-2.134.977-3.188.977H8.776Zm.953-2.907h2.75c.72 0 1.188-.192 1.403-.574.214-.382.322-.697.322-.944s-.108-.563-.322-.948c-.215-.384-.702-.576-1.46-.576H9.729v3.042Zm0-5.856h2.487c.518 0 .909-.14 1.173-.422a1.37 1.37 0 0 0 .396-.965c0-.4-.145-.728-.434-.984-.29-.256-.655-.384-1.097-.384H9.729v2.755Z"/>
</svg>
