<svg width="24" height="24" fill="currentColor" viewBox="0 0 24 24">
  <path d="M8.528 19.5c-.294 0-.546-.103-.754-.308a1.014 1.014 0 0 1-.313-.75V6.625H3.567a1.03 1.03 0 0 1-.756-.31 1.027 1.027 0 0 1-.311-.756c0-.296.103-.546.308-.751.206-.205.456-.308.75-.308h9.923c.296 0 .548.103.756.309.207.206.311.456.311.75s-.103.545-.309.753a1.013 1.013 0 0 1-.748.313H9.586v11.808c0 .296-.102.548-.308.756a1.017 1.017 0 0 1-.75.311Zm8.932 0c-.294 0-.543-.103-.748-.308a1.022 1.022 0 0 1-.308-.75v-6.865h-1.913a1.03 1.03 0 0 1-.756-.311 1.026 1.026 0 0 1-.312-.755c0-.296.103-.546.309-.751a1.02 1.02 0 0 1 .749-.308h5.952c.296 0 .548.103.756.309.207.206.311.456.311.75s-.103.545-.308.754a1.014 1.014 0 0 1-.75.312H18.52v6.865c0 .294-.103.544-.308.75a1.022 1.022 0 0 1-.75.308Z"/>
</svg>
