<svg width="24" height="24" fill="currentColor" viewBox="0 0 24 24">
  <path d="M6.732 19.191c-.386 0-.714-.134-.983-.404a1.338 1.338 0 0 1-.404-.983c0-.386.134-.714.404-.983.27-.27.597-.405.983-.405H9.38l2.947-8.832h-2.56c-.385 0-.713-.135-.982-.405a1.338 1.338 0 0 1-.405-.983c0-.386.135-.713.405-.983s.597-.404.983-.404h7.5c.386 0 .713.135.983.404.27.27.404.597.404.983s-.134.714-.404.983c-.27.27-.597.405-.983.405h-2.149l-2.946 8.832h2.059c.386 0 .714.135.983.405.27.27.405.597.405.983s-.135.713-.405.983-.597.404-.983.404h-7.5Z"/>
</svg>
