<svg width="24" height="24" fill="currentColor" viewBox="0 0 24 24">
  <path d="M8.406 20.203a1.55 1.55 0 0 1-1.131-.461 1.527 1.527 0 0 1-.466-1.129V6.988H3.393c-.444 0-.82-.155-1.13-.466a1.54 1.54 0 0 1-.466-1.131c0-.444.155-.82.465-1.13a1.54 1.54 0 0 1 1.13-.464h10.024c.444 0 .82.155 1.13.465.311.31.466.688.466 1.132 0 .443-.155.82-.465 1.13a1.54 1.54 0 0 1-1.13.464H9.993v11.62c0 .443-.154.82-.461 1.13-.308.31-.683.465-1.127.465Zm9.203 0a1.55 1.55 0 0 1-1.131-.461 1.527 1.527 0 0 1-.466-1.129V12.18h-1.41c-.444 0-.82-.155-1.13-.466a1.54 1.54 0 0 1-.466-1.13c0-.444.154-.82.462-1.128a1.534 1.534 0 0 1 1.128-.461h6.018c.444 0 .82.154 1.128.461.307.308.461.684.461 1.127 0 .444-.154.82-.461 1.131a1.53 1.53 0 0 1-1.128.466h-1.417v6.428c0 .444-.153.82-.461 1.13a1.524 1.524 0 0 1-1.127.466Z"/>
</svg>
