<svg width="24" height="24" fill="currentColor" viewBox="0 0 24 24">
  <path d="M3.126 15.88c-.601 0-1.13-.228-1.589-.686-.458-.458-.686-.987-.686-1.588V11.97c0-.124.013-.26.04-.405.027-.145.068-.278.122-.399l3.035-7.151c.166-.381.45-.704.85-.967a2.241 2.241 0 0 1 1.252-.395h7.76c.63 0 1.167.222 1.61.666.444.443.665.98.665 1.61v10.013c0 .306-.06.597-.18.87-.12.274-.286.516-.497.727l-5.043 5.018a1.938 1.938 0 0 1-1.028.523c-.391.068-.767.01-1.128-.172a1.635 1.635 0 0 1-.777-.792 1.585 1.585 0 0 1-.093-1.096l1.017-4.14h-5.33ZM20.233 2.654c.562 0 1.043.2 1.443.6.4.4.6.88.6 1.442v9.144c0 .562-.199 1.042-.594 1.442-.396.4-.873.6-1.43.6h-.025c-.562 0-1.043-.2-1.442-.6-.4-.4-.6-.88-.6-1.442V4.695c0-.562.2-1.043.6-1.442.4-.4.88-.6 1.442-.6h.006Z"/>
</svg>
