<svg width="24" height="24" fill="currentColor" viewBox="0 0 24 24">
  <path d="M20.874 8.12c.601 0 1.13.228 1.588.686.458.458.687.987.687 1.588v1.636c0 .124-.013.26-.04.405a1.762 1.762 0 0 1-.122.399l-3.036 7.151c-.166.381-.449.704-.848.967-.4.263-.818.395-1.253.395h-7.76a2.19 2.19 0 0 1-1.61-.666 2.193 2.193 0 0 1-.666-1.61V9.059c0-.306.06-.597.18-.87a2.36 2.36 0 0 1 .498-.727l5.042-5.018a1.938 1.938 0 0 1 1.028-.523 1.77 1.77 0 0 1 1.128.172 1.635 1.635 0 0 1 .871 1.888l-1.017 4.14h5.33ZM3.766 21.346c-.561 0-1.042-.2-1.442-.6-.4-.4-.6-.88-.6-1.442V10.16c0-.562.198-1.042.594-1.442.396-.4.873-.6 1.43-.6h.024c.562 0 1.043.2 1.443.6.4.4.6.88.6 1.442v9.144c0 .562-.2 1.043-.6 1.442-.4.4-.88.6-1.443.6h-.006Z"/>
</svg>
