<svg width="24" height="24" fill="currentColor" viewBox="0 0 24 24">
  <path d="M7 18.185c-1.718 0-3.179-.601-4.382-1.804C1.416 15.178.814 13.718.814 12c0-1.719.602-3.179 1.804-4.382C3.821 6.416 5.282 5.815 7 5.815h10c1.718 0 3.178.601 4.381 1.804 1.203 1.203 1.804 2.663 1.804 4.381 0 1.719-.601 3.179-1.804 4.381-1.203 1.203-2.663 1.804-4.381 1.804H7ZM17 15c.833 0 1.541-.292 2.125-.875A2.893 2.893 0 0 0 20 12c0-.833-.292-1.542-.875-2.125A2.893 2.893 0 0 0 17 9c-.834 0-1.542.292-2.125.875A2.893 2.893 0 0 0 14 12c0 .833.291 1.542.875 2.125A2.893 2.893 0 0 0 17 15Z"/>
</svg>
