<svg width="24" height="24" fill="currentColor" viewBox="0 0 24 24">
  <path d="M7 17.5c-1.528 0-2.826-.535-3.896-1.604C2.034 14.828 1.5 13.53 1.5 12.002c0-1.527.535-2.826 1.604-3.896C4.174 7.036 5.472 6.5 7 6.5h10c1.528 0 2.826.535 3.896 1.604 1.07 1.069 1.604 2.367 1.604 3.894 0 1.527-.535 2.826-1.604 3.896-1.07 1.07-2.368 1.606-3.896 1.606H7ZM7 16h10c1.1 0 2.042-.392 2.825-1.175C20.608 14.042 21 13.1 21 12s-.392-2.042-1.175-2.825C19.042 8.392 18.1 8 17 8H7c-1.1 0-2.042.392-2.825 1.175C3.392 9.958 3 10.9 3 12s.392 2.042 1.175 2.825C4.958 15.608 5.9 16 7 16Zm9.999-1.25c.763 0 1.413-.267 1.948-.802a2.649 2.649 0 0 0 .803-1.947c0-.763-.267-1.413-.802-1.948a2.648 2.648 0 0 0-1.947-.803c-.763 0-1.413.267-1.948.802a2.649 2.649 0 0 0-.803 1.947c0 .763.267 1.413.802 1.948a2.649 2.649 0 0 0 1.947.803Z"/>
</svg>
