<svg width="24" height="24" fill="currentColor" viewBox="0 0 24 24">
  <path d="m18.33 15.904-4.9-4.863-2.384 2.384c-.439.44-.978.659-1.616.659a2.2 2.2 0 0 1-1.617-.659L2.593 8.16a1.118 1.118 0 0 1-.327-.79 1.053 1.053 0 0 1 .332-.802 1.08 1.08 0 0 1 .796-.316c.319 0 .584.105.796.316l5.24 5.24 2.383-2.383c.44-.44.978-.659 1.617-.659.638 0 1.177.22 1.616.659l4.882 4.888v-1.397c0-.319.11-.588.33-.808.22-.22.489-.33.808-.33.319 0 .588.11.808.33.22.22.33.489.33.808v4.126c0 .319-.11.588-.33.808a1.1 1.1 0 0 1-.808.33h-4.132a1.1 1.1 0 0 1-.808-.33 1.1 1.1 0 0 1-.33-.808c0-.32.11-.589.33-.808.22-.22.489-.33.808-.33h1.397Z"/>
</svg>
