<svg width="24" height="24" fill="currentColor" viewBox="0 0 24 24">
  <path d="M3.027 17.26a.691.691 0 0 1-.22-.535.738.738 0 0 1 .22-.51l5.044-5.11a1.723 1.723 0 0 1 1.28-.526c.51 0 .94.175 1.29.527l2.499 2.513a.289.289 0 0 0 .212.087.32.32 0 0 0 .22-.087l5.393-5.332H16.75a.726.726 0 0 1-.535-.216.726.726 0 0 1-.215-.534c0-.213.071-.391.215-.535a.725.725 0 0 1 .535-.215h3.846c.257 0 .473.086.645.258a.876.876 0 0 1 .259.646v3.846a.726.726 0 0 1-.216.534.726.726 0 0 1-.534.216.734.734 0 0 1-.535-.21.71.71 0 0 1-.215-.53V9.34l-5.368 5.368a1.74 1.74 0 0 1-1.28.517 1.74 1.74 0 0 1-1.281-.517L9.573 12.21a.3.3 0 0 0-.221-.087.3.3 0 0 0-.222.087l-5.05 5.05a.717.717 0 0 1-.527.217.717.717 0 0 1-.526-.217Z"/>
</svg>
