<svg width="24" height="24" fill="currentColor" viewBox="0 0 24 24">
  <path d="M2.333 17.61A1.057 1.057 0 0 1 2 16.807c.007-.313.115-.577.327-.793l5.22-5.278c.44-.439.979-.659 1.617-.659.639 0 1.177.22 1.617.66l2.383 2.402 4.901-4.863H16.67c-.32 0-.59-.11-.809-.33a1.094 1.094 0 0 1-.329-.808c0-.319.11-.588.33-.808a1.1 1.1 0 0 1 .806-.33H20.8c.32 0 .589.11.808.33.22.219.33.488.33.808v4.125c0 .32-.11.588-.33.808-.22.22-.489.33-.808.33-.32 0-.589-.11-.808-.33-.22-.22-.33-.489-.33-.808V9.866l-4.881 4.882c-.44.44-.978.659-1.617.659-.638 0-1.177-.22-1.616-.659l-2.384-2.377-5.24 5.24a1.08 1.08 0 0 1-.796.317 1.08 1.08 0 0 1-.795-.317Z"/>
</svg>
