<svg width="24" height="24" fill="currentColor" viewBox="0 0 24 24">
  <path d="M4 18.75a.725.725 0 0 1-.534-.216A.726.726 0 0 1 3.25 18c0-.213.072-.391.216-.535A.726.726 0 0 1 4 17.25h4c.212 0 .39.072.534.216A.726.726 0 0 1 8.75 18a.726.726 0 0 1-.216.535.726.726 0 0 1-.534.215H4Zm0-12a.725.725 0 0 1-.534-.216A.726.726 0 0 1 3.25 6c0-.213.072-.391.216-.535A.726.726 0 0 1 4 5.25h8c.213 0 .39.072.534.216A.726.726 0 0 1 12.75 6a.726.726 0 0 1-.216.535.726.726 0 0 1-.534.215H4Zm8 14a.725.725 0 0 1-.535-.216.726.726 0 0 1-.215-.534v-4c0-.213.072-.39.216-.534A.726.726 0 0 1 12 15.25c.213 0 .391.072.535.216a.726.726 0 0 1 .215.534v1.25H20c.212 0 .39.072.534.216a.726.726 0 0 1 .216.534.726.726 0 0 1-.216.535.726.726 0 0 1-.534.215h-7.25V20c0 .212-.072.39-.216.534a.727.727 0 0 1-.534.216Zm-4-6a.725.725 0 0 1-.535-.216A.726.726 0 0 1 7.25 14v-1.25H4a.725.725 0 0 1-.534-.216A.726.726 0 0 1 3.25 12c0-.213.072-.391.216-.535A.726.726 0 0 1 4 11.25h3.25V10c0-.213.072-.39.216-.534A.726.726 0 0 1 8 9.25c.213 0 .391.072.535.216A.726.726 0 0 1 8.75 10v4c0 .213-.072.39-.216.534A.726.726 0 0 1 8 14.75Zm4-2a.726.726 0 0 1-.534-.216.727.727 0 0 1-.216-.534c0-.213.072-.391.216-.535A.726.726 0 0 1 12 11.25h8c.212 0 .39.072.534.216a.726.726 0 0 1 .216.534.726.726 0 0 1-.216.535.726.726 0 0 1-.534.215h-8Zm4-4a.725.725 0 0 1-.535-.216A.726.726 0 0 1 15.25 8V4c0-.213.072-.39.216-.534A.726.726 0 0 1 16 3.25c.213 0 .391.072.535.216A.726.726 0 0 1 16.75 4v1.25H20c.212 0 .39.072.534.216A.726.726 0 0 1 20.75 6a.726.726 0 0 1-.216.535.726.726 0 0 1-.534.215h-3.25V8c0 .212-.072.39-.216.534A.726.726 0 0 1 16 8.75Z"/>
</svg>
