<svg width="24" height="24" fill="currentColor" viewBox="0 0 24 24">
  <path d="M7.952 18.5a.726.726 0 0 1-.535-.215.726.726 0 0 1-.215-.535c0-.213.072-.39.215-.534A.726.726 0 0 1 7.952 17h6.427c1.043 0 1.941-.345 2.694-1.034.753-.689 1.129-1.54 1.129-2.552 0-1.013-.376-1.863-1.129-2.549-.753-.685-1.65-1.028-2.694-1.028H7.358l2.255 2.255a.719.719 0 0 1 .218.527.718.718 0 0 1-.218.527.707.707 0 0 1-.531.213.725.725 0 0 1-.522-.213L5.133 9.72a.827.827 0 0 1-.256-.632.828.828 0 0 1 .256-.633L8.56 5.027a.717.717 0 0 1 .526-.217c.207 0 .383.072.527.217a.707.707 0 0 1 .213.532.724.724 0 0 1-.213.522L7.358 8.337h7.02c1.463 0 2.716.488 3.76 1.464 1.042.976 1.564 2.18 1.564 3.613 0 1.432-.522 2.637-1.565 3.617s-2.296 1.47-3.758 1.47H7.952Z"/>
</svg>
