<svg width="24" height="24" fill="currentColor" viewBox="0 0 24 24">
  <path d="M8.21 19.203a1.1 1.1 0 0 1-.81-.33 1.1 1.1 0 0 1-.328-.807c0-.32.11-.589.329-.809.22-.22.489-.329.808-.329h6.016c1.003 0 1.87-.324 2.603-.973.734-.649 1.1-1.455 1.1-2.42 0-.963-.366-1.77-1.1-2.422-.733-.65-1.6-.976-2.603-.976H8.123l1.679 1.68c.21.21.316.476.316.795a1.08 1.08 0 0 1-1.113 1.112 1.08 1.08 0 0 1-.795-.317L4.598 9.802a1.052 1.052 0 0 1-.245-.373 1.201 1.201 0 0 1-.078-.43c0-.148.026-.291.078-.428a1.06 1.06 0 0 1 .245-.373L8.21 4.592a1.08 1.08 0 0 1 .796-.317 1.08 1.08 0 0 1 1.112 1.113c0 .32-.105.584-.316.796l-1.68 1.678h6.103c1.641 0 3.048.544 4.22 1.632 1.172 1.088 1.758 2.433 1.758 4.036 0 1.602-.586 2.949-1.758 4.038-1.172 1.09-2.579 1.635-4.22 1.635H8.21Z"/>
</svg>
