<svg width="24" height="24" fill="currentColor" viewBox="0 0 24 24">
  <path d="M8.365 8.112a.736.736 0 0 1-.217-.543c0-.216.072-.397.217-.542l2.998-2.998a.818.818 0 0 1 .301-.198 1.027 1.027 0 0 1 .676 0 .692.692 0 0 1 .289.198l3.013 3.013a.7.7 0 0 1 .21.535.754.754 0 0 1-.768.752.736.736 0 0 1-.542-.217l-2.546-2.547-2.562 2.562a.701.701 0 0 1-.534.21.754.754 0 0 1-.535-.225Zm3.63 12.115a.871.871 0 0 1-.33-.065 1.042 1.042 0 0 1-.302-.19l-2.998-2.999a.736.736 0 0 1-.217-.542c0-.217.072-.398.217-.542a.736.736 0 0 1 .542-.218c.217 0 .398.073.543.218l2.546 2.546 2.561-2.562a.7.7 0 0 1 .535-.21.754.754 0 0 1 .752.768.736.736 0 0 1-.217.542l-2.998 2.998a.85.85 0 0 1-.289.19.918.918 0 0 1-.344.066Z"/>
</svg>
