<svg width="24" height="24" fill="currentColor" viewBox="0 0 24 24">
  <path d="M14.445 19.874c.217.22.486.33.806.33h1.803a3.03 3.03 0 0 0 2.23-.923 3.05 3.05 0 0 0 .92-2.233V15.22c0-.303.103-.558.31-.766a1.05 1.05 0 0 1 .773-.311c.26 0 .477-.088.653-.264a.887.887 0 0 0 .263-.653v-2.454a.887.887 0 0 0-.263-.653.886.886 0 0 0-.653-.263c-.307 0-.564-.104-.772-.312a1.049 1.049 0 0 1-.312-.772v-1.82a3.05 3.05 0 0 0-.918-2.233 3.03 3.03 0 0 0-2.231-.923H15.25c-.32 0-.589.108-.806.325a1.093 1.093 0 0 0-.325.805c0 .32.108.59.325.81.217.22.486.329.806.329h1.606c.303 0 .558.104.766.311.207.208.311.463.311.767V8.97c0 .64.185 1.22.553 1.742.369.521.857.893 1.465 1.113v.35a3.008 3.008 0 0 0-1.465 1.114 2.947 2.947 0 0 0-.553 1.741v1.82c0 .308-.104.565-.311.773a1.041 1.041 0 0 1-.766.311H15.25c-.32 0-.589.109-.806.325a1.092 1.092 0 0 0-.325.805c0 .32.108.59.325.81Zm-9.73-.594a3.03 3.03 0 0 0 2.231.923h1.797c.32 0 .59-.108.806-.325.217-.216.326-.485.326-.805 0-.32-.109-.59-.326-.81a1.089 1.089 0 0 0-.806-.329H7.15a1.05 1.05 0 0 1-.773-.311 1.05 1.05 0 0 1-.311-.772v-1.82c0-.642-.185-1.223-.553-1.744a2.995 2.995 0 0 0-1.46-1.11v-.352a2.996 2.996 0 0 0 1.46-1.112 2.952 2.952 0 0 0 .553-1.743V7.144c0-.304.104-.56.311-.767a1.05 1.05 0 0 1 .773-.311h1.593c.32 0 .59-.108.806-.325.217-.217.326-.485.326-.805 0-.32-.109-.59-.326-.81a1.089 1.089 0 0 0-.806-.33H6.946a3.03 3.03 0 0 0-2.23.924 3.049 3.049 0 0 0-.92 2.232v1.82c0 .308-.103.565-.31.773a1.041 1.041 0 0 1-.767.312.892.892 0 0 0-.657.265.892.892 0 0 0-.265.657v2.442c0 .262.088.48.265.657a.892.892 0 0 0 .657.266c.303 0 .559.104.766.311.208.208.312.463.312.766v1.827c0 .873.306 1.617.918 2.233Z"/>
  <path d="M12 15a3 3 0 1 0 0-6 3 3 0 0 0 0 6Z"/>
</svg>
