<svg width="24" height="24" fill="currentColor" viewBox="0 0 24 24">
  <path d="M14.485 19.285a.725.725 0 0 0 .534.215h1.721c.763 0 1.414-.266 1.952-.798a2.617 2.617 0 0 0 .808-1.933v-2.057c0-.354.125-.651.374-.891.25-.24.554-.36.915-.36a.696.696 0 0 0 .712-.711v-1.5a.696.696 0 0 0-.713-.711c-.36 0-.665-.12-.914-.36a1.186 1.186 0 0 1-.374-.89V7.23c0-.757-.27-1.4-.808-1.933A2.676 2.676 0 0 0 16.74 4.5h-1.72a.725.725 0 0 0-.535.215.725.725 0 0 0-.216.535c0 .213.072.391.216.535a.725.725 0 0 0 .534.215h1.721c.348 0 .645.118.89.355.247.236.37.528.37.876v2.058c0 .594.177 1.128.53 1.6.355.471.816.8 1.383.984v.254a2.748 2.748 0 0 0-1.382.984 2.599 2.599 0 0 0-.531 1.6v2.058c0 .348-.123.64-.37.876a1.239 1.239 0 0 1-.89.355h-1.72a.725.725 0 0 0-.535.215.725.725 0 0 0-.216.535c0 .213.072.391.216.535Zm-9.177-.583a2.675 2.675 0 0 0 1.952.798h1.73a.73.73 0 0 0 .535-.215.726.726 0 0 0 .215-.535.726.726 0 0 0-.215-.535.726.726 0 0 0-.534-.215H7.26c-.348 0-.645-.118-.89-.355A1.167 1.167 0 0 1 6 16.77v-2.057a2.6 2.6 0 0 0-.53-1.6 2.748 2.748 0 0 0-1.383-.985v-.254a2.748 2.748 0 0 0 1.382-.984A2.6 2.6 0 0 0 6 9.289V7.23c0-.348.123-.64.37-.876.245-.237.542-.355.89-.355h1.73a.73.73 0 0 0 .535-.215.726.726 0 0 0 .215-.535.726.726 0 0 0-.215-.535.726.726 0 0 0-.534-.215H7.26c-.763 0-1.414.266-1.952.798A2.617 2.617 0 0 0 4.5 7.231v2.058c0 .353-.125.65-.374.89-.25.24-.554.36-.915.36-.2 0-.368.068-.505.205a.687.687 0 0 0-.206.506v1.5c0 .2.069.369.206.506a.688.688 0 0 0 .506.205c.36 0 .665.12.914.36.25.24.374.537.374.89v2.058c0 .757.27 1.4.808 1.933ZM12 14a2 2 0 1 0 0-4 2 2 0 0 0 0 4Z"/>
</svg>
