<svg width="24" height="24" fill="currentColor" viewBox="0 0 24 24">
  <path d="m8.41 21.183-1.383-2.325-2.615-.562a.826.826 0 0 1-.538-.354.878.878 0 0 1-.16-.625l.255-2.69-1.779-2.035A.835.835 0 0 1 1.96 12c0-.23.077-.428.23-.592l1.78-2.035-.256-2.69a.878.878 0 0 1 .16-.625.826.826 0 0 1 .538-.354l2.615-.562L8.41 2.817a.915.915 0 0 1 .492-.404.842.842 0 0 1 .633.033L12 3.488l2.465-1.042a.842.842 0 0 1 .633-.033.915.915 0 0 1 .492.404l1.383 2.325 2.616.562a.826.826 0 0 1 .537.354c.134.192.188.4.16.625l-.255 2.69 1.779 2.035c.154.164.23.361.23.592 0 .23-.076.428-.23.592l-1.78 2.035.256 2.69a.878.878 0 0 1-.16.625.826.826 0 0 1-.538.354l-2.615.562-1.383 2.325a.915.915 0 0 1-.492.404.842.842 0 0 1-.633-.033L12 20.512l-2.465 1.042a.842.842 0 0 1-.633.033.915.915 0 0 1-.492-.404Zm1.04-1.233L12 18.87l2.58 1.08 1.42-2.4 2.75-.63-.25-2.82 1.85-2.1-1.85-2.13.25-2.82-2.75-.6-1.45-2.4L12 5.13 9.42 4.05 8 6.45l-2.75.6.25 2.82L3.65 12l1.85 2.1-.25 2.85 2.75.6 1.45 2.4Zm1.5-6.885-1.623-1.607a.716.716 0 0 0-.514-.213.723.723 0 0 0-.54.228.718.718 0 0 0-.217.527c0 .206.072.382.217.527l2.044 2.044c.181.18.392.271.633.271s.452-.09.633-.27l4.144-4.145a.704.704 0 0 0 .22-.522.768.768 0 0 0-.22-.532.764.764 0 0 0-.535-.24.708.708 0 0 0-.534.225l-3.708 3.707Z"/>
</svg>
