<svg width="24" height="24" fill="currentColor" viewBox="0 0 24 24">
  <path d="m8.006 21.9-1.432-2.427-2.72-.594a1.087 1.087 0 0 1-.68-.441 1.076 1.076 0 0 1-.208-.783l.275-2.79L1.39 12.74a1.07 1.07 0 0 1-.286-.74c0-.282.095-.528.286-.74l1.85-2.126-.274-2.789a1.076 1.076 0 0 1 .208-.783c.172-.236.398-.383.68-.441l2.72-.594L8.006 2.1c.15-.245.358-.41.625-.498a1.11 1.11 0 0 1 .799.038L12 2.729l2.57-1.088a1.11 1.11 0 0 1 .799-.038c.267.087.475.253.624.498l1.432 2.426 2.72.594c.282.058.51.205.681.44.172.237.241.498.208.784l-.275 2.79 1.851 2.125c.19.212.286.458.286.74s-.095.528-.286.74l-1.85 2.126.274 2.789c.034.286-.036.547-.208.783a1.087 1.087 0 0 1-.68.441l-2.72.594-1.433 2.427c-.149.244-.357.41-.624.497a1.11 1.11 0 0 1-.799-.038L12 21.271 9.43 22.36a1.11 1.11 0 0 1-.799.038 1.117 1.117 0 0 1-.625-.497Zm2.944-9.266-1.408-1.389a.986.986 0 0 0-.727-.293c-.288 0-.537.104-.745.312a.998.998 0 0 0-.293.736c0 .295.098.54.293.736l2.078 2.078c.228.228.495.342.802.342.307 0 .574-.114.802-.342l4.178-4.178a.974.974 0 0 0 .302-.736 1.077 1.077 0 0 0-.302-.736 1.052 1.052 0 0 0-.745-.321.985.985 0 0 0-.746.302l-3.489 3.49Z"/>
</svg>
