<svg width="24" height="24" fill="currentColor" viewBox="0 0 24 24">
  <path d="M2.5 17.692V6.308c0-.497.177-.923.531-1.277A1.74 1.74 0 0 1 4.308 4.5h15.384c.497 0 .923.177 1.277.531.354.354.531.78.531 1.277v11.384c0 .497-.177.923-.531 1.277a1.74 1.74 0 0 1-1.277.531H4.308a1.74 1.74 0 0 1-1.277-.531 1.74 1.74 0 0 1-.531-1.277ZM20 11.25V6.308a.3.3 0 0 0-.087-.221.3.3 0 0 0-.22-.087H4.307a.3.3 0 0 0-.221.087.3.3 0 0 0-.087.22v4.943h16ZM9.692 18h10a.3.3 0 0 0 .221-.087.3.3 0 0 0 .087-.22V12.75H9.692V18Zm-5.384 0h3.884v-5.25H4v4.942a.3.3 0 0 0 .087.221.3.3 0 0 0 .22.087Z"/>
</svg>
