<svg width="24" height="24" fill="currentColor" viewBox="0 0 24 24">
  <path d="M7.02 16.75h3.96a.726.726 0 0 0 .535-.215.726.726 0 0 0 .216-.535.726.726 0 0 0-.216-.535.726.726 0 0 0-.534-.215H7.019a.726.726 0 0 0-.534.215.726.726 0 0 0-.216.535c0 .213.072.391.216.535a.726.726 0 0 0 .534.215Zm6-8h3.96a.726.726 0 0 0 .535-.215.726.726 0 0 0 .216-.535.726.726 0 0 0-.216-.535.726.726 0 0 0-.534-.215h-3.962a.726.726 0 0 0-.534.215.726.726 0 0 0-.216.535c0 .213.072.391.216.535a.726.726 0 0 0 .534.215Zm-3 4h3.96a.726.726 0 0 0 .535-.215.726.726 0 0 0 .216-.535.726.726 0 0 0-.216-.535.726.726 0 0 0-.534-.215h-3.962a.726.726 0 0 0-.534.215.726.726 0 0 0-.216.535c0 .213.072.391.216.535a.726.726 0 0 0 .534.215ZM5.307 20.5c-.505 0-.933-.175-1.283-.525a1.745 1.745 0 0 1-.525-1.283V5.308c0-.505.175-.933.525-1.283.35-.35.778-.525 1.283-.525h13.384c.505 0 .933.175 1.283.525.35.35.525.778.525 1.283v13.384c0 .505-.175.933-.525 1.283-.35.35-.778.525-1.283.525H5.308Zm0-1.5h13.384a.294.294 0 0 0 .212-.096.294.294 0 0 0 .096-.212V5.308a.294.294 0 0 0-.096-.212.294.294 0 0 0-.212-.096H5.308a.294.294 0 0 0-.212.096.294.294 0 0 0-.096.212v13.384c0 .077.032.148.096.212a.294.294 0 0 0 .212.096Z"/>
</svg>
