<svg width="24" height="24" fill="currentColor" viewBox="0 0 24 24">
  <path d="M12 16.075c1.133 0 2.095-.396 2.887-1.188.792-.791 1.188-1.754 1.188-2.887s-.396-2.096-1.188-2.887c-.792-.792-1.754-1.188-2.887-1.188-1.134 0-2.096.396-2.887 1.188-.792.791-1.188 1.754-1.188 2.887s.396 2.096 1.188 2.887c.791.792 1.753 1.188 2.887 1.188Zm0-1.375c-.75 0-1.388-.263-1.912-.788A2.601 2.601 0 0 1 9.3 12c0-.75.262-1.388.788-1.913A2.603 2.603 0 0 1 12 9.3c.75 0 1.387.262 1.913.787.524.525.787 1.163.787 1.913s-.263 1.387-.787 1.912A2.605 2.605 0 0 1 12 14.7Zm0 4.3c-2.184 0-4.188-.575-6.013-1.725-1.825-1.15-3.22-2.708-4.187-4.675a.901.901 0 0 1-.075-.263 2.207 2.207 0 0 1 0-.675.9.9 0 0 1 .075-.262c.966-1.967 2.362-3.525 4.187-4.675C7.812 5.575 9.817 5 12 5s4.187.575 6.012 1.725c1.825 1.15 3.221 2.708 4.188 4.675a.903.903 0 0 1 .075.262 2.223 2.223 0 0 1 0 .675.904.904 0 0 1-.075.263c-.967 1.967-2.363 3.525-4.188 4.675C16.187 18.425 14.183 19 12 19Zm0-1.5a9.545 9.545 0 0 0 5.188-1.488A9.77 9.77 0 0 0 20.8 12a9.777 9.777 0 0 0-3.612-4.013A9.55 9.55 0 0 0 12 6.5a9.55 9.55 0 0 0-5.188 1.487A9.778 9.778 0 0 0 3.2 12a9.77 9.77 0 0 0 3.612 4.012A9.545 9.545 0 0 0 12 17.5Z"/>
</svg>
