<svg width="24" height="24" fill="currentColor" viewBox="0 0 24 24">
  <path d="M19.491 15.857 16.136 12.5c.121-.263.212-.538.273-.823.06-.286.09-.578.09-.875 0-1.25-.437-2.313-1.312-3.188S13.25 6.303 12 6.303a4.088 4.088 0 0 0-1.699.364l-2.7-2.7a10.965 10.965 0 0 1 2.125-.637c.732-.141 1.49-.212 2.274-.212 2.395 0 4.556.632 6.482 1.896a12.099 12.099 0 0 1 4.367 5.005.903.903 0 0 1 .115.355c.019.14.028.284.028.429 0 .145-.013.288-.04.43-.027.14-.062.258-.103.354a11.833 11.833 0 0 1-1.437 2.357 10.804 10.804 0 0 1-1.921 1.913Zm-.499 5.388-3.356-3.319a11.31 11.31 0 0 1-1.763.422c-.6.094-1.224.14-1.873.14-2.396 0-4.556-.633-6.482-1.9a12.127 12.127 0 0 1-4.368-5.001.904.904 0 0 1-.115-.355 3.27 3.27 0 0 1 0-.849.893.893 0 0 1 .115-.345c.346-.734.758-1.415 1.235-2.045.478-.63 1.002-1.21 1.573-1.744L1.95 4.215a.98.98 0 0 1-.293-.72c0-.285.104-.532.312-.74a.994.994 0 0 1 .733-.293c.293 0 .538.098.733.293L20.458 19.78c.195.195.296.436.302.724a.981.981 0 0 1-.302.742.995.995 0 0 1-.733.293.995.995 0 0 1-.733-.293ZM12 15.303c.163 0 .316-.007.458-.022.143-.015.296-.045.46-.091L7.6 9.886a2.79 2.79 0 0 0-.082.461 5.215 5.215 0 0 0-.02.456c0 1.25.438 2.313 1.313 3.188S10.75 15.303 12 15.303Zm2.464-4.473-2.45-2.45c.779-.122 1.413.096 1.9.654.49.557.672 1.156.55 1.796Z"/>
</svg>
