<svg width="24" height="24" fill="currentColor" viewBox="0 0 24 24">
  <path d="M19.295 20.775 10.98 12.41a7.518 7.518 0 0 0-2.017.494 6.908 6.908 0 0 0-1.75 1.004c-.26.182-.547.277-.86.285a1.006 1.006 0 0 1-.789-.322 1.003 1.003 0 0 1-.301-.813c.021-.32.157-.575.407-.767a9.188 9.188 0 0 1 1.626-1.05 8.15 8.15 0 0 1 1.842-.673L6.176 7.606c-.536.24-1.082.534-1.638.882-.555.348-1.08.73-1.572 1.145-.25.202-.533.307-.849.313a1.021 1.021 0 0 1-.793-.325 1.01 1.01 0 0 1-.31-.8c.017-.312.147-.568.39-.77.483-.429.988-.824 1.515-1.185.528-.362 1.06-.669 1.596-.922l-1.67-1.669a.725.725 0 0 1-.212-.522.707.707 0 0 1 .212-.532.718.718 0 0 1 .527-.217c.207 0 .382.072.527.217l16.475 16.475a.74.74 0 0 1 0 1.08.84.84 0 0 1-.54.22.698.698 0 0 1-.539-.22Zm-7.3-.746a1.937 1.937 0 0 1-1.433-.593 1.957 1.957 0 0 1-.586-1.426c0-.566.195-1.044.586-1.434a1.95 1.95 0 0 1 1.433-.585 1.95 1.95 0 0 1 1.434.585c.39.39.585.868.585 1.434a1.96 1.96 0 0 1-.585 1.426c-.39.395-.868.593-1.434.593Zm6.556-6.317a.883.883 0 0 1-.663.277.938.938 0 0 1-.664-.293l-3.321-3.32a8.802 8.802 0 0 1 2.353.667 9.373 9.373 0 0 1 2.178 1.332.91.91 0 0 1 .363.653.813.813 0 0 1-.246.684Zm4.125-4.09c-.22.229-.486.34-.8.332a1.378 1.378 0 0 1-.856-.325 13.733 13.733 0 0 0-9.025-3.312c-.35 0-.692.013-1.027.038-.334.025-.659.062-.973.112L8.08 4.552a13.505 13.505 0 0 1 1.848-.349 17.371 17.371 0 0 1 2.067-.116c2.045 0 3.966.349 5.763 1.047a16.397 16.397 0 0 1 4.828 2.891c.25.213.383.476.4.79.016.315-.087.583-.31.806Z"/>
</svg>
