<svg width="24" height="24" fill="currentColor" viewBox="0 0 24 24">
  <path d="m19.106 20.512-5.6-5.6a6.096 6.096 0 0 1-3.8 1.3c-1.817 0-3.354-.629-4.612-1.887-1.259-1.258-1.888-2.796-1.888-4.613 0-1.816.63-3.354 1.888-4.612s2.795-1.888 4.612-1.888c1.817 0 3.354.63 4.613 1.888 1.258 1.258 1.887 2.796 1.887 4.612a6.096 6.096 0 0 1-1.3 3.8l5.625 5.625a.9.9 0 0 1 .263.688.977.977 0 0 1-.288.687.949.949 0 0 1-.7.275.948.948 0 0 1-.7-.275Zm-9.4-6.3c1.25 0 2.313-.437 3.188-1.312s1.312-1.938 1.312-3.188c0-1.25-.437-2.312-1.312-3.187s-1.938-1.313-3.188-1.313c-1.25 0-2.312.438-3.187 1.313S5.206 8.462 5.206 9.712c0 1.25.438 2.313 1.313 3.188s1.937 1.312 3.187 1.312Zm-1.525-3.5a.927.927 0 0 1-.7-.287.99.99 0 0 1-.275-.713c0-.283.096-.52.288-.712a.968.968 0 0 1 .712-.288h3.025c.283 0 .517.096.7.288.183.192.275.43.275.712a.97.97 0 0 1-.287.713.968.968 0 0 1-.713.287H8.181Z"/>
</svg>
