<svg width="24" height="24" fill="currentColor" viewBox="0 0 24 24">
  <path d="M6.663 18.928H8.03c.32 0 .588.11.808.33.22.22.33.489.33.808 0 .319-.11.588-.33.808-.22.22-.489.33-.808.33H3.934c-.319 0-.588-.11-.808-.33-.22-.22-.33-.489-.33-.808V15.97c0-.32.11-.588.33-.808.22-.22.489-.33.808-.33.32 0 .589.11.808.33.22.22.33.489.33.808v1.367l2.167-2.167a1.08 1.08 0 0 1 .795-.317 1.08 1.08 0 0 1 1.113 1.113c0 .319-.106.584-.317.796l-2.167 2.166Zm10.674 0-2.167-2.166a1.08 1.08 0 0 1-.317-.796 1.08 1.08 0 0 1 1.113-1.113c.319 0 .584.106.795.317l2.167 2.167V15.97c0-.32.11-.588.33-.808.22-.22.489-.33.808-.33.319 0 .588.11.808.33.22.22.33.489.33.808v4.096c0 .319-.11.588-.33.808-.22.22-.489.33-.808.33H15.97a1.1 1.1 0 0 1-.808-.33 1.1 1.1 0 0 1-.33-.808c0-.32.11-.589.33-.808a1.1 1.1 0 0 1 .808-.33h1.367ZM5.072 6.663V8.03c0 .32-.11.589-.33.808-.22.22-.489.33-.808.33-.319 0-.588-.11-.808-.33-.22-.22-.33-.489-.33-.808V3.934c0-.319.11-.588.33-.808.22-.22.489-.33.808-.33H8.03c.32 0 .588.11.808.33.22.22.33.49.33.808 0 .32-.11.589-.33.808-.22.22-.489.33-.808.33H6.663L8.83 7.239c.211.21.317.476.317.795 0 .32-.106.585-.317.796a1.08 1.08 0 0 1-.796.317 1.08 1.08 0 0 1-.795-.317L5.072 6.663Zm13.856 0L16.761 8.83a1.079 1.079 0 0 1-.795.317 1.08 1.08 0 0 1-.796-.317 1.08 1.08 0 0 1-.317-.796c0-.319.106-.584.317-.795l2.167-2.167H15.97c-.32 0-.588-.11-.808-.33-.22-.22-.33-.489-.33-.808 0-.319.11-.588.33-.808.22-.22.489-.33.808-.33h4.096c.319 0 .588.11.808.33.22.22.33.49.33.808V8.03c0 .32-.11.589-.33.808-.22.22-.489.33-.808.33-.32 0-.589-.11-.808-.33-.22-.22-.33-.489-.33-.808V6.663Z"/>
</svg>
