<svg width="355" height="40" viewBox="0 0 355 40" fill="none" xmlns="http://www.w3.org/2000/svg">
<path d="M211.79 13.9668C213.234 13.9668 214.49 14.0777 215.557 14.2998C216.645 14.4997 217.557 14.6885 218.29 14.8662V30.333C218.29 32.9996 217.601 34.9338 216.224 36.1338C214.846 37.3336 212.757 37.9335 209.957 37.9336C208.868 37.9336 207.835 37.8447 206.857 37.667C205.902 37.4893 205.068 37.2776 204.357 37.0332L204.924 34.333C205.546 34.5774 206.302 34.789 207.19 34.9668C208.101 35.1667 209.046 35.2666 210.023 35.2666C211.867 35.2666 213.19 34.9001 213.99 34.167C214.812 33.4337 215.224 32.2667 215.224 30.667V29.9336C214.957 30.1113 214.435 30.345 213.657 30.6338C212.902 30.9004 212.012 31.0332 210.99 31.0332C209.946 31.0332 208.957 30.8664 208.023 30.5332C207.113 30.1999 206.313 29.6887 205.624 29C204.935 28.2889 204.39 27.4106 203.99 26.3662C203.59 25.322 203.391 24.0778 203.391 22.6338C203.391 21.3672 203.579 20.2114 203.957 19.167C204.335 18.1004 204.88 17.1891 205.591 16.4336C206.324 15.656 207.213 15.056 208.257 14.6338C209.301 14.1895 210.479 13.9668 211.79 13.9668ZM268.758 14.333C269.002 15.3329 269.291 16.411 269.624 17.5664C269.98 18.7218 270.369 19.9108 270.791 21.1328C271.213 22.3549 271.668 23.5777 272.157 24.7998C272.646 26.022 273.158 27.1997 273.691 28.333C274.536 26 275.268 23.689 275.891 21.4004C276.513 19.1115 277.102 16.7552 277.657 14.333H280.857C280.057 17.5996 279.169 20.7445 278.191 23.7666C277.214 26.7666 276.158 29.578 275.024 32.2002C274.58 33.2001 274.113 34.0556 273.624 34.7666C273.157 35.4998 272.635 36.0998 272.058 36.5664C271.48 37.033 270.824 37.3774 270.091 37.5996C269.38 37.8218 268.568 37.9336 267.657 37.9336C267.413 37.9336 267.157 37.9106 266.891 37.8662C266.624 37.844 266.357 37.8 266.091 37.7334C265.847 37.689 265.613 37.633 265.391 37.5664C265.191 37.5 265.047 37.4447 264.958 37.4004L265.524 34.9004C265.769 35.0114 266.081 35.1114 266.458 35.2002C266.858 35.3111 267.247 35.3662 267.624 35.3662C268.846 35.3662 269.802 35.0887 270.491 34.5332C271.18 33.9999 271.802 33.1221 272.357 31.9004C270.957 29.2338 269.646 26.4113 268.424 23.4336C267.224 20.4336 266.224 17.3996 265.424 14.333H268.758ZM256.717 8.0332C258.117 8.03323 259.383 8.18894 260.517 8.5C261.672 8.78884 262.517 9.11131 263.05 9.4668L262.017 12.1006C261.55 11.8118 260.85 11.5332 259.917 11.2666C259.006 10.9777 257.939 10.833 256.717 10.833C256.095 10.833 255.517 10.8999 254.983 11.0332C254.45 11.1665 253.983 11.3672 253.583 11.6338C253.183 11.9004 252.861 12.245 252.616 12.667C252.394 13.0669 252.283 13.5452 252.283 14.1006C252.283 14.7226 252.406 15.2449 252.65 15.667C252.895 16.089 253.239 16.4666 253.684 16.7998C254.128 17.1109 254.639 17.4004 255.217 17.667C255.817 17.9336 256.473 18.2002 257.184 18.4668C258.183 18.8667 259.095 19.2671 259.917 19.667C260.761 20.0669 261.483 20.5452 262.083 21.1006C262.705 21.6561 263.183 22.3229 263.517 23.1006C263.85 23.8561 264.017 24.7785 264.017 25.8672C264.017 27.8891 263.272 29.4444 261.783 30.5332C260.317 31.622 258.239 32.1669 255.55 32.167C254.639 32.167 253.794 32.1001 253.017 31.9668C252.261 31.8557 251.583 31.7219 250.983 31.5664C250.384 31.3887 249.861 31.2109 249.417 31.0332C248.995 30.8333 248.661 30.6665 248.417 30.5332L249.384 27.8672C249.895 28.156 250.673 28.4776 251.717 28.833C252.761 29.1885 254.039 29.3672 255.55 29.3672C258.927 29.3671 260.617 28.2112 260.617 25.9004C260.617 25.1896 260.461 24.5894 260.15 24.1006C259.862 23.5895 259.461 23.1553 258.95 22.7998C258.439 22.4221 257.85 22.0996 257.184 21.833C256.539 21.5664 255.849 21.2998 255.116 21.0332C254.272 20.7444 253.472 20.4218 252.717 20.0664C251.961 19.6887 251.305 19.2554 250.75 18.7666C250.195 18.2556 249.75 17.6555 249.417 16.9668C249.106 16.2779 248.95 15.4446 248.95 14.4668C248.95 12.4446 249.639 10.8667 251.017 9.7334C252.394 8.60017 254.295 8.0332 256.717 8.0332ZM51.8008 8.0332C53.356 8.03326 54.7008 8.19993 55.834 8.5332C56.967 8.86648 57.9006 9.2329 58.6338 9.63281L57.1338 13.7334C56.4894 13.4001 55.7667 13.1106 54.9668 12.8662C54.1892 12.5997 53.2445 12.4668 52.1338 12.4668C50.8896 12.4668 49.9892 12.6446 49.4336 13C48.9005 13.3333 48.6339 13.8556 48.6338 14.5664C48.6338 14.9885 48.7337 15.344 48.9336 15.6328C49.1336 15.9217 49.4111 16.1892 49.7666 16.4336C50.1443 16.6558 50.5676 16.8664 51.0342 17.0664C51.5229 17.2441 52.0563 17.4329 52.6338 17.6328C53.8336 18.0772 54.8778 18.5224 55.7666 18.9668C56.6554 19.389 57.3891 19.8891 57.9668 20.4668C58.5667 21.0445 59.0119 21.7223 59.3008 22.5C59.5896 23.2776 59.7334 24.2222 59.7334 25.333C59.7334 27.4884 58.9777 29.1662 57.4668 30.3662C55.9558 31.5439 53.678 32.1328 50.6338 32.1328C49.6118 32.1328 48.6893 32.0669 47.8672 31.9336C47.0451 31.8225 46.3114 31.6777 45.667 31.5C45.0451 31.3223 44.5007 31.1335 44.0342 30.9336C43.5898 30.7336 43.2115 30.544 42.9004 30.3662L44.3672 26.2334C45.056 26.6111 45.9006 26.9555 46.9004 27.2666C47.9226 27.5554 49.1673 27.7002 50.6338 27.7002C51.3668 27.7002 51.967 27.6443 52.4336 27.5332C52.9223 27.3999 53.3118 27.2331 53.6006 27.0332C53.8892 26.8111 54.0891 26.5553 54.2002 26.2666C54.3112 25.9778 54.3672 25.6552 54.3672 25.2998C54.3671 24.5446 54.0114 23.9224 53.3008 23.4336C52.5897 22.9225 51.3669 22.3775 49.6338 21.7998C48.8783 21.5332 48.1227 21.2327 47.3672 20.8994C46.6117 20.5439 45.9339 20.1107 45.334 19.5996C44.7341 19.0664 44.2449 18.4334 43.8672 17.7002C43.4895 16.9447 43.3008 16.0333 43.3008 14.9668C43.3008 13.9002 43.5004 12.944 43.9004 12.0996C44.3004 11.2332 44.8674 10.4993 45.6006 9.89941C46.3337 9.29978 47.2227 8.84421 48.2666 8.5332C49.3109 8.19996 50.4899 8.0332 51.8008 8.0332ZM169.863 13.9004C172.196 13.9005 173.986 14.633 175.23 16.0996C176.475 17.5441 177.097 19.7557 177.097 22.7334V23.2666C177.097 23.4665 177.086 23.6553 177.063 23.833H165.197C165.331 25.633 165.853 27.0003 166.764 27.9336C167.675 28.8666 169.097 29.333 171.03 29.333C172.119 29.333 173.03 29.2442 173.764 29.0664C174.519 28.8665 175.086 28.6777 175.464 28.5L175.896 31.0996C175.519 31.2996 174.852 31.5112 173.896 31.7334C172.963 31.9555 171.897 32.0664 170.697 32.0664C169.186 32.0664 167.875 31.8447 166.764 31.4004C165.675 30.9338 164.775 30.2999 164.063 29.5C163.352 28.7001 162.819 27.7556 162.464 26.667C162.131 25.5559 161.964 24.3443 161.964 23.0332C161.964 21.4999 162.185 20.1665 162.63 19.0332C163.074 17.8779 163.663 16.9225 164.396 16.167C165.13 15.4116 165.974 14.8445 166.93 14.4668C167.885 14.0891 168.863 13.9004 169.863 13.9004ZM186.649 13.9004C187.138 13.9004 187.628 13.9334 188.116 14C188.605 14.0444 189.061 14.1113 189.483 14.2002C189.905 14.2668 190.272 14.3448 190.583 14.4336C190.916 14.5224 191.172 14.6004 191.35 14.667L190.783 17.333C190.45 17.1553 189.928 16.9775 189.217 16.7998C188.506 16.5998 187.649 16.5 186.649 16.5C185.783 16.5001 185.027 16.6778 184.383 17.0332C183.739 17.3665 183.416 17.8998 183.416 18.6328C183.416 19.0104 183.483 19.344 183.616 19.6328C183.772 19.9216 183.994 20.1892 184.283 20.4336C184.594 20.6556 184.972 20.8666 185.416 21.0664C185.86 21.2664 186.395 21.478 187.017 21.7002C187.839 22.0112 188.572 22.3218 189.217 22.6328C189.861 22.9217 190.405 23.2671 190.85 23.667C191.316 24.0668 191.672 24.5554 191.916 25.1328C192.16 25.6883 192.283 26.378 192.283 27.2002C192.283 28.7998 191.683 30.0108 190.483 30.833C189.306 31.6552 187.616 32.0664 185.416 32.0664C183.883 32.0664 182.683 31.9336 181.816 31.667C180.95 31.4226 180.361 31.2329 180.05 31.0996L180.616 28.4336C180.972 28.5669 181.539 28.7666 182.316 29.0332C183.094 29.2998 184.128 29.4336 185.416 29.4336C186.683 29.4336 187.617 29.2669 188.217 28.9336C188.839 28.6002 189.149 28.0662 189.149 27.333C189.149 26.5777 188.85 25.9776 188.25 25.5332C187.65 25.0888 186.661 24.5887 185.283 24.0332C184.617 23.7666 183.972 23.5 183.35 23.2334C182.75 22.9446 182.228 22.6111 181.783 22.2334C181.339 21.8557 180.983 21.3995 180.717 20.8662C180.45 20.333 180.316 19.6779 180.316 18.9004C180.316 17.3671 180.883 16.1555 182.017 15.2666C183.15 14.3557 184.694 13.9005 186.649 13.9004ZM289.227 13.9004C289.715 13.9004 290.205 13.9333 290.693 14C291.182 14.0444 291.638 14.1114 292.06 14.2002C292.482 14.2669 292.849 14.3447 293.16 14.4336C293.493 14.5224 293.749 14.6004 293.927 14.667L293.36 17.333C293.027 17.1553 292.504 16.9776 291.793 16.7998C291.082 16.5999 290.226 16.5 289.227 16.5C288.36 16.5 287.604 16.6778 286.96 17.0332C286.316 17.3665 285.993 17.8997 285.993 18.6328C285.993 19.0104 286.06 19.344 286.193 19.6328C286.349 19.9216 286.572 20.1892 286.86 20.4336C287.171 20.6556 287.549 20.8666 287.993 21.0664C288.438 21.2664 288.972 21.478 289.594 21.7002C290.415 22.0111 291.149 22.3219 291.793 22.6328C292.437 22.9217 292.982 23.267 293.427 23.667C293.893 24.0668 294.249 24.5554 294.493 25.1328C294.738 25.6883 294.86 26.378 294.86 27.2002C294.86 28.8 294.259 30.0108 293.06 30.833C291.882 31.6551 290.193 32.0664 287.993 32.0664C286.46 32.0664 285.26 31.9335 284.394 31.667C283.527 31.4226 282.938 31.2329 282.627 31.0996L283.193 28.4336C283.549 28.5669 284.116 28.7666 284.894 29.0332C285.671 29.2998 286.705 29.4336 287.993 29.4336C289.259 29.4336 290.193 29.2667 290.793 28.9336C291.415 28.6003 291.727 28.0662 291.727 27.333C291.726 26.5778 291.427 25.9776 290.827 25.5332C290.227 25.0888 289.238 24.5887 287.86 24.0332C287.194 23.7666 286.549 23.5 285.927 23.2334C285.327 22.9446 284.805 22.611 284.36 22.2334C283.916 21.8557 283.56 21.3995 283.293 20.8662C283.027 20.3331 282.894 19.6777 282.894 18.9004C282.894 17.3671 283.46 16.1555 284.594 15.2666C285.727 14.3557 287.271 13.9004 289.227 13.9004ZM318.522 13.9004C320.855 13.9005 322.644 14.6332 323.889 16.0996C325.133 17.5441 325.756 19.7557 325.756 22.7334V23.2666C325.756 23.4665 325.744 23.6553 325.722 23.833H313.855C313.989 25.633 314.511 27.0003 315.422 27.9336C316.333 28.8667 317.755 29.333 319.688 29.333C320.777 29.333 321.689 29.2441 322.422 29.0664C323.177 28.8664 323.744 28.6777 324.122 28.5L324.556 31.0996C324.178 31.2996 323.511 31.5112 322.556 31.7334C321.622 31.9556 320.555 32.0664 319.355 32.0664C317.844 32.0664 316.533 31.8448 315.422 31.4004C314.333 30.9338 313.433 30.2999 312.722 29.5C312.011 28.7001 311.478 27.7556 311.122 26.667C310.789 25.5559 310.622 24.3443 310.622 23.0332C310.622 21.4999 310.845 20.1665 311.289 19.0332C311.733 17.8778 312.322 16.9225 313.056 16.167C313.789 15.4115 314.633 14.8445 315.589 14.4668C316.544 14.0891 317.523 13.9004 318.522 13.9004ZM301.569 14.333H308.137V16.9336H301.569V24.9336C301.569 25.8 301.636 26.522 301.77 27.0996C301.903 27.6551 302.103 28.1003 302.369 28.4336C302.636 28.7445 302.969 28.9663 303.369 29.0996C303.769 29.2329 304.236 29.2998 304.77 29.2998C305.703 29.2998 306.447 29.2 307.003 29C307.581 28.7778 307.981 28.6221 308.203 28.5332L308.803 31.0996C308.492 31.2551 307.947 31.4448 307.17 31.667C306.392 31.9114 305.503 32.0332 304.503 32.0332C303.325 32.0332 302.347 31.8884 301.569 31.5996C300.814 31.2885 300.203 30.8332 299.736 30.2334C299.27 29.6334 298.936 28.8998 298.736 28.0332C298.559 27.1444 298.47 26.1222 298.47 24.9668V9.5L301.569 8.9668V14.333ZM145.667 8.33301C147.556 8.33304 149.29 8.57755 150.867 9.06641C152.445 9.53308 153.8 10.2557 154.934 11.2334C156.067 12.1889 156.945 13.4116 157.567 14.9004C158.189 16.3668 158.5 18.1 158.5 20.0996C158.5 22.0994 158.189 23.8442 157.567 25.333C156.945 26.7996 156.067 28.0222 154.934 29C153.8 29.9555 152.445 30.6781 150.867 31.167C149.29 31.6336 147.556 31.8662 145.667 31.8662C144.734 31.8662 143.7 31.8222 142.567 31.7334C141.456 31.6667 140.444 31.522 139.533 31.2998V8.90039C140.444 8.67821 141.456 8.53346 142.567 8.4668C143.7 8.37795 144.734 8.33301 145.667 8.33301ZM79.335 12.9336H68.9346V17.4668H78.168V21.7334H68.9346V27.2998H80.1016V31.667H63.7354V8.56641H79.335V12.9336ZM90.7168 8.2998C94.183 8.29991 96.8383 8.92269 98.6826 10.167C100.527 11.3892 101.449 13.3006 101.449 15.9004C101.449 17.5221 101.072 18.8442 100.316 19.8662C99.5831 20.8661 98.516 21.6556 97.1162 22.2334C97.5829 22.8112 98.0719 23.4779 98.583 24.2334C99.0941 24.9667 99.5942 25.7443 100.083 26.5664C100.594 27.3663 101.083 28.2108 101.55 29.0996C102.016 29.9663 102.45 30.8226 102.85 31.667H97.0166C96.5944 30.9114 96.1612 30.144 95.7168 29.3662C95.2946 28.5885 94.8495 27.8329 94.3828 27.0996C93.9384 26.3664 93.4942 25.6775 93.0498 25.0332C92.6055 24.3667 92.1611 23.7666 91.7168 23.2334H89.1494V31.667H83.9492V8.90039C85.0823 8.67824 86.2495 8.52248 87.4492 8.43359C88.6713 8.34473 89.7614 8.2998 90.7168 8.2998ZM119.058 8.56641C119.813 10.1664 120.558 11.8111 121.291 13.5C122.024 15.1666 122.758 16.9332 123.491 18.7998C124.247 20.6664 125.013 22.6555 125.791 24.7666C126.569 26.8777 127.391 29.1781 128.258 31.667H122.691C122.447 30.8671 122.169 30.0446 121.857 29.2002C121.569 28.3559 121.28 27.5113 120.991 26.667H111.991C111.702 27.5112 111.402 28.3559 111.091 29.2002C110.802 30.0444 110.535 30.8672 110.291 31.667H104.891C105.757 29.1783 106.58 26.8776 107.357 24.7666C108.135 22.6556 108.891 20.6664 109.624 18.7998C110.38 16.9333 111.113 15.1665 111.824 13.5C112.558 11.8112 113.313 10.1663 114.091 8.56641H119.058ZM199.192 31.667H196.093V14.333H199.192V31.667ZM230.361 13.9668C231.739 13.9668 232.884 14.1664 233.795 14.5664C234.706 14.9442 235.428 15.4892 235.961 16.2002C236.516 16.8891 236.906 17.7225 237.128 18.7002C237.35 19.6779 237.461 20.7559 237.461 21.9336V31.667H234.361V22.5996C234.361 21.5331 234.283 20.6217 234.128 19.8662C233.995 19.1109 233.761 18.4998 233.428 18.0332C233.094 17.5667 232.65 17.2332 232.095 17.0332C231.539 16.811 230.85 16.7003 230.028 16.7002C229.695 16.7002 229.35 16.7112 228.994 16.7334C228.639 16.7556 228.294 16.7886 227.961 16.833C227.65 16.8552 227.361 16.8892 227.095 16.9336C226.851 16.978 226.673 17.011 226.562 17.0332V31.667H223.461V14.833C224.172 14.6553 225.117 14.4666 226.295 14.2666C227.473 14.0667 228.828 13.9668 230.361 13.9668ZM347.142 13.9668C348.475 13.9668 349.565 14.1664 350.409 14.5664C351.253 14.9442 351.908 15.4893 352.375 16.2002C352.864 16.9113 353.186 17.7557 353.342 18.7334C353.52 19.7112 353.608 20.7781 353.608 21.9336V31.667H350.509V22.5996C350.509 21.5776 350.453 20.7 350.342 19.9668C350.253 19.2337 350.064 18.6226 349.775 18.1338C349.509 17.645 349.13 17.2886 348.642 17.0664C348.175 16.8222 347.564 16.7002 346.809 16.7002C345.764 16.7002 344.898 16.845 344.209 17.1338C343.543 17.4004 343.086 17.6441 342.842 17.8662C343.02 18.4439 343.153 19.0778 343.242 19.7666C343.331 20.4555 343.375 21.1781 343.375 21.9336V31.667H340.275V22.5996C340.275 21.5776 340.219 20.7 340.108 19.9668C339.997 19.2337 339.798 18.6226 339.509 18.1338C339.242 17.645 338.864 17.2886 338.375 17.0664C337.908 16.8221 337.308 16.7002 336.575 16.7002C336.264 16.7002 335.931 16.7112 335.575 16.7334C335.22 16.7556 334.875 16.7886 334.542 16.833C334.231 16.8552 333.942 16.8892 333.676 16.9336C333.409 16.978 333.231 17.011 333.142 17.0332V31.667H330.042V14.833C330.753 14.6553 331.687 14.4666 332.842 14.2666C334.02 14.0666 335.376 13.9668 336.909 13.9668C338.02 13.9669 338.954 14.1226 339.709 14.4336C340.464 14.7225 341.097 15.1558 341.608 15.7334C341.764 15.6223 342.009 15.4665 342.342 15.2666C342.675 15.0667 343.087 14.8779 343.575 14.7002C344.064 14.5002 344.609 14.3335 345.209 14.2002C345.809 14.0448 346.453 13.9668 347.142 13.9668ZM145.934 11.167C145.023 11.167 144.312 11.178 143.801 11.2002C143.312 11.2224 142.967 11.2444 142.767 11.2666V28.9336C142.967 28.9558 143.312 28.9778 143.801 29C144.312 29.0222 145.023 29.0332 145.934 29.0332C149 29.0331 151.29 28.2557 152.801 26.7002C154.312 25.1224 155.067 22.9217 155.067 20.0996C155.067 17.2778 154.312 15.0887 152.801 13.5332C151.29 11.9555 149 11.167 145.934 11.167ZM211.824 16.7002C210.158 16.7002 208.868 17.2443 207.957 18.333C207.068 19.4219 206.624 20.867 206.624 22.667C206.624 23.6668 206.746 24.5224 206.99 25.2334C207.257 25.9444 207.601 26.5334 208.023 27C208.468 27.4665 208.968 27.811 209.523 28.0332C210.101 28.2553 210.69 28.3662 211.29 28.3662C212.112 28.3662 212.868 28.2553 213.557 28.0332C214.245 27.7888 214.79 27.5112 215.19 27.2002V17.0664C214.879 16.9775 214.457 16.8997 213.924 16.833C213.413 16.7441 212.713 16.7002 211.824 16.7002ZM116.458 13.7998C116.347 14.1331 116.18 14.5894 115.958 15.167C115.736 15.7446 115.48 16.4117 115.191 17.167C114.903 17.9224 114.58 18.7561 114.225 19.667C113.891 20.5779 113.547 21.5335 113.191 22.5332H119.758C119.402 21.5334 119.058 20.5779 118.725 19.667C118.391 18.756 118.069 17.9224 117.758 17.167C117.469 16.4116 117.213 15.7447 116.991 15.167C116.769 14.5893 116.591 14.1331 116.458 13.7998ZM169.83 16.5332C169.119 16.5332 168.485 16.678 167.93 16.9668C167.397 17.2334 166.941 17.589 166.563 18.0332C166.186 18.4776 165.885 18.9887 165.663 19.5664C165.463 20.1441 165.33 20.7331 165.264 21.333H173.863C173.885 19.9334 173.53 18.7892 172.797 17.9004C172.086 16.9894 171.097 16.5333 169.83 16.5332ZM318.488 16.5332C317.777 16.5333 317.144 16.6781 316.589 16.9668C316.056 17.2334 315.599 17.5888 315.222 18.0332C314.844 18.4775 314.544 18.9888 314.322 19.5664C314.122 20.1441 313.989 20.7331 313.922 21.333H322.522C322.545 19.9333 322.188 18.7892 321.455 17.9004C320.744 16.9894 319.755 16.5333 318.488 16.5332ZM91.0166 12.7334C90.6392 12.7334 90.2943 12.7444 89.9834 12.7666C89.6947 12.7888 89.416 12.8108 89.1494 12.833V19.0996H90.6162C92.5716 19.0996 93.972 18.8551 94.8164 18.3662C95.6604 17.8773 96.083 17.0437 96.083 15.8662C96.0828 14.7334 95.6494 13.9334 94.7832 13.4668C93.9389 12.978 92.6829 12.7335 91.0166 12.7334ZM197.626 7.13379C198.181 7.13386 198.649 7.32249 199.026 7.7002C199.426 8.05572 199.626 8.54496 199.626 9.16699C199.626 9.789 199.426 10.2893 199.026 10.667C198.649 11.0225 198.181 11.2001 197.626 11.2002C197.071 11.2002 196.592 11.0224 196.192 10.667C195.815 10.2893 195.626 9.78904 195.626 9.16699C195.626 8.54494 195.815 8.05573 196.192 7.7002C196.592 7.32257 197.071 7.13383 197.626 7.13379Z" fill="#003254"/>
<path d="M28.8393 14.7882C27.7273 13.8124 26.3582 13.23 23.3854 13.23C18.5064 13.23 12.7349 14.9319 8.56693 17.2239C6.40354 19.2209 2.31882 23.472 3.7636 25.2345C3.75604 25.2345 3.75604 25.227 3.74847 25.2194C4.98146 26.3389 7.27344 26.7096 9.21746 26.7096C13.688 26.7096 19.7318 25.0757 24.0737 22.7534C26.2296 20.7716 30.2689 16.5583 28.8393 14.7882Z" fill="url(#paint0_linear_53_278)"/>
<path d="M22.0619 3.10136L20.5566 0C10.4734 2.118 1.14659 8.35098 0.102719 15.6959C0.095155 15.7564 0.0875907 15.8169 0.0800264 15.8775V15.885C-0.23011 18.4115 0.443113 21.0666 2.40227 23.7292C2.40983 23.7368 2.40983 23.7443 2.41739 23.7443C2.47791 23.82 2.53086 23.9032 2.59137 23.9788C2.6065 23.994 2.61407 24.0091 2.62919 24.0242C2.68214 24.0923 2.74266 24.1679 2.79561 24.236C2.81074 24.2587 2.82587 24.2738 2.841 24.2965C2.90907 24.3797 2.97715 24.4705 3.0528 24.5537L3.06036 24.5613C3.27216 24.8109 3.51422 25.0151 3.75628 25.2194C3.76384 25.2269 3.76384 25.2269 3.7714 25.2345C2.32662 23.4645 6.41134 19.2133 8.56717 17.2239C11.3811 14.7958 15.0573 12.4962 19.1496 10.7186C22.1375 9.42512 23.4613 5.99092 22.0619 3.10136Z" fill="#F23F5F"/>
<path d="M29.5503 15.4539C29.3385 15.1967 29.0888 14.9924 28.8392 14.7882L28.8468 14.7958C30.2764 16.5658 26.2371 20.7791 24.0813 22.761C21.2825 25.1891 17.6214 27.4887 13.5442 29.2587C10.5639 30.5598 9.24014 33.994 10.6395 36.876L12.1524 40C22.0616 37.8896 31.2144 31.8154 32.4625 24.6218C32.4625 24.6067 32.4701 24.5991 32.4701 24.584V24.5915C32.4852 24.5159 32.4928 24.4403 32.5079 24.3646C32.5079 24.357 32.5079 24.3419 32.5155 24.3344C32.523 24.289 32.5306 24.2511 32.5306 24.2058C32.5306 24.1831 32.5382 24.1604 32.5382 24.1301C32.5382 24.115 32.5382 24.0999 32.5457 24.0847C32.8634 21.3086 32.0011 18.3812 29.5503 15.4539ZM32.4701 24.5462C32.4701 24.5537 32.4701 24.5613 32.4701 24.5688C32.4625 24.5613 32.4701 24.5537 32.4701 24.5462ZM32.4928 24.2814C32.4928 24.2587 32.4928 24.236 32.5003 24.2133C32.5003 24.236 32.4928 24.2587 32.4928 24.2814ZM32.4777 24.4403C32.4777 24.4327 32.4777 24.4251 32.4777 24.41C32.4852 24.4251 32.4777 24.4327 32.4777 24.4403ZM32.4852 24.3419C32.4852 24.3268 32.4852 24.3117 32.4852 24.2965C32.4928 24.3192 32.4928 24.3344 32.4852 24.3419Z" fill="#0095F8"/>
<path d="M28.8393 14.7882C27.7273 13.8124 26.3582 13.23 23.3854 13.23C18.5064 13.23 12.7349 14.9319 8.56693 17.2239C6.40354 19.2209 2.31882 23.472 3.7636 25.2345C3.75604 25.2345 3.75604 25.227 3.74847 25.2194C4.98146 26.3389 7.27344 26.7096 9.21746 26.7096C13.688 26.7096 19.7318 25.0757 24.0737 22.7534C26.2296 20.7716 30.2689 16.5583 28.8393 14.7882Z" fill="#6243DC"/>
<path d="M22.0616 3.10136L20.5563 0C10.4731 2.118 1.14634 8.35098 0.102463 15.6959C0.117592 15.5825 0.140285 15.4766 0.162977 15.3555C0.13272 15.5219 0.125156 15.5749 0.110027 15.8018C0.0873345 16.1346 0.102463 16.5431 0.140285 16.8154C0.533628 19.5991 4.92849 19.1452 7.88613 17.6172C8.12818 17.4962 8.35511 17.3601 8.57448 17.2239C11.3884 14.7958 15.0646 12.4962 19.1569 10.7186C22.1373 9.42512 23.461 5.99092 22.0616 3.10136Z" fill="#FF9D00"/>
<path d="M32.4698 23.1997C32.0765 20.4463 27.8254 20.832 24.8753 22.3146C24.603 22.4508 24.3382 22.5945 24.0886 22.7534C24.081 22.7534 24.081 22.7609 24.0735 22.7609C21.2747 25.1891 17.6136 27.4886 13.5364 29.2587C10.5561 30.5597 9.23232 33.9939 10.6317 36.8759L12.1446 40C22.0538 37.8895 31.2066 31.8154 32.4547 24.6218C32.4774 24.478 32.485 24.4175 32.5001 24.2057C32.5228 23.8805 32.5077 23.472 32.4698 23.1997Z" fill="#0095F8"/>
<path d="M8.55935 17.2315C8.33999 17.3677 8.11306 17.4963 7.871 17.6249C4.91336 19.1529 0.526072 19.6067 0.132728 16.8231C0.0949067 16.5583 0.0797781 16.1423 0.102471 15.8095C0.1176 15.5825 0.125164 15.5296 0.155421 15.3632C0.132728 15.4842 0.1176 15.5901 0.0949067 15.7036C0.0873424 15.7641 0.0797781 15.8246 0.0722138 15.8851V15.8927C-0.237922 18.4191 0.4353 21.0742 2.39445 23.7368C2.40202 23.7444 2.40202 23.752 2.40958 23.752C2.4701 23.8276 2.52305 23.9108 2.58356 23.9865C2.59869 24.0016 2.60625 24.0167 2.62138 24.0318C2.67433 24.0999 2.73485 24.1756 2.7878 24.2436C2.80292 24.2663 2.81805 24.2815 2.83318 24.3042C2.90126 24.3874 2.96934 24.4781 3.04498 24.5613L3.05255 24.5689C3.26435 24.8185 3.5064 25.0228 3.74846 25.227C3.75603 25.2346 3.75603 25.2346 3.76359 25.2421C2.31881 23.4721 6.40353 19.221 8.55935 17.2315Z" fill="#F23F5F"/>
<path d="M29.5505 15.4539C29.3387 15.1967 29.0891 14.9924 28.8395 14.7882L28.847 14.7958C30.2767 16.5658 26.2374 20.7791 24.0815 22.761C24.0891 22.761 24.0891 22.7534 24.0967 22.7534C24.3463 22.6021 24.6035 22.4508 24.8834 22.3147C27.841 20.8321 32.0921 20.4539 32.4779 23.1997C32.5157 23.4645 32.5309 23.8805 32.5082 24.2133C32.493 24.41 32.4855 24.4781 32.4703 24.5991C32.4855 24.5235 32.493 24.4478 32.5082 24.3722C32.5082 24.3646 32.5082 24.3495 32.5157 24.3419C32.5233 24.2965 32.5309 24.2587 32.5309 24.2133C32.5309 24.1906 32.5384 24.1679 32.5384 24.1377C32.5384 24.1226 32.5384 24.1074 32.546 24.0923C32.8637 21.3086 32.0014 18.3812 29.5505 15.4539Z" fill="#007ACA"/>
<defs>
<linearGradient id="paint0_linear_53_278" x1="24.01" y1="16.7384" x2="4.21913" y2="25.0714" gradientUnits="userSpaceOnUse">
<stop stop-color="#6243DC"/>
<stop offset="0.9999" stop-color="#8B56E8"/>
</linearGradient>
</defs>
</svg>
