<svg width="24" height="24" fill="currentColor" viewBox="0 0 24 24">
  <path d="M5.072 21.203c-.63 0-1.166-.222-1.61-.665a2.193 2.193 0 0 1-.665-1.61V5.072c0-.63.222-1.167.665-1.61.444-.444.98-.665 1.61-.665h13.856c.63 0 1.167.221 1.61.665.444.443.665.98.665 1.61h-8.19c-1.16 0-2.107.367-2.84 1.1-.734.734-1.101 1.68-1.101 2.84V15c0 1.16.367 2.104 1.1 2.834.734.73 1.68 1.094 2.84 1.094h8.191c0 .63-.221 1.166-.665 1.61-.443.443-.98.665-1.61.665H5.072ZM13.012 17a1.944 1.944 0 0 1-1.415-.59A1.915 1.915 0 0 1 11 15V9.012c0-.546.199-1.018.597-1.416.397-.397.87-.596 1.415-.596h7.18c.546 0 1.017.199 1.415.596.398.398.596.87.596 1.416V15c0 .546-.198 1.016-.596 1.41-.398.393-.87.59-1.415.59h-7.18ZM16 13.5c.433 0 .792-.142 1.075-.425.284-.283.425-.642.425-1.075 0-.433-.142-.792-.425-1.075-.283-.283-.642-.425-1.075-.425-.433 0-.791.142-1.075.425-.283.283-.425.642-.425 1.075 0 .433.142.792.425 1.075.284.283.642.425 1.075.425Z"/>
</svg>
