<svg width="24" height="24" fill="currentColor" viewBox="0 0 24 24">
  <path d="M5.308 20.5c-.499 0-.925-.177-1.278-.53a1.741 1.741 0 0 1-.53-1.278V5.308c0-.499.177-.925.53-1.278.353-.353.779-.53 1.278-.53h13.384c.499 0 .925.177 1.278.53.353.353.53.779.53 1.278v2.72H19v-2.72a.3.3 0 0 0-.087-.221.3.3 0 0 0-.22-.087H5.307a.3.3 0 0 0-.221.087.3.3 0 0 0-.087.22v13.385a.3.3 0 0 0 .087.221.3.3 0 0 0 .22.087h13.385a.3.3 0 0 0 .221-.087.3.3 0 0 0 .087-.22V15.97h1.5v2.721c0 .499-.177.925-.53 1.278-.353.353-.779.53-1.278.53H5.308Zm8-4c-.499 0-.925-.177-1.278-.53a1.741 1.741 0 0 1-.53-1.278V9.308c0-.499.177-.925.53-1.278.353-.353.779-.53 1.278-.53h6.384c.499 0 .925.177 1.278.53.353.353.53.779.53 1.278v5.384c0 .499-.177.925-.53 1.278-.353.353-.779.53-1.278.53h-6.384Zm6.384-1.5a.3.3 0 0 0 .221-.087.3.3 0 0 0 .087-.22V9.307a.3.3 0 0 0-.087-.221.3.3 0 0 0-.22-.087h-6.385a.3.3 0 0 0-.222.087.3.3 0 0 0-.086.22v5.385a.3.3 0 0 0 .086.221.3.3 0 0 0 .222.087h6.384ZM16 13.5c.417 0 .77-.146 1.063-.438.291-.291.437-.645.437-1.062 0-.417-.146-.77-.438-1.063A1.447 1.447 0 0 0 16 10.5c-.417 0-.77.146-1.063.438A1.446 1.446 0 0 0 14.5 12c0 .417.146.77.438 1.063.291.291.645.437 1.062.437Z"/>
</svg>
