<svg width="24" height="24" fill="currentColor" viewBox="0 0 24 24">
  <path d="M14.952 18.988v-.76h-1.815c-.63 0-1.166-.223-1.61-.666a2.192 2.192 0 0 1-.665-1.61V8.048H9.047v.76c0 .618-.218 1.146-.656 1.584a2.157 2.157 0 0 1-1.583.656H3.952c-.63 0-1.167-.222-1.61-.665a2.193 2.193 0 0 1-.665-1.61V5.048c0-.63.221-1.167.665-1.61a2.19 2.19 0 0 1 1.61-.665h2.856c.618 0 1.146.218 1.583.656.438.437.656.965.656 1.583v.76h5.905v-.76c0-.618.219-1.146.656-1.583a2.157 2.157 0 0 1 1.583-.656h2.856c.63 0 1.167.221 1.61.665.444.443.665.98.665 1.61v3.725c0 .63-.221 1.166-.665 1.61-.443.443-.98.665-1.61.665h-2.856a2.157 2.157 0 0 1-1.583-.656 2.157 2.157 0 0 1-.656-1.583v-.761h-1.815v7.904h1.815v-.76c0-.619.219-1.146.656-1.584a2.157 2.157 0 0 1 1.583-.656h2.856c.63 0 1.167.222 1.61.665.444.444.665.98.665 1.61v3.725c0 .63-.221 1.166-.665 1.61-.443.443-.98.665-1.61.665h-2.856a2.157 2.157 0 0 1-1.583-.656 2.157 2.157 0 0 1-.656-1.583Z"/>
</svg>
