<svg width="24" height="24" fill="currentColor" viewBox="0 0 24 24">
  <path d="m12.854 12.924-1.333 1.333a.702.702 0 0 0-.208.517.71.71 0 0 0 .731.725.7.7 0 0 0 .521-.207l2.495-2.495a.867.867 0 0 0 .27-.632.867.867 0 0 0-.27-.633l-2.495-2.494a.7.7 0 0 0-.52-.208.71.71 0 0 0-.732.731.7.7 0 0 0 .208.521l1.333 1.333H9.048a.726.726 0 0 0-.534.215.726.726 0 0 0-.216.535.744.744 0 0 0 .75.76h3.806Zm8.646-.751c0 1.313-.25 2.549-.748 3.705a9.598 9.598 0 0 1-2.03 3.017 9.592 9.592 0 0 1-3.016 2.03 9.245 9.245 0 0 1-3.704.75 9.255 9.255 0 0 1-3.705-.749 9.598 9.598 0 0 1-3.018-2.03 9.591 9.591 0 0 1-2.03-3.016 9.245 9.245 0 0 1-.749-3.704c0-1.314.25-2.549.748-3.705a9.597 9.597 0 0 1 2.03-3.017 9.592 9.592 0 0 1 3.016-2.031 9.245 9.245 0 0 1 3.704-.749c1.314 0 2.55.25 3.705.748a9.597 9.597 0 0 1 3.018 2.03 9.592 9.592 0 0 1 2.03 3.016 9.245 9.245 0 0 1 .749 3.705Zm-1.5.001c0-2.233-.775-4.125-2.325-5.675-1.55-1.55-3.442-2.325-5.675-2.325-2.233 0-4.125.775-5.675 2.325C4.775 8.05 4 9.941 4 12.174c0 2.234.775 4.125 2.325 5.675 1.55 1.55 3.442 2.325 5.675 2.325 2.233 0 4.125-.775 5.675-2.325C19.225 16.3 20 14.408 20 12.174Z"/>
</svg>
