<svg width="24" height="24" fill="currentColor" viewBox="0 0 24 24">
  <path d="m11.146 12.924 1.333 1.333c.138.139.208.31.208.517a.71.71 0 0 1-.731.725.7.7 0 0 1-.521-.207L8.94 12.797a.867.867 0 0 1-.27-.632.87.87 0 0 1 .27-.633l2.495-2.494a.7.7 0 0 1 .52-.208.71.71 0 0 1 .732.732.7.7 0 0 1-.208.52l-1.333 1.333h3.806c.212 0 .39.072.534.216a.726.726 0 0 1 .216.534.741.741 0 0 1-.216.54.718.718 0 0 1-.534.22h-3.806ZM2.5 12.173c0 1.314.25 2.549.748 3.705a9.596 9.596 0 0 0 2.03 3.017 9.593 9.593 0 0 0 3.016 2.031 9.245 9.245 0 0 0 3.704.748c1.314 0 2.55-.249 3.705-.748a9.598 9.598 0 0 0 3.017-2.03 9.591 9.591 0 0 0 2.032-3.016 9.245 9.245 0 0 0 .748-3.704c0-1.314-.25-2.549-.748-3.705a9.596 9.596 0 0 0-2.03-3.017 9.592 9.592 0 0 0-3.016-2.031 9.246 9.246 0 0 0-3.704-.749c-1.314 0-2.55.25-3.705.748a9.596 9.596 0 0 0-3.018 2.03 9.592 9.592 0 0 0-2.03 3.016 9.245 9.245 0 0 0-.749 3.705Zm1.5.001C4 9.941 4.775 8.05 6.325 6.5 7.875 4.95 9.767 4.174 12 4.174c2.233 0 4.125.775 5.675 2.325C19.225 8.05 20 9.941 20 12.174c0 2.234-.775 4.125-2.325 5.675-1.55 1.55-3.442 2.325-5.675 2.325-2.233 0-4.125-.775-5.675-2.325C4.775 16.3 4 14.408 4 12.174Z"/>
</svg>
