<svg width="24" height="24" fill="currentColor" viewBox="0 0 24 24">
  <path d="M20.75 17.75a.725.725 0 0 1-.535-.216A.726.726 0 0 1 20 17V7c0-.213.072-.39.216-.534a.726.726 0 0 1 .534-.216c.213 0 .391.072.535.216A.726.726 0 0 1 21.5 7v10c0 .212-.072.39-.216.534a.726.726 0 0 1-.534.216Zm-5.806-5H3.25a.726.726 0 0 1-.534-.216A.726.726 0 0 1 2.5 12c0-.213.072-.391.216-.535a.726.726 0 0 1 .534-.215h11.685l-3.298-3.333a.703.703 0 0 1-.211-.51.714.714 0 0 1 .22-.526.702.702 0 0 1 .52-.206c.211 0 .386.07.524.208l4.485 4.484c.094.094.16.193.198.298a.97.97 0 0 1 .058.336.83.83 0 0 1-.256.631l-4.494 4.495a.693.693 0 0 1-.513.208.753.753 0 0 1-.531-.208.698.698 0 0 1-.228-.535.747.747 0 0 1 .228-.534l3.307-3.308Z"/>
</svg>
