<svg width="24" height="24" fill="currentColor" viewBox="0 0 24 24">
  <path d="m10.862 12.064-.757-.757a1.079 1.079 0 0 0-.796-.317 1.089 1.089 0 0 0-1.118 1.11c0 .317.108.583.323.798l2.69 2.69c.227.224.492.336.795.336a1.1 1.1 0 0 0 .796-.336l2.69-2.69c.215-.21.322-.476.322-.795a1.089 1.089 0 0 0-1.118-1.113c-.32 0-.585.106-.796.317l-.756.757V9.103c0-.32-.11-.589-.33-.808-.22-.22-.489-.33-.808-.33-.32 0-.588.11-.808.33-.22.22-.33.489-.33.808v2.96Zm1.137 10.314a9.946 9.946 0 0 1-3.984-.803 10.297 10.297 0 0 1-3.237-2.18 10.298 10.298 0 0 1-2.18-3.237 9.946 9.946 0 0 1-.802-3.984 9.93 9.93 0 0 1 .803-3.983 10.297 10.297 0 0 1 2.18-3.237 10.297 10.297 0 0 1 3.236-2.18A9.946 9.946 0 0 1 12 1.971c1.415 0 2.743.268 3.984.803 1.24.535 2.32 1.262 3.237 2.18A10.296 10.296 0 0 1 21.4 8.19a9.946 9.946 0 0 1 .802 3.983 9.946 9.946 0 0 1-.803 3.984 10.297 10.297 0 0 1-2.179 3.237 10.296 10.296 0 0 1-3.237 2.18 9.946 9.946 0 0 1-3.984.803Z"/>
</svg>
