<svg width="24" height="24" fill="currentColor" viewBox="0 0 24 24">
  <path d="M11.438 19.293a1.13 1.13 0 0 1-.337-.8 1.044 1.044 0 0 1 .312-.8l4.55-4.55H5.288c-.317 0-.588-.112-.812-.338a1.105 1.105 0 0 1-.338-.812c0-.316.112-.587.338-.812.224-.225.495-.338.812-.338h10.675l-4.55-4.55a1.044 1.044 0 0 1-.312-.8 1.13 1.13 0 0 1 .337-.8c.216-.2.483-.3.8-.3.316 0 .583.1.8.3l6.5 6.5c.116.1.2.221.25.362.05.142.075.288.075.438a1.2 1.2 0 0 1-.075.425c-.05.134-.134.259-.25.375l-6.5 6.5a1.047 1.047 0 0 1-.8.313 1.186 1.186 0 0 1-.8-.313Z"/>
</svg>
