<svg width="24" height="24" fill="currentColor" viewBox="0 0 24 24">
  <path d="M21.066 18.137c-.32 0-.589-.11-.808-.329-.22-.22-.33-.489-.33-.808V7c0-.32.11-.589.33-.808.22-.22.489-.33.808-.33.319 0 .588.11.808.33.22.22.33.489.33.808v10c0 .32-.11.589-.33.808a1.1 1.1 0 0 1-.808.33Zm-7.483-5H2.934c-.319 0-.588-.11-.808-.329-.22-.22-.33-.489-.33-.808 0-.32.11-.588.33-.808.22-.22.489-.33.808-.33h10.65L10.94 8.197a1.1 1.1 0 0 1-.326-.786 1.066 1.066 0 0 1 .326-.806c.211-.21.477-.316.796-.316.32 0 .584.105.796.316l4.594 4.594c.111.112.193.237.245.373.052.137.077.28.077.429 0 .15-.025.292-.077.429-.052.136-.134.26-.245.373l-4.594 4.594a1.075 1.075 0 0 1-.784.32 1.14 1.14 0 0 1-.808-.314 1.12 1.12 0 0 1-.345-.812 1.098 1.098 0 0 1 .34-.81l2.647-2.643Z"/>
</svg>
