<svg width="24" height="24" fill="currentColor" viewBox="0 0 24 24">
  <path d="M3.808 20a1.74 1.74 0 0 1-1.277-.531A1.74 1.74 0 0 1 2 18.192V4.808c0-.497.177-.923.531-1.277A1.74 1.74 0 0 1 3.808 3h4.45a2.211 2.211 0 0 1 .727-1.416c.421-.39.928-.584 1.52-.584.591 0 1.098.195 1.52.584.422.389.66.86.717 1.416h4.45c.497 0 .923.177 1.277.531.354.354.531.78.531 1.277V9.89a.726.726 0 0 1-.216.535.726.726 0 0 1-.534.215.725.725 0 0 1-.535-.215.726.726 0 0 1-.215-.535V4.808a.294.294 0 0 0-.096-.212.294.294 0 0 0-.212-.096H3.808a.294.294 0 0 0-.212.096.294.294 0 0 0-.096.212v13.384c0 .077.032.148.096.212a.294.294 0 0 0 .212.096h5.058c.212 0 .39.072.534.216a.726.726 0 0 1 .216.534.726.726 0 0 1-.216.535.725.725 0 0 1-.534.215H3.808ZM3.5 18.5v-14 6.19-.074V18.5Zm3-2.366h2.942c.213 0 .39-.071.535-.215a.726.726 0 0 0 .215-.535.726.726 0 0 0-.215-.534.727.727 0 0 0-.535-.215H6.5a.725.725 0 0 0-.534.215.726.726 0 0 0-.216.535c0 .213.072.39.216.534a.726.726 0 0 0 .534.215Zm0-3.884h5.74a.726.726 0 0 0 .535-.216.726.726 0 0 0 .216-.534.724.724 0 0 0-.216-.534.725.725 0 0 0-.534-.216H6.5a.725.725 0 0 0-.534.216.726.726 0 0 0-.216.534c0 .213.072.391.216.534a.725.725 0 0 0 .534.216Zm0-3.885h8c.213 0 .39-.072.534-.215a.726.726 0 0 0 .216-.535.725.725 0 0 0-.216-.534.726.726 0 0 0-.534-.216h-8a.725.725 0 0 0-.534.216.725.725 0 0 0-.216.535c0 .212.072.39.216.534a.726.726 0 0 0 .534.215Zm4-4.519a.728.728 0 0 0 .75-.75.728.728 0 0 0-.75-.75.728.728 0 0 0-.75.75.728.728 0 0 0 .75.75Zm6 18.212c-1.249 0-2.31-.438-3.187-1.314C12.438 19.87 12 18.806 12 17.558c0-1.249.438-2.311 1.313-3.187.876-.875 1.938-1.313 3.187-1.313 1.249 0 2.31.438 3.186 1.313.876.876 1.314 1.938 1.314 3.187 0 1.248-.438 2.31-1.314 3.186-.875.876-1.937 1.314-3.186 1.314ZM16.058 18v2.058c0 .118.044.22.133.31a.424.424 0 0 0 .309.132.424.424 0 0 0 .31-.133.424.424 0 0 0 .132-.31V18H19a.424.424 0 0 0 .31-.133.424.424 0 0 0 0-.619.424.424 0 0 0-.31-.133h-2.058v-2.057a.424.424 0 0 0-.133-.31.424.424 0 0 0-.309-.132.424.424 0 0 0-.31.132.424.424 0 0 0-.132.31v2.058H14a.424.424 0 0 0-.31.132.425.425 0 0 0 0 .62A.424.424 0 0 0 14 18h2.058Z"/>
</svg>
