<svg width="24" height="24" fill="currentColor" viewBox="0 0 24 24">
  <g clip-path="url(#a)">
    <path d="m18.974 8.938-1.325-2.9-2.9-1.325 2.9-1.325 1.325-2.9 1.3 2.9 2.9 1.325-2.9 1.325-1.3 2.9Zm0 14.574-1.325-2.9-2.9-1.324 2.9-1.3 1.325-2.9 1.3 2.9 2.9 1.3-2.9 1.325-1.3 2.9Zm-14.2-7.6 3.15-8.9h2l3.175 8.9h-1.9l-.7-1.975H7.35l-.7 1.976H4.774Zm3.025-3.3h2.275l-1.15-3.624L7.8 12.613Zm1.125 5.325c1.65 0 3.05-.575 4.2-1.725 1.15-1.15 1.725-2.55 1.725-4.2 0-1.65-.575-3.05-1.725-4.2-1.15-1.15-2.55-1.724-4.2-1.724-1.65 0-3.05.575-4.2 1.725C3.574 8.963 3 10.363 3 12.013c0 1.65.575 3.05 1.725 4.2 1.15 1.15 2.55 1.724 4.2 1.724Zm0 2.175c-2.266 0-4.183-.783-5.75-2.35-1.566-1.566-2.35-3.483-2.35-5.75 0-2.266.784-4.183 2.35-5.75 1.567-1.566 3.484-2.35 5.75-2.35 2.267 0 4.184.784 5.75 2.35 1.567 1.567 2.35 3.484 2.35 5.75 0 2.267-.783 4.184-2.35 5.75-1.566 1.567-3.483 2.35-5.75 2.35Z"/>
  </g>
  <defs>
    <clipPath id="a">
      <path d="M0 0h24v24H0z"/>
    </clipPath>
  </defs>
</svg>
