<svg width="24" height="24" fill="currentColor" viewBox="0 0 24 24">
  <path d="m18.762 8.2-1.075-2.325L15.362 4.8l2.325-1.05 1.075-2.325 1.05 2.325 2.35 1.05-2.35 1.075-1.05 2.325Zm0 14.375-1.075-2.325-2.325-1.05 2.325-1.075 1.075-2.325 1.05 2.325 2.35 1.075-2.35 1.05-1.05 2.325Zm-13.325-6.9 3.1-8.425h1.575l3.125 8.425h-1.45l-.75-2h-3.4l-.75 2h-1.45Zm2.575-3.1h2.65L9.337 8.8l-1.325 3.775ZM9.337 18c1.667 0 3.083-.583 4.25-1.75 1.167-1.167 1.75-2.583 1.75-4.25 0-1.667-.583-3.083-1.75-4.25C12.42 6.583 11.004 6 9.337 6c-1.667 0-3.083.583-4.25 1.75-1.167 1.167-1.75 2.583-1.75 4.25 0 1.667.583 3.083 1.75 4.25C6.254 17.417 7.67 18 9.337 18Zm0 1.5c-2.1 0-3.875-.725-5.325-2.175C2.562 15.875 1.837 14.1 1.837 12s.725-3.875 2.175-5.325C5.462 5.225 7.237 4.5 9.337 4.5c2.083 0 3.854.725 5.313 2.175C16.108 8.125 16.837 9.9 16.837 12s-.725 3.875-2.175 5.325c-1.45 1.45-3.225 2.175-5.325 2.175Z"/>
</svg>
