<svg width="24" height="24" fill="currentColor" viewBox="0 0 24 24">
  <path d="M7.308 17.27c-1.464 0-2.705-.513-3.723-1.538-1.018-1.025-1.527-2.27-1.527-3.732 0-1.463.512-2.707 1.537-3.732C4.62 7.243 5.864 6.731 7.327 6.731h10.807c1.053 0 1.954.374 2.703 1.124.75.75 1.124 1.65 1.124 2.703 0 1.052-.374 1.953-1.124 2.702-.75.75-1.65 1.124-2.703 1.124h-9.75c-.667 0-1.232-.23-1.693-.691A2.303 2.303 0 0 1 6 12c0-.668.23-1.232.691-1.693a2.303 2.303 0 0 1 1.694-.692h9.153a.58.58 0 0 1 .596.596.58.58 0 0 1-.596.597H8.385c-.338 0-.621.114-.85.342a1.154 1.154 0 0 0-.343.85c0 .338.114.62.343.85.229.228.512.342.85.342h9.75c.737 0 1.36-.255 1.87-.764.51-.51.764-1.133.764-1.871s-.254-1.362-.764-1.87c-.51-.51-1.133-.764-1.87-.764H7.326c-1.126 0-2.087.398-2.883 1.194-.796.796-1.194 1.756-1.194 2.878 0 1.123.396 2.084 1.19 2.883.792.8 1.748 1.199 2.868 1.199h10.23a.58.58 0 0 1 .596.596.58.58 0 0 1-.596.596H7.308Z"/>
</svg>
