<svg width="24" height="24" fill="currentColor" viewBox="0 0 24 24">
  <path d="M7.47 17.793c-1.596 0-2.95-.555-4.06-1.666-1.111-1.111-1.667-2.465-1.667-4.062 0-1.597.556-2.951 1.666-4.064C4.52 6.89 5.874 6.333 7.47 6.333h10.596c1.152 0 2.136.41 2.954 1.23.817.819 1.225 1.805 1.225 2.956s-.408 2.136-1.226 2.955c-.817.82-1.801 1.23-2.953 1.23H8.518a2.54 2.54 0 0 1-1.87-.768 2.545 2.545 0 0 1-.767-1.87c0-.736.255-1.36.767-1.871a2.545 2.545 0 0 1 1.87-.767h8.708c.243 0 .444.08.602.238.159.159.238.36.238.602s-.08.443-.238.602a.816.816 0 0 1-.602.238H8.518a.918.918 0 0 0-.678.275.93.93 0 0 0-.274.683.92.92 0 0 0 .274.68.923.923 0 0 0 .678.272h9.548c.7 0 1.292-.242 1.775-.725.483-.483.725-1.075.725-1.775s-.242-1.292-.725-1.775c-.483-.483-1.075-.725-1.775-.725H7.47c-1.116 0-2.068.396-2.858 1.187-.789.791-1.184 1.745-1.184 2.86 0 1.117.395 2.07 1.184 2.859a3.894 3.894 0 0 0 2.858 1.184h9.756c.243 0 .444.079.602.237.159.159.238.36.238.602 0 .24-.08.442-.238.604a.808.808 0 0 1-.602.242H7.47Z"/>
</svg>
