<svg width="24" height="24" fill="currentColor" viewBox="0 0 24 24">
  <path d="M5.91 17.942a1.06 1.06 0 0 1-.778-.317 1.058 1.058 0 0 1-.317-.778v-4.84c0-.307.106-.562.317-.763.212-.201.471-.302.778-.302.308 0 .566.105.776.315.21.21.314.468.314.775v4.84c0 .307-.105.562-.314.765a1.07 1.07 0 0 1-.776.305Zm6.09 0a1.05 1.05 0 0 1-.775-.317 1.064 1.064 0 0 1-.314-.778v-4.84c0-.307.104-.562.314-.763.21-.201.468-.302.775-.302s.566.105.775.315c.21.21.315.468.315.775v4.84c0 .307-.105.562-.315.765a1.07 1.07 0 0 1-.775.305Zm-9.09 4.09c-.32 0-.585-.11-.796-.33a1.122 1.122 0 0 1-.317-.808c0-.319.11-.588.33-.808.219-.22.488-.33.807-.33h18.157c.32 0 .584.11.796.33.21.22.316.49.316.808 0 .32-.11.589-.329.809a1.1 1.1 0 0 1-.808.329H2.909Zm15.18-4.09a1.05 1.05 0 0 1-.775-.317 1.064 1.064 0 0 1-.315-.778v-4.84c0-.307.105-.562.315-.763.21-.201.468-.302.775-.302s.567.105.778.315c.212.21.318.468.318.775v4.84c0 .307-.106.562-.318.765a1.081 1.081 0 0 1-.778.305ZM13.026 2.201l8.317 4.152a1.601 1.601 0 0 1 .86 1.432c0 .377-.137.694-.413.951a1.395 1.395 0 0 1-.985.386H3.208c-.38 0-.711-.128-.991-.383a1.237 1.237 0 0 1-.42-.954c0-.293.074-.57.222-.83a1.38 1.38 0 0 1 .644-.583l8.312-4.171A2.285 2.285 0 0 1 12 1.968c.36.002.703.08 1.026.233Z"/>
</svg>
