<svg width="24" height="24" fill="currentColor" viewBox="0 0 24 24">
  <path d="M4.5 5.404c0-.256.087-.47.26-.644a.874.874 0 0 1 .644-.26h8.807c.257 0 .471.087.644.26.174.173.26.388.26.644v1.692c0 .256-.086.47-.26.644a.875.875 0 0 1-.644.26H5.404a.875.875 0 0 1-.644-.26.875.875 0 0 1-.26-.644V5.404Zm11.5 0c0-.256.087-.47.26-.644a.875.875 0 0 1 .644-.26h1.692c.256 0 .47.087.644.26.173.173.26.388.26.644v1.692c0 .256-.087.47-.26.644a.875.875 0 0 1-.644.26h-1.692a.875.875 0 0 1-.644-.26.875.875 0 0 1-.26-.644V5.404Zm-11.5 5.76c0-.257.087-.471.26-.644a.874.874 0 0 1 .644-.26l5.923-.01c.256 0 .47.087.644.26.173.173.26.388.26.644v1.692c0 .256-.087.47-.26.644a.875.875 0 0 1-.644.26H5.404a.874.874 0 0 1-.644-.26.875.875 0 0 1-.26-.644v-1.682Zm8.616-.01c0-.256.086-.47.26-.644a.874.874 0 0 1 .643-.26h1.692c.257 0 .471.087.644.26.174.173.26.388.26.644v1.692c0 .256-.086.47-.26.644a.875.875 0 0 1-.644.26H14.02a.875.875 0 0 1-.644-.26.875.875 0 0 1-.26-.644v-1.692ZM4.5 16.904c0-.256.087-.47.26-.644a.874.874 0 0 1 .644-.26h3.029c.256 0 .47.087.644.26.173.173.26.388.26.644v1.692c0 .256-.087.47-.26.644a.875.875 0 0 1-.644.26H5.404a.874.874 0 0 1-.644-.26.874.874 0 0 1-.26-.644v-1.692Zm5.721 0c0-.256.087-.47.26-.644a.875.875 0 0 1 .644-.26h1.692c.256 0 .471.087.644.26.174.173.26.388.26.644v1.692c0 .256-.086.47-.26.644a.874.874 0 0 1-.644.26h-1.692a.875.875 0 0 1-.644-.26.874.874 0 0 1-.26-.644v-1.692Z"/>
</svg>
