<svg width="24" height="24" fill="currentColor" viewBox="0 0 24 24">
  <path d="M3.25 20.5a.726.726 0 0 1-.534-.216.726.726 0 0 1-.216-.534c0-.213.072-.391.216-.535A.726.726 0 0 1 3.25 19h17.5c.212 0 .39.072.534.216a.726.726 0 0 1 .216.534.726.726 0 0 1-.216.535.726.726 0 0 1-.534.215H3.25Zm1.501-2.885c-.347 0-.642-.121-.886-.364a1.204 1.204 0 0 1-.365-.886V12.75c0-.347.121-.642.364-.885.243-.244.538-.365.885-.365s.642.121.886.365c.243.243.365.538.365.885v3.615c0 .348-.121.643-.364.886a1.204 1.204 0 0 1-.885.364Zm4.827 0c-.347 0-.642-.121-.886-.364a1.204 1.204 0 0 1-.365-.886V7.75c0-.347.121-.642.364-.885s.538-.365.885-.365.642.122.885.365c.244.243.366.538.366.885v8.615c0 .348-.121.643-.364.886a1.204 1.204 0 0 1-.885.364Zm4.837 0c-.347 0-.643-.121-.886-.364a1.204 1.204 0 0 1-.365-.886V10.75c0-.347.12-.642.364-.885.242-.243.537-.365.884-.365s.642.122.886.365.365.538.365.885v5.615c0 .348-.121.643-.364.886a1.204 1.204 0 0 1-.884.364Zm4.836 0c-.347 0-.642-.121-.886-.364a1.204 1.204 0 0 1-.365-.886V4.75c0-.347.121-.642.364-.885s.538-.365.885-.365.642.122.886.365c.243.243.365.538.365.885v11.615c0 .348-.122.643-.364.886a1.204 1.204 0 0 1-.885.364Z"/>
</svg>
