<svg width="24" height="24" fill="currentColor" viewBox="0 0 24 24">
  <path d="m18.906 20.19-5.679-5.66 1.054-1.053 5.67 5.669a.714.714 0 0 1 .207.527.697.697 0 0 1-.217.527.686.686 0 0 1-.518.203.719.719 0 0 1-.517-.213ZM7.177 18.47c-.364.364-.786.532-1.267.504a1.33 1.33 0 0 1-1.106-.654 9.295 9.295 0 0 1-1.433-4.994 9.233 9.233 0 0 1 1.43-4.983c-.047.605.02 1.265.198 1.98.18.715.446 1.45.8 2.204.353.754.78 1.51 1.28 2.268a23.38 23.38 0 0 0 1.61 2.163L7.177 18.47Zm2.54-2.54a13.116 13.116 0 0 1-1.902-2.521c-.52-.9-.914-1.77-1.182-2.608-.268-.839-.395-1.6-.383-2.283.013-.683.188-1.193.525-1.53.338-.348.848-.528 1.531-.54.683-.01 1.445.12 2.286.39.84.271 1.709.671 2.605 1.2a13.562 13.562 0 0 1 2.507 1.905L9.718 15.93Zm8.356-10.88c.408.257.629.623.662 1.099.033.476-.132.895-.496 1.26l-1.506 1.505a20.797 20.797 0 0 0-2.129-1.585 20.912 20.912 0 0 0-2.241-1.277 12.45 12.45 0 0 0-2.182-.834c-.711-.193-1.367-.27-1.965-.23a9.51 9.51 0 0 1 4.93-1.318 9.49 9.49 0 0 1 4.927 1.38Z"/>
</svg>
