<svg width="24" height="24" fill="currentColor" viewBox="0 0 24 24">
  <path d="m19.03 20.19-5.68-5.66 1.055-1.053 5.669 5.669a.714.714 0 0 1 .207.527.697.697 0 0 1-.217.527.686.686 0 0 1-.517.203.72.72 0 0 1-.517-.213ZM4.943 18.313A9.798 9.798 0 0 1 3.9 15.87a9.815 9.815 0 0 1-.346-2.59c0-1.243.23-2.45.691-3.622.461-1.173 1.166-2.23 2.115-3.173.948-.948 2.011-1.656 3.189-2.122a9.733 9.733 0 0 1 3.61-.699c.886 0 1.751.118 2.596.354a9.769 9.769 0 0 1 2.424 1.052c.407.256.628.622.661 1.098.034.476-.132.896-.496 1.26L7.301 18.469c-.364.364-.787.531-1.268.501a1.3 1.3 0 0 1-1.09-.657Zm1.25-.875 1.58-1.58c-.266-.363-.525-.74-.776-1.133a11.269 11.269 0 0 1-.677-1.216 9.283 9.283 0 0 1-.8-2.656 7.43 7.43 0 0 0-.403 3.369 7.947 7.947 0 0 0 1.076 3.216Zm2.685-2.634 5.8-5.85c-.717-.55-1.443-.99-2.177-1.319-.735-.328-1.427-.55-2.076-.666-.65-.115-1.236-.125-1.76-.029-.525.096-.932.29-1.222.58-.29.3-.483.711-.579 1.236-.096.524-.088 1.113.024 1.768.112.654.333 1.348.662 2.08a11.33 11.33 0 0 0 1.328 2.2Zm8.484-8.485a7.942 7.942 0 0 0-3.261-1.098 7.545 7.545 0 0 0-3.373.406c.475.059.937.158 1.383.299a10.21 10.21 0 0 1 2.51 1.172c.39.251.767.519 1.13.802l1.611-1.58Z"/>
</svg>
