<svg width="24" height="24" fill="currentColor" viewBox="0 0 24 24">
  <path d="M12.002 21.5a9.255 9.255 0 0 1-3.705-.748 9.598 9.598 0 0 1-3.018-2.03 9.591 9.591 0 0 1-2.03-3.016 9.245 9.245 0 0 1-.749-3.704c0-1.314.25-2.55.748-3.705a9.597 9.597 0 0 1 2.03-3.018 9.592 9.592 0 0 1 3.016-2.03 9.245 9.245 0 0 1 3.704-.749c1.314 0 2.55.25 3.705.748a9.597 9.597 0 0 1 3.018 2.03 9.592 9.592 0 0 1 2.03 3.016 9.245 9.245 0 0 1 .749 3.704c0 1.314-.25 2.55-.748 3.705a9.598 9.598 0 0 1-2.03 3.018 9.592 9.592 0 0 1-3.016 2.03 9.245 9.245 0 0 1-3.704.749ZM12 20c.938 0 1.842-.159 2.71-.476a7.93 7.93 0 0 0 2.382-1.378L5.854 6.908A8.125 8.125 0 0 0 4.48 9.29 7.768 7.768 0 0 0 4 12c0 2.233.775 4.125 2.325 5.675C7.875 19.225 9.767 20 12 20Zm6.146-2.908a7.93 7.93 0 0 0 1.378-2.382A7.839 7.839 0 0 0 20 12c0-2.233-.775-4.125-2.325-5.675C16.125 4.775 14.233 4 12 4c-.94 0-1.846.157-2.717.471a7.62 7.62 0 0 0-2.375 1.383l11.238 11.238Z"/>
</svg>
