<svg width="24" height="24" fill="currentColor" viewBox="0 0 24 24">
  <path d="M17.713 20.145a2.14 2.14 0 0 1-.82-.158 2.174 2.174 0 0 1-.713-.486l-5.404-5.42a6.102 6.102 0 0 1-1.076.354 5.26 5.26 0 0 1-1.159.124c-1.597 0-2.955-.56-4.073-1.677-1.118-1.118-1.677-2.476-1.677-4.073 0-.517.066-1.01.197-1.482.132-.471.318-.92.56-1.345l3.593 3.573 2.146-2.146-3.554-3.573a6.322 6.322 0 0 1 1.337-.57 5.155 5.155 0 0 1 1.471-.207c1.597 0 2.955.559 4.073 1.677 1.118 1.118 1.677 2.476 1.677 4.073 0 .422-.04.815-.12 1.179a4.95 4.95 0 0 1-.357 1.055l5.435 5.404c.218.218.38.457.485.716.106.259.159.532.159.82 0 .288-.056.563-.166.827-.111.263-.27.498-.475.703a2.082 2.082 0 0 1-1.539.632Zm-.449-1.682a.6.6 0 0 0 .458.175.648.648 0 0 0 .457-.19.62.62 0 0 0 .183-.458.62.62 0 0 0-.182-.458l-6.21-6.194c.28-.346.488-.74.621-1.182.133-.442.2-.89.2-1.347 0-1.11-.396-2.09-1.189-2.944-.792-.854-1.794-1.273-3.007-1.256l2.177 2.177a.876.876 0 0 1 .27.613.807.807 0 0 1-.251.614L7.764 11.04a.85.85 0 0 1-.623.261.851.851 0 0 1-.623-.261L4.34 8.863c.003 1.283.434 2.303 1.294 3.06.86.757 1.83 1.136 2.906 1.136.438 0 .875-.065 1.313-.195a3.71 3.71 0 0 0 1.2-.61l6.21 6.209Z"/>
</svg>
