<svg width="24" height="24" fill="currentColor" viewBox="0 0 24 24">
  <path d="M17.564 20.359c-.357 0-.697-.069-1.019-.206a2.785 2.785 0 0 1-.882-.604l-5.101-5.12a5.876 5.876 0 0 1-.974.275 5.75 5.75 0 0 1-1.078.094c-1.715 0-3.174-.602-4.379-1.806-1.205-1.205-1.807-2.665-1.807-4.38 0-.607.09-1.2.271-1.78.18-.58.425-1.111.733-1.595l3.686 3.686 1.8-1.8-3.686-3.686c.471-.3 1-.542 1.588-.727a5.949 5.949 0 0 1 1.794-.276c1.714 0 3.173.6 4.375 1.803 1.203 1.203 1.804 2.661 1.804 4.376a5.667 5.667 0 0 1-.371 2.058l5.146 5.102a2.611 2.611 0 0 1 .804 1.901c0 .357-.07.7-.209 1.027a2.73 2.73 0 0 1-.589.873 2.6 2.6 0 0 1-.884.592 2.744 2.744 0 0 1-1.022.193Z"/>
</svg>
