<svg width="24" height="24" fill="currentColor" viewBox="0 0 24 24">
  <path d="M1.797 13.59V8.66c0-.63.221-1.166.665-1.61.443-.443.98-.665 1.61-.665h3.743V4.482c0-.63.221-1.166.665-1.61.443-.443.98-.665 1.61-.665h3.82c.63 0 1.167.222 1.61.665.444.444.665.98.665 1.61v1.904h3.743c.63 0 1.167.222 1.61.666.444.443.665.98.665 1.61v4.928H15v-.863c0-.32-.11-.588-.33-.808a1.094 1.094 0 0 0-.807-.33h-3.726c-.319 0-.588.11-.808.33-.22.22-.329.489-.329.808v.863H1.797Zm8.293-7.204h3.82V4.482h-3.82v1.904ZM11 15.59v-2h2v2h-2Zm-6.928 6.203c-.63 0-1.167-.222-1.61-.665a2.193 2.193 0 0 1-.665-1.61V15.59H9v.862c0 .32.11.589.33.808.219.22.488.33.807.33h3.726c.319 0 .588-.11.808-.33a1.1 1.1 0 0 0 .329-.808v-.862h7.203v3.928c0 .63-.221 1.166-.665 1.61-.443.443-.98.665-1.61.665H4.072Z"/>
</svg>
