<svg width="32" height="32" viewBox="0 0 32 32" fill="currentColor">
	<path id="Vector" d="M11.3335 8.99985V6.74348C11.3335 6.07 11.5668 5.49992 12.0335 5.03325C12.5002 4.56659 13.0703 4.33325 13.7438 4.33325H18.2565C18.93 4.33325 19.5001 4.56659 19.9668 5.03325C20.4334 5.49992 20.6668 6.07 20.6668 6.74348V8.99985H26.2565C26.93 8.99985 27.5001 9.23318 27.9668 9.69985C28.4334 10.1665 28.6668 10.7366 28.6668 11.4101V25.2562C28.6668 25.9297 28.4334 26.4998 27.9668 26.9665C27.5001 27.4331 26.93 27.6665 26.2565 27.6665H5.74376C5.07025 27.6665 4.50016 27.4331 4.0335 26.9665C3.56683 26.4998 3.3335 25.9297 3.3335 25.2562V11.4101C3.3335 10.7366 3.56683 10.1665 4.0335 9.69985C4.50016 9.23318 5.07025 8.99985 5.74376 8.99985H11.3335ZM13.3335 8.99985H18.6668V6.74348C18.6668 6.64091 18.6241 6.54688 18.5386 6.46142C18.4531 6.37593 18.3591 6.33319 18.2565 6.33319H13.7438C13.6412 6.33319 13.5472 6.37593 13.4617 6.46142C13.3762 6.54688 13.3335 6.64091 13.3335 6.74348V8.99985ZM26.6668 19.9998H19.3334V21.128C19.3334 21.4716 19.2185 21.7583 18.9885 21.9882C18.7586 22.2182 18.4719 22.3331 18.1283 22.3331H13.872C13.5284 22.3331 13.2416 22.2182 13.0117 21.9882C12.7818 21.7583 12.6668 21.4716 12.6668 21.128V19.9998H5.33346V25.2562C5.33346 25.3588 5.3762 25.4528 5.46166 25.5383C5.54715 25.6238 5.64119 25.6665 5.74376 25.6665H26.2565C26.3591 25.6665 26.4531 25.6238 26.5386 25.5383C26.6241 25.4528 26.6668 25.3588 26.6668 25.2562V19.9998ZM14.6668 20.3332H17.3335V17.6665H14.6668V20.3332ZM5.33346 17.9999H12.6668V16.8717C12.6668 16.5281 12.7818 16.2413 13.0117 16.0114C13.2416 15.7815 13.5284 15.6665 13.872 15.6665H18.1283C18.4719 15.6665 18.7586 15.7815 18.9885 16.0114C19.2185 16.2413 19.3334 16.5281 19.3334 16.8717V17.9999H26.6668V11.4101C26.6668 11.3075 26.6241 11.2135 26.5386 11.128C26.4531 11.0426 26.3591 10.9998 26.2565 10.9998H5.74376C5.64119 10.9998 5.54715 11.0426 5.46166 11.128C5.3762 11.2135 5.33346 11.3075 5.33346 11.4101V17.9999Z"/>
</svg>
