<svg width="24" height="24" fill="currentColor" viewBox="0 0 24 24">
  <path d="M12.05 19.75c-2.163 0-4.004-.753-5.523-2.258C5.01 15.987 4.25 14.156 4.25 12v-.78l-1.324 1.322a.725.725 0 0 1-.522.213.707.707 0 0 1-.531-.213.717.717 0 0 1-.218-.527c0-.206.073-.382.218-.527l2.494-2.494A.867.867 0 0 1 5 8.724c.24 0 .451.09.632.27l2.494 2.495a.72.72 0 0 1 .213.522.707.707 0 0 1-.213.531.718.718 0 0 1-.526.218.718.718 0 0 1-.527-.218L5.749 11.22V12c0 1.737.612 3.213 1.835 4.428 1.223 1.215 2.712 1.822 4.466 1.822.292 0 .583-.02.874-.06.29-.04.576-.107.858-.204a.879.879 0 0 1 .603.02.81.81 0 0 1 .426.396.678.678 0 0 1 .018.585.664.664 0 0 1-.443.388c-.377.133-.762.23-1.156.288a8.049 8.049 0 0 1-1.18.087Zm-.1-14c-.293 0-.584.02-.874.06-.29.04-.577.107-.86.203a.901.901 0 0 1-.61-.02.808.808 0 0 1-.433-.395.654.654 0 0 1-.023-.57.646.646 0 0 1 .423-.388 7.078 7.078 0 0 1 1.176-.295 7.594 7.594 0 0 1 1.2-.095c2.163 0 4.004.753 5.523 2.258C18.99 8.013 19.749 9.844 19.749 12v.78l1.324-1.322a.725.725 0 0 1 .522-.213.707.707 0 0 1 .531.213c.145.144.218.32.218.527a.717.717 0 0 1-.218.527l-2.494 2.494a.867.867 0 0 1-.633.27.867.867 0 0 1-.632-.27l-2.494-2.495a.725.725 0 0 1-.213-.522.707.707 0 0 1 .213-.531.717.717 0 0 1 .527-.218c.206 0 .382.073.526.218l1.324 1.323V12c0-1.737-.612-3.213-1.835-4.428-1.223-1.215-2.712-1.822-4.465-1.822Z"/>
</svg>
