<svg width="24" height="24" fill="currentColor" viewBox="0 0 24 24">
  <path d="M7 9.046h3.5a.58.58 0 0 0 .596-.596.58.58 0 0 0-.596-.596H7a.58.58 0 0 0-.596.596.58.58 0 0 0 .596.596Zm6.75 8.05h3.5a.579.579 0 0 0 .596-.596.58.58 0 0 0-.596-.596h-3.5a.58.58 0 0 0-.596.596.58.58 0 0 0 .596.596Zm0-2.5h3.5a.579.579 0 0 0 .596-.596.58.58 0 0 0-.596-.596h-3.5a.58.58 0 0 0-.596.595.58.58 0 0 0 .596.597Zm-5 3.25a.58.58 0 0 0 .596-.596v-1.404h1.404a.579.579 0 0 0 .596-.596.58.58 0 0 0-.596-.596H9.346V13.25a.58.58 0 0 0-.596-.596.58.58 0 0 0-.596.596v1.404H6.75a.58.58 0 0 0-.596.595.58.58 0 0 0 .596.597h1.404v1.404a.58.58 0 0 0 .596.596Zm4.93-7.546a.58.58 0 0 0 .42.186.58.58 0 0 0 .42-.186l.98-.98 1.006 1.005a.523.523 0 0 0 .392.162.587.587 0 0 0 .424-.19.556.556 0 0 0 .168-.409.614.614 0 0 0-.17-.426l-.982-1.012 1.006-1.006a.523.523 0 0 0 .162-.392.582.582 0 0 0-.187-.421.58.58 0 0 0-.419-.187.58.58 0 0 0-.42.187l-.98.98-1.006-1.005a.524.524 0 0 0-.392-.162.582.582 0 0 0-.421.187.58.58 0 0 0-.187.419.58.58 0 0 0 .187.42l.98.98-1.005 1.021a.58.58 0 0 0 .025.829ZM5.309 20.5c-.505 0-.933-.175-1.283-.525a1.745 1.745 0 0 1-.525-1.283V5.308c0-.505.175-.933.525-1.283.35-.35.778-.525 1.283-.525h13.384c.505 0 .933.175 1.283.525.35.35.525.778.525 1.283v13.384c0 .505-.175.933-.525 1.283-.35.35-.778.525-1.283.525H5.308Zm0-1.5h13.384a.294.294 0 0 0 .212-.096.294.294 0 0 0 .096-.212V5.308a.294.294 0 0 0-.096-.212.294.294 0 0 0-.212-.096H5.308a.294.294 0 0 0-.212.096.294.294 0 0 0-.096.212v13.384c0 .077.032.148.096.212a.294.294 0 0 0 .212.096Z"/>
</svg>
