<svg width="24" height="24" fill="currentColor" viewBox="0 0 24 24">
  <path d="M7.036 9.2h3.5a.728.728 0 0 0 .75-.75.728.728 0 0 0-.75-.75h-3.5a.728.728 0 0 0-.75.75.729.729 0 0 0 .75.75Zm6.678 8.014h3.5a.729.729 0 0 0 .75-.75.729.729 0 0 0-.75-.75h-3.5a.729.729 0 0 0-.75.75.728.728 0 0 0 .75.75Zm0-2.5h3.5a.729.729 0 0 0 .75-.75.729.729 0 0 0-.75-.75h-3.5a.729.729 0 0 0-.75.75.728.728 0 0 0 .75.75Zm-4.928 3.25a.728.728 0 0 0 .75-.75v-1.25h1.25a.728.728 0 0 0 .75-.75.729.729 0 0 0-.75-.75h-1.25v-1.25a.729.729 0 0 0-.75-.75.729.729 0 0 0-.75.75v1.25h-1.25a.729.729 0 0 0-.75.75.728.728 0 0 0 .75.75h1.25v1.25a.728.728 0 0 0 .75.75Zm4.753-7.503a.72.72 0 0 0 .525.225.72.72 0 0 0 .525-.225l.875-.875.9.9c.134.133.3.2.5.2a.72.72 0 0 0 .525-.225.694.694 0 0 0 .2-.513.782.782 0 0 0-.2-.537l-.875-.925.9-.9c.134-.134.2-.3.2-.5a.72.72 0 0 0-.225-.525.72.72 0 0 0-.525-.225.72.72 0 0 0-.525.225l-.875.875-.9-.9a.679.679 0 0 0-.5-.2.72.72 0 0 0-.525.225.72.72 0 0 0-.225.525c0 .2.075.375.225.525l.875.875-.9.925a.765.765 0 0 0-.2.525c0 .2.075.375.225.525ZM5.072 21.203c-.63 0-1.166-.222-1.61-.665a2.193 2.193 0 0 1-.665-1.61V5.072c0-.63.222-1.167.665-1.61.444-.444.98-.665 1.61-.665h13.856c.63 0 1.167.221 1.61.665.444.443.665.98.665 1.61v13.856c0 .63-.221 1.166-.665 1.61-.443.443-.98.665-1.61.665H5.072Z"/>
</svg>
