<svg width="24" height="24" fill="currentColor" viewBox="0 0 24 24">
  <path d="M4.308 19.5c-.505 0-.933-.175-1.283-.525a1.745 1.745 0 0 1-.525-1.283V6.308c0-.505.175-.933.525-1.283.35-.35.778-.525 1.283-.525h15.384c.505 0 .933.175 1.283.525.35.35.525.778.525 1.283v11.384c0 .505-.175.933-.525 1.283-.35.35-.778.525-1.283.525H4.308ZM4 11.25h4.337V6h-4.03a.3.3 0 0 0-.22.087.3.3 0 0 0-.087.22v4.943Zm5.836 0h4.328V6H9.835v5.25Zm5.827 0H20V6.308a.3.3 0 0 0-.087-.221.3.3 0 0 0-.22-.087h-4.03v5.25ZM8.337 18v-5.25H4v4.942a.3.3 0 0 0 .087.221.3.3 0 0 0 .22.087h4.03Zm1.5 0h4.327v-5.25H9.835V18Zm5.826 0h4.03a.3.3 0 0 0 .22-.087.3.3 0 0 0 .087-.22V12.75h-4.337V18Z"/>
</svg>
