<svg width="24" height="24" fill="currentColor" viewBox="0 0 24 24">
  <path d="M9 16.115a2.226 2.226 0 0 1-1.636-.672 2.226 2.226 0 0 1-.672-1.635c0-.643.224-1.188.672-1.636A2.226 2.226 0 0 1 9 11.5c.642 0 1.188.224 1.636.672.448.448.672.993.672 1.636 0 .642-.224 1.187-.672 1.635A2.226 2.226 0 0 1 9 16.115Zm-3.692 5.443c-.505 0-.933-.175-1.283-.525A1.745 1.745 0 0 1 3.5 19.75V6.365c0-.505.175-.932.525-1.282.35-.35.778-.525 1.283-.525h1.384V3.212a.75.75 0 0 1 .22-.55.745.745 0 0 1 .55-.22.749.749 0 0 1 .769.77v1.346h7.577V3.192c0-.213.071-.39.215-.534a.726.726 0 0 1 .535-.216c.212 0 .39.072.534.216a.726.726 0 0 1 .216.534v1.366h1.384c.505 0 .933.175 1.283.525.35.35.525.777.525 1.282V19.75c0 .505-.175.933-.525 1.283-.35.35-.778.525-1.283.525H5.308Zm0-1.5h13.384a.3.3 0 0 0 .221-.087.3.3 0 0 0 .087-.221v-9.385H5v9.385a.3.3 0 0 0 .087.221.3.3 0 0 0 .22.087ZM5 8.865h14v-2.5a.3.3 0 0 0-.087-.22.3.3 0 0 0-.22-.087H5.307a.3.3 0 0 0-.221.086.3.3 0 0 0-.087.221v2.5Z"/>
</svg>
