<svg width="24" height="24" fill="currentColor" viewBox="0 0 24 24">
  <path d="M13.798 19.066c-.297 0-.546-.1-.747-.301-.2-.201-.301-.45-.301-.747V5.982c0-.297.1-.546.301-.746.201-.201.45-.302.747-.302h1.339a1 1 0 0 1 .742.302c.2.2.3.45.3.746v12.036c0 .297-.1.546-.3.747-.2.2-.447.3-.742.3h-1.34Zm-4.935 0c-.295 0-.543-.1-.742-.301-.2-.201-.3-.45-.3-.747V5.982c0-.297.1-.546.3-.746.2-.201.447-.302.742-.302h1.34c.296 0 .545.1.746.302.2.2.301.45.301.746v12.036c0 .297-.1.546-.301.747-.201.2-.45.3-.747.3H8.863Zm-4.881 0c-.297 0-.546-.1-.747-.301-.2-.201-.3-.45-.3-.747V5.982c0-.297.1-.546.3-.746.201-.201.45-.302.747-.302h1.291c.297 0 .546.1.747.302.2.2.301.45.301.746v12.036c0 .297-.1.546-.301.747-.2.2-.45.3-.747.3H3.982Zm14.745 0c-.297 0-.546-.1-.747-.301-.2-.201-.301-.45-.301-.747V5.982c0-.297.1-.546.301-.746.2-.201.45-.302.747-.302h1.29c.298 0 .547.1.748.302.2.2.3.45.3.746v12.036c0 .297-.1.546-.3.747-.201.2-.45.3-.747.3h-1.291Z"/>
</svg>
