<svg width="24" height="24" fill="currentColor" viewBox="0 0 24 24">
  <path d="M5.072 22.203a2.19 2.19 0 0 1-1.61-.665 2.193 2.193 0 0 1-.665-1.61V6.072c0-.63.221-1.167.665-1.61a2.19 2.19 0 0 1 1.61-.665H6v-.934c0-.3.104-.552.311-.758a1.04 1.04 0 0 1 .76-.308c.3 0 .552.103.758.308.206.206.308.458.308.758v.934h7.726v-.934c0-.3.103-.552.31-.758a1.04 1.04 0 0 1 .761-.308c.3 0 .552.103.758.308.205.206.308.458.308.758v.934h.928c.63 0 1.167.221 1.61.665.444.443.665.98.665 1.61v13.856a2.19 2.19 0 0 1-.665 1.61 2.19 2.19 0 0 1-1.61.665H5.072Zm0-2.275h13.856V10H5.072v9.928Z"/>
</svg>
