<svg width="24" height="24" fill="currentColor" viewBox="0 0 24 24">
  <path d="M5.308 21.558c-.505 0-.933-.175-1.283-.526A1.745 1.745 0 0 1 3.5 19.75V6.365c0-.505.175-.932.525-1.282.35-.35.778-.525 1.283-.525h1.384V3.21c0-.219.074-.402.22-.549a.745.745 0 0 1 .55-.22.749.749 0 0 1 .769.77v1.346h7.577V3.192c0-.213.072-.39.215-.534a.726.726 0 0 1 .535-.216c.212 0 .39.072.534.216a.726.726 0 0 1 .216.534v1.366h1.384c.505 0 .933.175 1.283.525.35.35.525.777.525 1.282V19.75c0 .505-.175.933-.525 1.282-.35.35-.778.526-1.283.526H5.308Zm0-1.5h13.384a.294.294 0 0 0 .212-.097.294.294 0 0 0 .096-.211v-9.385H5v9.385c0 .077.032.147.096.211a.294.294 0 0 0 .212.097ZM5 8.865h14v-2.5a.294.294 0 0 0-.096-.211.294.294 0 0 0-.212-.097H5.308a.294.294 0 0 0-.212.097.294.294 0 0 0-.096.211v2.5Z"/>
</svg>
