<svg width="24" height="24" fill="currentColor" viewBox="0 0 24 24">
  <path d="M19.959 21.203c-2.107 0-4.19-.459-6.247-1.377-2.057-.918-3.93-2.22-5.622-3.908-1.69-1.69-2.995-3.565-3.913-5.624C3.26 8.234 2.8 6.15 2.8 4.044a1.214 1.214 0 0 1 1.24-1.247h4.044c.325 0 .603.096.834.288.231.192.376.439.433.739l.644 3.374c.05.327.042.604-.022.83a1.276 1.276 0 0 1-.368.595l-2.46 2.403c.317.572.693 1.13 1.127 1.674a17.03 17.03 0 0 0 1.453 1.59 17.19 17.19 0 0 0 1.535 1.366c.527.414 1.08.788 1.657 1.123l2.392-2.374a1.68 1.68 0 0 1 .713-.41c.281-.082.568-.1.861-.05l3.29.682c.316.09.567.244.75.461.184.217.276.476.276.776v4.092c0 .356-.119.653-.357.89a1.201 1.201 0 0 1-.884.357Z"/>
</svg>
