<svg width="24" height="24" fill="currentColor" viewBox="0 0 24 24">
  <path d="m12 13.466 2.804 2.804c.195.195.44.292.733.29a1.005 1.005 0 0 0 1.026-1.029.994.994 0 0 0-.293-.733L13.465 12l2.805-2.804a.994.994 0 0 0 .293-.733.994.994 0 0 0-.293-.733.994.994 0 0 0-.733-.293.994.994 0 0 0-.733.293L12 10.534 9.195 7.73a.99.99 0 0 0-.73-.293.99.99 0 0 0-.73.293.994.994 0 0 0-.292.733c0 .293.097.537.293.733L10.534 12 7.73 14.804a.98.98 0 0 0-.29.73 1 1 0 0 0 .296.73c.195.195.44.293.732.293a.994.994 0 0 0 .733-.293L12 13.466Zm0 8.737a9.951 9.951 0 0 1-3.984-.802 10.29 10.29 0 0 1-3.238-2.18 10.291 10.291 0 0 1-2.18-3.237A9.952 9.952 0 0 1 1.797 12c0-1.415.268-2.743.803-3.984a10.29 10.29 0 0 1 2.18-3.238A10.291 10.291 0 0 1 8.015 2.6 9.952 9.952 0 0 1 12 1.797c1.415 0 2.743.267 3.983.802 1.24.535 2.32 1.261 3.238 2.18a10.29 10.29 0 0 1 2.18 3.237A9.951 9.951 0 0 1 22.203 12a9.952 9.952 0 0 1-.802 3.984 10.291 10.291 0 0 1-2.18 3.237 10.29 10.29 0 0 1-3.238 2.18 9.952 9.952 0 0 1-3.983.802Z"/>
</svg>
