<svg width="24" height="24" fill="currentColor" viewBox="0 0 24 24">
  <path d="M6.797 19.066v-.863h-.91c-.32 0-.59-.11-.809-.33a1.1 1.1 0 0 1-.329-.807V6.934c0-.319.11-.588.33-.808.219-.22.488-.33.808-.33h.91v-.862c0-.319.11-.588.329-.808.22-.22.49-.33.808-.33.32 0 .589.11.809.33.219.22.329.489.329.808v.863h.91c.32 0 .589.11.808.329.22.22.33.489.33.808v10.132c0 .319-.11.588-.33.808a1.1 1.1 0 0 1-.808.33h-.91v.862c0 .319-.11.588-.33.808a1.1 1.1 0 0 1-.808.33 1.1 1.1 0 0 1-.808-.33 1.1 1.1 0 0 1-.33-.808Zm8.131 0v-3.863h-.91a1.1 1.1 0 0 1-.808-.33 1.1 1.1 0 0 1-.33-.807V8.934c0-.319.11-.588.33-.808.22-.22.489-.33.808-.33h.91V4.935c0-.319.11-.588.33-.808.22-.22.489-.33.808-.33.319 0 .588.11.808.33.22.22.33.489.33.808v2.863h.91c.319 0 .588.11.808.329.22.22.329.489.329.808v5.132c0 .319-.11.588-.33.808-.219.22-.488.33-.808.33h-.91v3.862c0 .319-.11.588-.329.808a1.1 1.1 0 0 1-.808.33 1.1 1.1 0 0 1-.808-.33 1.1 1.1 0 0 1-.33-.808Z"/>
</svg>
