<svg width="24" height="24" fill="currentColor" viewBox="0 0 24 24">
  <path d="M8.294 10.028c-.342 0-.603-.155-.782-.465a.826.826 0 0 1 .019-.916l3.196-5.238a.846.846 0 0 1 .773-.437c.341 0 .599.146.773.437l3.196 5.238a.827.827 0 0 1 .019.916c-.179.31-.44.465-.782.465H8.294Zm8.706 11c-1.147 0-2.12-.4-2.918-1.197-.798-.798-1.197-1.771-1.197-2.918 0-1.148.399-2.12 1.197-2.919.798-.798 1.77-1.197 2.918-1.197 1.148 0 2.12.4 2.918 1.197.798.798 1.198 1.771 1.198 2.919 0 1.147-.4 2.12-1.198 2.918-.798.798-1.77 1.197-2.918 1.197Zm-13.214-.5a.87.87 0 0 1-.643-.26.877.877 0 0 1-.258-.644v-5.425a.87.87 0 0 1 .26-.643.877.877 0 0 1 .644-.259h5.425a.87.87 0 0 1 .643.26.877.877 0 0 1 .259.644v5.425a.87.87 0 0 1-.26.643.877.877 0 0 1-.645.259H3.786Zm13.214-1c.732 0 1.351-.253 1.857-.758.506-.506.759-1.125.759-1.857s-.253-1.351-.759-1.857c-.505-.506-1.124-.759-1.857-.759a2.53 2.53 0 0 0-1.857.758c-.505.506-.758 1.125-.758 1.857 0 .733.252 1.352.758 1.857.506.506 1.125.759 1.857.759Zm-12.615-.5h4.23v-4.23h-4.23v4.23Zm4.954-10.5h4.323L11.5 5.05 9.34 8.528Z"/>
</svg>
