<svg width="24" height="24" fill="currentColor" viewBox="0 0 24 24">
  <path d="m10.34 14.021-2.323-2.323a.725.725 0 0 0-.523-.212.707.707 0 0 0-.531.212.718.718 0 0 0-.218.527c0 .207.073.382.218.527l2.744 2.744c.18.181.392.271.633.271a.87.87 0 0 0 .632-.27l5.564-5.564a.724.724 0 0 0 .212-.522.707.707 0 0 0-.212-.532.717.717 0 0 0-.527-.217.718.718 0 0 0-.527.217l-5.142 5.142Zm1.42 7.354a9.254 9.254 0 0 1-3.705-.748 9.596 9.596 0 0 1-3.017-2.03 9.59 9.59 0 0 1-2.03-3.016 9.245 9.245 0 0 1-.75-3.704c0-1.314.25-2.55.749-3.705a9.596 9.596 0 0 1 2.03-3.017 9.591 9.591 0 0 1 3.016-2.031 9.245 9.245 0 0 1 3.704-.749c1.314 0 2.55.25 3.705.748a9.597 9.597 0 0 1 3.017 2.03 9.593 9.593 0 0 1 2.032 3.016 9.245 9.245 0 0 1 .748 3.704c0 1.315-.25 2.55-.748 3.706a9.597 9.597 0 0 1-2.03 3.017 9.593 9.593 0 0 1-3.016 2.03 9.245 9.245 0 0 1-3.704.75Zm-.001-1.5c2.233 0 4.125-.775 5.675-2.325 1.55-1.55 2.325-3.441 2.325-5.675 0-2.233-.775-4.125-2.325-5.675-1.55-1.55-3.442-2.325-5.675-2.325-2.234 0-4.125.775-5.675 2.325-1.55 1.55-2.325 3.442-2.325 5.675 0 2.234.775 4.125 2.325 5.675 1.55 1.55 3.441 2.325 5.675 2.325Z"/>
</svg>
