<svg width="24" height="24" fill="currentColor" viewBox="0 0 24 24">
  <path d="m10.47 13.602-1.995-1.994a1.062 1.062 0 0 0-.784-.311A1.053 1.053 0 0 0 6.6 12.391c.002.316.106.577.313.784l2.755 2.754c.23.228.497.342.802.342.306 0 .573-.114.801-.342l5.56-5.56c.208-.207.311-.467.311-.78a1.062 1.062 0 0 0-1.095-1.092c-.315 0-.576.103-.783.31l-4.795 4.795Zm1.417 8.613a9.946 9.946 0 0 1-3.983-.803 10.297 10.297 0 0 1-3.238-2.18 10.298 10.298 0 0 1-2.179-3.237 9.946 9.946 0 0 1-.803-3.984c0-1.415.268-2.743.803-3.983a10.297 10.297 0 0 1 2.18-3.238 10.297 10.297 0 0 1 3.237-2.179 9.946 9.946 0 0 1 3.983-.803c1.415 0 2.743.268 3.984.803 1.24.535 2.32 1.262 3.237 2.18a10.297 10.297 0 0 1 2.18 3.237 9.946 9.946 0 0 1 .803 3.983 9.946 9.946 0 0 1-.803 3.984 10.298 10.298 0 0 1-2.18 3.237 10.297 10.297 0 0 1-3.237 2.18 9.946 9.946 0 0 1-3.984.803Z"/>
</svg>
