<svg width="24" height="24" fill="currentColor" viewBox="0 0 24 24">
  <path fill-rule="evenodd" d="M17.343 18.738c-1.525 1.175-3.262 1.762-5.212 1.762a8.236 8.236 0 0 1-3.325-.675A8.675 8.675 0 0 1 6.106 18a8.532 8.532 0 0 1-1.812-2.688A8.272 8.272 0 0 1 3.631 12c0-1.183.221-2.287.663-3.312A8.531 8.531 0 0 1 6.106 6a8.676 8.676 0 0 1 2.7-1.825 8.236 8.236 0 0 1 3.325-.675c1.25 0 2.442.262 3.575.787a8.43 8.43 0 0 1 2.925 2.238V4.9a.73.73 0 0 1 .212-.538.731.731 0 0 1 .538-.212.728.728 0 0 1 .75.75v3.425c0 .25-.087.462-.262.637a.869.869 0 0 1-.638.263h-3.425a.727.727 0 0 1-.75-.75.73.73 0 0 1 .212-.538.731.731 0 0 1 .538-.212h1.85a7.41 7.41 0 0 0-2.463-2A6.705 6.705 0 0 0 12.131 5c-1.95 0-3.604.679-4.963 2.037C5.81 8.396 5.131 10.05 5.131 12c0 1.95.679 3.604 2.037 4.962C8.527 18.321 10.181 19 12.131 19c1.583 0 3-.48 4.25-1.438s2.075-2.204 2.475-3.737c.067-.217.183-.392.35-.525a.644.644 0 0 1 .575-.125c.217.05.379.175.487.375.109.2.13.408.063.625-.467 1.867-1.463 3.388-2.988 4.563Zm-1.899-4.288-2.75-2.75V7.75a.706.706 0 0 0-.225-.537.74.74 0 0 0-.525-.213.726.726 0 0 0-.75.75v4.175a.92.92 0 0 0 .063.337 1.1 1.1 0 0 0 .187.313l2.925 2.925c.15.15.33.225.538.225a.733.733 0 0 0 .537-.225c.133-.15.2-.329.2-.537a.695.695 0 0 0-.2-.513Z" clip-rule="evenodd"/>
</svg>
