<svg width="24" height="24" fill="currentColor" viewBox="0 0 24 24">
  <path d="M6.5 19.117c-1.382 0-2.56-.48-3.537-1.44-.975-.96-1.463-2.131-1.463-3.514 0-1.223.392-2.31 1.175-3.263.783-.953 1.783-1.516 2.998-1.69.32-1.495 1.072-2.718 2.255-3.668 1.183-.95 2.54-1.425 4.072-1.425 1.809 0 3.345.631 4.607 1.894 1.262 1.262 1.893 2.797 1.893 4.606v.5h.308c1.053.082 1.932.506 2.636 1.271.704.766 1.056 1.675 1.056 2.73 0 1.115-.388 2.06-1.163 2.836-.776.775-1.722 1.163-2.837 1.163h-12Zm0-1.5h12c.7 0 1.292-.241 1.775-.725.483-.483.725-1.075.725-1.775s-.242-1.291-.725-1.775c-.483-.483-1.075-.725-1.775-.725H17v-2c0-1.383-.488-2.562-1.463-3.537-.975-.975-2.154-1.463-3.537-1.463s-2.563.488-3.538 1.463C7.487 8.055 7 9.234 7 10.617h-.5c-.967 0-1.792.342-2.475 1.025A3.372 3.372 0 0 0 3 14.117c0 .967.342 1.792 1.025 2.475A3.372 3.372 0 0 0 6.5 17.617Z"/>
</svg>
