<svg width="24" height="24" fill="currentColor" viewBox="0 0 24 24">
  <path d="M6.5 19.5c-1.383 0-2.562-.48-3.538-1.438-.974-.958-1.462-2.129-1.462-3.512 0-1.25.4-2.346 1.2-3.288.8-.941 1.792-1.495 2.975-1.662.317-1.5 1.067-2.725 2.25-3.675C9.11 4.975 10.467 4.5 12 4.5c1.817 0 3.355.629 4.613 1.887C17.871 7.646 18.5 9.183 18.5 11v.5h.3c1.067.083 1.95.508 2.65 1.275.7.767 1.05 1.675 1.05 2.725 0 1.117-.387 2.062-1.163 2.837-.774.775-1.72 1.163-2.837 1.163h-12Zm3.85-3.225a.93.93 0 0 0 .338-.063.813.813 0 0 0 .287-.187L15.1 11.9c.15-.15.23-.33.238-.538a.734.734 0 0 0-.238-.562.734.734 0 0 0-.538-.225.733.733 0 0 0-.537.225l-3.7 3.7-1.575-1.6a.72.72 0 0 0-.525-.225.72.72 0 0 0-.525.225c-.166.167-.25.35-.25.55 0 .2.084.375.25.525l2.025 2.05c.084.083.18.146.288.187a.92.92 0 0 0 .337.063ZM6.5 18h12c.7 0 1.292-.242 1.775-.725.484-.483.725-1.075.725-1.775s-.241-1.292-.725-1.775C19.792 13.242 19.2 13 18.5 13H17v-2c0-1.383-.487-2.563-1.462-3.538C14.563 6.487 13.384 6 12 6c-1.383 0-2.562.487-3.537 1.462C7.488 8.437 7 9.617 7 11h-.525c-.95 0-1.766.342-2.45 1.025A3.372 3.372 0 0 0 3 14.5c0 .967.342 1.792 1.025 2.475A3.373 3.373 0 0 0 6.5 18Z"/>
</svg>
