<svg width="24" height="24" fill="currentColor" viewBox="0 0 24 24">
  <path d="m19.148 21.324-1.932-1.894H6.5c-1.585 0-2.929-.552-4.031-1.654C1.366 16.673.815 15.329.815 13.744c0-1.299.4-2.467 1.202-3.505A5.293 5.293 0 0 1 5.124 8.25c.043-.11.083-.225.12-.346l.12-.364-3.407-3.409a.994.994 0 0 1-.293-.733.99.99 0 0 1 .293-.732.994.994 0 0 1 .732-.293.99.99 0 0 1 .733.293l17.192 17.19c.195.196.293.44.293.734a.994.994 0 0 1-.293.733c-.196.195-.44.296-.733.302a.934.934 0 0 1-.733-.302Zm2.578-3.198L7.924 4.344a6.854 6.854 0 0 1 1.914-.955A7.086 7.086 0 0 1 12 3.06c1.97 0 3.647.682 5.031 2.046 1.385 1.365 2.099 3.03 2.142 4.996 1.162.177 2.122.706 2.878 1.586a4.574 4.574 0 0 1 1.134 3.075 4.49 4.49 0 0 1-.402 1.89 4.456 4.456 0 0 1-1.057 1.474Z"/>
</svg>
