<svg width="24" height="24" fill="currentColor" viewBox="0 0 24 24">
  <path d="M6.518 20.203c-1.572 0-2.916-.543-4.031-1.628C1.372 17.489.815 16.16.815 14.593c0-1.34.394-2.537 1.184-3.592.789-1.054 1.83-1.727 3.125-2.018.441-1.55 1.296-2.801 2.566-3.755 1.27-.954 2.707-1.431 4.31-1.431 1.97 0 3.647.68 5.031 2.043 1.385 1.363 2.099 3.027 2.142 4.993a4.57 4.57 0 0 1 2.878 1.595 4.615 4.615 0 0 1 1.134 3.09c0 1.302-.458 2.408-1.375 3.319-.917.91-2.026 1.366-3.328 1.366H6.518Zm3.802-3.676c.15 0 .291-.025.426-.074.134-.05.258-.13.37-.243l4.171-4.165c.208-.208.312-.46.312-.755s-.104-.547-.312-.755a1.028 1.028 0 0 0-.755-.312c-.295 0-.547.104-.755.312l-3.476 3.47-1.37-1.37a.994.994 0 0 0-.733-.293.994.994 0 0 0-.733.293 1.025 1.025 0 0 0-.312.752c0 .294.104.538.312.733l2.06 2.09c.111.112.235.193.37.243.134.05.276.074.425.074Z"/>
</svg>
