<svg width="24" height="24" fill="currentColor" viewBox="0 0 24 24">
  <path d="M8.058 16.25h11.384a.3.3 0 0 0 .221-.087.3.3 0 0 0 .087-.22V4.557a.3.3 0 0 0-.087-.221.3.3 0 0 0-.22-.087H17.75V10c0 .18-.077.315-.23.404a.424.424 0 0 1-.462-.008L15.5 9.461l-1.558.935a.424.424 0 0 1-.461.008.436.436 0 0 1-.231-.404V4.25H8.058a.3.3 0 0 0-.222.087.3.3 0 0 0-.086.22v11.385a.3.3 0 0 0 .086.221.3.3 0 0 0 .222.087Zm0 1.5c-.505 0-.933-.175-1.283-.525a1.745 1.745 0 0 1-.525-1.283V4.558c0-.505.175-.933.525-1.283.35-.35.778-.525 1.283-.525h11.384c.505 0 .933.175 1.283.525.35.35.525.778.525 1.283v11.384c0 .505-.175.933-.525 1.283-.35.35-.778.525-1.283.525H8.058Zm-3.5 3.5c-.505 0-.933-.175-1.283-.525a1.745 1.745 0 0 1-.525-1.283V7.308a.73.73 0 0 1 .215-.535.726.726 0 0 1 .535-.215c.213 0 .391.071.535.215a.726.726 0 0 1 .215.535v12.134a.3.3 0 0 0 .087.221.3.3 0 0 0 .22.087h12.135a.73.73 0 0 1 .535.215.726.726 0 0 1 .215.535.726.726 0 0 1-.215.535.726.726 0 0 1-.535.215H4.558Zm3.5-17H7.75h12H8.058Z"/>
</svg>
