<svg width="24" height="24" fill="currentColor" viewBox="0 0 24 24">
  <path d="m14.019 10.418 1.636-.984 1.637.984a.52.52 0 0 0 .574.003.542.542 0 0 0 .29-.493V3.934h-5v5.994c0 .215.096.38.288.493a.522.522 0 0 0 .575-.003Zm-5.81 7.648c-.63 0-1.166-.222-1.61-.665a2.193 2.193 0 0 1-.665-1.61V3.934c0-.63.222-1.166.665-1.61.444-.443.98-.665 1.61-.665h11.857c.63 0 1.166.222 1.61.665.443.444.665.98.665 1.61v11.857c0 .63-.222 1.166-.666 1.61-.443.443-.98.665-1.61.665H8.21ZM3.934 22.34c-.63 0-1.166-.222-1.61-.666a2.193 2.193 0 0 1-.665-1.61V7.073c0-.32.11-.589.33-.808.22-.22.488-.33.808-.33.319 0 .588.11.808.33.22.22.33.488.33.808v12.994h12.993c.32 0 .589.11.808.33.22.219.33.488.33.807 0 .32-.11.589-.33.808a1.1 1.1 0 0 1-.808.33H3.934Z"/>
</svg>
