<svg width="24" height="24" fill="currentColor" viewBox="0 0 24 24">
  <path d="M4.934 20.203a1.1 1.1 0 0 1-.808-.33 1.1 1.1 0 0 1-.33-.807v-8.947c0-.319.11-.588.33-.808.22-.22.49-.33.808-.33H6.84c.319 0 .588.11.808.33.22.22.33.49.33.808v8.947c0 .319-.11.588-.33.808-.22.22-.489.33-.808.33H4.934Zm0-12.227a1.1 1.1 0 0 1-.808-.33 1.095 1.095 0 0 1-.33-.808V4.934c0-.319.11-.588.33-.808.22-.22.49-.33.808-.33H6.84c.319 0 .588.11.808.33.22.22.33.489.33.808v1.904c0 .32-.11.59-.33.809-.22.22-.489.329-.808.329H4.934Zm6.114 12.227c-.32 0-.589-.11-.808-.33a1.094 1.094 0 0 1-.33-.807v-5.917c0-.319.11-.588.33-.808.22-.22.489-.33.808-.33h1.904c.32 0 .589.11.808.33.22.22.33.49.33.808v5.917c0 .319-.11.588-.33.808-.22.22-.489.33-.808.33h-1.904Zm0-9.203c-.32 0-.589-.11-.808-.33a1.097 1.097 0 0 1-.33-.808V7.958c0-.32.11-.589.33-.808.22-.22.489-.33.808-.33h1.904c.32 0 .589.11.808.33.22.22.33.489.33.808v1.904c0 .32-.11.589-.33.809-.22.22-.489.329-.808.329h-1.904Zm6.114 9.203c-.32 0-.59-.11-.809-.33a1.1 1.1 0 0 1-.329-.807V16.16c0-.319.11-.588.33-.808.219-.22.488-.33.808-.33h1.904c.319 0 .588.11.808.33.22.22.33.489.33.808v2.905c0 .319-.11.588-.33.808a1.1 1.1 0 0 1-.808.33h-1.904Zm0-6.185c-.32 0-.59-.11-.809-.33a1.097 1.097 0 0 1-.329-.808v-1.904c0-.32.11-.589.33-.808.219-.22.488-.33.808-.33h1.904c.319 0 .588.11.808.33.22.22.33.489.33.808v1.904c0 .32-.11.589-.33.808a1.1 1.1 0 0 1-.808.33h-1.904Z"/>
</svg>
