<svg width="24" height="24" fill="currentColor" viewBox="0 0 24 24">
  <path d="M16.904 19.5a.875.875 0 0 1-.644-.26.874.874 0 0 1-.26-.644V14.5c0-.256.087-.47.26-.644a.875.875 0 0 1 .644-.26h1.692c.256 0 .47.087.644.26.173.173.26.388.26.644v4.096c0 .256-.087.47-.26.644a.874.874 0 0 1-.644.26h-1.692Zm-5.75 0a.874.874 0 0 1-.644-.26.874.874 0 0 1-.26-.644V5.404c0-.256.087-.47.26-.644a.874.874 0 0 1 .644-.26h1.692c.256 0 .47.087.644.26.173.173.26.388.26.644v13.192c0 .256-.087.47-.26.644a.875.875 0 0 1-.644.26h-1.692Zm-5.75 0a.874.874 0 0 1-.644-.26.874.874 0 0 1-.26-.644v-8.284c0-.26.087-.477.26-.65a.877.877 0 0 1 .644-.258h1.692c.256 0 .47.087.644.26.173.173.26.388.26.644v8.284a.88.88 0 0 1-.26.65.877.877 0 0 1-.644.258H5.404Z"/>
</svg>
