<svg width="24" height="24" fill="currentColor" viewBox="0 0 24 24">
  <path d="M17.156 20.203a1.1 1.1 0 0 1-.809-.33 1.1 1.1 0 0 1-.329-.807v-5.012c0-.32.11-.589.33-.808.219-.22.489-.33.808-.33h1.91c.319 0 .588.11.808.33.22.22.33.489.33.808v5.012c0 .319-.11.588-.33.808a1.1 1.1 0 0 1-.808.33h-1.91Zm-6.108 0c-.32 0-.589-.11-.808-.33a1.094 1.094 0 0 1-.33-.807V4.934c0-.319.11-.588.33-.808.22-.22.489-.33.808-.33h1.904c.32 0 .589.11.808.33.22.22.33.489.33.808v14.132c0 .319-.11.588-.33.808-.22.22-.489.33-.808.33h-1.904Zm-6.114 0a1.1 1.1 0 0 1-.808-.33 1.1 1.1 0 0 1-.33-.807V9.934c0-.319.11-.588.33-.808.22-.22.49-.33.808-.33h1.91c.32 0 .59.11.809.33.22.22.33.489.33.808v9.132c0 .319-.11.588-.33.808a1.1 1.1 0 0 1-.808.33h-1.91Z"/>
</svg>
