<svg width="24" height="24" fill="currentColor" viewBox="0 0 24 24">
  <path d="M5.404 19.5a.874.874 0 0 1-.644-.26.874.874 0 0 1-.26-.644V17.5c0-.256.087-.47.26-.644a.874.874 0 0 1 .644-.26h1.692c.256 0 .47.087.644.26.173.173.26.388.26.644v1.096c0 .256-.087.47-.26.644a.875.875 0 0 1-.644.26H5.404Zm0-3.789a.875.875 0 0 1-.644-.26.875.875 0 0 1-.26-.643v-1.692c0-.257.087-.471.26-.644a.874.874 0 0 1 .644-.26h1.692c.256 0 .47.086.644.26.173.173.26.387.26.644v1.692c0 .256-.087.47-.26.644a.875.875 0 0 1-.644.26H5.404Zm0-4.384a.874.874 0 0 1-.644-.26.874.874 0 0 1-.26-.644V5.404c0-.256.087-.47.26-.644a.874.874 0 0 1 .644-.26h1.692c.256 0 .47.087.644.26.173.173.26.388.26.644v5.019c0 .256-.087.47-.26.644a.875.875 0 0 1-.644.26H5.404Zm5.76 8.173a.874.874 0 0 1-.644-.26.874.874 0 0 1-.26-.644v-5.019c0-.256.086-.47.26-.644a.874.874 0 0 1 .644-.26h1.692c.256 0 .47.087.644.26.173.173.26.388.26.644v5.019c0 .256-.087.47-.26.644a.874.874 0 0 1-.644.26h-1.692Zm0-7.711a.874.874 0 0 1-.644-.26.874.874 0 0 1-.26-.645V9.192c0-.256.086-.47.26-.644a.875.875 0 0 1 .644-.26h1.692c.256 0 .47.087.644.26.173.174.26.388.26.644v1.692a.874.874 0 0 1-.26.644.874.874 0 0 1-.644.26h-1.692Zm0-4.385a.874.874 0 0 1-.644-.26.874.874 0 0 1-.26-.644V5.404c0-.256.086-.47.26-.644a.874.874 0 0 1 .644-.26h1.692c.256 0 .47.087.644.26.173.173.26.388.26.644V6.5c0 .256-.087.47-.26.644a.874.874 0 0 1-.644.26h-1.692Zm5.74 9.269a.875.875 0 0 1-.644-.26.875.875 0 0 1-.26-.644v-1.692c0-.256.087-.47.26-.644a.875.875 0 0 1 .644-.26h1.692c.256 0 .47.087.644.26.173.173.26.388.26.644v1.692c0 .256-.087.47-.26.644a.875.875 0 0 1-.644.26h-1.692Zm0-4.384a.875.875 0 0 1-.644-.26.875.875 0 0 1-.26-.644V5.404c0-.256.087-.47.26-.644a.875.875 0 0 1 .644-.26h1.692c.256 0 .47.087.644.26.173.173.26.388.26.644v5.98a.878.878 0 0 1-.26.645.874.874 0 0 1-.644.26h-1.692Zm0 7.211a.875.875 0 0 1-.644-.26.874.874 0 0 1-.26-.644v-.134c0-.257.087-.471.26-.645a.875.875 0 0 1 .644-.26h1.692c.256 0 .47.087.644.26.173.174.26.388.26.645v.134c0 .256-.087.47-.26.644a.874.874 0 0 1-.644.26h-1.692Z"/>
</svg>
