<svg width="24" height="24" fill="currentColor" viewBox="0 0 24 24">
  <path d="M4.934 20.203a1.1 1.1 0 0 1-.808-.33 1.1 1.1 0 0 1-.33-.807v-.947c0-.319.11-.588.33-.808.22-.22.49-.33.808-.33H6.84c.319 0 .588.11.808.33.22.22.33.49.33.808v.947c0 .319-.11.588-.33.808-.22.22-.489.33-.808.33H4.934Zm0-4.221a1.1 1.1 0 0 1-.808-.33 1.1 1.1 0 0 1-.33-.808V12.94c0-.319.11-.588.33-.808.22-.22.49-.33.808-.33H6.84c.319 0 .588.11.808.33.22.22.33.489.33.808v1.904c0 .32-.11.589-.33.809-.22.22-.489.329-.808.329H4.934Zm0-5.18c-.319 0-.588-.11-.808-.329-.22-.22-.33-.489-.33-.808v-4.73c0-.32.11-.59.33-.81.22-.219.49-.328.808-.328H6.84c.319 0 .588.11.808.329.22.22.33.489.33.808v4.731c0 .32-.11.589-.33.808-.22.22-.489.33-.808.33H4.934Zm6.114 9.401c-.32 0-.589-.11-.808-.33a1.094 1.094 0 0 1-.33-.807v-4.917c0-.319.11-.588.33-.808.22-.22.489-.33.808-.33h1.904c.32 0 .589.11.808.33.22.22.33.49.33.808v4.917c0 .319-.11.588-.33.808-.22.22-.489.33-.808.33h-1.904Zm0-8.191c-.32 0-.589-.11-.808-.33-.22-.22-.33-.489-.33-.808V8.97c0-.32.11-.589.33-.808.22-.22.489-.33.808-.33h1.904c.32 0 .589.11.808.33.22.22.33.489.33.808v1.904c0 .32-.11.589-.33.808-.22.22-.489.33-.808.33h-1.904Zm0-5.18a.912.912 0 0 1-.754-.356 2 2 0 0 1-.384-.781v-.76c0-.32.11-.59.33-.81a1.1 1.1 0 0 1 .808-.328h1.904c.32 0 .589.11.808.329.22.22.33.489.33.808v.76a2 2 0 0 1-.383.782.912.912 0 0 1-.755.356h-1.904Zm6.114 10.186c-.32 0-.59-.11-.809-.33a1.096 1.096 0 0 1-.329-.808v-1.904c0-.32.11-.589.33-.808.219-.22.488-.33.808-.33h1.904c.319 0 .588.11.808.33.22.22.33.489.33.808v1.904c0 .32-.11.589-.33.808a1.1 1.1 0 0 1-.808.33h-1.904Zm0-5.18a1.1 1.1 0 0 1-.809-.329 1.097 1.097 0 0 1-.329-.808V4.934c0-.319.11-.588.33-.808.219-.22.488-.33.808-.33h1.904c.319 0 .588.11.808.33.22.22.33.489.33.808v5.767c0 .32-.11.589-.33.808a1.1 1.1 0 0 1-.808.33h-1.904Zm-.09 8.365a.993.993 0 0 1-.746-.314 1.06 1.06 0 0 1-.302-.764c0-.307.099-.568.297-.784a.975.975 0 0 1 .75-.323h2.085c.303 0 .553.108.75.323.199.216.297.477.297.784 0 .3-.1.554-.302.764a.993.993 0 0 1-.745.314h-2.084Z"/>
</svg>
