<svg width="24" height="24" fill="currentColor" viewBox="0 0 24 24">
  <path d="M3.58 8.38a.702.702 0 0 0-.08.335c0 .314.134.538.403.674a.71.71 0 0 0 .778-.061l2.761-2.013a.304.304 0 0 1 .394.028l3.108 3.108c.318.318.695.492 1.13.522a1.79 1.79 0 0 0 1.195-.341l6.912-5.014a.828.828 0 0 0 .235-.258.674.674 0 0 0 .084-.34c0-.314-.134-.54-.403-.678a.703.703 0 0 0-.778.055l-6.936 5.014a.304.304 0 0 1-.394-.03L8.89 6.285a1.75 1.75 0 0 0-1.139-.527 1.758 1.758 0 0 0-1.205.346L3.804 8.116a.826.826 0 0 0-.223.264Zm12.68 11.11c.173.173.388.26.644.26h1.692c.256 0 .47-.087.644-.26a.874.874 0 0 0 .26-.644v-7.693a.875.875 0 0 0-.26-.644.874.874 0 0 0-.644-.26h-1.692a.875.875 0 0 0-.644.26.875.875 0 0 0-.26.644v7.693c0 .256.087.47.26.644Zm-5.75 0c.173.173.388.26.644.26h1.692c.256 0 .47-.087.644-.26a.875.875 0 0 0 .26-.644v-2.692a.874.874 0 0 0-.26-.644.874.874 0 0 0-.644-.26h-1.692a.874.874 0 0 0-.644.26.874.874 0 0 0-.26.644v2.692c0 .256.087.47.26.644Zm-5.75 0c.173.173.388.26.644.26h1.692c.256 0 .47-.086.644-.259a.879.879 0 0 0 .26-.65v-5.688a.875.875 0 0 0-.26-.644.875.875 0 0 0-.644-.26H5.404a.876.876 0 0 0-.644.26.879.879 0 0 0-.26.649v5.688c0 .256.087.47.26.644Z"/>
</svg>
