<svg width="24" height="24" fill="currentColor" viewBox="0 0 24 24">
  <path d="M19 21.175c-.717 0-1.346-.2-1.887-.6A3.016 3.016 0 0 1 16 19.05h-5c-1.117 0-2.071-.396-2.862-1.187C7.346 17.07 6.95 16.116 6.95 15c0-1.117.396-2.071 1.188-2.863.791-.792 1.745-1.187 2.862-1.187h2a1.88 1.88 0 0 0 1.375-.575A1.88 1.88 0 0 0 14.95 9c0-.534-.192-.992-.575-1.375A1.876 1.876 0 0 0 13 7.05H8a3.194 3.194 0 0 1-1.125 1.525c-.534.4-1.159.6-1.875.6-.884 0-1.634-.309-2.25-.925-.617-.617-.925-1.367-.925-2.25 0-.884.308-1.634.925-2.25.616-.617 1.366-.925 2.25-.925.716 0 1.341.2 1.875.6.533.4.908.908 1.125 1.525h5c1.116 0 2.07.395 2.863 1.187.791.792 1.187 1.746 1.187 2.863 0 1.116-.396 2.07-1.187 2.862-.792.792-1.747 1.188-2.863 1.188h-2c-.534 0-.992.191-1.375.575A1.876 1.876 0 0 0 9.05 15c0 .533.191.991.575 1.375.383.383.841.575 1.375.575h5a3.194 3.194 0 0 1 1.125-1.525c.533-.4 1.158-.6 1.875-.6.883 0 1.633.308 2.25.925.616.616.925 1.366.925 2.25 0 .883-.309 1.633-.925 2.25-.617.616-1.367.925-2.25.925ZM5 7a.97.97 0 0 0 .713-.287A.97.97 0 0 0 6 6a.97.97 0 0 0-.287-.713A.97.97 0 0 0 5 5a.97.97 0 0 0-.713.287A.97.97 0 0 0 4 6a.97.97 0 0 0 .287.713A.97.97 0 0 0 5 7Z"/>
</svg>
