<svg width="24" height="24" fill="currentColor" viewBox="0 0 24 24">
  <path d="M9.727 18.048c-.63 0-1.166-.222-1.61-.665a2.192 2.192 0 0 1-.665-1.61V4.072c0-.63.222-1.166.665-1.61.444-.443.98-.665 1.61-.665h8.701c.63 0 1.167.222 1.61.665.444.444.665.98.665 1.61v11.701c0 .63-.221 1.166-.665 1.61-.443.443-.98.665-1.61.665h-8.7ZM4.434 7.576c-.319 0-.588-.11-.808-.33-.22-.22-.33-.489-.33-.808 0-.319.11-.588.33-.808.22-.22.49-.33.808-.33.32 0 .589.11.808.33.22.22.33.489.33.808 0 .32-.11.589-.33.808-.22.22-.489.33-.808.33Zm0 3.655c-.319 0-.588-.11-.808-.33a1.094 1.094 0 0 1-.33-.807c0-.32.11-.589.33-.809.22-.22.49-.329.808-.329.32 0 .589.11.808.33.22.219.33.488.33.808 0 .319-.11.588-.33.808-.22.22-.489.33-.808.33Zm0 3.662c-.319 0-.588-.111-.808-.333a1.109 1.109 0 0 1-.33-.811c0-.32.11-.588.33-.808.22-.22.49-.33.808-.33.32 0 .59.11.811.33.222.22.333.489.333.808 0 .32-.111.59-.333.811a1.103 1.103 0 0 1-.81.333Zm0 3.655c-.319 0-.588-.11-.808-.33a1.095 1.095 0 0 1-.33-.808c0-.319.11-.588.33-.808.22-.22.49-.329.808-.329.32 0 .589.11.808.33.22.219.33.488.33.807 0 .32-.11.59-.33.809-.22.22-.489.329-.808.329Zm0 3.655c-.319 0-.588-.11-.808-.329-.22-.22-.33-.489-.33-.808 0-.32.11-.589.33-.808.22-.22.49-.33.808-.33.32 0 .589.11.808.33.22.22.33.489.33.808 0 .32-.11.588-.33.808-.22.22-.489.33-.808.33Zm3.656 0c-.32 0-.589-.11-.808-.329-.22-.22-.33-.489-.33-.808 0-.32.11-.589.33-.808.22-.22.489-.33.808-.33.319 0 .588.11.808.33.22.22.33.489.33.808 0 .32-.11.588-.33.808a1.1 1.1 0 0 1-.808.33Zm3.655 0a1.1 1.1 0 0 1-.808-.329c-.22-.22-.33-.489-.33-.808 0-.32.11-.589.33-.808.22-.22.489-.33.808-.33.32 0 .589.11.808.33.22.22.33.489.33.808 0 .32-.11.588-.33.808-.22.22-.489.33-.808.33Zm3.656 0a1.1 1.1 0 0 1-.809-.329 1.1 1.1 0 0 1-.329-.808c0-.32.11-.589.33-.808a1.1 1.1 0 0 1 .808-.33c.319 0 .588.11.808.33.22.22.33.489.33.808 0 .32-.11.588-.33.808a1.1 1.1 0 0 1-.808.33Z"/>
</svg>
