<svg width="24" height="24" fill="currentColor" viewBox="0 0 24 24">
  <path d="M4.09 21.182a2.19 2.19 0 0 1-1.607-.668 2.19 2.19 0 0 1-.669-1.607V5.093c0-.626.223-1.162.669-1.607a2.19 2.19 0 0 1 1.606-.668H9.91a2.19 2.19 0 0 1 1.607.668c.445.445.668.981.668 1.607v1.725h7.725a2.19 2.19 0 0 1 1.607.668c.445.445.668.981.668 1.607v9.814a2.19 2.19 0 0 1-.668 1.607 2.19 2.19 0 0 1-1.607.668H4.09ZM4 18.997h6v-2H4v2Zm0-4h6v-2H4v2Zm0-4h6v-2H4v2Zm0-4h6v-2H4v2Zm8 12h8v-10h-8v10Zm2-6v-2h4v2h-4Zm0 4v-2h4v2h-4Z"/>
</svg>
