<svg width="24" height="24" fill="currentColor" viewBox="0 0 24 24">
  <path fill-rule="evenodd" d="m7.955 6.901-1.9-1.9a.718.718 0 0 0-.528-.218A.718.718 0 0 0 5 5a.708.708 0 0 0-.212.532c.003.21.074.384.212.522l1.902 1.901C5.968 9.108 5.5 10.455 5.5 12c0 1.544.467 2.892 1.401 4.045l-1.9 1.9a.718.718 0 0 0-.218.528c0 .206.073.382.217.527a.707.707 0 0 0 .532.212.726.726 0 0 0 .522-.212l1.901-1.901c1.153.934 2.501 1.401 4.046 1.401 1.544 0 2.892-.467 4.045-1.401l1.9 1.9a.715.715 0 0 0 .527.218A.718.718 0 0 0 19 19a.708.708 0 0 0 .213-.532.726.726 0 0 0-.213-.522l-1.9-1.901c.933-1.153 1.4-2.5 1.4-4.045 0-1.544-.466-2.893-1.4-4.045L19 6.054a.718.718 0 0 0 .218-.527A.718.718 0 0 0 19 5a.707.707 0 0 0-.531-.213.726.726 0 0 0-.523.213l-1.9 1.901C14.892 5.967 13.544 5.5 12 5.5c-1.545 0-2.893.467-4.046 1.401Zm7.583 8.637c-.975.974-2.154 1.462-3.537 1.462-1.384 0-2.563-.488-3.538-1.463C7.488 14.563 7 13.383 7 12s.488-2.562 1.463-3.537C9.438 7.488 10.617 7 12.001 7c1.383 0 2.562.488 3.537 1.463C16.513 9.438 17 10.617 17 12s-.487 2.563-1.462 3.537Z" clip-rule="evenodd"/>
</svg>
