<svg width="24" height="24" fill="currentColor" viewBox="0 0 24 24">
  <path fill-rule="evenodd" d="M7.759 6.167 5.592 4a1.08 1.08 0 0 0-.796-.317 1.08 1.08 0 0 0-1.112 1.113c0 .319.105.584.316.795l2.168 2.167c-.914 1.225-1.37 2.64-1.37 4.242 0 1.604.456 3.017 1.37 4.242L4 18.408a1.08 1.08 0 0 0-.316.796 1.08 1.08 0 0 0 1.112 1.113c.32 0 .585-.106.796-.317l2.167-2.167c1.224.914 2.639 1.37 4.242 1.37 1.603 0 3.017-.456 4.241-1.37L18.41 20c.211.211.477.317.796.317a1.08 1.08 0 0 0 1.112-1.113c0-.319-.105-.584-.317-.796l-2.166-2.166c.913-1.225 1.37-2.639 1.37-4.242 0-1.603-.457-3.017-1.37-4.242L20 5.592a1.08 1.08 0 0 0 .317-.796 1.08 1.08 0 0 0-1.112-1.113c-.32 0-.585.106-.796.317l-2.167 2.167c-1.225-.913-2.639-1.37-4.242-1.37-1.603 0-3.017.457-4.241 1.37Zm7.728 9.32c-.96.96-2.123 1.441-3.486 1.441-1.364 0-2.526-.48-3.487-1.441-.961-.961-1.442-2.123-1.442-3.487 0-1.363.48-2.526 1.442-3.487.961-.96 2.123-1.441 3.487-1.441 1.363 0 2.525.48 3.486 1.441.961.962 1.442 2.124 1.442 3.487 0 1.364-.48 2.526-1.442 3.487Z" clip-rule="evenodd"/>
</svg>
