<svg width="24" height="24" fill="currentColor" viewBox="0 0 24 24">
  <path d="M4.02 12.015a7.67 7.67 0 0 0 1.23 4.22 7.918 7.918 0 0 0 3.296 2.915.897.897 0 0 1 .416.45.593.593 0 0 1-.03.554.765.765 0 0 1-.482.377.862.862 0 0 1-.62-.054 9.2 9.2 0 0 1-3.885-3.462 9.233 9.233 0 0 1-1.435-5.01c0-.477.037-.949.111-1.414a9.48 9.48 0 0 1 .329-1.38l-1.037.605a.67.67 0 0 1-.562.083.726.726 0 0 1-.451-.347.72.72 0 0 1-.068-.57.728.728 0 0 1 .347-.459l2.9-1.673a.89.89 0 0 1 .69-.083c.246.066.43.206.55.42l1.673 2.875a.72.72 0 0 1 .069.57.728.728 0 0 1-.348.459.72.72 0 0 1-.57.068.728.728 0 0 1-.458-.347L4.633 9a7.67 7.67 0 0 0-.613 3.015ZM12 4.01c-.792 0-1.565.12-2.318.358A7.914 7.914 0 0 0 7.575 5.4a.9.9 0 0 1-.595.133.593.593 0 0 1-.469-.302.761.761 0 0 1-.08-.625.888.888 0 0 1 .39-.508 9.116 9.116 0 0 1 5.17-1.588c1.31 0 2.558.254 3.744.761a9.318 9.318 0 0 1 3.136 2.2v-1.23c0-.213.072-.392.216-.535a.726.726 0 0 1 .534-.216c.213 0 .391.072.535.216a.726.726 0 0 1 .215.534v3.347a.876.876 0 0 1-.259.645.876.876 0 0 1-.645.258h-3.346a.726.726 0 0 1-.534-.215.726.726 0 0 1-.216-.535c0-.212.072-.39.215-.534a.726.726 0 0 1 .535-.216h2.1a7.834 7.834 0 0 0-2.765-2.202A7.902 7.902 0 0 0 12 4.01Zm6.012 13.265a7.746 7.746 0 0 0 1.57-2.78 7.674 7.674 0 0 0 .312-3.16.832.832 0 0 1 .187-.587.643.643 0 0 1 .525-.257c.225 0 .413.085.563.257a.96.96 0 0 1 .244.596 8.932 8.932 0 0 1-.344 3.44 9.164 9.164 0 0 1-1.617 3.078 9.363 9.363 0 0 1-2.322 2.11 9.368 9.368 0 0 1-2.893 1.23l.99.573a.7.7 0 0 1 .34.459.743.743 0 0 1-.077.57.698.698 0 0 1-.45.34.727.727 0 0 1-.563-.077l-2.906-1.682a.856.856 0 0 1-.42-.55.89.89 0 0 1 .084-.69l1.673-2.881a.698.698 0 0 1 .45-.34c.2-.05.387-.025.563.076a.728.728 0 0 1 .347.459.72.72 0 0 1-.068.57l-1.117 1.902a8.085 8.085 0 0 0 2.706-.878 7.697 7.697 0 0 0 2.223-1.778Z"/>
</svg>
