<svg width="24" height="24" fill="currentColor" viewBox="0 0 24 24">
  <path d="M4.287 11.918c0 1.317.32 2.546.96 3.686a7.824 7.824 0 0 0 2.62 2.782c.257.182.43.418.52.708.09.29.058.568-.096.833a1.059 1.059 0 0 1-.702.541 1.117 1.117 0 0 1-.877-.123 9.764 9.764 0 0 1-3.456-3.602 9.769 9.769 0 0 1-1.244-4.831c0-.39.024-.773.073-1.15.048-.377.114-.754.198-1.13l-.247.152a.807.807 0 0 1-.777.073 1.22 1.22 0 0 1-.627-.549 1.11 1.11 0 0 1-.108-.864c.08-.307.256-.537.525-.69l3.03-1.756c.27-.153.56-.189.868-.106.309.083.54.26.693.529l1.744 3.006c.154.269.189.558.106.867a1.09 1.09 0 0 1-.529.693c-.269.153-.57.191-.906.114-.334-.077-.552-.256-.654-.537l-.647-1.128a7.974 7.974 0 0 0-.344 1.222 6.489 6.489 0 0 0-.123 1.26ZM12 4.185c-.6 0-1.196.074-1.789.221a7.71 7.71 0 0 0-1.694.637c-.293.133-.593.17-.898.108a.961.961 0 0 1-.68-.497 1.113 1.113 0 0 1-.1-.914 1.13 1.13 0 0 1 .596-.691 9.086 9.086 0 0 1 2.207-.858A9.91 9.91 0 0 1 12 1.91a9.903 9.903 0 0 1 6.822 2.708v-.286c0-.296.113-.535.338-.719.226-.183.492-.275.8-.275.319 0 .588.11.807.329.22.22.33.489.33.808v3.5c0 .32-.11.589-.33.808-.22.22-.488.33-.808.33h-3.5c-.319 0-.588-.11-.808-.33-.22-.22-.33-.489-.33-.808 0-.319.11-.588.33-.808.22-.22.49-.33.808-.33h1.325A7.681 7.681 0 0 0 15.19 4.88 7.486 7.486 0 0 0 12 4.185Zm5.948 12.63a7.389 7.389 0 0 0 1.247-2.108c.294-.764.45-1.564.47-2.399.024-.319.147-.598.369-.836a1.06 1.06 0 0 1 .81-.358c.32 0 .588.126.806.378.217.253.318.537.302.852a9.45 9.45 0 0 1-.524 2.878 9.821 9.821 0 0 1-1.374 2.588 9.757 9.757 0 0 1-2.232 2.21 9.973 9.973 0 0 1-2.82 1.402l.19.114c.25.145.399.367.447.666.05.3-.001.577-.15.834-.158.27-.387.442-.687.516-.3.075-.585.036-.855-.118l-3.044-1.75a1.09 1.09 0 0 1-.528-.696c-.083-.31-.048-.6.105-.87l1.75-3.019c.154-.27.382-.442.684-.519.303-.076.589-.036.858.121.265.153.44.383.525.69.085.307.05.593-.102.859l-.704 1.198a7.434 7.434 0 0 0 2.454-.918 7.605 7.605 0 0 0 2.003-1.715Z"/>
</svg>
