<svg width="24" height="24" fill="currentColor" viewBox="0 0 24 24">
  <path d="M2.797 7.928h18.406V5.5c0-.473-.165-.875-.496-1.207a1.642 1.642 0 0 0-1.207-.496H4.506c-.472 0-.875.165-1.209.496-.333.332-.5.734-.5 1.207v2.428Zm0 6.138h18.406V9.934H2.797v4.132Zm1.71 6.137H19.5c.473 0 .875-.167 1.207-.5a1.66 1.66 0 0 0 .496-1.21v-2.421H2.797v2.422c0 .472.167.875.5 1.209.334.333.737.5 1.21.5Zm.356-13.34a.958.958 0 0 1-.71-.288.973.973 0 0 1-.284-.713.96.96 0 0 1 .285-.71.964.964 0 0 1 .709-.284.97.97 0 0 1 .712.286c.192.19.288.427.288.708a.967.967 0 0 1-.288.713.968.968 0 0 1-.712.287Zm0 6.137a.968.968 0 0 1-.713-.288.968.968 0 0 1-.287-.712c0-.284.095-.521.287-.713A.967.967 0 0 1 4.863 11a.97.97 0 0 1 .712.287c.192.192.288.43.288.713s-.096.52-.288.712a.968.968 0 0 1-.712.288Zm0 6.137a.958.958 0 0 1-.71-.287.973.973 0 0 1-.284-.713.96.96 0 0 1 .285-.71.964.964 0 0 1 .709-.284.97.97 0 0 1 .712.286c.192.19.288.427.288.708a.967.967 0 0 1-.288.713.968.968 0 0 1-.712.287Z"/>
</svg>
