<svg width="24" height="24" fill="currentColor" viewBox="0 0 24 24">
  <path d="m10.863 21.88-6.929-3.983a2.269 2.269 0 0 1-.836-.826 2.213 2.213 0 0 1-.301-1.138V8.067c0-.415.1-.794.301-1.138.201-.344.48-.62.836-.826l6.929-3.984a2.228 2.228 0 0 1 2.275 0l6.928 3.984c.356.207.635.482.836.826.201.344.301.723.301 1.138v7.866c0 .415-.1.794-.3 1.137-.202.344-.48.62-.837.827l-6.928 3.983a2.223 2.223 0 0 1-1.138.311c-.402 0-.78-.103-1.137-.31Zm.03-9.245v6.64l1.107.641 1.108-.64v-6.641l5.82-3.374v-1.17l-1.188-.69L12 10.724 6.26 7.401l-1.188.69v1.17l5.82 3.374Z"/>
</svg>
