<svg width="24" height="24" fill="currentColor" viewBox="0 0 24 24">
  <path d="M11.25 19.57v-7.14L5 8.811v6.966c0 .051.013.1.038.144a.332.332 0 0 0 .116.116l6.096 3.533Zm1.5 0 6.096-3.533a.331.331 0 0 0 .116-.116.286.286 0 0 0 .038-.144V8.812l-6.25 3.619v7.139ZM12 11.139l6.175-3.57-6.021-3.482A.288.288 0 0 0 12 4.039a.288.288 0 0 0-.154.048L5.825 7.569 12 11.14Zm-7.596 6.215a1.78 1.78 0 0 1-.904-1.561V8.207a1.77 1.77 0 0 1 .904-1.562l6.692-3.852a1.782 1.782 0 0 1 1.808 0l6.692 3.852a1.781 1.781 0 0 1 .904 1.562v7.585a1.77 1.77 0 0 1-.904 1.561l-6.692 3.852a1.782 1.782 0 0 1-1.808 0l-6.692-3.852Z"/>
</svg>
