<svg width="24" height="24" fill="currentColor" viewBox="0 0 24 24">
  <path d="M12.795 21c-1.624 0-3.003-.57-4.136-1.71-1.133-1.14-1.7-2.521-1.7-4.146V7.627L3.213 3.881A.726.726 0 0 1 3 3.359a.707.707 0 0 1 .213-.532.718.718 0 0 1 .527-.217c.206 0 .382.072.527.217l17.346 17.346a.727.727 0 0 1 .212.522.707.707 0 0 1-.212.532.717.717 0 0 1-.527.217.718.718 0 0 1-.527-.217l-2.914-2.913a5.869 5.869 0 0 1-2.037 1.948c-.846.492-1.783.738-2.813.738ZM8.46 9.127v6.017c-.01 1.21.407 2.237 1.254 3.085.846.847 1.873 1.271 3.082 1.271.827 0 1.569-.209 2.225-.626a4.34 4.34 0 0 0 1.531-1.655l-1.615-1.615a2.29 2.29 0 0 1-.809 1.079 2.164 2.164 0 0 1-1.332.432 2.37 2.37 0 0 1-1.733-.713 2.358 2.358 0 0 1-.718-1.739v-3.652L8.459 9.127Zm3.384 3.384v2.153a.93.93 0 0 0 .943.952c.258 0 .476-.09.657-.268a.94.94 0 0 0 .285-.654v-.298l-1.885-1.885Zm5.27.341V6.635c0-.213.071-.391.215-.535a.726.726 0 0 1 .535-.215c.212 0 .39.072.534.215a.727.727 0 0 1 .216.535v7.726l-1.5-1.509Zm-3.385-3.404V6.144c-.01-.738-.267-1.364-.771-1.876-.504-.512-1.125-.768-1.864-.768-.452 0-.861.103-1.227.31a2.807 2.807 0 0 0-.919.828L7.878 3.57a4.21 4.21 0 0 1 1.405-1.148A3.935 3.935 0 0 1 11.093 2c1.154 0 2.132.404 2.933 1.212.801.807 1.202 1.788 1.202 2.942v4.804l-1.5-1.51Zm-3.236-3.271a.597.597 0 0 1 .255-.22.821.821 0 0 1 .346-.072.73.73 0 0 1 .535.215.727.727 0 0 1 .215.535v.919l-1.351-1.377Z"/>
</svg>
