<svg width="24" height="24" fill="currentColor" viewBox="0 0 24 24">
  <path d="M5.615 18.5v.942c0 .294-.103.544-.309.75a1.021 1.021 0 0 1-.75.308 1.02 1.02 0 0 1-.748-.308 1.021 1.021 0 0 1-.308-.75V12.39c0-.104.007-.208.02-.312.014-.104.036-.203.068-.299L5.38 6.715c.12-.36.337-.652.652-.877A1.771 1.771 0 0 1 7.087 5.5h9.826c.39 0 .742.113 1.056.338.315.225.532.517.652.877l1.79 5.063c.033.096.055.195.069.299.013.104.02.208.02.312v7.053c0 .294-.103.544-.309.75a1.022 1.022 0 0 1-.75.308 1.02 1.02 0 0 1-.749-.308 1.022 1.022 0 0 1-.307-.75V18.5H5.615Zm-.007-7.923h12.784l-1.184-3.375a.318.318 0 0 0-.116-.149A.314.314 0 0 0 16.91 7H7.09a.314.314 0 0 0-.182.053.318.318 0 0 0-.116.149l-1.184 3.375Zm1.856 5.27c.364 0 .672-.128.925-.383.254-.255.38-.564.38-.928 0-.364-.127-.672-.382-.925a1.268 1.268 0 0 0-.928-.38c-.364 0-.672.127-.925.382-.254.255-.38.564-.38.928 0 .364.127.672.382.925.255.254.564.38.928.38Zm9.077 0c.364 0 .672-.128.925-.383.254-.255.38-.564.38-.928 0-.364-.127-.672-.382-.925a1.267 1.267 0 0 0-.928-.38c-.364 0-.672.127-.926.382-.253.255-.38.564-.38.928 0 .364.128.672.383.925.255.254.564.38.928.38ZM5 17h14v-4.923H5V17Z"/>
</svg>
