<svg width="24" height="24" fill="currentColor" viewBox="0 0 24 24">
  <path d="M5.308 20.5c-.499 0-.925-.177-1.278-.53a1.742 1.742 0 0 1-.53-1.278V5.308c0-.499.177-.925.53-1.278.353-.353.78-.53 1.278-.53h13.384c.499 0 .925.177 1.278.53.353.353.53.78.53 1.278v13.384c0 .499-.177.925-.53 1.278-.353.353-.78.53-1.278.53H5.308ZM16 19h3V5.308a.294.294 0 0 0-.096-.212.294.294 0 0 0-.212-.096H16v14Zm-1.5 0V5H5.308a.294.294 0 0 0-.212.096.294.294 0 0 0-.096.212v13.384c0 .077.032.148.096.212a.294.294 0 0 0 .212.096H14.5Z"/>
</svg>
