<svg width="24" height="24" fill="currentColor" viewBox="0 0 24 24">
  <path d="M11.906 20.75a.726.726 0 0 1-.535-.215.726.726 0 0 1-.215-.535v-1.342c-.77-.135-1.439-.407-2.009-.818-.57-.41-1.026-.98-1.37-1.711a.654.654 0 0 1-.003-.56.763.763 0 0 1 .434-.423.69.69 0 0 1 .552.008.82.82 0 0 1 .43.398c.29.551.663.972 1.119 1.262.456.29 1.036.436 1.74.436.721 0 1.358-.172 1.91-.515.552-.344.828-.889.828-1.635 0-.647-.208-1.164-.622-1.551-.415-.386-1.273-.79-2.574-1.21-1.363-.431-2.31-.935-2.84-1.512-.53-.577-.795-1.303-.795-2.177 0-1.006.353-1.798 1.06-2.376.706-.578 1.42-.898 2.14-.962V4a.73.73 0 0 1 .215-.535.726.726 0 0 1 .535-.215.73.73 0 0 1 .535.215.726.726 0 0 1 .215.535v1.312c.614.08 1.153.259 1.616.535.464.276.852.64 1.165 1.09a.597.597 0 0 1 .073.542.69.69 0 0 1-.404.43.721.721 0 0 1-.547.027 1.231 1.231 0 0 1-.522-.357 2.577 2.577 0 0 0-.85-.643c-.33-.158-.74-.236-1.23-.236-.753 0-1.358.183-1.815.55-.457.367-.686.833-.686 1.4 0 .582.234 1.047.702 1.396.468.349 1.338.714 2.61 1.096 1.182.36 2.064.87 2.646 1.535.582.664.873 1.461.873 2.392 0 1.094-.352 1.943-1.055 2.546-.703.604-1.562.962-2.576 1.073V20a.726.726 0 0 1-.215.535.726.726 0 0 1-.535.215Z"/>
</svg>
