<svg width="24" height="24" fill="currentColor" viewBox="0 0 24 24">
  <path d="M1.923 12.877a.705.705 0 0 1-.22-.522.74.74 0 0 1 .236-.532.784.784 0 0 1 .527-.225.7.7 0 0 1 .526.225l3.724 3.723.25-.25c.097.046.2.104.306.172.107.069.213.155.317.259.155.155.23.33.225.527a.757.757 0 0 1-.24.527l-.241.24a.923.923 0 0 1-.633.264.84.84 0 0 1-.633-.264l-4.144-4.144Zm10.427 2.654 8.673-8.673a.706.706 0 0 1 .522-.22c.2.001.377.08.532.235a.78.78 0 0 1 .225.527.7.7 0 0 1-.225.527l-9.094 9.094a.867.867 0 0 1-.633.271.868.868 0 0 1-.633-.27l-4.144-4.145a.717.717 0 0 1-.212-.514.749.749 0 0 1 .212-.54.736.736 0 0 1 .535-.232c.201 0 .38.077.534.232l3.708 3.708Zm4.062-7.589-3.881 3.881a.716.716 0 0 1-.515.213.746.746 0 0 1-.539-.213.734.734 0 0 1-.233-.534c0-.202.078-.38.233-.535l3.88-3.881a.716.716 0 0 1 .515-.213.749.749 0 0 1 .54.213.735.735 0 0 1 .232.535c0 .2-.077.38-.232.534Z"/>
</svg>
