<svg width="24" height="24" fill="currentColor" viewBox="0 0 24 24">
  <path d="M14.693 11.012a2.977 2.977 0 0 0-.649-1.045 2.679 2.679 0 0 0-1.026-.667V1.84c2.444.238 4.523 1.215 6.238 2.932 1.714 1.717 2.69 3.797 2.928 6.24h-7.491ZM11.018 22.16c-2.622-.254-4.81-1.349-6.565-3.284-1.754-1.936-2.632-4.224-2.632-6.863 0-2.64.878-4.93 2.632-6.871C6.208 3.2 8.396 2.1 11.018 1.842V9.3a2.802 2.802 0 0 0-1.363 1.061 2.84 2.84 0 0 0-.517 1.651c0 .602.171 1.146.514 1.635.343.488.798.837 1.367 1.046v7.466Zm2 0v-7.466a2.85 2.85 0 0 0 1.032-.65c.29-.285.505-.63.643-1.03h7.485c-.238 2.438-1.214 4.513-2.928 6.224-1.715 1.71-3.792 2.685-6.232 2.922Z"/>
</svg>
