<svg width="24" height="24" fill="currentColor" viewBox="0 0 24 24">
  <path d="M12.968 2.55c2.266.22 4.195 1.124 5.788 2.71 1.592 1.584 2.499 3.51 2.72 5.779H14.69a2.978 2.978 0 0 0-.669-1.066 2.7 2.7 0 0 0-1.054-.668V2.55Zm1.5 1.877v3.977c.222.156.429.33.62.518.193.19.364.395.514.617h3.996a7.614 7.614 0 0 0-1.927-3.203 7.447 7.447 0 0 0-3.203-1.909ZM11.083 2.55V9.3A2.802 2.802 0 0 0 9.7 10.357a2.81 2.81 0 0 0-.52 1.646c0 .6.174 1.14.525 1.62.35.479.81.821 1.378 1.027v6.801c-2.438-.244-4.474-1.266-6.108-3.066-1.633-1.8-2.45-3.93-2.45-6.385 0-2.456.817-4.587 2.45-6.393C6.61 3.799 8.645 2.78 11.083 2.55Zm-1.5 1.877A7.51 7.51 0 0 0 5.561 7.27C4.537 8.671 4.025 10.248 4.025 12c0 1.752.512 3.33 1.536 4.73a7.673 7.673 0 0 0 4.022 2.874v-4.046a4.845 4.845 0 0 1-1.388-1.561 4.035 4.035 0 0 1-.516-2.002c0-.72.17-1.388.51-2.006a4.752 4.752 0 0 1 1.394-1.566V4.427Zm5.108 8.515h6.784c-.221 2.266-1.128 4.195-2.72 5.787-1.593 1.592-3.522 2.5-5.787 2.721v-6.802c.412-.143.765-.36 1.058-.654.293-.293.515-.644.665-1.052Zm.911 1.5a4.586 4.586 0 0 1-.515.607 4.3 4.3 0 0 1-.62.509v4.015a7.485 7.485 0 0 0 3.208-1.918 7.629 7.629 0 0 0 1.923-3.213h-3.996Z"/>
</svg>
