<svg width="24" height="24" fill="currentColor" viewBox="0 0 24 24">
  <path d="m9.348 12-3.78-3.804a1.102 1.102 0 0 1-.326-.786 1.066 1.066 0 0 1 .326-.806 1.08 1.08 0 0 1 .796-.316c.32 0 .585.105.796.316l4.594 4.594c.112.112.194.237.245.373a1.2 1.2 0 0 1 .078.43 1.2 1.2 0 0 1-.078.428 1.05 1.05 0 0 1-.245.373L7.16 17.396a1.1 1.1 0 0 1-.786.326 1.066 1.066 0 0 1-.806-.326 1.08 1.08 0 0 1-.316-.796c0-.32.105-.584.316-.796L9.348 12Zm6.678 0L12.24 8.196a1.101 1.101 0 0 1-.326-.786 1.066 1.066 0 0 1 .326-.806c.211-.21.476-.316.796-.316.319 0 .584.105.796.316l4.593 4.594c.113.112.194.237.246.373a1.219 1.219 0 0 1 0 .858 1.05 1.05 0 0 1-.245.373l-4.594 4.594a1.1 1.1 0 0 1-.787.326 1.066 1.066 0 0 1-.805-.326 1.08 1.08 0 0 1-.317-.796c0-.32.106-.584.317-.796L16.026 12Z"/>
</svg>
