<svg width="24" height="24" fill="currentColor" viewBox="0 0 24 24">
  <path d="m12 16.08 3.804-3.786c.212-.211.474-.32.787-.326.312-.007.58.102.805.326.211.211.317.476.317.796 0 .319-.106.584-.317.795l-4.594 4.6a1.05 1.05 0 0 1-.373.246 1.2 1.2 0 0 1-.429.077 1.2 1.2 0 0 1-.429-.077 1.05 1.05 0 0 1-.373-.246l-4.594-4.6a1.1 1.1 0 0 1-.326-.786 1.066 1.066 0 0 1 .326-.805 1.08 1.08 0 0 1 .796-.317c.32 0 .585.106.796.317L12 16.079Zm0-6.186 3.804-3.785c.212-.212.474-.32.787-.327.312-.006.58.105.805.333.211.21.317.476.317.795 0 .32-.106.585-.317.796L12.802 12.3a1.05 1.05 0 0 1-.373.245 1.205 1.205 0 0 1-.857 0 1.052 1.052 0 0 1-.374-.245L6.604 7.706a1.098 1.098 0 0 1-.326-.783c-.006-.311.103-.58.326-.808.212-.216.477-.323.796-.323.32 0 .587.107.802.323L12 9.894Z"/>
</svg>
