<svg width="24" height="24" fill="currentColor" viewBox="0 0 24 24">
  <path d="M11.858 15.002a.828.828 0 0 1-.633-.256l-3.109-3.11a.705.705 0 0 1-.22-.522.769.769 0 0 1 .22-.531.764.764 0 0 1 .535-.24c.201-.006.38.07.534.224l1.923 1.923V4.84c0-.212.072-.39.216-.534a.726.726 0 0 1 .534-.216c.213 0 .391.072.535.216a.726.726 0 0 1 .215.534v7.65l1.923-1.923a.714.714 0 0 1 .53-.22.75.75 0 0 1 .54.236c.144.155.22.33.225.527a.699.699 0 0 1-.225.527l-3.11 3.11a.827.827 0 0 1-.633.255ZM6.166 19.09c-.505 0-.933-.175-1.283-.525a1.745 1.745 0 0 1-.525-1.282V15.32c0-.213.072-.391.216-.534a.726.726 0 0 1 .534-.216c.213 0 .391.072.535.216a.726.726 0 0 1 .215.534v1.962c0 .076.032.147.097.211a.294.294 0 0 0 .211.096h11.385a.294.294 0 0 0 .211-.096.294.294 0 0 0 .096-.211V15.32c0-.213.072-.391.216-.534a.726.726 0 0 1 .534-.216c.213 0 .391.072.535.216a.726.726 0 0 1 .215.534v1.962c0 .505-.175.932-.525 1.282-.35.35-.777.525-1.282.525H6.166Z"/>
</svg>
