<svg width="24" height="24" fill="currentColor" viewBox="0 0 24 24">
  <path d="M12.203 15.653a1.19 1.19 0 0 1-.428-.078 1.052 1.052 0 0 1-.373-.245l-3.69-3.69a1.054 1.054 0 0 1-.326-.795A1.157 1.157 0 0 1 8.52 9.698c.311-.007.58.104.808.332l1.738 1.737v-6.63c0-.319.11-.588.33-.808.219-.22.488-.329.807-.329.32 0 .589.11.808.33.22.219.33.488.33.808v6.63l1.737-1.738c.224-.228.492-.34.802-.335a1.164 1.164 0 0 1 1.14 1.147 1.06 1.06 0 0 1-.331.798l-3.684 3.69a1.052 1.052 0 0 1-.373.245c-.136.052-.28.078-.429.078Zm-5.928 4.754c-.63 0-1.166-.222-1.61-.666A2.193 2.193 0 0 1 4 18.131V16.27c0-.32.11-.589.33-.808.219-.22.488-.33.808-.33.319 0 .588.11.808.33.22.22.329.489.329.808v1.863h11.856V16.27c0-.32.11-.589.33-.808.22-.22.489-.33.808-.33.32 0 .589.11.808.33.22.22.33.489.33.808v1.863c0 .63-.222 1.166-.666 1.61-.443.443-.98.665-1.61.665H6.275Z"/>
</svg>
