<svg width="24" height="24" fill="currentColor" viewBox="0 0 24 24">
  <path d="M5 11c-.317 0-.587-.108-.812-.325a1.095 1.095 0 0 1-.338-.825c0-.317.113-.583.338-.8.225-.217.495-.325.812-.325h14c.317 0 .587.108.812.325.225.217.338.483.338.8 0 .333-.113.608-.338.825A1.128 1.128 0 0 1 19 11H5Zm0 4.275c-.317 0-.587-.108-.812-.325a1.066 1.066 0 0 1-.338-.8c0-.333.113-.608.338-.825.225-.217.495-.325.812-.325h14c.317 0 .587.108.812.325.225.217.338.492.338.825 0 .317-.113.583-.338.8a1.128 1.128 0 0 1-.812.325H5Z"/>
</svg>
