<svg width="24" height="24" fill="currentColor" viewBox="0 0 24 24">
  <path d="M9 19.625c-.45 0-.833-.158-1.15-.475A1.566 1.566 0 0 1 7.375 18c0-.45.158-.833.475-1.15.317-.317.7-.475 1.15-.475.45 0 .833.158 1.15.475.317.317.475.7.475 1.15 0 .45-.158.833-.475 1.15-.317.317-.7.475-1.15.475Zm6 0c-.45 0-.833-.158-1.15-.475a1.566 1.566 0 0 1-.475-1.15c0-.45.158-.833.475-1.15.317-.317.7-.475 1.15-.475.45 0 .833.158 1.15.475.317.317.475.7.475 1.15 0 .45-.158.833-.475 1.15-.317.317-.7.475-1.15.475Zm-6-6c-.45 0-.833-.158-1.15-.475A1.566 1.566 0 0 1 7.375 12c0-.45.158-.833.475-1.15.317-.317.7-.475 1.15-.475.45 0 .833.158 1.15.475.317.317.475.7.475 1.15 0 .45-.158.833-.475 1.15-.317.317-.7.475-1.15.475Zm6 0c-.45 0-.833-.158-1.15-.475a1.566 1.566 0 0 1-.475-1.15c0-.45.158-.833.475-1.15.317-.317.7-.475 1.15-.475.45 0 .833.158 1.15.475.317.317.475.7.475 1.15 0 .45-.158.833-.475 1.15-.317.317-.7.475-1.15.475Zm-6-6c-.45 0-.833-.158-1.15-.475A1.566 1.566 0 0 1 7.375 6c0-.45.158-.833.475-1.15.317-.317.7-.475 1.15-.475.45 0 .833.158 1.15.475.317.317.475.7.475 1.15 0 .45-.158.833-.475 1.15-.317.317-.7.475-1.15.475Zm6 0c-.45 0-.833-.158-1.15-.475A1.566 1.566 0 0 1 13.375 6c0-.45.158-.833.475-1.15.317-.317.7-.475 1.15-.475.45 0 .833.158 1.15.475.317.317.475.7.475 1.15 0 .45-.158.833-.475 1.15-.317.317-.7.475-1.15.475Z"/>
</svg>
