<svg width="24" height="24" fill="currentColor" viewBox="0 0 24 24">
  <path d="M5.072 22.203c-.63 0-1.166-.222-1.61-.665a2.193 2.193 0 0 1-.665-1.61V6.072c0-.63.222-1.167.665-1.61.444-.444.98-.665 1.61-.665H6v-.935c0-.299.104-.551.312-.757.207-.206.46-.308.76-.308s.552.102.757.308c.206.206.309.458.309.757v.935h7.725v-.935c0-.299.104-.551.311-.757.208-.206.461-.308.76-.308.3 0 .552.102.758.308.205.206.308.458.308.757v.935h.928c.63 0 1.167.221 1.61.665.444.443.665.98.665 1.61v3.953c0 .319-.11.588-.329.808a1.1 1.1 0 0 1-.808.33 1.1 1.1 0 0 1-.808-.33 1.1 1.1 0 0 1-.33-.808V10H5.072v9.928h5.755c.319 0 .588.11.808.33.22.219.33.489.33.808 0 .319-.11.588-.33.808-.22.22-.489.33-.808.33H5.072Zm8.892-1.137V19.44a1.13 1.13 0 0 1 .342-.815l5.22-5.2c.161-.162.34-.28.538-.352a1.7 1.7 0 0 1 .595-.109 1.618 1.618 0 0 1 1.159.486l.925.925c.145.162.258.341.339.539.08.197.121.395.121.595 0 .203-.036.406-.109.61-.072.204-.19.386-.351.548l-5.2 5.2a1.125 1.125 0 0 1-.815.336h-1.626c-.32 0-.589-.11-.808-.33a1.1 1.1 0 0 1-.33-.807Zm6.755-4.642.865-.915-.925-.925-.89.89.95.95Z"/>
</svg>
