<svg width="24" height="24" fill="currentColor" viewBox="0 0 24 24">
  <path d="M19.18 15a1 1 0 0 1-.743-.303c-.2-.201-.3-.45-.3-.745s.102-.543.303-.742c.202-.2.45-.3.746-.3h1.09c.295 0 .543.1.745.3.201.2.302.447.302.742 0 .296-.1.544-.302.745-.202.202-.45.303-.746.303H19.18Zm0 4.09c-.296 0-.543-.101-.743-.303-.2-.201-.3-.45-.3-.745s.102-.543.303-.743c.202-.2.45-.299.746-.299h1.09c.295 0 .543.1.745.302.201.202.302.45.302.746a1 1 0 0 1-.302.742c-.202.2-.45.3-.746.3H19.18ZM14 20.137a2.045 2.045 0 0 1-1.46-.581 2.054 2.054 0 0 1-.66-1.419H11a1.1 1.1 0 0 1-.808-.329 1.1 1.1 0 0 1-.33-.808v-2c0-.32.11-.588.33-.808.22-.22.49-.33.808-.33h.88a2.06 2.06 0 0 1 .66-1.418 2.045 2.045 0 0 1 1.46-.582h2c.32 0 .589.11.809.33.22.22.329.489.329.808v6c0 .32-.11.589-.33.808a1.1 1.1 0 0 1-.808.33h-2Zm-7.275-3c-1.135 0-2.109-.405-2.92-1.216-.812-.811-1.217-1.785-1.217-2.921 0-1.14.405-2.114 1.217-2.924.811-.809 1.785-1.213 2.92-1.213h1.5c.381 0 .703-.133.967-.4.264-.265.396-.586.396-.963 0-.38-.132-.703-.396-.967a1.315 1.315 0 0 0-.967-.395h-3.5a1.1 1.1 0 0 1-.808-.33A1.1 1.1 0 0 1 3.587 5c0-.32.11-.589.33-.808.22-.22.49-.33.808-.33h3.5c1.007 0 1.865.355 2.574 1.064A3.506 3.506 0 0 1 11.863 7.5a3.51 3.51 0 0 1-1.064 2.57 3.501 3.501 0 0 1-2.574 1.067h-1.5c-.51 0-.948.182-1.313.546A1.789 1.789 0 0 0 4.862 13c0 .51.184.948.55 1.314.365.366.803.549 1.313.549h1c.32 0 .589.11.809.329.22.22.329.489.329.808 0 .32-.11.589-.33.808a1.1 1.1 0 0 1-.808.33h-1Z"/>
</svg>
