<svg width="24" height="24" fill="currentColor" viewBox="0 0 24 24">
  <path d="M18.5 14.75a.726.726 0 0 1-.535-.216.726.726 0 0 1-.215-.534c0-.213.072-.391.215-.534a.726.726 0 0 1 .535-.216H20c.212 0 .39.072.534.216a.726.726 0 0 1 .216.534.722.722 0 0 1-.216.534.726.726 0 0 1-.534.216h-1.5Zm0 4a.726.726 0 0 1-.535-.216.726.726 0 0 1-.215-.534.73.73 0 0 1 .215-.535.726.726 0 0 1 .535-.215H20c.212 0 .39.072.534.216a.726.726 0 0 1 .216.534.726.726 0 0 1-.216.535.726.726 0 0 1-.534.215h-1.5Zm-4.25 1c-.55 0-1.02-.196-1.412-.587a1.926 1.926 0 0 1-.588-1.413h-1.096a.875.875 0 0 1-.644-.26.875.875 0 0 1-.26-.644v-1.692c0-.256.087-.47.26-.644a.875.875 0 0 1 .644-.26h1.096c0-.55.196-1.02.588-1.412a1.926 1.926 0 0 1 1.412-.588h1.596c.256 0 .47.087.644.26.173.173.26.388.26.644v5.692c0 .256-.087.47-.26.644a.875.875 0 0 1-.644.26H14.25Zm-7.25-3a3.614 3.614 0 0 1-2.652-1.098A3.614 3.614 0 0 1 3.25 13c0-1.036.366-1.92 1.098-2.652A3.614 3.614 0 0 1 7 9.25h1.5c.48 0 .893-.171 1.236-.514.342-.343.514-.755.514-1.236 0-.48-.171-.893-.514-1.236A1.684 1.684 0 0 0 8.5 5.75H5a.725.725 0 0 1-.534-.216A.726.726 0 0 1 4.25 5c0-.213.072-.391.216-.535A.725.725 0 0 1 5 4.25h3.5c.902 0 1.67.316 2.302.948.632.632.948 1.4.948 2.302 0 .902-.316 1.67-.948 2.302-.632.632-1.4.948-2.302.948H7a2.16 2.16 0 0 0-1.589.662 2.17 2.17 0 0 0-.661 1.59c0 .62.22 1.149.661 1.588.44.44.97.66 1.589.66h1.5c.213 0 .39.072.534.216A.726.726 0 0 1 9.25 16a.726.726 0 0 1-.216.535.726.726 0 0 1-.534.215H7Z"/>
</svg>
