<svg width="24" height="24" fill="currentColor" viewBox="0 0 24 24">
  <path d="M12 21.4c-.235 0-.461-.046-.68-.137a2.033 2.033 0 0 1-.6-.39l-7.593-7.592a2.032 2.032 0 0 1-.39-.6A1.745 1.745 0 0 1 2.6 12a1.827 1.827 0 0 1 .527-1.28l7.592-7.593a1.69 1.69 0 0 1 .6-.4A1.87 1.87 0 0 1 12 2.6c.235 0 .464.043.688.128.225.085.422.218.593.399l7.592 7.592c.18.17.314.367.4.59a1.918 1.918 0 0 1 0 1.371c-.083.22-.217.42-.4.6l-7.592 7.593A1.82 1.82 0 0 1 12 21.4Zm.221-1.596 7.583-7.583c.051-.051.077-.125.077-.221s-.026-.17-.077-.221L12.22 4.196c-.051-.051-.125-.077-.221-.077s-.17.026-.221.077L4.196 11.78c-.051.051-.077.125-.077.221s.026.17.077.221l7.583 7.583c.051.051.125.077.221.077s.17-.026.221-.077Zm-.22-6.717c.212 0 .39-.072.534-.216a.726.726 0 0 0 .215-.534V8.22a.726.726 0 0 0-.216-.534A.726.726 0 0 0 12 7.47a.725.725 0 0 0-.535.216.726.726 0 0 0-.215.534v4.116c0 .212.072.39.216.534a.726.726 0 0 0 .534.216ZM12 15.702c.229 0 .42-.078.575-.232a.781.781 0 0 0 .233-.576.781.781 0 0 0-.232-.575.782.782 0 0 0-.576-.232.781.781 0 0 0-.575.232.781.781 0 0 0-.233.575c0 .23.078.42.232.576a.781.781 0 0 0 .576.232Z"/>
</svg>
