<svg width="24" height="24" fill="currentColor" viewBox="0 0 24 24">
  <path d="M6.238 9.195c.214-.222.488-.335.796-.335h9.104c.307 0 .582.113.796.335.214.222.318.499.318.805 0 .307-.104.584-.318.806a1.078 1.078 0 0 1-.797.334H7.034c-.308 0-.582-.113-.796-.335A1.13 1.13 0 0 1 5.92 10c0-.307.104-.584.318-.805Zm0 4c.214-.222.488-.335.796-.335h9.104c.307 0 .582.113.796.335.214.221.318.499.318.805 0 .307-.104.584-.318.806a1.078 1.078 0 0 1-.797.334H7.034c-.308 0-.582-.113-.796-.335A1.13 1.13 0 0 1 5.92 14c0-.307.104-.584.318-.805Z"/>
</svg>
