<svg width="24" height="24" fill="currentColor" viewBox="0 0 24 24">
  <path d="M11.644 16.5a.78.78 0 0 0 .575-.232.781.781 0 0 0 .233-.575.781.781 0 0 0-.232-.576.781.781 0 0 0-.576-.232.782.782 0 0 0-.575.232.781.781 0 0 0-.233.576c0 .229.078.42.232.575a.782.782 0 0 0 .576.232Zm0-3.653a.726.726 0 0 0 .535-.216.726.726 0 0 0 .215-.534v-4.5a.726.726 0 0 0-.216-.535.726.726 0 0 0-.534-.215.725.725 0 0 0-.535.215.726.726 0 0 0-.215.535v4.5c0 .212.072.39.216.534a.727.727 0 0 0 .534.216Zm.002 8.423a9.254 9.254 0 0 1-3.705-.748 9.596 9.596 0 0 1-3.017-2.03 9.592 9.592 0 0 1-2.032-3.016 9.246 9.246 0 0 1-.748-3.705c0-1.314.25-2.549.748-3.705a9.597 9.597 0 0 1 2.03-3.017 9.591 9.591 0 0 1 3.016-2.03 9.245 9.245 0 0 1 3.704-.75c1.314 0 2.55.25 3.705.749a9.596 9.596 0 0 1 3.018 2.03 9.593 9.593 0 0 1 2.03 3.016 9.245 9.245 0 0 1 .749 3.704c0 1.314-.25 2.549-.748 3.705a9.596 9.596 0 0 1-2.03 3.017 9.59 9.59 0 0 1-3.016 2.031 9.245 9.245 0 0 1-3.704.749Zm-.002-1.5c2.233 0 4.125-.775 5.675-2.325 1.55-1.55 2.325-3.442 2.325-5.675 0-2.234-.775-4.125-2.325-5.675-1.55-1.55-3.442-2.325-5.675-2.325-2.233 0-4.125.775-5.675 2.325-1.55 1.55-2.325 3.441-2.325 5.675 0 2.233.775 4.125 2.325 5.675 1.55 1.55 3.442 2.325 5.675 2.325Z"/>
</svg>
