<svg width="24" height="24" fill="currentColor" viewBox="0 0 24 24">
  <path d="M15.165 21.203c-1.978 0-3.741-.55-5.289-1.648-1.547-1.099-2.643-2.55-3.289-4.352H4.213c-.32 0-.589-.11-.808-.329-.22-.22-.33-.489-.33-.808 0-.32.11-.589.33-.808.22-.22.489-.33.808-.33h1.9a6.633 6.633 0 0 1-.056-1.02 8.65 8.65 0 0 1 .056-.836h-1.9c-.32 0-.589-.11-.808-.33-.22-.22-.33-.489-.33-.808 0-.319.11-.588.33-.808.22-.22.489-.33.808-.33h2.374a9.198 9.198 0 0 1 3.298-4.324c1.542-1.117 3.302-1.675 5.28-1.675.999 0 1.945.147 2.84.443A9.48 9.48 0 0 1 20.51 4.5c.257.183.395.43.413.744a.946.946 0 0 1-.313.786 1.18 1.18 0 0 1-.824.357 1.53 1.53 0 0 1-.886-.24 6.951 6.951 0 0 0-3.734-1.075c-1.34 0-2.55.348-3.63 1.044-1.078.695-1.89 1.59-2.432 2.68h5.11c.32 0 .589.11.808.33.22.22.33.49.33.808 0 .32-.11.589-.33.808-.22.22-.489.33-.808.33H8.408a5.98 5.98 0 0 0 0 1.856h5.805c.32 0 .589.11.808.33.22.22.33.489.33.808 0 .319-.11.588-.33.808-.22.22-.489.33-.808.33h-5.14a6.634 6.634 0 0 0 2.46 2.704c1.08.68 2.291 1.02 3.632 1.02a6.68 6.68 0 0 0 1.97-.29 7.293 7.293 0 0 0 1.764-.81c.27-.17.565-.246.886-.228.321.019.596.142.824.37a.942.942 0 0 1 .313.783.936.936 0 0 1-.413.74 9.38 9.38 0 0 1-2.504 1.267 9.005 9.005 0 0 1-2.84.443Z"/>
</svg>
