<svg width="24" height="24" fill="currentColor" viewBox="0 0 24 24">
  <path d="m10.95 15.816 3.677-3.678a.75.75 0 0 1 .537-.227.732.732 0 0 1 .547.228.743.743 0 0 1 .233.542.743.743 0 0 1-.233.542l-4.128 4.129a.868.868 0 0 1-.633.271.867.867 0 0 1-.633-.271L8.29 15.323a.75.75 0 0 1-.229-.537.732.732 0 0 1 .229-.547.743.743 0 0 1 .542-.233c.206 0 .387.077.542.232l1.577 1.578ZM5.308 21.5c-.505 0-.933-.175-1.283-.525a1.745 1.745 0 0 1-.525-1.283V6.308c0-.505.175-.933.525-1.283.35-.35.778-.525 1.283-.525h1.384V3.154c0-.22.074-.402.22-.55a.746.746 0 0 1 .55-.22.749.749 0 0 1 .769.77V4.5h7.577V3.135a.73.73 0 0 1 .215-.535.727.727 0 0 1 .535-.215c.213 0 .39.072.534.215a.726.726 0 0 1 .216.535V4.5h1.384c.505 0 .933.175 1.283.525.35.35.525.778.525 1.283v13.384c0 .505-.175.933-.525 1.283-.35.35-.778.525-1.283.525H5.308Zm0-1.5h13.384a.294.294 0 0 0 .212-.096.294.294 0 0 0 .096-.212v-9.384H5v9.384c0 .077.032.148.096.212a.294.294 0 0 0 .212.096ZM5 8.808h14v-2.5a.294.294 0 0 0-.096-.212.294.294 0 0 0-.212-.096H5.308a.294.294 0 0 0-.212.096.294.294 0 0 0-.096.212v2.5Z"/>
</svg>
