<svg width="24" height="24" fill="currentColor" viewBox="0 0 24 24">
  <path d="m10.462 20.435-1.743-1.593a65.437 65.437 0 0 1-4.782-4.815c-1.429-1.606-2.143-3.389-2.143-5.35 0-1.626.543-2.984 1.629-4.074 1.085-1.09 2.442-1.635 4.068-1.635a5.89 5.89 0 0 1 2.482.536c.78.357 1.452.852 2.018 1.487a6.056 6.056 0 0 1 2.018-1.487 5.889 5.889 0 0 1 2.482-.536c1.627 0 2.986.545 4.078 1.635 1.091 1.09 1.637 2.448 1.637 4.075 0 1.96-.713 3.747-2.14 5.361a59.357 59.357 0 0 1-4.828 4.834l-1.712 1.562a2.198 2.198 0 0 1-1.532.597 2.198 2.198 0 0 1-1.532-.597Z"/>
</svg>
