<svg width="24" height="24" fill="currentColor" viewBox="0 0 24 24">
  <path d="M13.857 18.404a1.953 1.953 0 0 1-.861 1.428c-.487.324-1.09.418-1.64.418a5.68 5.68 0 0 1-1.424-.188.75.75 0 0 1 .404-1.444c.41.113 1.406.254 1.833-.033.082-.056.171-.143.2-.368.032-.25-.067-.385-1.198-.712-.876-.253-2.343-.678-2.156-2.167a1.93 1.93 0 0 1 .844-1.401c1.11-.75 2.88-.31 3.079-.259a.75.75 0 0 1-.382 1.451c-.421-.11-1.428-.24-1.86.053a.425.425 0 0 0-.187.344c-.01.084-.013.101.104.178.217.14.605.251.98.36.922.264 2.47.717 2.264 2.34ZM6.75 13.5a.75.75 0 0 0-.75.75v3.563a.937.937 0 0 1-1.875 0 .75.75 0 1 0-1.5 0 2.437 2.437 0 1 0 4.875 0V14.25a.75.75 0 0 0-.75-.75Zm13.186.14a.748.748 0 0 0-1.046.174l-1.265 1.771-1.265-1.77a.75.75 0 0 0-1.218.87l1.561 2.19-1.563 2.19a.75.75 0 0 0 1.218.87l1.267-1.77 1.265 1.77a.75.75 0 0 0 1.218-.87l-1.561-2.19 1.563-2.19a.748.748 0 0 0-.174-1.045Zm.314-5.39v2.25a.75.75 0 1 1-1.5 0V9h-4.5a.75.75 0 0 1-.75-.75v-4.5H5.25v6.75a.75.75 0 1 1-1.5 0V3.75a1.5 1.5 0 0 1 1.5-1.5h9a.75.75 0 0 1 .53.22l5.25 5.25a.748.748 0 0 1 .22.53Zm-2.56-.75L15 4.81V7.5h2.69Z"/>
</svg>
