<svg width="24" height="24" fill="currentColor" viewBox="0 0 24 24">
  <path d="m20.03 7.72-5.25-5.25a.75.75 0 0 0-.53-.22h-9a1.5 1.5 0 0 0-1.5 1.5v6.75a.75.75 0 0 0 .75.75h15a.75.75 0 0 0 .75-.75V8.25a.75.75 0 0 0-.22-.53Zm-5.78.53V4.125l4.125 4.125H14.25Zm5.86 6.436-1.563 2.189 1.563 2.19a.75.75 0 0 1-1.218.87l-1.267-1.77-1.265 1.77a.749.749 0 0 1-1.371-.302.751.751 0 0 1 .153-.569l1.561-2.189-1.563-2.19a.75.75 0 0 1 1.218-.87l1.267 1.77 1.265-1.77a.75.75 0 0 1 1.218.87h.002Zm-6.253 3.718a1.953 1.953 0 0 1-.861 1.428c-.487.324-1.09.418-1.64.418a5.665 5.665 0 0 1-1.418-.188.75.75 0 1 1 .403-1.444c.41.113 1.406.254 1.832-.033.083-.056.172-.143.201-.368.032-.25-.067-.385-1.198-.712-.877-.253-2.344-.678-2.156-2.167a1.93 1.93 0 0 1 .843-1.401c1.111-.75 2.88-.31 3.08-.259a.75.75 0 0 1-.382 1.451c-.421-.11-1.428-.24-1.86.053a.425.425 0 0 0-.187.344c-.011.084-.013.101.104.178.217.14.605.251.98.36.917.264 2.464.717 2.26 2.34ZM8.25 14.25a.75.75 0 0 1-.75.75H6.375v4.5a.75.75 0 1 1-1.5 0V15H3.75a.75.75 0 1 1 0-1.5H7.5a.75.75 0 0 1 .75.75Z"/>
</svg>
