<svg width="24" height="24" fill="currentColor" viewBox="0 0 24 24">
  <path d="M17.25 13.5h-1.5a.75.75 0 0 0-.75.75v5.25a.75.75 0 1 0 1.5 0v-.75h.75a2.625 2.625 0 0 0 0-5.25Zm0 3.75h-.75V15h.75a1.125 1.125 0 1 1 0 2.25Zm-4.5-3v5.25a.75.75 0 1 1-1.5 0v-5.25a.75.75 0 1 1 1.5 0ZM9 19.5a.75.75 0 0 1-.75.75h-3a.75.75 0 0 1-.656-1.125L6.952 15H5.25a.75.75 0 1 1 0-1.5h3a.75.75 0 0 1 .656 1.125L6.543 18.75H8.25a.75.75 0 0 1 .75.75ZM20.03 7.72l-5.25-5.25a.75.75 0 0 0-.53-.22h-9a1.5 1.5 0 0 0-1.5 1.5v6.75a.75.75 0 0 0 .75.75h15a.75.75 0 0 0 .75-.75V8.25a.75.75 0 0 0-.22-.53Zm-5.78.53V4.125l4.125 4.125H14.25Z"/>
</svg>
