<svg width="24" height="24" fill="currentColor" viewBox="0 0 24 24">
  <path d="m20.03 7.72-5.25-5.25a.75.75 0 0 0-.53-.22h-9a1.5 1.5 0 0 0-1.5 1.5v6.75a.75.75 0 1 0 1.5 0V3.75h8.25v4.5a.75.75 0 0 0 .75.75h4.5v11.25h-1.5a.75.75 0 1 0 0 1.5h1.5a1.5 1.5 0 0 0 1.5-1.5v-12a.75.75 0 0 0-.22-.53ZM15 4.81l2.69 2.69H15V4.81ZM6 13.5H4.5a.75.75 0 0 0-.75.75v5.25a.75.75 0 1 0 1.5 0v-.75H6c.18 0 .36-.019.537-.055l.69 1.18a.75.75 0 0 0 1.296-.75l-.667-1.146A2.625 2.625 0 0 0 6 13.5Zm-.75 3.75V15H6a1.125 1.125 0 1 1 0 2.25h-.75Zm9.357 1.154a1.953 1.953 0 0 1-.861 1.428c-.487.324-1.09.418-1.64.418a5.747 5.747 0 0 1-1.424-.188.75.75 0 0 1 .404-1.444c.41.112 1.402.253 1.833-.034.082-.055.171-.142.2-.368.032-.25-.066-.385-1.198-.712-.876-.253-2.343-.678-2.156-2.167a1.927 1.927 0 0 1 .844-1.401c1.11-.75 2.879-.31 3.078-.259a.75.75 0 0 1-.382 1.451c-.42-.11-1.428-.24-1.86.053a.427.427 0 0 0-.187.344c-.01.084-.013.102.105.178.216.14.604.251.98.36.922.265 2.474.718 2.264 2.341Z"/>
</svg>
