<svg width="24" height="24" fill="currentColor" viewBox="0 0 24 24">
  <path d="M4.5 16.875c0 1.031.673 1.875 1.5 1.875a1.336 1.336 0 0 0 .958-.437.75.75 0 0 1 1.084 1.037 2.819 2.819 0 0 1-2.042.9c-1.655 0-3-1.514-3-3.375 0-1.86 1.345-3.375 3-3.375a2.817 2.817 0 0 1 2.042.9.75.75 0 0 1-1.084 1.037A1.335 1.335 0 0 0 6 15c-.827 0-1.5.844-1.5 1.875Zm7.463-.815c-.375-.108-.764-.22-.98-.36-.117-.076-.116-.093-.105-.178a.428.428 0 0 1 .187-.344c.432-.292 1.438-.162 1.858-.052a.751.751 0 0 0 .39-1.452c-.2-.051-1.97-.489-3.08.26a1.93 1.93 0 0 0-.843 1.4c-.188 1.49 1.28 1.914 2.156 2.167 1.13.327 1.23.461 1.198.712-.029.226-.118.313-.2.368-.431.287-1.422.146-1.833.034a.751.751 0 1 0-.404 1.448c.465.121.943.184 1.424.187.546 0 1.153-.094 1.64-.418a1.952 1.952 0 0 0 .861-1.428c.206-1.623-1.342-2.076-2.27-2.344Zm7.79-2.516a.75.75 0 0 0-.96.454l-1.168 3.272-1.17-3.272a.75.75 0 1 0-1.412.504l1.875 5.25a.75.75 0 0 0 1.413 0l1.875-5.25a.75.75 0 0 0-.454-.958Zm.497-5.294v2.25a.75.75 0 1 1-1.5 0V9h-4.5a.75.75 0 0 1-.75-.75v-4.5H5.25v6.75a.75.75 0 1 1-1.5 0V3.75a1.5 1.5 0 0 1 1.5-1.5h9a.75.75 0 0 1 .53.22l5.25 5.25a.748.748 0 0 1 .22.53Zm-2.56-.75L15 4.81V7.5h2.69Z"/>
</svg>
