<svg width="24" height="24" fill="currentColor" viewBox="0 0 24 24">
  <path d="m20.03 7.72-5.25-5.25a.75.75 0 0 0-.53-.22h-9a1.5 1.5 0 0 0-1.5 1.5v6.75a.75.75 0 1 0 1.5 0V3.75h8.25v4.5a.75.75 0 0 0 .75.75h4.5v11.25H16.5a.75.75 0 1 0 0 1.5h2.25a1.5 1.5 0 0 0 1.5-1.5v-12a.75.75 0 0 0-.22-.53ZM15 4.81l2.69 2.69H15V4.81Zm-1.143 13.594a1.953 1.953 0 0 1-.861 1.428c-.487.324-1.09.418-1.64.418a5.748 5.748 0 0 1-1.424-.188.75.75 0 0 1 .404-1.444c.41.112 1.406.253 1.833-.034.082-.055.171-.142.2-.368.032-.25-.066-.385-1.198-.712-.876-.253-2.343-.678-2.156-2.167a1.927 1.927 0 0 1 .844-1.401c1.11-.75 2.879-.31 3.078-.259a.75.75 0 0 1-.382 1.451c-.42-.11-1.428-.24-1.86.053a.427.427 0 0 0-.187.344c-.01.084-.013.102.105.178.216.14.604.251.98.36.922.265 2.474.718 2.264 2.341ZM7.5 14.25v3.563a2.437 2.437 0 1 1-4.875 0 .75.75 0 1 1 1.5 0 .937.937 0 0 0 1.875 0V14.25a.75.75 0 1 1 1.5 0Z"/>
</svg>
