<svg width="24" height="24" fill="currentColor" viewBox="0 0 24 24">
  <path d="M4.5 16.875c0 1.031.673 1.875 1.5 1.875a1.336 1.336 0 0 0 .958-.437.752.752 0 0 1 1.247.204.75.75 0 0 1-.164.833 2.813 2.813 0 0 1-2.041.9c-1.655 0-3-1.514-3-3.375 0-1.86 1.345-3.375 3-3.375a2.812 2.812 0 0 1 2.04.9.75.75 0 1 1-1.082 1.037A1.33 1.33 0 0 0 6 15c-.827 0-1.5.844-1.5 1.875Zm7.463-.815c-.375-.108-.764-.22-.98-.36-.118-.076-.116-.093-.105-.178a.426.426 0 0 1 .187-.344c.432-.292 1.44-.162 1.86-.052a.75.75 0 1 0 .38-1.452c-.198-.051-1.968-.489-3.077.26a1.927 1.927 0 0 0-.844 1.4c-.187 1.49 1.28 1.914 2.157 2.167 1.131.327 1.23.461 1.198.712-.03.226-.118.313-.2.368-.432.287-1.423.146-1.834.034a.75.75 0 0 0-.403 1.445 5.74 5.74 0 0 0 1.423.187c.547 0 1.153-.094 1.64-.418a1.95 1.95 0 0 0 .862-1.428c.21-1.62-1.338-2.073-2.264-2.34Zm6 0c-.376-.108-.764-.22-.98-.36-.117-.076-.116-.093-.105-.178a.426.426 0 0 1 .187-.344c.432-.292 1.438-.162 1.858-.052a.75.75 0 1 0 .382-1.452c-.198-.051-1.969-.489-3.078.26a1.93 1.93 0 0 0-.839 1.4c-.187 1.49 1.28 1.914 2.156 2.167 1.131.327 1.23.461 1.198.712-.029.226-.118.313-.201.368-.431.287-1.421.146-1.832.034a.75.75 0 1 0-.403 1.448c.465.121.943.184 1.424.187.546 0 1.153-.094 1.64-.418a1.952 1.952 0 0 0 .86-1.428c.207-1.623-1.341-2.076-2.268-2.344ZM3.75 10.5V3.75a1.5 1.5 0 0 1 1.5-1.5h9a.75.75 0 0 1 .53.22l5.25 5.25a.748.748 0 0 1 .22.53v2.25a.75.75 0 0 1-.75.75h-15a.75.75 0 0 1-.75-.75Zm10.5-2.25h4.125L14.25 4.125V8.25Z"/>
</svg>
