<svg width="24" height="24" fill="currentColor" viewBox="0 0 24 24">
  <path d="m8.207 14.502-1.875 5.25a.75.75 0 0 1-1.413 0l-1.875-5.25a.75.75 0 0 1 1.413-.504l1.168 3.272 1.17-3.272a.75.75 0 0 1 1.412.504ZM19.5 15a.75.75 0 1 0 0-1.5h-3a.75.75 0 0 0-.75.75v5.25a.75.75 0 0 0 .75.75h3a.75.75 0 1 0 0-1.5h-2.25v-1.125h1.5a.75.75 0 1 0 0-1.5h-1.5V15h2.25Zm-6-1.5a.75.75 0 0 0-.75.75v3.563a.938.938 0 0 1-1.875 0V14.25a.75.75 0 1 0-1.5 0v3.563a2.438 2.438 0 1 0 4.875 0V14.25a.75.75 0 0 0-.75-.75Zm6.75-5.25v2.25a.75.75 0 1 1-1.5 0V9h-4.5a.75.75 0 0 1-.75-.75v-4.5H5.25v6.75a.75.75 0 1 1-1.5 0V3.75a1.5 1.5 0 0 1 1.5-1.5h9a.75.75 0 0 1 .53.22l5.25 5.25a.75.75 0 0 1 .22.53Zm-2.56-.75L15 4.81V7.5h2.69Z"/>
</svg>
