<svg width="24" height="24" fill="currentColor" viewBox="0 0 24 24">
  <path d="M4.5 11.25a.75.75 0 0 0 .75-.75V3.75h8.25v4.5a.75.75 0 0 0 .75.75h4.5v1.5a.75.75 0 1 0 1.5 0V8.25a.75.75 0 0 0-.22-.53l-5.25-5.25a.75.75 0 0 0-.53-.22h-9a1.5 1.5 0 0 0-1.5 1.5v6.75a.75.75 0 0 0 .75.75ZM15 4.81l2.69 2.69H15V4.81Zm6.375 14.69a.75.75 0 0 1-.75.75H18a.75.75 0 0 1-.75-.75v-5.25a.75.75 0 1 1 1.5 0v4.5h1.875a.75.75 0 0 1 .75.75ZM8.608 18.404a1.952 1.952 0 0 1-.861 1.428c-.487.324-1.09.418-1.64.418a5.691 5.691 0 0 1-1.42-.188.75.75 0 0 1 .404-1.444c.41.112 1.401.253 1.832-.034.084-.055.172-.142.201-.368.033-.25-.066-.385-1.198-.712-.877-.253-2.344-.678-2.156-2.167a1.927 1.927 0 0 1 .843-1.401c1.11-.75 2.88-.31 3.078-.259a.75.75 0 1 1-.382 1.451c-.421-.11-1.427-.24-1.858.053a.426.426 0 0 0-.188.344c-.011.084-.013.101.105.178.217.14.604.251.98.36.918.265 2.47.718 2.26 2.341Zm6.656.303a3.66 3.66 0 0 0 .486-1.832c0-1.86-1.345-3.375-3-3.375s-3 1.514-3 3.375c0 1.86 1.345 3.375 3 3.375a2.736 2.736 0 0 0 1.49-.448l.23.229a.75.75 0 1 0 1.06-1.062l-.266-.262Zm-2.514.043c-.827 0-1.5-.844-1.5-1.875 0-1.031.673-1.875 1.5-1.875s1.5.844 1.5 1.875c0 .239-.037.477-.11.704l-.11-.11a.75.75 0 1 0-1.06 1.062l.157.156c-.122.04-.249.062-.377.063Z"/>
</svg>
