<svg width="24" height="24" fill="currentColor" viewBox="0 0 24 24">
  <path d="M20.75 15a.75.75 0 0 1-.75.75h-2.25v1.5h1.5a.75.75 0 1 1 0 1.5h-1.5v1.5a.75.75 0 1 1-1.5 0V15a.75.75 0 0 1 .75-.75h3a.75.75 0 0 1 .75.75ZM8.375 16.875A2.625 2.625 0 0 1 5.75 19.5H5v.75a.75.75 0 1 1-1.5 0V15a.75.75 0 0 1 .75-.75h1.5a2.625 2.625 0 0 1 2.625 2.625Zm-1.5 0A1.125 1.125 0 0 0 5.75 15.75H5V18h.75a1.125 1.125 0 0 0 1.125-1.125Zm8.25.75A3.375 3.375 0 0 1 11.75 21h-1.5a.75.75 0 0 1-.75-.75V15a.75.75 0 0 1 .75-.75h1.5a3.375 3.375 0 0 1 3.375 3.375Zm-1.5 0a1.875 1.875 0 0 0-1.875-1.875H11v3.75h.75a1.875 1.875 0 0 0 1.875-1.875ZM3.5 11.25V4.5A1.5 1.5 0 0 1 5 3h9a.75.75 0 0 1 .53.22l5.25 5.25A.748.748 0 0 1 20 9v2.25a.75.75 0 1 1-1.5 0v-1.5H14a.75.75 0 0 1-.75-.75V4.5H5v6.75a.75.75 0 1 1-1.5 0Zm11.25-3h2.69l-2.69-2.69v2.69Z"/>
</svg>
