<svg width="24" height="24" fill="currentColor" viewBox="0 0 24 24">
  <path d="M20.25 10.5V8.25a.75.75 0 0 0-.22-.53l-5.25-5.25a.75.75 0 0 0-.53-.22h-9a1.5 1.5 0 0 0-1.5 1.5v6.75a.75.75 0 0 0 .75.75h15a.75.75 0 0 0 .75-.75Zm-6-2.25V4.125l4.125 4.125H14.25Zm-2.25 6a.75.75 0 0 1-.75.75h-.75v4.5a.75.75 0 1 1-1.5 0V15h-.75a.75.75 0 1 1 0-1.5h3a.75.75 0 0 1 .75.75Zm-5.25 0v5.25a.75.75 0 1 1-1.5 0v-1.875h-1.5V19.5a.75.75 0 1 1-1.5 0v-5.25a.75.75 0 1 1 1.5 0v1.875h1.5V14.25a.75.75 0 1 1 1.5 0Zm16.5 5.25a.75.75 0 0 1-.75.75h-1.875a.75.75 0 0 1-.75-.75v-5.25a.75.75 0 1 1 1.5 0v4.5H22.5a.75.75 0 0 1 .75.75Zm-4.5-5.25v5.25a.75.75 0 1 1-1.5 0v-2.543l-.857 1.43a.75.75 0 0 1-1.286 0l-.857-1.43V19.5a.75.75 0 1 1-1.5 0v-5.25a.75.75 0 0 1 1.393-.386l1.607 2.678 1.607-2.678a.75.75 0 0 1 1.393.386Z"/>
</svg>
