<svg width="24" height="24" fill="currentColor" viewBox="0 0 24 24">
  <path d="M10.988 18.4c-.32 0-.59-.108-.806-.324a1.093 1.093 0 0 1-.325-.806c0-.32.11-.59.329-.81.22-.219.489-.329.808-.329h2.018c.32 0 .59.11.806.33.217.22.326.49.326.81 0 .32-.11.588-.33.805a1.11 1.11 0 0 1-.808.325h-2.018Zm-4.036-5.268c-.32 0-.589-.109-.806-.325A1.093 1.093 0 0 1 5.821 12c0-.32.108-.59.325-.81a1.09 1.09 0 0 1 .806-.329h10.09c.32 0 .59.11.806.33.217.22.325.49.325.81 0 .32-.108.588-.325.805a1.096 1.096 0 0 1-.806.325H6.952Zm-3.024-5.27c-.32 0-.589-.108-.806-.324a1.092 1.092 0 0 1-.325-.805c0-.32.11-.59.33-.81.219-.22.488-.33.807-.33h16.138c.32 0 .59.11.806.33.217.22.325.49.325.81 0 .32-.11.588-.329.805a1.11 1.11 0 0 1-.808.325H3.928Z"/>
</svg>
