<svg width="24" height="24" fill="currentColor" viewBox="0 0 24 24">
  <path d="M14.985 12.065 6.718 3.797H19c.504 0 .866.22 1.085.66.22.44.176.861-.13 1.262l-4.97 6.346Zm-.782 4.993V19c0 .335-.116.62-.35.853a1.16 1.16 0 0 1-.853.35h-2a1.16 1.16 0 0 1-.853-.35 1.16 1.16 0 0 1-.35-.853v-6.348L1.873 4.728a.983.983 0 0 1-.293-.724c0-.287.098-.534.293-.742.208-.208.455-.312.742-.312s.535.104.743.312l17.4 17.4a.966.966 0 0 1 .302.73 1.035 1.035 0 0 1-.322.73 1.073 1.073 0 0 1-.733.302.97.97 0 0 1-.733-.303l-5.069-5.063Z"/>
</svg>
