<svg width="24" height="24" fill="currentColor" viewBox="0 0 24 24">
  <path d="M19.273 22.121 1.854 4.728a1.016 1.016 0 0 1-.312-.743c0-.287.104-.534.313-.742.208-.208.455-.312.742-.312s.534.104.742.312L20.757 20.66c.208.21.312.452.312.73a.998.998 0 0 1-.312.73 1.016 1.016 0 0 1-.743.312 1.01 1.01 0 0 1-.741-.312Zm-2.802-8.99c-.299 0-.562-.118-.79-.356-.228-.237-.342-.504-.342-.8a1.1 1.1 0 0 1 .317-.777c.212-.224.484-.336.815-.336h.571c.32 0 .59.11.806.33.217.22.326.49.326.81 0 .32-.109.588-.326.805a1.095 1.095 0 0 1-.806.324h-.57Zm-5.209-5.269c-.32 0-.592-.108-.818-.325a1.074 1.074 0 0 1-.338-.806c0-.299.107-.563.32-.793.214-.23.492-.345.836-.345h8.81c.32 0 .59.11.806.33.217.22.325.49.325.81 0 .32-.108.588-.325.804a1.095 1.095 0 0 1-.806.325h-8.81ZM10.988 18.4c-.32 0-.589-.108-.806-.324a1.093 1.093 0 0 1-.325-.806c0-.32.11-.59.329-.81.22-.219.49-.329.808-.329h2.018c.32 0 .59.11.806.33.217.22.326.49.326.81 0 .32-.11.588-.33.805-.22.216-.489.324-.808.324h-2.018Zm-4.036-5.269c-.32 0-.589-.108-.806-.324A1.093 1.093 0 0 1 5.821 12c0-.32.11-.59.33-.81.219-.219.488-.329.807-.329h3.306v2.27H6.952ZM3.928 7.862c-.32 0-.589-.108-.806-.325a1.092 1.092 0 0 1-.325-.805c0-.32.11-.59.33-.81.219-.219.488-.329.807-.329h1.06v2.27H3.929Z"/>
</svg>
