<svg width="24" height="24" fill="currentColor" viewBox="0 0 24 24">
  <path d="M3.21 9.575a.422.422 0 0 1-.17-.264c-.02-.106.01-.216.09-.33a10.94 10.94 0 0 1 3.88-3.285 10.762 10.762 0 0 1 4.948-1.18c1.762 0 3.424.379 4.987 1.137a10.416 10.416 0 0 1 3.91 3.278c.103.131.136.25.097.357a.569.569 0 0 1-.198.266.46.46 0 0 1-.316.095c-.117-.008-.22-.073-.307-.195a9.155 9.155 0 0 0-3.566-3.011A10.514 10.514 0 0 0 11.957 5.4c-1.617 0-3.136.351-4.56 1.052a9.492 9.492 0 0 0-3.544 3.002c-.093.137-.2.211-.32.221a.43.43 0 0 1-.322-.1ZM14.793 21.92c-1.708-.434-3.109-1.292-4.202-2.574-1.094-1.282-1.64-2.85-1.64-4.703 0-.82.296-1.508.89-2.062.593-.554 1.306-.83 2.137-.83s1.54.276 2.127.83c.587.554.88 1.241.88 2.062 0 .566.214 1.042.641 1.428.428.386.932.58 1.514.58a2.1 2.1 0 0 0 1.491-.582c.413-.388.62-.863.62-1.426 0-1.95-.716-3.589-2.148-4.916-1.431-1.328-3.14-1.992-5.128-1.992-1.987 0-3.694.665-5.12 1.994-1.426 1.33-2.14 2.963-2.14 4.898 0 .403.043.907.128 1.512.084.605.265 1.308.542 2.108a.448.448 0 0 1-.008.347.465.465 0 0 1-.254.226.404.404 0 0 1-.344-.004.44.44 0 0 1-.229-.258 10.6 10.6 0 0 1-.552-1.957 11.308 11.308 0 0 1-.167-1.958c0-2.203.8-4.05 2.399-5.541 1.599-1.49 3.508-2.236 5.728-2.236 2.237 0 4.16.745 5.766 2.236 1.607 1.49 2.411 3.338 2.411 5.54 0 .82-.29 1.505-.87 2.054-.581.55-1.288.824-2.122.824-.831 0-1.546-.275-2.145-.824a2.676 2.676 0 0 1-.898-2.053 1.87 1.87 0 0 0-.626-1.426 2.124 2.124 0 0 0-1.497-.582 2.16 2.16 0 0 0-1.51.58 1.86 1.86 0 0 0-.632 1.428c0 1.636.486 3.002 1.457 4.098.97 1.096 2.215 1.86 3.731 2.294a.43.43 0 0 1 .274.22.458.458 0 0 1 .023.33.605.605 0 0 1-.181.27c-.087.076-.203.098-.346.065ZM6.384 4.37a.381.381 0 0 1-.328.043.402.402 0 0 1-.257-.224.477.477 0 0 1-.045-.32c.024-.098.093-.183.207-.253A12.707 12.707 0 0 1 8.876 2.46a12.446 12.446 0 0 1 6.2-.008c1.01.259 1.985.63 2.927 1.113.144.077.227.169.248.276a.528.528 0 0 1-.032.316.458.458 0 0 1-.226.237c-.107.053-.228.045-.363-.025a11.953 11.953 0 0 0-5.658-1.42 11.669 11.669 0 0 0-5.588 1.42ZM9.43 21.589c-.964-1.02-1.71-2.07-2.238-3.148-.529-1.078-.793-2.345-.793-3.799 0-1.503.546-2.77 1.636-3.798C9.126 9.814 10.44 9.3 11.977 9.3c1.537 0 2.855.515 3.956 1.544 1.1 1.029 1.651 2.295 1.651 3.799 0 .132-.04.24-.122.32a.433.433 0 0 1-.32.122.447.447 0 0 1-.307-.122.41.41 0 0 1-.136-.32c0-1.263-.467-2.322-1.401-3.176-.935-.855-2.042-1.282-3.322-1.282-1.28 0-2.381.427-3.305 1.282-.925.854-1.387 1.913-1.387 3.175 0 1.363.237 2.517.71 3.462.473.945 1.16 1.898 2.06 2.86.1.101.144.21.135.328a.46.46 0 0 1-.136.297.438.438 0 0 1-.307.135.42.42 0 0 1-.316-.135Zm7.512-1.72c-1.464 0-2.738-.495-3.82-1.486-1.082-.99-1.623-2.237-1.623-3.74 0-.118.04-.221.121-.31a.412.412 0 0 1 .32-.133c.132 0 .239.045.32.133a.441.441 0 0 1 .124.31c0 1.27.455 2.31 1.364 3.123a4.641 4.641 0 0 0 3.194 1.219c.132 0 .29-.008.473-.025s.372-.042.565-.075a.392.392 0 0 1 .32.053c.09.062.15.16.184.291a.312.312 0 0 1-.065.309.593.593 0 0 1-.297.182 3.98 3.98 0 0 1-.69.123 6.542 6.542 0 0 1-.49.027Z"/>
</svg>
