<svg width="24" height="24" fill="currentColor" viewBox="0 0 24 24">
  <path d="M7 13.5V20c0 .212-.072.39-.216.534a.726.726 0 0 1-.534.216.725.725 0 0 1-.535-.216A.726.726 0 0 1 5.5 20V5.404c0-.256.087-.47.26-.644a.875.875 0 0 1 .644-.26h6.444c.213 0 .404.067.572.201a.87.87 0 0 1 .316.522l.26 1.277h4.6c.256 0 .47.086.644.259a.87.87 0 0 1 .26.641v7.2a.869.869 0 0 1-.26.641.877.877 0 0 1-.644.259h-4.444a.89.89 0 0 1-.572-.201.87.87 0 0 1-.316-.522l-.26-1.277H7Zm7.65.5H18V8h-4.502a.89.89 0 0 1-.571-.201.87.87 0 0 1-.317-.522L12.35 6H7v6h6.502c.213 0 .404.067.571.2a.87.87 0 0 1 .317.523L14.65 14Z"/>
</svg>
