<svg width="24" height="24" fill="currentColor" viewBox="0 0 24 24">
  <path d="m6.736 17.27-2.518-1.393a.658.658 0 0 1-.36-.516.658.658 0 0 1 .193-.577l.341-.342a.66.66 0 0 1 .596-.18l2.152.306 3.75-3.75-6.716-3.664a.922.922 0 0 1-.494-.712.916.916 0 0 1 .27-.824l.28-.28a.932.932 0 0 1 .442-.257 1.02 1.02 0 0 1 .497.003l9.075 2.343 3.59-3.559a1.573 1.573 0 0 1 1.158-.466c.461 0 .847.155 1.159.466.31.312.466.698.466 1.159 0 .46-.155.847-.466 1.158l-3.572 3.577 2.337 9.019c.042.187.038.371-.01.553-.047.183-.137.34-.27.473l-.142.137a1.02 1.02 0 0 1-.92.31 1.02 1.02 0 0 1-.784-.56l-3.602-6.579-3.75 3.75.305 2.091a.813.813 0 0 1-.235.714l-.15.148a.809.809 0 0 1-.7.243.775.775 0 0 1-.616-.422l-1.306-2.37Z"/>
</svg>
