<svg width="24" height="24" fill="currentColor" viewBox="0 0 24 24">
  <path d="M4.25 19.5a1.69 1.69 0 0 1-1.24-.51 1.69 1.69 0 0 1-.51-1.24V6.308c0-.486.18-.909.54-1.269.359-.36.782-.539 1.268-.539H9.05c.241 0 .473.047.695.14.223.094.416.223.58.387L11.798 6.5h8.865a.73.73 0 0 1 .535.215.726.726 0 0 1 .215.535.726.726 0 0 1-.215.535.726.726 0 0 1-.535.215h-9.478l-2-2H4.308a.3.3 0 0 0-.221.087.3.3 0 0 0-.087.22V18c0-.09.018-.123.053-.101.035.022.082.05.14.082l1.945-6.498c.121-.389.343-.701.666-.937a1.784 1.784 0 0 1 1.077-.354h12.861c.613 0 1.1.244 1.459.731.36.487.454 1.019.284 1.594l-1.723 5.74a1.689 1.689 0 0 1-.642.903c-.313.227-.661.34-1.043.34H4.25ZM5.763 18h13.275a.32.32 0 0 0 .188-.058.285.285 0 0 0 .11-.163l1.704-5.693a.28.28 0 0 0-.048-.274.305.305 0 0 0-.25-.12H7.881c-.07 0-.133.02-.188.058a.284.284 0 0 0-.11.163L5.763 18Zm0 0 1.82-6.087c.019-.07.035-.125.048-.163l.019-.058-.034.12c-.022.08-.05.172-.081.274L5.83 17.78l-.048.163-.02.058Z"/>
</svg>
