<svg width="24" height="24" fill="currentColor" viewBox="0 0 24 24">
  <path d="M4.072 20.203c-.63 0-1.166-.222-1.61-.665a2.193 2.193 0 0 1-.665-1.61V6.072c0-.634.222-1.172.665-1.613.444-.442.98-.662 1.61-.662h4.9a2.247 2.247 0 0 1 1.597.658L12 5.886h9.066c.32 0 .588.11.808.33.22.22.33.489.33.808 0 .319-.11.588-.33.808-.22.22-.489.33-.808.33H8.13c-1.085 0-2.033.34-2.843 1.022-.81.682-1.216 1.547-1.216 2.595v6.18l1.885-6.193a2.23 2.23 0 0 1 .833-1.166 2.24 2.24 0 0 1 1.35-.439h12.433c.775 0 1.387.31 1.837.93.45.619.564 1.291.345 2.016l-1.609 5.306c-.18.573-.486 1.015-.913 1.325-.429.31-.933.465-1.514.465H4.072Z"/>
</svg>
