<svg width="24" height="24" fill="currentColor" viewBox="0 0 24 24">
  <path d="M10.182 19.138c-.319 0-.588-.11-.808-.33-.22-.22-.33-.489-.33-.808 0-.32.11-.588.33-.808.22-.22.49-.33.808-.33h9.887c.319 0 .588.11.808.33.22.22.33.489.33.808 0 .32-.11.589-.33.808a1.1 1.1 0 0 1-.808.33h-9.887Zm0-6c-.319 0-.588-.11-.808-.33-.22-.22-.33-.489-.33-.808 0-.32.11-.588.33-.808.22-.22.49-.33.808-.33h9.887c.319 0 .588.11.808.33.22.22.33.489.33.808 0 .32-.11.589-.33.808a1.1 1.1 0 0 1-.808.33h-9.887Zm0-6c-.319 0-.588-.11-.808-.33-.22-.22-.33-.489-.33-.808 0-.32.11-.589.33-.808.22-.22.49-.33.808-.33h9.887c.319 0 .588.11.808.33.22.22.33.489.33.808 0 .32-.11.589-.33.808a1.1 1.1 0 0 1-.808.33h-9.887ZM4.918 20.126a2.044 2.044 0 0 1-1.5-.625 2.05 2.05 0 0 1-.624-1.502c0-.585.208-1.085.625-1.501a2.05 2.05 0 0 1 1.502-.624c.585 0 1.085.209 1.5.625.416.417.624.918.624 1.503a2.04 2.04 0 0 1-.625 1.5 2.05 2.05 0 0 1-1.502.624Zm0-6a2.044 2.044 0 0 1-1.5-.625 2.05 2.05 0 0 1-.624-1.502c0-.585.208-1.085.625-1.501a2.05 2.05 0 0 1 1.502-.623c.585 0 1.085.208 1.5.624.416.417.624.918.624 1.502 0 .585-.208 1.086-.625 1.501a2.05 2.05 0 0 1-1.502.624Zm0-6a2.043 2.043 0 0 1-1.5-.625 2.05 2.05 0 0 1-.624-1.502c0-.585.208-1.086.625-1.501a2.05 2.05 0 0 1 1.502-.623c.585 0 1.085.208 1.5.624.416.417.624.918.624 1.502 0 .585-.208 1.086-.625 1.501a2.05 2.05 0 0 1-1.502.624Z"/>
</svg>
