<svg width="24" height="24" fill="currentColor" viewBox="0 0 24 24">
  <path d="M5.238 21.191c-.786 0-1.426-.212-1.92-.636-.495-.424-.743-.983-.743-1.677 0-.554.15-1 .452-1.342a1.46 1.46 0 0 1 1.144-.511c.444 0 .82.152 1.128.455.308.303.461.67.461 1.102a1.981 1.981 0 0 1-.038.409.323.323 0 0 0 .21-.126.74.74 0 0 0 .128-.288l1.568-8.541H5.755a1.04 1.04 0 0 1-.767-.312 1.042 1.042 0 0 1-.311-.766c0-.303.104-.559.311-.766.208-.208.463-.312.767-.312h2.278l.507-2.67c.141-.721.485-1.304 1.03-1.748.547-.443 1.2-.665 1.96-.665.773 0 1.407.224 1.901.674.495.449.742 1.014.742 1.696 0 .528-.15.963-.452 1.304a1.46 1.46 0 0 1-1.144.51c-.444 0-.82-.15-1.128-.454a1.513 1.513 0 0 1-.461-1.122 1.996 1.996 0 0 1 .038-.408.408.408 0 0 0-.222.135.711.711 0 0 0-.122.28l-.443 2.468h3.85c.304 0 .559.104.767.312.207.207.311.463.311.766 0 .258-.078.483-.234.674a1.007 1.007 0 0 1-.585.36l1.301 1.441 1.307-1.44a1.023 1.023 0 0 1-.587-.361 1.025 1.025 0 0 1-.238-.674c0-.303.104-.559.312-.766a1.04 1.04 0 0 1 .766-.312h3.113c.304 0 .56.104.767.312.207.207.311.463.311.766s-.104.559-.311.766a1.042 1.042 0 0 1-.767.312h-.556l-2.69 2.976 2.696 2.982h.55c.304 0 .56.104.767.311.207.208.311.463.311.767 0 .303-.104.558-.311.766a1.042 1.042 0 0 1-.767.311H17.21c-.303 0-.559-.104-.766-.311a1.04 1.04 0 0 1-.312-.766c0-.258.08-.483.238-.674.158-.192.354-.312.587-.361l-1.307-1.46-1.307 1.46c.233.049.43.17.588.36.158.192.237.417.237.675 0 .303-.104.558-.311.766a1.042 1.042 0 0 1-.767.311h-3.113c-.304 0-.559-.104-.767-.311a1.041 1.041 0 0 1-.311-.766c0-.304.104-.56.311-.767.208-.207.463-.311.767-.311h.556l2.684-2.982-2.684-2.976H9.834l-1.588 8.552c-.153.81-.494 1.446-1.02 1.909-.528.463-1.19.694-1.988.694Z"/>
</svg>
