<svg width="24" height="24" fill="currentColor" viewBox="0 0 24 24">
  <path d="M13.92 22.203h-3.846a1.08 1.08 0 0 1-.743-.285 1.12 1.12 0 0 1-.375-.71l-.294-2.27a3.304 3.304 0 0 1-.526-.258 8.076 8.076 0 0 1-.488-.322l-2.121.882c-.27.1-.537.109-.802.028a1.07 1.07 0 0 1-.622-.493l-1.91-3.327a1.091 1.091 0 0 1-.14-.799 1.09 1.09 0 0 1 .426-.68l1.828-1.39a2.321 2.321 0 0 1-.02-.29v-.579c0-.092.007-.189.02-.29l-1.828-1.388a1.105 1.105 0 0 1-.425-.687 1.073 1.073 0 0 1 .14-.793l1.91-3.326a.956.956 0 0 1 .615-.498c.273-.074.543-.061.808.038l2.133.882c.16-.113.323-.22.491-.318.168-.099.338-.184.51-.255l.295-2.284c.037-.285.161-.523.372-.711.212-.189.46-.283.746-.283h3.846c.286 0 .534.094.745.283.212.188.336.426.373.711l.294 2.284c.185.071.36.156.526.255.166.099.328.205.488.318l2.121-.882c.265-.1.531-.109.799-.028.267.08.475.243.624.488l1.916 3.326c.15.249.196.515.14.799-.056.284-.2.51-.432.68l-1.833 1.39c.013.1.02.197.02.29V12c0 .1-.002.196-.004.289a1.3 1.3 0 0 1-.04.29l1.832 1.389c.228.17.37.397.426.68.056.284.01.55-.14.799l-1.916 3.308a1.11 1.11 0 0 1-.63.503c-.272.087-.543.08-.812-.019l-2.083-.882c-.16.114-.323.22-.492.322-.168.1-.338.186-.51.258l-.294 2.27a1.125 1.125 0 0 1-.373.71c-.21.19-.46.285-.745.285ZM12.029 15.5c.967 0 1.792-.341 2.475-1.025A3.373 3.373 0 0 0 15.529 12c0-.966-.342-1.791-1.025-2.475A3.373 3.373 0 0 0 12.029 8.5c-.98 0-1.808.342-2.485 1.025A3.388 3.388 0 0 0 8.53 12c0 .967.338 1.792 1.015 2.475.677.684 1.506 1.025 2.485 1.025Z"/>
</svg>
