<svg width="24" height="24" fill="currentColor" viewBox="0 0 24 24">
  <path fill-rule="evenodd" d="M3.775 19.975c.35.35.778.525 1.283.525H20c.212 0 .39-.072.534-.215a.725.725 0 0 0 .216-.535.726.726 0 0 0-.216-.534A.725.725 0 0 0 20 19H5.058a.294.294 0 0 1-.212-.096.294.294 0 0 1-.096-.212V3.75a.726.726 0 0 0-.215-.534A.725.725 0 0 0 4 3a.726.726 0 0 0-.534.216.726.726 0 0 0-.216.534v14.942c0 .505.175.933.525 1.283Zm2.505-5.834c0 .206.072.382.217.527a.698.698 0 0 0 .54.22.745.745 0 0 0 .514-.22l3.543-3.544a.3.3 0 0 1 .222-.087.3.3 0 0 1 .22.087l2.014 2.013c.345.345.77.518 1.273.518a1.73 1.73 0 0 0 1.273-.518l4.421-4.436a.736.736 0 0 0 .233-.535.735.735 0 0 0-.233-.534.715.715 0 0 0-.531-.228.734.734 0 0 0-.523.228l-4.426 4.427a.3.3 0 0 1-.222.086.3.3 0 0 1-.22-.086l-1.999-1.999a1.74 1.74 0 0 0-1.28-.517 1.74 1.74 0 0 0-1.281.517l-3.538 3.554a.718.718 0 0 0-.217.527Z" clip-rule="evenodd"/>
</svg>
