<svg width="24" height="24" fill="currentColor" viewBox="0 0 24 24">
  <path fill-rule="evenodd" d="M12 2.625a9.01 9.01 0 0 0-9 9v9a.75.75 0 0 0 1.225.58l2.275-1.86 2.275 1.86a.75.75 0 0 0 .95 0L12 19.345l2.275 1.86a.75.75 0 0 0 .95 0l2.275-1.86 2.275 1.86a.75.75 0 0 0 1.225-.58v-9a9.01 9.01 0 0 0-9-9Zm-1.32 8.8c0 1.508-.773 2.73-1.729 2.73-.955 0-1.73-1.222-1.73-2.73 0-1.509.775-2.731 1.73-2.731.956 0 1.73 1.222 1.73 2.73Zm4.369 2.73c.955 0 1.73-1.222 1.73-2.73 0-1.509-.775-2.731-1.73-2.731-.956 0-1.73 1.222-1.73 2.73 0 1.509.774 2.731 1.73 2.731Z"/>
</svg>
