<svg width="24" height="24" fill="currentColor" viewBox="0 0 24 24">
  <path d="M10.5 11.25a1.125 1.125 0 1 1-2.25 0 1.125 1.125 0 0 1 2.25 0Zm4.125-1.125a1.125 1.125 0 1 0 0 2.25 1.125 1.125 0 0 0 0-2.25Zm6.375 1.5v9a.75.75 0 0 1-1.225.58l-2.275-1.86-2.275 1.86a.75.75 0 0 1-.95 0L12 19.345l-2.275 1.86a.75.75 0 0 1-.95 0L6.5 19.345l-2.275 1.86A.75.75 0 0 1 3 20.625v-9a9 9 0 1 1 18 0Zm-1.5 0a7.5 7.5 0 0 0-15 0v7.418l1.525-1.248a.75.75 0 0 1 .95 0l2.275 1.86 2.275-1.86a.75.75 0 0 1 .95 0l2.275 1.86 2.275-1.86a.75.75 0 0 1 .95 0l1.525 1.247v-7.417Z"/>
</svg>
