<svg width="24" height="24" fill="currentColor" viewBox="0 0 24 24">
  <path d="M12.002 21.5a9.255 9.255 0 0 1-3.705-.748 9.598 9.598 0 0 1-3.017-2.03 9.591 9.591 0 0 1-2.032-3.016 9.245 9.245 0 0 1-.748-3.704c0-1.314.25-2.55.748-3.705a9.597 9.597 0 0 1 2.03-3.018 9.592 9.592 0 0 1 3.016-2.03 9.245 9.245 0 0 1 3.704-.749c1.314 0 2.55.25 3.705.748a9.596 9.596 0 0 1 3.018 2.03 9.592 9.592 0 0 1 2.03 3.016 9.247 9.247 0 0 1 .749 3.704c0 1.314-.25 2.55-.748 3.705a9.597 9.597 0 0 1-2.03 3.018 9.592 9.592 0 0 1-3.016 2.03 9.245 9.245 0 0 1-3.704.749ZM12 20c2.233 0 4.125-.775 5.675-2.325C19.225 16.125 20 14.233 20 12a13.402 13.402 0 0 0-.025-.685 1.838 1.838 0 0 1-.603 1.152 1.759 1.759 0 0 1-1.218.456h-2.27c-.507 0-.942-.18-1.303-.542a1.775 1.775 0 0 1-.542-1.303v-.922h-3.693V8.31c0-.507.18-.942.543-1.305a1.774 1.774 0 0 1 1.303-.544h.923v-.385c0-.435.132-.795.395-1.08a2.11 2.11 0 0 1 .95-.597 8.323 8.323 0 0 0-1.196-.296A7.511 7.511 0 0 0 12 4c-2.233 0-4.125.775-5.675 2.325C4.775 7.875 4 9.767 4 12v.144c0 .045.003.093.01.145h4.74c1.023 0 1.894.36 2.613 1.078a3.554 3.554 0 0 1 1.08 2.61v.927h-2.77v2.74A7.72 7.72 0 0 0 12 20Z"/>
</svg>
