<svg width="24" height="24" fill="currentColor" viewBox="0 0 24 24">
  <path d="M5.308 19.5c-.505 0-.933-.175-1.283-.525a1.745 1.745 0 0 1-.525-1.283V11c0-1.17.223-2.27.67-3.3a8.634 8.634 0 0 1 1.826-2.704A8.634 8.634 0 0 1 8.7 3.17 8.217 8.217 0 0 1 12 2.5c1.17 0 2.27.223 3.3.67a8.635 8.635 0 0 1 2.704 1.826A8.633 8.633 0 0 1 19.83 7.7c.446 1.03.669 2.13.669 3.3v9.385c0 .505-.175.932-.525 1.282-.35.35-.778.525-1.283.525H12.75a.726.726 0 0 1-.535-.215.726.726 0 0 1-.215-.535c0-.213.072-.39.215-.534a.726.726 0 0 1 .535-.216h5.942a.3.3 0 0 0 .221-.086.3.3 0 0 0 .087-.222V19.5h-1.73c-.5 0-.925-.177-1.279-.53a1.742 1.742 0 0 1-.53-1.278v-3.461c0-.499.177-.925.53-1.278.354-.353.78-.53 1.278-.53H19V11c0-1.933-.683-3.583-2.05-4.95C15.583 4.683 13.933 4 12 4c-1.933 0-3.583.683-4.95 2.05C5.683 7.417 5 9.067 5 11v1.423h1.73c.5 0 .925.177 1.279.53.353.353.53.78.53 1.278v3.461c0 .499-.177.925-.53 1.278-.354.353-.78.53-1.278.53H5.308Zm0-1.5H6.73a.3.3 0 0 0 .22-.087.3.3 0 0 0 .087-.22V14.23a.3.3 0 0 0-.086-.221.3.3 0 0 0-.221-.087H5v3.77a.3.3 0 0 0 .087.22.3.3 0 0 0 .22.087Zm11.961 0H19v-4.077h-1.73a.3.3 0 0 0-.222.087.3.3 0 0 0-.086.22v3.462a.3.3 0 0 0 .086.221.3.3 0 0 0 .221.087Zm0-4.077h-.307H19h-1.73Z"/>
</svg>
