<svg width="24" height="24" fill="currentColor" viewBox="0 0 24 24">
  <path d="M5.072 19.928c-.63 0-1.167-.222-1.61-.665a2.193 2.193 0 0 1-.665-1.61v-6.82c0-1.262.242-2.45.727-3.566a9.36 9.36 0 0 1 1.982-2.925 9.421 9.421 0 0 1 2.929-1.98A8.845 8.845 0 0 1 12 1.636c1.261 0 2.45.242 3.565.725a9.38 9.38 0 0 1 2.928 1.976 9.358 9.358 0 0 1 1.983 2.925 8.86 8.86 0 0 1 .727 3.571v9.983c0 .63-.222 1.166-.665 1.61-.444.443-.98.665-1.61.665h-5.85a1.04 1.04 0 0 1-.767-.312 1.049 1.049 0 0 1-.311-.772 1.057 1.057 0 0 1 1.084-1.078h5.844v-1h-1.82c-.63 0-1.167-.222-1.61-.665a2.193 2.193 0 0 1-.665-1.61v-3.725c0-.63.221-1.166.665-1.61.443-.443.98-.665 1.61-.665h1.82v-.82c0-1.918-.675-3.55-2.026-4.9C15.552 4.585 13.917 3.91 12 3.91c-1.91 0-3.542.675-4.896 2.023-1.355 1.35-2.032 2.982-2.032 4.9v.82h1.82c.63 0 1.167.222 1.61.665.444.444.665.98.665 1.61v3.725a2.19 2.19 0 0 1-.665 1.61c-.443.443-.98.665-1.61.665h-1.82Z"/>
</svg>
