<svg width="24" height="24" fill="currentColor" viewBox="0 0 24 24">
  <path d="m13.075 11.6 2.45 2.45c.183.2.275.446.275.737 0 .292-.092.53-.275.713-.2.2-.446.3-.737.3-.292 0-.538-.1-.738-.3l-2.725-2.7a1.14 1.14 0 0 1-.35-.825V8.05c0-.3.1-.55.3-.75.2-.2.45-.3.75-.3s.55.1.75.3c.2.2.3.45.3.75v3.55Zm-1.1 9.6c-2.033 0-3.862-.592-5.487-1.775-1.625-1.183-2.73-2.742-3.313-4.675-.1-.333-.07-.65.088-.95.158-.3.404-.492.737-.575.317-.067.604-.004.863.187.258.192.437.438.537.738a6.59 6.59 0 0 0 2.5 3.463 6.817 6.817 0 0 0 4.075 1.312c1.933 0 3.571-.67 4.913-2.012C18.229 15.571 18.9 13.933 18.9 12c0-1.933-.67-3.571-2.012-4.913-1.342-1.341-2.98-2.012-4.913-2.012-1.1 0-2.133.25-3.1.75A7.397 7.397 0 0 0 6.4 7.9h1.55c.283 0 .53.1.738.3.208.2.312.45.312.75s-.104.55-.312.75c-.209.2-.455.3-.738.3H3.975c-.333 0-.608-.108-.825-.325a1.118 1.118 0 0 1-.325-.825V4.9c0-.3.1-.55.3-.75.2-.2.45-.3.75-.3s.55.1.75.3c.2.2.3.45.3.75v1.2a8.962 8.962 0 0 1 3.137-2.438 9.102 9.102 0 0 1 3.913-.862c1.267 0 2.458.242 3.575.725a9.453 9.453 0 0 1 2.925 1.962 9.16 9.16 0 0 1 1.975 2.925A8.996 8.996 0 0 1 21.175 12a8.988 8.988 0 0 1-.725 3.587 9.144 9.144 0 0 1-1.975 2.925 9.443 9.443 0 0 1-2.925 1.963 8.902 8.902 0 0 1-3.575.725Z"/>
</svg>
