<svg width="24" height="24" fill="currentColor" viewBox="0 0 24 24">
  <path d="m20.265 22.373-.888-.873H5.25a.726.726 0 0 1-.535-.215.726.726 0 0 1-.215-.535.73.73 0 0 1 .215-.535A.726.726 0 0 1 5.25 20h1.154v-3c0-1.145.301-2.162.905-3.05.603-.888 1.361-1.532 2.276-1.93v-.049c-.579-.256-1.143-.653-1.695-1.19a4.523 4.523 0 0 1-1.177-1.945L1.808 3.931a.741.741 0 0 1 0-1.07.735.735 0 0 1 .534-.232c.201 0 .38.077.535.233l18.457 18.457a.733.733 0 0 1 .228.522.715.715 0 0 1-.228.532.735.735 0 0 1-.534.233.735.735 0 0 1-.535-.233ZM16.096 4h-8.93c-.25 0-.438-.079-.563-.236a.808.808 0 0 1-.188-.514c0-.186.063-.357.188-.514.125-.157.312-.236.562-.236H18.75c.213 0 .39.072.534.215a.726.726 0 0 1 .216.535.726.726 0 0 1-.216.535.726.726 0 0 1-.534.215h-1.154v3c0 .872-.22 1.7-.662 2.487a6.36 6.36 0 0 1-1.707 1.976.491.491 0 0 1-.487.078.748.748 0 0 1-.43-.353.757.757 0 0 1-.104-.532.84.84 0 0 1 .255-.477c.46-.396.848-.872 1.163-1.426A3.5 3.5 0 0 0 16.096 7V4ZM7.904 20h8.192v-1.78l-5.17-5.16c-.826.226-1.537.69-2.131 1.393-.594.702-.891 1.55-.891 2.547v3Zm9.692 0h.673l-.673-.788V20Z"/>
</svg>
