<svg width="24" height="24" fill="currentColor" viewBox="0 0 24 24">
  <path d="m19.84 22.677-.498-.474H4.934c-.319 0-.588-.11-.808-.33a1.094 1.094 0 0 1-.33-.807c0-.32.11-.589.33-.808.22-.22.489-.33.808-.33h.863V17c0-1 .226-1.945.68-2.833A5.753 5.753 0 0 1 8.376 12a5.534 5.534 0 0 1-1.35-1.317 6.448 6.448 0 0 1-.865-1.666L1.375 4.23a1.003 1.003 0 0 1-.31-.743c.003-.287.108-.534.316-.742.208-.208.455-.312.742-.312s.535.104.743.312l18.46 18.466a1.018 1.018 0 0 1-.006 1.466 1.01 1.01 0 0 1-.74.311 1.01 1.01 0 0 1-.74-.311ZM15.929 4.072H7.635c-.381 0-.666-.12-.855-.358a1.23 1.23 0 0 1-.283-.78c0-.286.095-.547.283-.783.189-.236.474-.354.855-.354h11.43c.32 0 .59.11.809.329.22.22.33.489.33.808 0 .32-.11.589-.33.808a1.1 1.1 0 0 1-.808.33h-.863V7c0 .893-.18 1.743-.539 2.55a5.646 5.646 0 0 1-1.542 2.053c-.2.182-.44.237-.722.165a1.166 1.166 0 0 1-.683-.475 1.177 1.177 0 0 1-.233-.8 1.28 1.28 0 0 1 .326-.766c.335-.36.605-.778.81-1.254A3.69 3.69 0 0 0 15.929 7V4.072ZM8.072 19.928h7.856v-1.145l-5.423-5.417a3.902 3.902 0 0 0-1.77 1.448A3.83 3.83 0 0 0 8.072 17v2.928Z"/>
</svg>
