<svg width="24" height="24" fill="currentColor" viewBox="0 0 24 24">
  <path d="M6 18.75h3.35V12.8h5.3v5.95H18v-9l-6-4.525L6 9.75v9Zm0 1.5c-.417 0-.77-.146-1.062-.438A1.444 1.444 0 0 1 4.5 18.75v-9c0-.233.054-.458.162-.675.109-.217.255-.392.438-.525l6-4.525c.133-.1.275-.171.425-.213A1.78 1.78 0 0 1 12 3.75c.167 0 .325.02.475.062.15.042.292.113.425.213l6 4.525c.183.133.329.308.437.525.109.217.163.442.163.675v9c0 .417-.146.77-.438 1.062A1.444 1.444 0 0 1 18 20.25h-4.85V14.3h-2.3v5.95H6Z"/>
</svg>
