<svg width="24" height="24" fill="currentColor" viewBox="0 0 24 24">
  <path d="M5.308 20.319c-.505 0-.933-.175-1.283-.525A1.745 1.745 0 0 1 3.5 18.51V5.127c0-.506.175-.933.525-1.283.35-.35.778-.525 1.283-.525h13.384c.505 0 .933.175 1.283.525.35.35.525.777.525 1.283V18.51c0 .505-.175.933-.525 1.283-.35.35-.778.525-1.283.525H5.308Zm0-1.5h13.384a.294.294 0 0 0 .212-.096.294.294 0 0 0 .096-.212V5.127a.294.294 0 0 0-.096-.212.294.294 0 0 0-.212-.096H5.308a.294.294 0 0 0-.212.096.294.294 0 0 0-.096.212V18.51c0 .077.032.148.096.212a.294.294 0 0 0 .212.096Zm2.346-2.25h8.769c.18 0 .315-.082.402-.246a.417.417 0 0 0-.04-.477L14.4 12.652a.438.438 0 0 0-.362-.181.438.438 0 0 0-.361.18l-2.446 3.187-1.639-2.1a.442.442 0 0 0-.356-.171.433.433 0 0 0-.357.18l-1.577 2.099c-.12.154-.137.313-.05.477a.428.428 0 0 0 .402.246Zm.846-7c.346 0 .641-.122.885-.366.243-.243.365-.538.365-.884s-.122-.641-.365-.885A1.205 1.205 0 0 0 8.5 7.07c-.346 0-.641.122-.885.365a1.205 1.205 0 0 0-.365.885c0 .346.122.64.365.884.244.244.539.366.885.366Z"/>
</svg>
