<svg width="24" height="24" fill="currentColor" viewBox="0 0 24 24">
  <path d="M12 17.09c.309 0 .568-.105.776-.314.21-.208.314-.467.314-.776v-3.91c0-.309-.105-.568-.314-.777A1.055 1.055 0 0 0 12 11a1.05 1.05 0 0 0-.776.313 1.054 1.054 0 0 0-.314.777V16c0 .309.105.568.314.776.208.21.467.314.776.314Zm0-7.97c.317 0 .583-.108.798-.322.214-.215.322-.48.322-.798 0-.317-.108-.583-.322-.798A1.083 1.083 0 0 0 12 6.88c-.317 0-.583.108-.798.322-.214.215-.322.48-.322.798 0 .317.108.583.322.798.215.214.48.322.798.322Zm0 13.083a9.946 9.946 0 0 1-3.984-.803 10.296 10.296 0 0 1-3.237-2.18 10.296 10.296 0 0 1-2.18-3.236A9.947 9.947 0 0 1 1.798 12c0-1.415.267-2.743.803-3.984A10.297 10.297 0 0 1 4.78 4.78 10.297 10.297 0 0 1 8.015 2.6 9.946 9.946 0 0 1 12 1.798c1.415 0 2.743.267 3.984.803 1.24.535 2.32 1.261 3.237 2.18a10.297 10.297 0 0 1 2.18 3.236A9.946 9.946 0 0 1 22.202 12a9.947 9.947 0 0 1-.803 3.984 10.297 10.297 0 0 1-2.18 3.237 10.296 10.296 0 0 1-3.236 2.18 9.946 9.946 0 0 1-3.984.802Z"/>
</svg>
