<svg width="24" height="24" fill="currentColor" viewBox="0 0 24 24">
  <path d="m15.5 17.462 5.142-5.143a.725.725 0 0 1 .522-.212.707.707 0 0 1 .532.212c.145.145.217.32.217.527a.717.717 0 0 1-.217.527l-5.563 5.564a.867.867 0 0 1-.633.27.867.867 0 0 1-.633-.27l-2.744-2.745a.725.725 0 0 1-.212-.522.707.707 0 0 1 .212-.531.717.717 0 0 1 .527-.218c.206 0 .382.073.527.218l2.323 2.323ZM5.308 20.5a1.74 1.74 0 0 1-1.277-.53 1.74 1.74 0 0 1-.531-1.278V5.308c0-.497.177-.923.531-1.277a1.74 1.74 0 0 1 1.277-.53h4.405c.139-.488.422-.892.85-1.212.427-.32.906-.481 1.437-.481.551 0 1.038.16 1.46.48.423.321.703.725.842 1.212h4.39c.497 0 .923.177 1.277.531.354.354.531.78.531 1.277V9.25c0 .213-.072.39-.216.534a.726.726 0 0 1-.534.216.725.725 0 0 1-.535-.216A.726.726 0 0 1 19 9.25V5.308a.294.294 0 0 0-.096-.212.294.294 0 0 0-.212-.096H16.5v1.712c0 .256-.086.47-.259.644a.87.87 0 0 1-.641.26H8.4a.869.869 0 0 1-.641-.26.877.877 0 0 1-.259-.644V5H5.308a.294.294 0 0 0-.212.096.294.294 0 0 0-.096.212v13.384c0 .077.032.148.096.212a.294.294 0 0 0 .212.096h4.942c.213 0 .39.072.534.216a.726.726 0 0 1 .216.534.726.726 0 0 1-.216.535.726.726 0 0 1-.534.215H5.308Zm6.694-15.384a.87.87 0 0 0 .643-.26.88.88 0 0 0 .259-.646.87.87 0 0 0-.26-.644.88.88 0 0 0-.646-.258.87.87 0 0 0-.643.26.879.879 0 0 0-.259.645.87.87 0 0 0 .26.644.879.879 0 0 0 .646.259Z"/>
</svg>
