<svg width="24" height="24" fill="currentColor" viewBox="0 0 24 24">
  <path d="M6.738 13.625c-.45 0-.834-.158-1.15-.475A1.566 1.566 0 0 1 5.113 12c0-.45.158-.833.475-1.15.316-.317.7-.475 1.15-.475.45 0 .833.158 1.15.475.316.317.475.7.475 1.15 0 .45-.159.833-.475 1.15-.317.317-.7.475-1.15.475Zm0 3.875c-1.534 0-2.834-.533-3.9-1.6-1.067-1.067-1.6-2.367-1.6-3.9s.533-2.833 1.6-3.9c1.066-1.067 2.366-1.6 3.9-1.6 1.066 0 2.033.275 2.9.825a5.576 5.576 0 0 1 2 2.175h8.624c.117 0 .23.02.338.062a.915.915 0 0 1 .313.213l1.575 1.6c.1.083.17.179.213.287a.941.941 0 0 1 0 .675.704.704 0 0 1-.213.288l-2.625 2.65a1.54 1.54 0 0 1-.276.175c-.1.05-.208.083-.325.1-.1 0-.2-.013-.3-.038a.758.758 0 0 1-.3-.162l-1.224-.925-1.4 1.05a1.74 1.74 0 0 1-.25.125.735.735 0 0 1-.276.05.877.877 0 0 1-.274-.05.876.876 0 0 1-.25-.125l-1.425-.975h-1.926a5.723 5.723 0 0 1-2 2.163 5.244 5.244 0 0 1-2.9.837Zm0-1.5c.966 0 1.8-.292 2.5-.875s1.158-1.292 1.375-2.125h3.425l1.45 1 1.95-1.425 1.7 1.3L21.011 12l-1-1h-9.4c-.216-.833-.674-1.542-1.374-2.125-.7-.583-1.534-.875-2.5-.875-1.1 0-2.042.392-2.825 1.175C3.129 9.958 2.738 10.9 2.738 12s.391 2.042 1.175 2.825C4.696 15.608 5.638 16 6.738 16Z"/>
</svg>
