<svg width="24" height="24" fill="currentColor" viewBox="0 0 24 24">
  <path d="M7.212 15c.834 0 1.542-.292 2.125-.875A2.893 2.893 0 0 0 10.212 12a2.89 2.89 0 0 0-.875-2.125A2.893 2.893 0 0 0 7.212 9c-.833 0-1.541.292-2.125.875A2.893 2.893 0 0 0 4.212 12c0 .833.292 1.542.875 2.125A2.893 2.893 0 0 0 7.212 15Zm0 3.175c-1.716 0-3.175-.6-4.375-1.8-1.2-1.2-1.8-2.658-1.8-4.375s.6-3.175 1.8-4.375c1.2-1.2 2.659-1.8 4.375-1.8 1.384 0 2.596.387 3.638 1.162 1.042.775 1.762 1.746 2.162 2.913h7.9c.15 0 .292.029.425.087.134.059.25.138.35.238l.95.925c.117.117.2.246.25.387a1.405 1.405 0 0 1 .013.863.927.927 0 0 1-.238.375l-2.45 2.45a1.238 1.238 0 0 1-.375.263 1.054 1.054 0 0 1-.425.087 1.2 1.2 0 0 1-.425-.075 1.057 1.057 0 0 1-.375-.25L17.362 14l-1.275 1.25c-.116.117-.241.2-.375.25a1.2 1.2 0 0 1-.425.075 1.2 1.2 0 0 1-.425-.075 1.057 1.057 0 0 1-.375-.25l-1.15-1.15h-.325a5.766 5.766 0 0 1-2.225 2.962 6.117 6.117 0 0 1-3.575 1.113Z"/>
</svg>
