<svg width="24" height="24" fill="currentColor" viewBox="0 0 24 24">
  <path d="M4.072 20.203c-.63 0-1.166-.222-1.61-.665a2.193 2.193 0 0 1-.665-1.61V6.072c0-.63.222-1.167.665-1.61.444-.444.98-.665 1.61-.665h15.856c.63 0 1.167.221 1.61.665.444.443.665.98.665 1.61v11.856c0 .63-.221 1.166-.665 1.61-.443.443-.98.665-1.61.665H4.072Zm3.039-5.131a.578.578 0 0 0 .433-.175.598.598 0 0 0 .172-.436V9.68a.657.657 0 0 0-.197-.484A.657.657 0 0 0 7.036 9a.887.887 0 0 0-.27.04.767.767 0 0 0-.24.128l-1.113.8a.523.523 0 0 0-.218.343.555.555 0 0 0 .093.412.509.509 0 0 0 .35.237.566.566 0 0 0 .418-.093l.444-.32v3.92a.58.58 0 0 0 .175.433.597.597 0 0 0 .436.172Zm3.03 0h2.841a.493.493 0 0 0 .365-.156.508.508 0 0 0 .153-.368.497.497 0 0 0-.153-.365.498.498 0 0 0-.365-.153H11.18l-.044-.05c.35-.334.638-.617.865-.85l.547-.562c.304-.312.53-.616.678-.912.148-.296.222-.603.222-.92 0-.5-.188-.916-.562-1.249-.375-.333-.853-.5-1.436-.5-.333 0-.65.08-.953.238a1.941 1.941 0 0 0-.728.65.349.349 0 0 0-.03.385.583.583 0 0 0 .726.296c.14-.05.263-.125.37-.225a1 1 0 0 1 .28-.18.837.837 0 0 1 .335-.065c.242 0 .44.066.592.2.152.133.228.3.228.5 0 .183-.033.353-.1.51-.066.156-.21.345-.432.566l-.322.322c-.131.131-.289.287-.472.466l-1.182 1.176c-.033.033-.087.16-.162.38v.324a.52.52 0 0 0 .162.38.52.52 0 0 0 .38.162Zm6.86.018c.603 0 1.095-.172 1.476-.515.38-.344.57-.784.57-1.321a1.32 1.32 0 0 0-.267-.818 1.645 1.645 0 0 0-.73-.538v-.062c.241-.118.435-.284.58-.5.145-.217.218-.467.218-.75 0-.458-.182-.839-.546-1.143-.364-.303-.819-.455-1.364-.455-.321 0-.623.076-.907.228a2.31 2.31 0 0 0-.706.573.337.337 0 0 0-.043.374.647.647 0 0 0 .312.299.554.554 0 0 0 .415.012c.14-.05.265-.122.377-.218a.731.731 0 0 1 .251-.158.871.871 0 0 1 .301-.05c.209 0 .383.062.523.187s.21.28.21.463c0 .221-.08.396-.239.526-.159.13-.363.194-.614.194a.503.503 0 0 0-.368.156.503.503 0 0 0-.156.368c0 .141.052.264.156.368a.503.503 0 0 0 .368.156c.325 0 .582.065.77.197a.636.636 0 0 1 .282.553.71.71 0 0 1-.26.553.894.894 0 0 1-.61.229c-.2 0-.366-.032-.5-.094a.845.845 0 0 1-.344-.313.62.62 0 0 0-.315-.238.574.574 0 0 0-.39.013.671.671 0 0 0-.323.287.395.395 0 0 0-.003.388c.184.337.434.596.753.777.319.181.693.272 1.122.272Z"/>
</svg>
