<svg width="24" height="24" fill="currentColor" viewBox="0 0 24 24">
  <path d="M12.263 21.454c-.245 0-.486-.04-.725-.122-.238-.08-.46-.2-.668-.357l-6.774-5.274a1.049 1.049 0 0 1-.438-.895 1.1 1.1 0 0 1 .457-.895c.208-.153.436-.23.687-.233.25-.002.48.076.687.233l6.774 5.249 6.786-5.249c.207-.153.436-.23.686-.233.25-.002.48.076.687.233.302.228.457.526.463.895.006.369-.142.667-.444.895l-6.78 5.274a2.343 2.343 0 0 1-1.398.479Zm0-5.39a2.19 2.19 0 0 1-.725-.125 2.413 2.413 0 0 1-.668-.36L4.096 10.31a1.121 1.121 0 0 1-.336-.413 1.135 1.135 0 0 1 .336-1.396l6.774-5.268c.207-.157.43-.277.668-.36a2.187 2.187 0 0 1 1.452 0c.24.083.464.203.671.36l6.768 5.268c.15.116.262.253.339.41a1.111 1.111 0 0 1 0 .986 1.15 1.15 0 0 1-.34.413l-6.767 5.268a2.403 2.403 0 0 1-.671.36c-.24.084-.483.125-.727.125Z"/>
</svg>
