<svg width="24" height="24" fill="currentColor" viewBox="0 0 24 24">
  <path d="M12.268 19.42a1.68 1.68 0 0 1-.578-.103 2.114 2.114 0 0 1-.53-.284l-6.318-4.904a.693.693 0 0 1-.291-.586.726.726 0 0 1 .3-.593.734.734 0 0 1 .452-.154.76.76 0 0 1 .456.152l6.318 4.889a.306.306 0 0 0 .384 0l6.318-4.889a.76.76 0 0 1 .456-.152c.165 0 .316.051.452.154a.726.726 0 0 1 .3.593.693.693 0 0 1-.291.586l-6.317 4.904a2.122 2.122 0 0 1-.533.284 1.689 1.689 0 0 1-.578.102Zm0-4.435c-.197 0-.39-.034-.578-.103a2.117 2.117 0 0 1-.53-.284L5.006 9.816a.876.876 0 0 1-.273-.328.905.905 0 0 1 .272-1.115l6.15-4.777c.166-.122.344-.217.534-.285a1.692 1.692 0 0 1 1.158 0c.188.067.365.162.53.283l6.153 4.783c.122.09.212.2.273.327a.905.905 0 0 1-.272 1.115l-6.149 4.778a2.156 2.156 0 0 1-.535.285 1.71 1.71 0 0 1-.58.103Zm-.191-1.583a.306.306 0 0 0 .384 0l5.558-4.306-5.558-4.306a.306.306 0 0 0-.384 0L6.519 9.096l5.558 4.306Z"/>
</svg>
