<svg width="24" height="24" fill="currentColor" viewBox="0 0 24 24">
  <path d="M14.543 21.28a.68.68 0 0 1-.207.58.716.716 0 0 1-.562.214.752.752 0 0 1-.552-.275 14.459 14.459 0 0 1-2.773-4.425c-.665-1.66-.998-3.451-.998-5.374 0-1.923.333-3.714.998-5.374A14.457 14.457 0 0 1 13.222 2.2a.752.752 0 0 1 .552-.275c.22-.01.409.061.562.214a.68.68 0 0 1 .207.58 1.098 1.098 0 0 1-.264.592l-.002.002a12.925 12.925 0 0 0-2.43 3.961 12.852 12.852 0 0 0-.87 4.725c0 1.67.29 3.245.87 4.725a12.927 12.927 0 0 0 2.43 3.961l.002.002c.15.18.24.377.264.593Z"/>
</svg>
