<svg width="24" height="24" fill="currentColor" viewBox="0 0 24 24">
  <path d="M12 17c-1.383 0-2.563-.488-3.538-1.463C7.487 14.563 7 13.383 7 12s.487-2.562 1.462-3.537C9.437 7.488 10.617 7 12 7s2.563.488 3.537 1.463C16.512 9.438 17 10.617 17 12s-.488 2.563-1.463 3.537C14.563 16.512 13.383 17 12 17ZM2 13.137c-.32 0-.589-.11-.808-.329-.22-.22-.33-.489-.33-.808 0-.32.11-.588.33-.808.22-.22.489-.33.808-.33h2c.32 0 .589.11.808.33.22.22.33.489.33.808 0 .32-.11.589-.33.808-.22.22-.489.33-.808.33H2Zm18 0c-.32 0-.589-.11-.808-.329a1.1 1.1 0 0 1-.33-.808c0-.32.11-.588.33-.808.22-.22.489-.33.808-.33h2c.32 0 .589.11.808.33.22.22.33.489.33.808 0 .32-.11.589-.33.808-.22.22-.489.33-.808.33h-2Zm-8-8c-.32 0-.589-.11-.808-.329-.22-.22-.33-.489-.33-.808V2c0-.32.11-.589.33-.808.22-.22.489-.33.808-.33.32 0 .589.11.808.33.22.22.33.489.33.808v2c0 .32-.11.589-.33.808-.22.22-.489.33-.808.33Zm0 18a1.1 1.1 0 0 1-.808-.329 1.1 1.1 0 0 1-.33-.808v-2c0-.32.11-.588.33-.808.22-.22.489-.33.808-.33.32 0 .589.11.808.33.22.22.33.489.33.808v2c0 .32-.11.589-.33.808-.22.22-.489.33-.808.33ZM5.554 7.152 4.48 6.102a1 1 0 0 1-.329-.796c.008-.32.118-.595.33-.827a1.1 1.1 0 0 1 .814-.341c.32 0 .586.114.802.341l1.056 1.075c.21.224.315.489.313.793-.002.305-.106.57-.313.799-.212.228-.474.34-.787.335a1.166 1.166 0 0 1-.81-.33Zm12.35 12.369-1.056-1.075a1.128 1.128 0 0 1-.316-.803c0-.31.105-.573.316-.789a.99.99 0 0 1 .787-.329c.312.008.583.118.81.33l1.076 1.043c.227.212.337.477.329.796-.008.32-.118.595-.33.827a1.1 1.1 0 0 1-.814.341c-.32 0-.586-.113-.802-.341Zm-1.05-12.37a.99.99 0 0 1-.329-.785 1.2 1.2 0 0 1 .33-.812l1.043-1.075a1 1 0 0 1 .796-.329c.32.008.595.118.827.33a1.1 1.1 0 0 1 .341.814c0 .32-.113.586-.341.802l-1.075 1.056a1.106 1.106 0 0 1-.793.314 1.162 1.162 0 0 1-.799-.314ZM4.48 19.522a1.1 1.1 0 0 1-.342-.815c0-.32.114-.586.342-.802l1.075-1.056c.224-.21.492-.316.803-.316.31 0 .573.105.789.316a.99.99 0 0 1 .329.787 1.203 1.203 0 0 1-.33.81l-1.043 1.076a1 1 0 0 1-.796.329 1.237 1.237 0 0 1-.827-.33Z"/>
</svg>
