<svg width="24" height="24" fill="currentColor" viewBox="0 0 24 24">
  <path d="M12 15c.833 0 1.542-.292 2.125-.875A2.893 2.893 0 0 0 15 12c0-.833-.292-1.542-.875-2.125A2.893 2.893 0 0 0 12 9c-.833 0-1.542.292-2.125.875A2.893 2.893 0 0 0 9 12c0 .833.292 1.542.875 2.125A2.893 2.893 0 0 0 12 15Zm0 1.5c-1.25 0-2.313-.437-3.188-1.312S7.5 13.25 7.5 12c0-1.25.437-2.313 1.312-3.188S10.75 7.5 12 7.5c1.25 0 2.313.437 3.188 1.312S16.5 10.75 16.5 12c0 1.25-.437 2.313-1.312 3.188S13.25 16.5 12 16.5ZM2 12.75a.728.728 0 0 1-.75-.75c0-.217.07-.396.212-.538A.731.731 0 0 1 2 11.25h2.25A.728.728 0 0 1 5 12a.726.726 0 0 1-.75.75H2Zm17.75 0A.728.728 0 0 1 19 12c0-.217.07-.396.212-.538a.731.731 0 0 1 .538-.212H22c.217 0 .396.07.538.212a.731.731 0 0 1 .212.538.728.728 0 0 1-.75.75h-2.25ZM12 5a.726.726 0 0 1-.75-.75V2a.728.728 0 0 1 .75-.75c.217 0 .396.07.538.212A.731.731 0 0 1 12.75 2v2.25A.728.728 0 0 1 12 5Zm0 17.75a.728.728 0 0 1-.75-.75v-2.25A.728.728 0 0 1 12 19c.217 0 .396.07.538.212a.731.731 0 0 1 .212.538V22c0 .217-.07.396-.212.538a.731.731 0 0 1-.538.212ZM6 7.05 4.75 5.825a.694.694 0 0 1-.213-.538.836.836 0 0 1 .213-.537c.15-.15.33-.225.538-.225.208 0 .387.075.537.225L7.05 6a.72.72 0 0 1 .225.525.72.72 0 0 1-.225.525c-.133.15-.3.22-.5.212A.922.922 0 0 1 6 7.05Zm12.175 12.2L16.95 18a.72.72 0 0 1-.225-.525c0-.2.075-.375.225-.525.133-.15.3-.22.5-.212.2.008.383.079.55.212l1.25 1.225c.15.15.221.329.213.537a.838.838 0 0 1-.213.538.733.733 0 0 1-.537.225.734.734 0 0 1-.538-.225ZM16.95 7.05a.603.603 0 0 1-.212-.5.922.922 0 0 1 .212-.55l1.225-1.25c.15-.15.33-.221.538-.213a.84.84 0 0 1 .537.213c.15.15.225.329.225.537a.734.734 0 0 1-.225.538L18 7.05a.72.72 0 0 1-.525.225.72.72 0 0 1-.525-.225Zm-12.2 12.2a.734.734 0 0 1-.225-.538c0-.208.075-.387.225-.537L6 16.95a.72.72 0 0 1 .525-.225c.2 0 .375.075.525.225.15.133.221.3.213.5a.928.928 0 0 1-.213.55l-1.225 1.25a.733.733 0 0 1-.537.225.734.734 0 0 1-.538-.225Z"/>
</svg>
