<svg width="24" height="24" fill="currentColor" viewBox="0 0 24 24">
  <path d="M3.5 14.877c0-.122.028-.236.084-.343a.66.66 0 0 1 .235-.255l.927-.663a1.7 1.7 0 0 1 1.18-.334c.435.035.812.203 1.13.505l4.858 4.707a.33.33 0 0 0 .197.087.282.282 0 0 0 .206-.067l3.577-2.862a2.03 2.03 0 0 1 .525-.296 1.69 1.69 0 0 1 .6-.106h2.731c.213 0 .391.072.535.216A.725.725 0 0 1 20.5 16a.725.725 0 0 1-.215.535.725.725 0 0 1-.535.215h-2.73a.284.284 0 0 0-.192.067l-3.569 2.852a1.724 1.724 0 0 1-1.207.395 1.792 1.792 0 0 1-1.183-.51l-4.857-4.698a.314.314 0 0 0-.188-.091.286.286 0 0 0-.207.052l-.936.683a.703.703 0 0 1-.778.056c-.269-.139-.403-.365-.403-.679Zm0-6.025c0-.122.027-.233.08-.335a.826.826 0 0 1 .224-.263L6.546 6.24c.362-.265.763-.38 1.205-.347a1.75 1.75 0 0 1 1.14.527l3.098 3.098a.304.304 0 0 0 .394.029l6.936-5.013a.703.703 0 0 1 .778-.056c.269.138.403.365.403.679a.674.674 0 0 1-.084.339.828.828 0 0 1-.235.259l-6.912 5.013a1.79 1.79 0 0 1-1.195.341 1.721 1.721 0 0 1-1.13-.521L7.836 7.48a.304.304 0 0 0-.394-.029L4.681 9.465a.71.71 0 0 1-.778.061c-.269-.135-.403-.36-.403-.674Z"/>
</svg>
