<svg width="24" height="24" fill="currentColor" viewBox="0 0 24 24">
  <path d="M15.363 12.483 14.02 11.14h.9c.213 0 .391.072.535.216a.726.726 0 0 1 .215.534.722.722 0 0 1-.08.345.666.666 0 0 1-.227.248Zm5.25 9.134a.717.717 0 0 1-.527.218.718.718 0 0 1-.527-.218L2.213 4.271A.726.726 0 0 1 2 3.75a.707.707 0 0 1 .213-.532A.718.718 0 0 1 2.74 3c.206 0 .382.072.527.217l17.346 17.346a.728.728 0 0 1 .212.523.706.706 0 0 1-.212.532ZM6.978 16.43c-1.255 0-2.325-.443-3.21-1.328-.886-.885-1.328-1.955-1.328-3.21 0-1.112.358-2.087 1.074-2.927a4.352 4.352 0 0 1 2.695-1.52h.23l1.408 1.408h-.869c-.84 0-1.556.296-2.149.89a2.928 2.928 0 0 0-.89 2.148c0 .84.297 1.556.89 2.15a2.93 2.93 0 0 0 2.15.889h3.038c.212 0 .39.072.534.215a.726.726 0 0 1 .216.535.725.725 0 0 1-.216.534.725.725 0 0 1-.534.216H6.978Zm1.98-3.788a.725.725 0 0 1-.534-.216.725.725 0 0 1-.215-.535c0-.212.072-.39.215-.534a.725.725 0 0 1 .535-.216h1.192l1.475 1.5H8.96Zm9.318 2.857a.759.759 0 0 1-.11-.567.652.652 0 0 1 .331-.462c.441-.27.792-.631 1.052-1.083.26-.452.39-.95.39-1.495 0-.84-.294-1.556-.884-2.15a2.901 2.901 0 0 0-2.135-.889h-3.057a.726.726 0 0 1-.535-.215.726.726 0 0 1-.215-.535c0-.213.071-.391.215-.535a.725.725 0 0 1 .535-.215h3.057c1.249 0 2.314.443 3.197 1.328.882.885 1.323 1.955 1.323 3.21 0 .791-.193 1.522-.577 2.192a4.638 4.638 0 0 1-1.558 1.628.75.75 0 0 1-.563.11.686.686 0 0 1-.466-.322Z"/>
</svg>
