<svg width="24" height="24" fill="currentColor" viewBox="0 0 24 24">
  <path d="m15.961 12.652-1.924-1.937h1.138c.32 0 .588.11.808.33.22.219.33.488.33.808 0 .166-.032.317-.095.453-.062.135-.148.25-.257.346Zm4.672 8.975a.994.994 0 0 1-.733.293.995.995 0 0 1-.733-.293L2.293 4.76A.994.994 0 0 1 2 4.026c0-.294.098-.538.293-.733A.994.994 0 0 1 3.026 3c.293 0 .537.098.733.293l16.874 16.874a.991.991 0 0 1 .293.73.991.991 0 0 1-.293.73Zm-13.41-4.66c-1.44 0-2.666-.508-3.681-1.523-1.015-1.015-1.522-2.242-1.522-3.681 0-1.158.342-2.196 1.029-3.114a5.064 5.064 0 0 1 2.679-1.867L7.78 8.835h-.558a2.82 2.82 0 0 0-2.074.854c-.57.57-.854 1.26-.854 2.074 0 .813.284 1.505.854 2.074a2.82 2.82 0 0 0 2.074.854h2.772c.32 0 .59.11.809.33.22.22.329.489.329.808 0 .319-.11.588-.33.808a1.1 1.1 0 0 1-.808.33H7.223Zm1.97-4.156a1.01 1.01 0 0 1-.745-.303 1.013 1.013 0 0 1-.303-.745c0-.295.1-.544.303-.745a1.01 1.01 0 0 1 .745-.303h.553l2.07 2.096H9.194Zm9.518 2.83a1.142 1.142 0 0 1-.201-.84c.043-.303.194-.543.45-.72.368-.276.66-.613.877-1.012.218-.398.326-.834.326-1.306a2.83 2.83 0 0 0-.851-2.074 2.815 2.815 0 0 0-2.071-.854h-2.839c-.32 0-.588-.11-.808-.33-.22-.22-.33-.489-.33-.808 0-.319.11-.588.33-.808.22-.22.489-.33.808-.33h2.833c1.439 0 2.666.508 3.68 1.523 1.016 1.015 1.523 2.242 1.523 3.681a4.83 4.83 0 0 1-.583 2.326 5.257 5.257 0 0 1-1.584 1.802 1.142 1.142 0 0 1-.84.201 1.022 1.022 0 0 1-.72-.451Z"/>
</svg>
