<svg width="24" height="24" fill="currentColor" viewBox="0 0 24 24">
  <path d="M7 16.538c-1.256 0-2.326-.442-3.21-1.327-.886-.885-1.328-1.955-1.328-3.21 0-1.256.442-2.327 1.327-3.212C4.674 7.904 5.744 7.461 7 7.461h3.058c.212 0 .39.072.534.216a.726.726 0 0 1 .216.535c0 .212-.072.39-.216.534a.726.726 0 0 1-.534.215H7c-.84 0-1.556.297-2.149.89A2.928 2.928 0 0 0 3.961 12c0 .84.297 1.556.89 2.149s1.31.89 2.15.89h3.057c.212 0 .39.071.534.215a.726.726 0 0 1 .216.535c0 .212-.072.39-.216.534a.726.726 0 0 1-.534.215H7Zm2-3.788a.725.725 0 0 1-.534-.216.726.726 0 0 1-.216-.535c0-.212.072-.39.216-.534A.726.726 0 0 1 9 11.25h6c.213 0 .39.072.534.216a.726.726 0 0 1 .216.534c0 .213-.072.39-.216.534a.726.726 0 0 1-.534.216H9Zm4.942 3.788a.725.725 0 0 1-.534-.216.726.726 0 0 1-.216-.534c0-.213.072-.39.216-.534a.726.726 0 0 1 .534-.216H17c.84 0 1.556-.296 2.15-.89A2.929 2.929 0 0 0 20.039 12c0-.84-.297-1.556-.89-2.15A2.928 2.928 0 0 0 17 8.962h-3.058a.725.725 0 0 1-.534-.215.726.726 0 0 1-.216-.535c0-.213.072-.39.216-.534a.726.726 0 0 1 .534-.216H17c1.256 0 2.326.443 3.211 1.328.885.885 1.328 1.955 1.328 3.21 0 1.256-.443 2.326-1.328 3.211-.885.886-1.955 1.328-3.21 1.328h-3.059Z"/>
</svg>
