<svg width="24" height="24" fill="currentColor" viewBox="0 0 24 24">
  <path d="M11.563 18.87c-.888.92-1.946 1.391-3.176 1.414-1.23.022-2.274-.41-3.13-1.298-.858-.888-1.276-1.969-1.255-3.243.022-1.274.477-2.371 1.364-3.29l2.163-2.24a.727.727 0 0 1 .525-.239c.2-.003.372.07.517.22.145.15.216.33.212.536a.779.779 0 0 1-.23.544L6.39 13.513a3.142 3.142 0 0 0-.912 2.203c-.014.853.265 1.577.838 2.17a2.73 2.73 0 0 0 2.096.869c.825-.015 1.534-.33 2.127-.945l2.162-2.24a.727.727 0 0 1 .526-.238c.2-.004.372.07.517.22.145.15.216.329.212.536a.779.779 0 0 1-.23.543l-2.163 2.24Zm-1.172-4.143a.727.727 0 0 1-.525.239.677.677 0 0 1-.517-.22.725.725 0 0 1-.213-.536.779.779 0 0 1 .231-.544l4.243-4.394a.728.728 0 0 1 .525-.239c.2-.003.372.07.517.22a.73.73 0 0 1 .213.536.78.78 0 0 1-.231.544l-4.243 4.394Zm6.081-.94a.728.728 0 0 1-.525.238.677.677 0 0 1-.517-.22.726.726 0 0 1-.213-.536.779.779 0 0 1 .231-.543l2.162-2.24a3.143 3.143 0 0 0 .913-2.202c.014-.854-.265-1.578-.838-2.171a2.73 2.73 0 0 0-2.097-.869c-.824.015-1.533.33-2.127.945L11.3 8.43a.728.728 0 0 1-.525.239.677.677 0 0 1-.517-.22.726.726 0 0 1-.213-.536.78.78 0 0 1 .231-.544l2.162-2.24c.888-.919 1.947-1.39 3.177-1.412 1.23-.023 2.274.41 3.13 1.298.858.887 1.276 1.968 1.254 3.243-.021 1.274-.476 2.37-1.364 3.29l-2.162 2.24Z"/>
</svg>
