<svg width="24" height="24" fill="currentColor" viewBox="0 0 24 24">
  <path d="M12.017 19.341c-1.018 1.054-2.232 1.594-3.643 1.62-1.41.026-2.606-.47-3.589-1.488-.983-1.018-1.462-2.257-1.437-3.718.025-1.46.546-2.718 1.564-3.773l1.96-2.03c.226-.234.492-.354.797-.36.305-.005.566.105.784.331a1.1 1.1 0 0 1 .32.813 1.18 1.18 0 0 1-.347.824l-1.961 2.031a3.03 3.03 0 0 0-.884 2.123c-.014.82.257 1.517.813 2.092.555.575 1.228.856 2.02.841.79-.014 1.474-.319 2.05-.915l1.96-2.03c.226-.234.491-.354.796-.36.305-.005.567.105.785.331a1.1 1.1 0 0 1 .319.813 1.18 1.18 0 0 1-.347.824l-1.96 2.031Zm-1.487-4.337c-.21.217-.454.328-.733.333a.945.945 0 0 1-.723-.307 1.014 1.014 0 0 1-.297-.748c.005-.29.113-.543.323-.76l4.369-4.526c.21-.217.454-.328.734-.333a.943.943 0 0 1 .722.307c.203.21.302.46.297.748-.005.29-.112.543-.322.76l-4.37 4.526Zm6.597-.956a1.102 1.102 0 0 1-.796.36 1.025 1.025 0 0 1-.785-.331 1.1 1.1 0 0 1-.319-.813c.005-.316.121-.59.347-.824l1.96-2.031a3.03 3.03 0 0 0 .884-2.123c.014-.82-.257-1.517-.812-2.092-.556-.575-1.229-.856-2.02-.841-.792.014-1.475.319-2.05.915l-1.96 2.03a1.101 1.101 0 0 1-.797.36 1.024 1.024 0 0 1-.785-.33 1.1 1.1 0 0 1-.319-.814 1.18 1.18 0 0 1 .347-.824l1.96-2.031c1.019-1.054 2.233-1.594 3.643-1.62 1.41-.026 2.606.47 3.59 1.488.982 1.018 1.46 2.257 1.436 3.718-.024 1.46-.546 2.718-1.563 3.773l-1.961 2.03Z"/>
</svg>
