<svg width="24" height="24" fill="currentColor" viewBox="0 0 24 24">
  <path d="M9.442 19.5c-.422 0-.78-.148-1.076-.443a1.465 1.465 0 0 1-.443-1.076c0-.422.148-.78.443-1.076a1.465 1.465 0 0 1 1.076-.443h10.539c.421 0 .78.147 1.076.443.295.295.443.654.443 1.076 0 .421-.148.78-.443 1.076a1.465 1.465 0 0 1-1.076.443H9.442Zm0-5.98c-.422 0-.78-.149-1.076-.444A1.465 1.465 0 0 1 7.923 12c0-.422.148-.78.443-1.076a1.465 1.465 0 0 1 1.076-.443h10.539c.421 0 .78.148 1.076.443.295.296.443.654.443 1.076 0 .422-.148.78-.443 1.076a1.465 1.465 0 0 1-1.076.443H9.442Zm0-5.982c-.422 0-.78-.147-1.076-.443a1.465 1.465 0 0 1-.443-1.076c0-.422.148-.78.443-1.076A1.465 1.465 0 0 1 9.442 4.5h10.539c.421 0 .78.148 1.076.443.295.296.443.654.443 1.076 0 .422-.148.78-.443 1.076a1.465 1.465 0 0 1-1.076.443H9.442Zm-5.423 0c-.422 0-.78-.147-1.076-.443A1.465 1.465 0 0 1 2.5 6.02c0-.422.148-.78.443-1.076A1.465 1.465 0 0 1 4.02 4.5c.422 0 .78.148 1.076.443.296.296.443.654.443 1.076 0 .422-.147.78-.443 1.076a1.465 1.465 0 0 1-1.076.443Zm0 5.981c-.422 0-.78-.148-1.076-.443A1.465 1.465 0 0 1 2.5 12c0-.422.148-.78.443-1.076a1.465 1.465 0 0 1 1.076-.443c.422 0 .78.148 1.076.443.296.296.443.654.443 1.076 0 .422-.147.78-.443 1.076a1.465 1.465 0 0 1-1.076.443Zm0 5.981c-.422 0-.78-.148-1.076-.443A1.465 1.465 0 0 1 2.5 17.98c0-.422.148-.78.443-1.076a1.465 1.465 0 0 1 1.076-.443c.422 0 .78.147 1.076.443.296.295.443.654.443 1.076 0 .421-.147.78-.443 1.076a1.465 1.465 0 0 1-1.076.443Z"/>
</svg>
