<svg width="24" height="24" fill="currentColor" viewBox="0 0 24 24">
  <path d="M12 19.793c1.956-1.751 3.454-3.43 4.491-5.04 1.038-1.607 1.557-3.016 1.557-4.225 0-1.823-.58-3.322-1.737-4.496C15.152 4.857 13.715 4.27 12 4.27c-1.715 0-3.152.587-4.31 1.762-1.159 1.174-1.738 2.673-1.738 4.496 0 1.209.519 2.617 1.557 4.226 1.037 1.608 2.535 3.288 4.491 5.04Zm0 1.427c-.195 0-.39-.034-.585-.1a1.544 1.544 0 0 1-.528-.313 36.763 36.763 0 0 1-2.52-2.555 22.905 22.905 0 0 1-2.04-2.628 14.03 14.03 0 0 1-1.37-2.604c-.337-.86-.505-1.69-.505-2.492 0-2.308.746-4.176 2.24-5.605C8.183 3.494 9.953 2.78 12 2.78s3.816.714 5.309 2.143c1.493 1.429 2.24 3.297 2.24 5.605 0 .801-.17 1.63-.506 2.487a14.395 14.395 0 0 1-1.366 2.604 21.977 21.977 0 0 1-2.035 2.628 37.425 37.425 0 0 1-2.519 2.55 1.56 1.56 0 0 1-.53.317c-.197.07-.395.106-.593.106Zm.002-9.075c.497 0 .923-.177 1.276-.531.353-.355.53-.78.53-1.278s-.178-.923-.532-1.276a1.745 1.745 0 0 0-1.278-.53c-.497 0-.923.177-1.276.531-.353.355-.53.78-.53 1.278s.178.923.532 1.276c.354.354.78.53 1.278.53Z"/>
</svg>
