<svg width="24" height="24" fill="currentColor" viewBox="0 0 24 24">
  <path d="M6.308 21.75c-.505 0-.933-.175-1.283-.525a1.745 1.745 0 0 1-.525-1.283v-9.384c0-.505.175-.933.525-1.283.35-.35.778-.525 1.283-.525H15v-2c0-.833-.292-1.542-.875-2.125A2.893 2.893 0 0 0 12 3.75c-.715 0-1.344.223-1.885.67a2.92 2.92 0 0 0-1.028 1.672c-.058.193-.154.35-.287.473a.674.674 0 0 1-.473.185.75.75 0 0 1-.588-.25.6.6 0 0 1-.152-.561A4.37 4.37 0 0 1 9.1 3.305c.823-.703 1.79-1.055 2.9-1.055 1.249 0 2.31.438 3.187 1.314.875.875 1.313 1.937 1.313 3.186v2h1.192c.505 0 .933.175 1.283.525.35.35.525.778.525 1.283v9.384c0 .505-.175.933-.525 1.283-.35.35-.778.525-1.283.525H6.308Zm0-1.5h11.384a.3.3 0 0 0 .221-.087.3.3 0 0 0 .087-.22v-9.385a.3.3 0 0 0-.087-.222.3.3 0 0 0-.22-.086H6.307a.3.3 0 0 0-.221.086.3.3 0 0 0-.087.222v9.384a.3.3 0 0 0 .087.221.3.3 0 0 0 .22.087ZM12 17c.486 0 .899-.17 1.24-.51.34-.341.51-.754.51-1.24s-.17-.899-.51-1.24c-.341-.34-.754-.51-1.24-.51s-.899.17-1.24.51c-.34.341-.51.754-.51 1.24s.17.899.51 1.24c.341.34.754.51 1.24.51Z"/>
</svg>
