<svg width="24" height="24" fill="currentColor" viewBox="0 0 24 24">
  <path d="M9.54 7.44h5.635V5.613c0-.787-.275-1.456-.823-2.006a2.714 2.714 0 0 0-1.998-.827c-.785 0-1.451.276-1.996.827a2.745 2.745 0 0 0-.819 2.006V7.44Zm9.047 15.34c-1.383 0-2.562-.487-3.537-1.462-.975-.975-1.463-2.154-1.463-3.538 0-1.383.488-2.562 1.463-3.537.975-.975 2.154-1.463 3.537-1.463 1.384 0 2.563.488 3.538 1.463.975.975 1.462 2.154 1.462 3.537 0 1.384-.487 2.563-1.462 3.538-.975.975-2.154 1.462-3.538 1.462Zm-5.708-.934H6.432a2.19 2.19 0 0 1-1.607-.668 2.19 2.19 0 0 1-.668-1.607V9.715c0-.626.223-1.162.668-1.607a2.19 2.19 0 0 1 1.607-.668h.832V5.613c0-1.415.496-2.62 1.487-3.615.99-.995 2.192-1.493 3.603-1.493s2.613.498 3.606 1.493c.993.995 1.49 2.2 1.49 3.615V7.44h.832a2.19 2.19 0 0 1 1.607.668c.445.445.668.981.668 1.607v1.353a4.726 4.726 0 0 0-1.134-.24 7.807 7.807 0 0 0-1.14-.012c-1.883.068-3.47.773-4.76 2.115-1.29 1.343-1.936 2.96-1.936 4.85 0 .732.116 1.44.347 2.126.23.685.546 1.331.945 1.94Zm5.708-4.066c.417 0 .771-.145 1.063-.437a1.45 1.45 0 0 0 .437-1.063c0-.416-.146-.77-.437-1.062a1.446 1.446 0 0 0-1.063-.438c-.416 0-.77.146-1.062.438a1.446 1.446 0 0 0-.438 1.062c0 .417.146.771.438 1.063.291.292.646.437 1.062.437Zm0 3a2.9 2.9 0 0 0 1.4-.35 3.011 3.011 0 0 0 1.075-.975 4.455 4.455 0 0 0-1.2-.512 5.048 5.048 0 0 0-2.55 0c-.417.108-.817.28-1.2.512.284.417.642.742 1.075.975.433.234.9.35 1.4.35Z"/>
</svg>
