<svg width="24" height="24" fill="currentColor" viewBox="0 0 24 24">
  <path d="M6.072 22.67a2.19 2.19 0 0 1-1.607-.668 2.19 2.19 0 0 1-.668-1.607V10.54c0-.626.222-1.161.668-1.607a2.19 2.19 0 0 1 1.607-.668h.838V6.437c0-1.415.496-2.62 1.487-3.615.99-.995 2.192-1.492 3.603-1.492s2.612.497 3.603 1.492c.991.995 1.487 2.2 1.487 3.615v1.827h.838a2.19 2.19 0 0 1 1.607.668c.445.446.668.981.668 1.607v9.856a2.19 2.19 0 0 1-.668 1.607 2.19 2.19 0 0 1-1.607.668H6.072ZM12 17.467c.55 0 1.02-.196 1.412-.587.392-.392.588-.863.588-1.413s-.196-1.02-.588-1.412A1.926 1.926 0 0 0 12 13.467c-.55 0-1.02.196-1.413.588A1.926 1.926 0 0 0 10 15.467c0 .55.196 1.02.587 1.413a1.93 1.93 0 0 0 1.413.587ZM9.185 8.264h5.63V6.437c0-.787-.273-1.455-.819-2.006A2.703 2.703 0 0 0 12 3.605c-.786 0-1.451.275-1.997.826a2.745 2.745 0 0 0-.818 2.006v1.827Z"/>
</svg>
