<svg width="24" height="24" fill="currentColor" viewBox="0 0 24 24">
  <path d="M6.072 22.67a2.19 2.19 0 0 1-1.61-.665 2.193 2.193 0 0 1-.665-1.61V10.54c0-.63.221-1.166.665-1.61.443-.443.98-.665 1.61-.665h8.743V6.437c0-.801-.274-1.474-.822-2.017A2.724 2.724 0 0 0 12 3.605c-.644 0-1.203.185-1.678.555-.475.37-.81.836-1.006 1.397-.119.27-.275.484-.468.643a.992.992 0 0 1-.645.237c-.386 0-.692-.131-.92-.394a.92.92 0 0 1-.194-.909c.282-1.1.873-2.01 1.773-2.728.9-.718 1.946-1.076 3.138-1.076 1.411 0 2.612.494 3.603 1.483.991.989 1.487 2.197 1.487 3.624v1.827h.838c.63 0 1.166.222 1.61.665.443.444.665.98.665 1.61v9.856c0 .63-.222 1.167-.665 1.61-.444.444-.98.665-1.61.665H6.072ZM12 17.467c.55 0 1.02-.196 1.412-.587.392-.392.588-.863.588-1.413s-.196-1.02-.588-1.412A1.926 1.926 0 0 0 12 13.467c-.55 0-1.02.196-1.413.588A1.926 1.926 0 0 0 10 15.467c0 .55.196 1.021.587 1.413a1.93 1.93 0 0 0 1.413.587Z"/>
</svg>
