<svg width="24" height="24" fill="currentColor" viewBox="0 0 24 24">
  <path d="m19.175 20.225-5.775-5.75c-.5.417-1.075.742-1.725.975-.65.233-1.317.35-2 .35-1.717 0-3.167-.592-4.35-1.775-1.183-1.183-1.775-2.633-1.775-4.35 0-1.7.592-3.146 1.775-4.338C6.508 4.146 7.958 3.55 9.675 3.55c1.7 0 3.142.592 4.325 1.775 1.184 1.183 1.775 2.633 1.775 4.35 0 .717-.117 1.4-.35 2.05a5.614 5.614 0 0 1-.95 1.7L20.25 19.2c.134.133.2.3.2.5a.72.72 0 0 1-.225.525.733.733 0 0 1-.537.225.655.655 0 0 1-.513-.225Zm-9.5-5.925c1.284 0 2.371-.45 3.263-1.35.891-.9 1.337-1.992 1.337-3.275S13.83 7.3 12.938 6.4c-.892-.9-1.98-1.35-3.263-1.35-1.3 0-2.396.45-3.287 1.35-.892.9-1.338 1.992-1.338 3.275s.446 2.375 1.338 3.275c.891.9 1.987 1.35 3.287 1.35Z"/>
</svg>
