<svg width="24" height="24" fill="currentColor" viewBox="0 0 24 24">
  <path d="M4.072 20.203a2.19 2.19 0 0 1-1.61-.665 2.193 2.193 0 0 1-.665-1.61V6.072c0-.63.221-1.167.665-1.61a2.19 2.19 0 0 1 1.61-.665h15.856c.63 0 1.167.221 1.61.665.444.443.665.98.665 1.61v11.856a2.19 2.19 0 0 1-.665 1.61 2.19 2.19 0 0 1-1.61.665H4.072ZM12 13.053a1.188 1.188 0 0 0 .603-.174l6.89-4.348a.89.89 0 0 0 .435-.785.89.89 0 0 0-.464-.813c-.309-.184-.627-.175-.955.028L12 11.071l-6.509-4.11c-.324-.199-.641-.206-.952-.021-.312.185-.467.454-.467.806 0 .183.038.342.115.477a.763.763 0 0 0 .32.308l6.89 4.347a1.188 1.188 0 0 0 .603.174Z"/>
</svg>
