<svg width="24" height="24" fill="currentColor" viewBox="0 0 24 24">
  <path d="M3.928 18.203c-.32 0-.589-.11-.806-.33a1.107 1.107 0 0 1-.325-.809c0-.32.108-.588.325-.805.217-.217.486-.325.806-.325H14.75c.32 0 .59.11.806.33.217.219.326.489.326.81 0 .32-.109.588-.326.804a1.096 1.096 0 0 1-.806.325H3.929Zm14.9-1.831-3.552-3.576A1.088 1.088 0 0 1 14.94 12c0-.307.112-.572.336-.796l3.546-3.576c.212-.215.477-.323.796-.323a1.088 1.088 0 0 1 1.116 1.113c.002.315-.101.578-.308.79L17.663 12l2.763 2.798c.207.211.31.475.308.79a1.082 1.082 0 0 1-.32.79 1.075 1.075 0 0 1-.793.317c-.317 0-.581-.108-.793-.323Zm-14.9-3.235c-.32 0-.589-.11-.806-.329a1.108 1.108 0 0 1-.325-.81c0-.32.108-.588.325-.805.217-.216.486-.325.806-.325h7.869c.32 0 .59.11.806.33.217.22.325.49.325.81 0 .32-.108.588-.325.805a1.096 1.096 0 0 1-.806.324H3.928Zm0-5.071c-.32 0-.589-.11-.806-.33a1.108 1.108 0 0 1-.325-.81c0-.32.108-.588.325-.804.217-.217.486-.325.806-.325H14.75c.32 0 .59.11.806.329.217.22.326.49.326.81 0 .32-.109.588-.326.805a1.096 1.096 0 0 1-.806.325H3.929Z"/>
</svg>
