<svg width="24" height="24" fill="currentColor" viewBox="0 0 24 24">
  <path d="M4.25 17.5a.726.726 0 0 1-.534-.216.726.726 0 0 1-.216-.534c0-.213.072-.391.216-.535A.726.726 0 0 1 4.25 16h10.711c.213 0 .391.072.535.216a.726.726 0 0 1 .215.534.725.725 0 0 1-.215.535.726.726 0 0 1-.535.215H4.25Zm14.67-1.479-3.399-3.388A.867.867 0 0 1 15.25 12c0-.241.09-.452.271-.633l3.398-3.379a.725.725 0 0 1 .522-.212.707.707 0 0 1 .532.212.718.718 0 0 1 .217.527.717.717 0 0 1-.217.527L16.987 12l2.986 2.967c.145.137.217.31.217.52 0 .211-.072.39-.217.534a.7.7 0 0 1-.52.208.742.742 0 0 1-.534-.208ZM4.25 12.75a.726.726 0 0 1-.534-.216A.726.726 0 0 1 3.5 12c0-.213.072-.391.216-.535a.726.726 0 0 1 .534-.215h7.789c.212 0 .39.072.534.216a.726.726 0 0 1 .215.534.73.73 0 0 1-.215.535.726.726 0 0 1-.534.215H4.25Zm0-4.75a.725.725 0 0 1-.534-.216.726.726 0 0 1-.216-.534c0-.213.072-.391.216-.535A.726.726 0 0 1 4.25 6.5h10.711c.213 0 .391.072.535.216a.726.726 0 0 1 .215.534.725.725 0 0 1-.215.535.726.726 0 0 1-.536.215H4.25Z"/>
</svg>
