<svg width="24" height="24" fill="currentColor" viewBox="0 0 24 24">
  <path d="M4 17.625a.728.728 0 0 1-.75-.75c0-.2.071-.375.213-.525A.706.706 0 0 1 4 16.125h16a.71.71 0 0 1 .538.225c.141.15.212.325.212.525 0 .217-.07.396-.212.538a.731.731 0 0 1-.538.212H4Zm0-4.875a.726.726 0 0 1-.75-.75.728.728 0 0 1 .75-.75h16c.217 0 .396.07.538.212a.731.731 0 0 1 .212.538.728.728 0 0 1-.75.75H4Zm0-4.875a.706.706 0 0 1-.537-.225.74.74 0 0 1-.213-.525.726.726 0 0 1 .75-.75h16a.728.728 0 0 1 .75.75c0 .2-.07.375-.212.525a.71.71 0 0 1-.538.225H4Z"/>
</svg>
