<svg width="24" height="24" fill="currentColor" viewBox="0 0 24 24">
  <path d="M4.308 17.846c-.505 0-.933-.175-1.283-.525a1.745 1.745 0 0 1-.525-1.283V5.308c0-.505.175-.933.525-1.283.35-.35.778-.525 1.283-.525h15.384c.505 0 .933.175 1.283.525.35.35.525.778.525 1.283v10.73c0 .506-.175.933-.525 1.283-.35.35-.778.525-1.283.525H16.52l.614.614a.906.906 0 0 1 .205.303.918.918 0 0 1 .066.345v.488a.875.875 0 0 1-.259.645.876.876 0 0 1-.645.259h-9a.876.876 0 0 1-.645-.259.876.876 0 0 1-.259-.645v-.488a.906.906 0 0 1 .271-.648l.614-.614H4.308Zm0-1.5h15.384a.294.294 0 0 0 .212-.096.294.294 0 0 0 .096-.212V5.308a.294.294 0 0 0-.096-.212.294.294 0 0 0-.212-.096H4.308a.294.294 0 0 0-.212.096.294.294 0 0 0-.096.212v10.73c0 .077.032.148.096.212a.294.294 0 0 0 .212.096Z"/>
</svg>
