<svg width="24" height="24" fill="currentColor" viewBox="0 0 24 24">
  <path fill-rule="evenodd" d="M8.297 20.752a9.255 9.255 0 0 0 3.705.748 9.26 9.26 0 0 0 3.704-.748 9.592 9.592 0 0 0 3.016-2.031 9.597 9.597 0 0 0 2.03-3.018 9.255 9.255 0 0 0 .748-3.705 9.26 9.26 0 0 0-.748-3.704 9.592 9.592 0 0 0-2.031-3.016 9.596 9.596 0 0 0-3.018-2.03 9.254 9.254 0 0 0-3.705-.748 9.26 9.26 0 0 0-3.704.748A9.592 9.592 0 0 0 5.278 5.28a9.597 9.597 0 0 0-2.03 3.018 9.254 9.254 0 0 0-.748 3.705c0 1.314.25 2.548.748 3.704a9.591 9.591 0 0 0 2.032 3.016 9.598 9.598 0 0 0 3.017 2.03Zm9.378-3.077C16.125 19.225 14.233 20 12 20c-2.233 0-4.125-.775-5.675-2.325C4.775 16.125 4 14.233 4 12c0-2.233.775-4.125 2.325-5.675C7.875 4.775 9.767 4 12 4c2.233 0 4.125.775 5.675 2.325C19.225 7.875 20 9.767 20 12c0 2.233-.775 4.125-2.325 5.675Zm-10.96-5.14a.725.725 0 0 0 .535.215h9.5c.212 0 .39-.072.534-.215A.725.725 0 0 0 17.5 12a.726.726 0 0 0-.216-.534.726.726 0 0 0-.534-.216h-9.5a.726.726 0 0 0-.534.215A.725.725 0 0 0 6.5 12c0 .212.072.39.216.534Z" clip-rule="evenodd"/>
</svg>
