<svg width="24" height="24" fill="currentColor" viewBox="0 0 24 24">
  <path d="M20.275 12c0 .567-.204 1.058-.612 1.475a2.006 2.006 0 0 1-1.488.625 1.978 1.978 0 0 1-1.463-.625A2.038 2.038 0 0 1 16.1 12c0-.583.204-1.08.612-1.488a1.999 1.999 0 0 1 1.463-.612c.583 0 1.079.204 1.488.612.408.409.612.905.612 1.488ZM14.1 12c0 .567-.209 1.058-.625 1.475-.417.417-.909.625-1.475.625-.584 0-1.08-.208-1.488-.625A2.038 2.038 0 0 1 9.9 12c0-.583.204-1.08.612-1.488A2.028 2.028 0 0 1 12 9.9a2.04 2.04 0 0 1 1.475.612c.416.409.625.905.625 1.488Zm-6.2 0a2.04 2.04 0 0 1-.613 1.475 1.975 1.975 0 0 1-1.462.625c-.584 0-1.08-.208-1.488-.625A2.038 2.038 0 0 1 3.725 12c0-.583.204-1.08.612-1.488A2.028 2.028 0 0 1 5.825 9.9c.566 0 1.054.204 1.462.612.408.409.613.905.613 1.488Z"/>
</svg>
