<svg width="24" height="24" fill="currentColor" viewBox="0 0 24 24">
  <path d="M14.478 11.293c.85 0 1.57-.296 2.161-.887s.887-1.31.887-2.155c0-.85-.296-1.57-.887-2.16-.591-.592-1.311-.888-2.16-.888-.85 0-1.57.296-2.161.887-.592.592-.887 1.312-.887 2.161 0 .845.295 1.564.887 2.155.59.591 1.31.887 2.16.887ZM8.55 18.407c-.63 0-1.166-.222-1.61-.666a2.193 2.193 0 0 1-.665-1.61V4.275c0-.63.222-1.166.665-1.61C7.384 2.222 7.92 2 8.55 2h11.857c.63 0 1.166.222 1.61.665.443.444.665.98.665 1.61v11.856a2.19 2.19 0 0 1-.666 1.61 2.19 2.19 0 0 1-1.61.666H8.55ZM4.275 22.68c-.63 0-1.166-.221-1.61-.665A2.193 2.193 0 0 1 2 20.406V7.545c0-.32.11-.589.33-.808.219-.22.488-.33.808-.33.319 0 .588.11.808.33.22.22.329.489.329.808v12.863h12.862c.32 0 .59.11.809.329.22.22.329.489.329.808 0 .32-.11.589-.33.808a1.1 1.1 0 0 1-.808.33H4.275Zm4.275-6.55h11.857a7.136 7.136 0 0 0-2.581-2.275 7.11 7.11 0 0 0-3.348-.82 7.11 7.11 0 0 0-3.347.82A7.137 7.137 0 0 0 8.55 16.13Z"/>
</svg>
