<svg width="24" height="24" fill="currentColor" viewBox="0 0 24 24">
  <path d="M13.499 10.73c.763 0 1.413-.267 1.948-.801a2.649 2.649 0 0 0 .803-1.947c0-.764-.267-1.413-.802-1.948a2.648 2.648 0 0 0-1.947-.803c-.763 0-1.413.267-1.948.801a2.65 2.65 0 0 0-.803 1.948c0 .763.267 1.413.802 1.948a2.649 2.649 0 0 0 1.947.803Zm-5.71 4.616a7.556 7.556 0 0 1 2.584-1.908 7.54 7.54 0 0 1 3.127-.669 7.54 7.54 0 0 1 3.127.67 7.556 7.556 0 0 1 2.585 1.907c.083 0 .152-.03.206-.091a.314.314 0 0 0 .082-.216V3.808a.3.3 0 0 0-.087-.221.3.3 0 0 0-.22-.087H7.807a.3.3 0 0 0-.221.087.3.3 0 0 0-.087.22V15.04c0 .083.027.155.082.216a.265.265 0 0 0 .207.091ZM7.808 17a1.74 1.74 0 0 1-1.277-.531A1.74 1.74 0 0 1 6 15.192V3.808c0-.497.177-.923.531-1.277A1.74 1.74 0 0 1 7.808 2h11.384c.497 0 .923.177 1.277.531.354.354.531.78.531 1.277v11.384c0 .497-.177.923-.531 1.277a1.74 1.74 0 0 1-1.277.531H7.808Zm-4 4a1.74 1.74 0 0 1-1.277-.531A1.74 1.74 0 0 1 2 19.192V6.75c0-.213.072-.39.216-.534A.726.726 0 0 1 2.75 6c.213 0 .391.072.534.216a.725.725 0 0 1 .216.534v12.442a.3.3 0 0 0 .087.221.3.3 0 0 0 .22.087H16.25c.212 0 .39.072.534.216a.726.726 0 0 1 .216.534.726.726 0 0 1-.216.535.726.726 0 0 1-.534.215H3.808ZM13.5 9.23c-.348 0-.643-.12-.886-.364a1.206 1.206 0 0 1-.364-.885c0-.348.121-.643.364-.886s.538-.364.886-.364.643.121.886.364.364.538.364.886c0 .347-.121.643-.364.886a1.205 1.205 0 0 1-.886.364ZM9.835 15.5h7.33a5.564 5.564 0 0 0-1.724-.923 6.207 6.207 0 0 0-1.941-.308c-.667 0-1.314.103-1.941.308a5.564 5.564 0 0 0-1.724.923Z"/>
</svg>
