<svg width="24" height="24" fill="currentColor" viewBox="0 0 24 24">
  <path d="M12 13.063 8.753 16.31a.7.7 0 0 1-.526.213.734.734 0 0 1-.527-.222.723.723 0 0 1-.218-.532c0-.21.073-.387.218-.532L10.936 12 7.69 8.779a.706.706 0 0 1-.212-.532.74.74 0 0 1 .222-.531.723.723 0 0 1 .531-.218c.21 0 .387.073.532.218L12 10.96l3.22-3.245a.717.717 0 0 1 .528-.218c.206 0 .382.073.527.218a.74.74 0 0 1 .232.539.692.692 0 0 1-.232.524L13.038 12l3.246 3.246c.145.145.218.32.218.527a.717.717 0 0 1-.218.527.74.74 0 0 1-.54.233.691.691 0 0 1-.523-.233L12 13.063Z"/>
</svg>
