<svg width="24" height="24" fill="currentColor" viewBox="0 0 24 24">
  <path d="M8.232 7.108c-.31 0-.588.112-.808.332a1.13 1.13 0 0 0-.336.801c-.005.312.105.592.327.814l2.969 2.946-2.96 2.96c-.22.22-.331.497-.331.807 0 .31.111.588.331.808.217.217.49.331.797.336a1.09 1.09 0 0 0 .809-.327l2.97-2.97 2.94 2.956c.216.228.49.352.805.352.316 0 .593-.125.815-.347.219-.219.332-.494.332-.803 0-.31-.113-.584-.332-.803L13.59 12l2.956-2.94a1.08 1.08 0 0 0 .352-.805 1.13 1.13 0 0 0-.347-.815 1.107 1.107 0 0 0-.803-.332c-.31 0-.584.113-.803.332l-2.946 2.968L9.04 7.44a1.112 1.112 0 0 0-.807-.332Z"/>
</svg>
