<svg width="24" height="24" fill="currentColor" viewBox="0 0 24 24">
  <path d="M4.794 19.185c-.32 0-.589-.11-.808-.33a1.094 1.094 0 0 1-.33-.807c0-.32.11-.589.33-.808.22-.22.489-.33.808-.33h.928v-6.779c0-1.439.428-2.72 1.283-3.843.855-1.122 1.973-1.856 3.355-2.202v-.664c0-.456.158-.843.476-1.161a1.58 1.58 0 0 1 1.161-.476c.457 0 .844.158 1.161.476.318.318.476.705.476 1.161v.664c1.386.346 2.505 1.08 3.358 2.202.853 1.123 1.28 2.404 1.28 3.843v6.78h.934c.32 0 .589.109.808.329.22.22.33.489.33.808 0 .319-.11.588-.33.808-.22.22-.488.33-.808.33H4.794Zm7.209 3.03a2 2 0 0 1-1.463-.605 1.985 1.985 0 0 1-.609-1.46h4.138a1.99 1.99 0 0 1-.606 1.46 1.99 1.99 0 0 1-1.46.605Z"/>
</svg>
