<svg width="24" height="24" fill="currentColor" viewBox="0 0 24 24">
  <path d="M4.25 18.7v-1.5h2V9.95c0-1.367.421-2.571 1.263-3.613a5.664 5.664 0 0 1 3.237-2.012v-.7c0-.35.121-.646.363-.888.242-.241.537-.362.887-.362s.646.12.887.362c.242.242.363.538.363.888v.7c1.317.3 2.396.97 3.238 2.012.841 1.042 1.262 2.246 1.262 3.613v7.25h2v1.5H4.25ZM12 21.625c-.5 0-.925-.175-1.275-.525a1.736 1.736 0 0 1-.525-1.275h3.6c0 .5-.175.925-.525 1.275-.35.35-.775.525-1.275.525ZM7.75 17.2h8.5V9.95c0-1.183-.412-2.188-1.238-3.013C14.187 6.112 13.183 5.7 12 5.7s-2.187.412-3.012 1.237c-.825.825-1.238 1.83-1.238 3.013v7.25Z"/>
</svg>
