<svg width="24" height="24" fill="currentColor" viewBox="0 0 24 24">
  <path d="m9.048 15.538-.873 3.468a.66.66 0 0 1-.685.532.702.702 0 0 1-.573-.279.646.646 0 0 1-.127-.613l.777-3.108h-2.85a.732.732 0 0 1-.603-.286.696.696 0 0 1-.131-.646.716.716 0 0 1 .268-.416.757.757 0 0 1 .466-.152h3.225l1.02-4.077h-2.85a.732.732 0 0 1-.603-.286.696.696 0 0 1-.132-.646.716.716 0 0 1 .268-.416.757.757 0 0 1 .466-.152h3.225l.874-3.467a.66.66 0 0 1 .238-.39.704.704 0 0 1 .446-.143c.233 0 .425.093.573.28.149.185.191.39.127.613l-.777 3.107h4.135l.873-3.467a.66.66 0 0 1 .684-.533.7.7 0 0 1 .574.28c.148.185.19.39.126.613l-.776 3.107h2.85c.25 0 .45.096.602.287a.696.696 0 0 1 .132.646.716.716 0 0 1-.268.415.757.757 0 0 1-.466.152h-3.225l-1.02 4.077h2.85c.25 0 .451.096.603.287a.696.696 0 0 1 .132.646.716.716 0 0 1-.268.415.756.756 0 0 1-.467.152h-3.225l-.873 3.468a.66.66 0 0 1-.684.532.7.7 0 0 1-.573-.279.646.646 0 0 1-.127-.613l.777-3.108H9.048Zm.375-1.5h4.135l1.019-4.077h-4.135l-1.02 4.077Z"/>
</svg>
