<svg width="24" height="24" fill="currentColor" viewBox="0 0 24 24">
  <path d="M12.145 21.155c-.7 0-1.292-.242-1.775-.725-.484-.483-.725-1.075-.725-1.775s.241-1.292.725-1.775c.483-.483 1.075-.725 1.775-.725s1.291.242 1.775.725c.483.483.725 1.075.725 1.775s-.242 1.292-.725 1.775a2.416 2.416 0 0 1-1.775.725Zm0-11c1.238 0 2.412.196 3.523.588a11.3 11.3 0 0 1 3.036 1.614c.35.258.529.603.54 1.036a1.48 1.48 0 0 1-.46 1.122 1.595 1.595 0 0 1-1.115.476c-.44.014-.84-.099-1.197-.34a7.949 7.949 0 0 0-2.013-.963 7.582 7.582 0 0 0-2.314-.348c-.81 0-1.579.115-2.306.345-.727.23-1.397.55-2.01.96a1.968 1.968 0 0 1-1.206.334 1.623 1.623 0 0 1-1.119-.483 1.54 1.54 0 0 1-.449-1.12c.004-.43.181-.774.53-1.032a11.15 11.15 0 0 1 3.036-1.607 10.618 10.618 0 0 1 3.524-.582Zm0-6c2.067 0 4.015.338 5.842 1.013a16.477 16.477 0 0 1 4.936 2.858c.353.296.54.662.56 1.101a1.45 1.45 0 0 1-.448 1.138c-.303.303-.675.46-1.116.47a1.83 1.83 0 0 1-1.197-.402 13.616 13.616 0 0 0-3.954-2.21 13.568 13.568 0 0 0-4.623-.783c-1.631 0-3.173.261-4.624.783a13.616 13.616 0 0 0-3.954 2.21 1.82 1.82 0 0 1-1.194.402 1.569 1.569 0 0 1-1.113-.47c-.32-.32-.47-.7-.452-1.138.02-.439.205-.805.558-1.1a16.478 16.478 0 0 1 4.936-2.859c1.828-.675 3.775-1.013 5.843-1.013Z"/>
</svg>
