<svg width="24" height="24" fill="currentColor" viewBox="0 0 24 24">
  <path d="M11.51 19.867a1.95 1.95 0 0 1-1.433-.586 1.95 1.95 0 0 1-.586-1.434c0-.565.195-1.043.586-1.433a1.95 1.95 0 0 1 1.433-.586 1.95 1.95 0 0 1 1.434.586c.39.39.586.868.586 1.433a1.95 1.95 0 0 1-.586 1.434 1.95 1.95 0 0 1-1.434.586Zm0-9.943c1.212 0 2.358.2 3.438.6 1.08.4 2.056.954 2.928 1.66.25.192.379.441.387.747.008.306-.099.57-.322.793-.213.213-.475.32-.785.322a1.38 1.38 0 0 1-.842-.27 8 8 0 0 0-2.215-1.188 7.726 7.726 0 0 0-2.589-.433c-.907 0-1.77.144-2.588.433a8.003 8.003 0 0 0-2.216 1.188c-.25.182-.53.27-.84.263a1.105 1.105 0 0 1-.786-.33 1.093 1.093 0 0 1-.315-.793.913.913 0 0 1 .38-.747 10.151 10.151 0 0 1 2.928-1.652 9.934 9.934 0 0 1 3.437-.593Zm0-6c2.058 0 3.985.347 5.782 1.04a15.806 15.806 0 0 1 4.818 2.914c.25.213.382.476.396.79.013.315-.092.583-.315.806a1.05 1.05 0 0 1-.8.318 1.377 1.377 0 0 1-.856-.325 13.732 13.732 0 0 0-9.025-3.312 13.732 13.732 0 0 0-9.025 3.312 1.378 1.378 0 0 1-.855.325 1.05 1.05 0 0 1-.8-.318 1.031 1.031 0 0 1-.315-.805 1.06 1.06 0 0 1 .395-.79 15.807 15.807 0 0 1 4.82-2.916c1.796-.693 3.724-1.04 5.781-1.04Z"/>
</svg>
