<svg width="24" height="24" fill="currentColor" viewBox="0 0 24 24">
  <path d="M5.3 20.5c-.5 0-.925-.175-1.275-.525A1.736 1.736 0 0 1 3.5 18.7V5.3c0-.5.175-.925.525-1.275.35-.35.775-.525 1.275-.525h5.575c.2 0 .375.07.525.212a.71.71 0 0 1 .225.538.706.706 0 0 1-.225.537.74.74 0 0 1-.525.213H5.3c-.067 0-.133.033-.2.1s-.1.133-.1.2v13.4c0 .067.033.133.1.2s.133.1.2.1h13.4c.067 0 .133-.033.2-.1s.1-.133.1-.2v-5.575c0-.2.07-.375.212-.525a.71.71 0 0 1 .538-.225.71.71 0 0 1 .538.225c.141.15.212.325.212.525V18.7c0 .5-.175.925-.525 1.275-.35.35-.775.525-1.275.525H5.3Zm3.9-5.7a.655.655 0 0 1-.225-.513c0-.208.075-.387.225-.537L17.95 5h-3.2a.726.726 0 0 1-.75-.75.728.728 0 0 1 .75-.75h4.85a.87.87 0 0 1 .638.262.87.87 0 0 1 .262.638v4.85a.728.728 0 0 1-.75.75.728.728 0 0 1-.75-.75v-3.2l-8.775 8.775a.641.641 0 0 1-.5.225.687.687 0 0 1-.525-.25Z"/>
</svg>
