<svg width="24" height="24" fill="currentColor" viewBox="0 0 24 24">
  <path d="M5.075 21.2c-.633 0-1.17-.22-1.612-.662a2.196 2.196 0 0 1-.663-1.613V5.075c0-.633.221-1.171.663-1.613A2.194 2.194 0 0 1 5.075 2.8h5.775A1.114 1.114 0 0 1 12 3.925c0 .333-.108.608-.325.825a1.118 1.118 0 0 1-.825.325H5.075v13.85h13.85V13.15c0-.333.109-.608.325-.825.217-.217.492-.325.825-.325.317 0 .584.108.8.325.217.217.325.492.325.825v5.775c0 .633-.22 1.171-.662 1.613-.442.441-.98.662-1.613.662H5.075ZM9.1 14.9a1.007 1.007 0 0 1-.325-.775c0-.317.109-.583.325-.8l8.25-8.25h-2.2c-.333 0-.608-.108-.825-.325A1.118 1.118 0 0 1 14 3.925c0-.317.109-.583.325-.8.217-.217.492-.325.825-.325h4.925c.317 0 .584.108.8.325.217.217.325.483.325.8V8.85c0 .333-.108.608-.325.825a1.087 1.087 0 0 1-.8.325c-.333 0-.608-.108-.825-.325a1.118 1.118 0 0 1-.325-.825v-2.2l-8.275 8.275a.992.992 0 0 1-.762.325c-.308 0-.571-.117-.788-.35Z"/>
</svg>
