<svg width="24" height="24" fill="currentColor" viewBox="0 0 24 24">
  <path d="M14.539 17.74c.193 0 .36-.07.5-.21a.687.687 0 0 0 .211-.501c0-.194-.07-.36-.21-.501a.684.684 0 0 0-.501-.21.688.688 0 0 0-.502.21.684.684 0 0 0-.21.5c0 .195.07.361.21.502.14.14.308.21.502.21Zm2.461 0c.194 0 .36-.07.5-.21a.684.684 0 0 0 .212-.501c0-.194-.07-.36-.211-.501a.684.684 0 0 0-.501-.21c-.194 0-.36.07-.501.21a.684.684 0 0 0-.21.5c0 .195.07.361.21.502.14.14.307.21.501.21Zm2.462 0c.193 0 .36-.07.5-.21a.687.687 0 0 0 .211-.501c0-.194-.07-.36-.21-.501a.684.684 0 0 0-.502-.21c-.193 0-.36.07-.5.21a.684.684 0 0 0-.211.5c0 .195.07.361.21.502.14.14.308.21.502.21ZM4.308 19.471c-.499 0-.925-.177-1.278-.53a1.741 1.741 0 0 1-.53-1.278V4.28c0-.499.177-.925.53-1.278.353-.353.779-.53 1.278-.53h13.384c.499 0 .925.177 1.278.53.353.353.53.78.53 1.278v6.325a6.399 6.399 0 0 0-1.5-.442V4.279a.294.294 0 0 0-.096-.212.294.294 0 0 0-.212-.096H4.308a.294.294 0 0 0-.212.096A.294.294 0 0 0 4 4.28v13.384c0 .077.032.148.096.212a.294.294 0 0 0 .212.096h5.857a5.19 5.19 0 0 0 .433 1.5h-6.29ZM4 16.971v1-14 6.19-.074 6.884Zm2.25-2.115c0 .213.072.39.215.534a.726.726 0 0 0 .535.216h3.267c.044-.26.109-.514.194-.76.086-.248.18-.494.281-.74H7a.726.726 0 0 0-.535.215.726.726 0 0 0-.215.535Zm0-3.885a.73.73 0 0 0 .215.535.726.726 0 0 0 .535.214h5.59a7.03 7.03 0 0 1 1.38-.918 5.827 5.827 0 0 1 1.568-.526 1.902 1.902 0 0 0-.375-.048 10.28 10.28 0 0 0-.375-.008H7a.726.726 0 0 0-.535.216.726.726 0 0 0-.215.534Zm0-3.884c0 .212.072.39.215.534A.726.726 0 0 0 7 7.837h8a.726.726 0 0 0 .535-.216.726.726 0 0 0 .215-.534.726.726 0 0 0-.215-.535.726.726 0 0 0-.535-.215H7a.726.726 0 0 0-.535.215.726.726 0 0 0-.215.535ZM17 21.529c-1.249 0-2.31-.438-3.187-1.314-.875-.875-1.313-1.937-1.313-3.186 0-1.249.438-2.311 1.313-3.187.876-.875 1.938-1.313 3.187-1.313 1.249 0 2.31.438 3.186 1.313.876.876 1.314 1.938 1.314 3.187 0 1.249-.438 2.31-1.314 3.186-.875.876-1.937 1.314-3.186 1.314Z"/>
</svg>
