<svg width="24" height="24" fill="currentColor" viewBox="0 0 24 24">
  <path d="M12 22.203a9.953 9.953 0 0 1-3.984-.802 10.292 10.292 0 0 1-3.237-2.18 10.29 10.29 0 0 1-2.18-3.237A9.952 9.952 0 0 1 1.797 12c0-1.415.267-2.743.802-3.984A10.291 10.291 0 0 1 4.78 4.78 10.291 10.291 0 0 1 8.017 2.6 9.952 9.952 0 0 1 12 1.797c1.415 0 2.743.267 3.984.802a10.29 10.29 0 0 1 3.237 2.18 10.292 10.292 0 0 1 2.18 3.237A9.953 9.953 0 0 1 22.203 12c0 .442-.024.876-.072 1.301a8.621 8.621 0 0 1-.235 1.251 3.383 3.383 0 0 0-.94-.74 3.113 3.113 0 0 0-1.16-.352 6.69 6.69 0 0 0 .1-.717c.022-.245.032-.492.032-.743 0-2.217-.767-4.093-2.3-5.627-1.535-1.534-3.41-2.301-5.628-2.301-2.217 0-4.093.767-5.627 2.3C4.839 7.908 4.072 9.783 4.072 12s.767 4.093 2.3 5.627c1.535 1.534 3.41 2.301 5.628 2.301a7.84 7.84 0 0 0 2.396-.363 8.042 8.042 0 0 0 2.101-1.02c.204.34.467.636.789.89.321.255.672.449 1.054.581a10.165 10.165 0 0 1-2.91 1.61 10.081 10.081 0 0 1-3.43.577Zm7.382-4.006c-.386 0-.714-.134-.984-.404a1.338 1.338 0 0 1-.404-.983c0-.386.135-.714.404-.983.27-.27.598-.405.984-.405.385 0 .713.135.983.405s.404.597.404.983-.135.713-.404.983c-.27.27-.598.404-.983.404Zm-6.292-6.645 2.892 2.893c.207.207.31.463.308.768-.002.306-.107.56-.314.763a1.044 1.044 0 0 1-.769.302 1.045 1.045 0 0 1-.762-.308l-3.199-3.198a1.124 1.124 0 0 1-.336-.815V8.12c0-.308.105-.566.315-.776.21-.21.468-.314.775-.314s.566.105.775.314c.21.21.315.468.315.776v3.432Z"/>
</svg>
