<svg width="24" height="24" fill="currentColor" viewBox="0 0 24 24">
  <path d="M12.402 21.05a9.147 9.147 0 0 1-3.673-.748 9.652 9.652 0 0 1-3.02-2.04 9.635 9.635 0 0 1-2.039-3.024 9.197 9.197 0 0 1-.749-3.687c0-1.32.257-2.557.77-3.713A9.574 9.574 0 0 1 5.78 4.822a9.89 9.89 0 0 1 3.088-2.027 9.623 9.623 0 0 1 3.773-.744c1.25 0 2.434.213 3.553.64a9.443 9.443 0 0 1 2.95 1.77 8.549 8.549 0 0 1 2.024 2.687 7.642 7.642 0 0 1 .753 3.376c0 1.73-.514 3.084-1.543 4.061-1.029.977-2.348 1.466-3.957 1.466H14.61c-.285 0-.512.093-.683.279a.944.944 0 0 0-.256.66c0 .308.125.63.375.963.25.333.375.716.375 1.148 0 .66-.182 1.15-.548 1.47-.365.32-.855.48-1.47.48Zm-5.48-8.75c.356 0 .653-.119.892-.357.238-.238.357-.536.357-.892 0-.357-.119-.654-.357-.893a1.21 1.21 0 0 0-.893-.357c-.356 0-.653.119-.892.357a1.21 1.21 0 0 0-.358.893c0 .356.12.654.358.892.239.239.536.358.892.358Zm3-4c.356 0 .653-.118.892-.357.238-.238.357-.536.357-.892 0-.357-.119-.654-.357-.893a1.211 1.211 0 0 0-.893-.357c-.356 0-.653.119-.892.357a1.21 1.21 0 0 0-.358.893c0 .356.12.654.358.892.239.239.536.358.892.358Zm5 0c.356 0 .653-.118.892-.357.238-.238.357-.536.357-.892 0-.357-.119-.654-.357-.893a1.211 1.211 0 0 0-.893-.357c-.356 0-.653.119-.892.357a1.21 1.21 0 0 0-.358.893c0 .356.12.654.358.892.239.239.536.358.892.358Zm3 4c.356 0 .653-.119.892-.357.238-.238.357-.536.357-.892 0-.357-.119-.654-.357-.893a1.21 1.21 0 0 0-.893-.357c-.356 0-.654.119-.892.357a1.21 1.21 0 0 0-.358.893c0 .356.12.654.358.892.238.239.536.358.892.358Zm-5.52 7.25c.163 0 .29-.04.382-.12a.416.416 0 0 0 .137-.33c0-.233-.125-.495-.375-.786-.25-.29-.375-.747-.375-1.367 0-.713.242-1.29.725-1.733.484-.442 1.075-.663 1.775-.663h1.75c1.177 0 2.138-.345 2.883-1.035.745-.69 1.117-1.687 1.117-2.992 0-2.023-.775-3.691-2.327-5.004-1.55-1.313-3.369-1.97-5.453-1.97-2.286 0-4.228.776-5.824 2.326C5.22 7.426 4.42 9.317 4.42 11.55c0 2.216.78 4.104 2.338 5.662 1.558 1.559 3.44 2.338 5.643 2.338Z"/>
</svg>
