<svg width="24" height="24" fill="currentColor" viewBox="0 0 24 24">
  <path d="M6.054 19H8.25c.213 0 .39.072.534.216A.726.726 0 0 1 9 19.75a.726.726 0 0 1-.216.535.726.726 0 0 1-.534.215H4.404a.875.875 0 0 1-.644-.26.875.875 0 0 1-.26-.644V15.75c0-.213.072-.39.216-.534A.726.726 0 0 1 4.25 15c.213 0 .391.072.535.216A.726.726 0 0 1 5 15.75v2.196l2.823-2.823a.724.724 0 0 1 .522-.212.707.707 0 0 1 .532.212c.145.145.217.32.217.527a.718.718 0 0 1-.217.527L6.054 19ZM19 6.054l-2.823 2.823a.725.725 0 0 1-.522.212.707.707 0 0 1-.532-.212.717.717 0 0 1-.217-.527c0-.206.072-.382.217-.527L17.946 5H15.75a.726.726 0 0 1-.534-.216A.726.726 0 0 1 15 4.25c0-.213.072-.391.216-.535a.726.726 0 0 1 .534-.215h3.846c.256 0 .47.087.644.26.173.173.26.388.26.644V8.25c0 .212-.072.39-.216.534A.726.726 0 0 1 19.75 9a.725.725 0 0 1-.535-.216A.726.726 0 0 1 19 8.25V6.054Z"/>
</svg>
