<svg width="24" height="24" fill="currentColor" viewBox="0 0 24 24">
  <path d="M13.75 12.75c-.699 0-1.29-.242-1.774-.726a2.414 2.414 0 0 1-.726-1.774c0-.699.242-1.29.726-1.774a2.413 2.413 0 0 1 1.774-.726c.699 0 1.29.242 1.774.726s.726 1.075.726 1.774c0 .699-.242 1.29-.726 1.774a2.414 2.414 0 0 1-1.774.726Zm-6.596 3.096a1.74 1.74 0 0 1-1.277-.53 1.74 1.74 0 0 1-.53-1.278V6.461c0-.497.176-.922.53-1.276a1.74 1.74 0 0 1 1.277-.531h13.192c.497 0 .923.177 1.277.53.354.355.53.78.53 1.277v7.577c0 .498-.176.923-.53 1.277a1.74 1.74 0 0 1-1.277.531H7.154Zm1.5-1.5h10.192c0-.499.177-.925.531-1.278.354-.353.78-.53 1.277-.53V7.961a1.74 1.74 0 0 1-1.278-.53 1.743 1.743 0 0 1-.53-1.277H8.654c0 .498-.177.924-.531 1.278-.354.353-.78.53-1.277.53v4.576c.499 0 .925.177 1.278.531.353.354.53.78.53 1.277Zm-5 5a1.74 1.74 0 0 1-1.277-.531 1.74 1.74 0 0 1-.53-1.277V8.385c0-.213.071-.391.215-.535a.726.726 0 0 1 .534-.215c.213 0 .391.071.535.215a.726.726 0 0 1 .215.535v9.153c0 .077.032.148.096.212a.294.294 0 0 0 .212.096h14.769c.213 0 .39.072.534.216a.726.726 0 0 1 .216.534.726.726 0 0 1-.216.535.726.726 0 0 1-.534.215H3.653Zm3.5-5h-.308V6.154h.308a.296.296 0 0 0-.217.091.296.296 0 0 0-.09.216v7.577c0 .084.03.156.09.217a.3.3 0 0 0 .217.091Z"/>
</svg>
