<svg width="24" height="24" fill="currentColor" viewBox="0 0 24 24">
  <path d="M7.663 10.817a3.052 3.052 0 0 1-2.237-.926A3.048 3.048 0 0 1 4.5 7.654c0-.874.309-1.62.926-2.237a3.049 3.049 0 0 1 2.237-.927c.874 0 1.62.31 2.237.927.618.617.927 1.363.927 2.237 0 .874-.309 1.62-.927 2.237a3.048 3.048 0 0 1-2.237.926Zm0-1.5a1.6 1.6 0 0 0 1.178-.485c.324-.323.486-.716.486-1.178 0-.462-.162-.854-.485-1.178a1.603 1.603 0 0 0-1.178-.486c-.462 0-.855.162-1.178.485A1.603 1.603 0 0 0 6 7.653c0 .462.162.855.485 1.179.323.323.716.485 1.178.485ZM16.346 19.5c-.874 0-1.62-.309-2.237-.927a3.048 3.048 0 0 1-.926-2.236c0-.874.309-1.62.926-2.237a3.047 3.047 0 0 1 2.237-.927c.874 0 1.62.309 2.237.927.618.617.927 1.363.927 2.237 0 .873-.31 1.619-.927 2.236a3.049 3.049 0 0 1-2.237.927Zm0-1.5c.462 0 .854-.162 1.178-.485a1.6 1.6 0 0 0 .485-1.178 1.6 1.6 0 0 0-.485-1.178 1.602 1.602 0 0 0-1.177-.486c-.462 0-.855.162-1.179.485a1.603 1.603 0 0 0-.485 1.178c0 .462.161.855.485 1.179.323.323.716.485 1.178.485Zm-11.223.877a.71.71 0 0 1-.208-.524.7.7 0 0 1 .208-.52L17.852 5.104a.686.686 0 0 1 .517-.203.719.719 0 0 1 .725.736.7.7 0 0 1-.207.52l-12.73 12.73a.686.686 0 0 1-.516.203.72.72 0 0 1-.518-.213Z"/>
</svg>
