<svg width="24" height="24" fill="currentColor" viewBox="0 0 24 24">
  <path d="M6.5 19.5V6.02c0-.423.148-.781.443-1.077A1.465 1.465 0 0 1 8.02 4.5h7.277a1.785 1.785 0 0 1 1.48.773l1.886 2.692c.214.318.32.663.32 1.035 0 .372-.106.717-.32 1.035l-1.885 2.692a1.785 1.785 0 0 1-1.48.773H8v6a.726.726 0 0 1-.215.535.726.726 0 0 1-.535.215.726.726 0 0 1-.535-.215.726.726 0 0 1-.215-.535ZM8 12h7.336a.288.288 0 0 0 .14-.034.327.327 0 0 0 .11-.1l1.799-2.693A.32.32 0 0 0 17.433 9a.32.32 0 0 0-.048-.173l-1.799-2.692a.289.289 0 0 0-.25-.135H8v6Z"/>
</svg>
