<svg width="24" height="24" fill="currentColor" viewBox="0 0 24 24">
  <path d="m19.5 11.122-1.305 1.28c-.215.21-.477.32-.786.326a1.069 1.069 0 0 1-.805-.332 1.085 1.085 0 0 1-.323-.799c0-.317.108-.583.323-.799l1.28-1.298-1.28-1.28a1.057 1.057 0 0 1-.323-.786c0-.312.108-.583.323-.81a1.1 1.1 0 0 1 .808-.342c.311 0 .58.113.808.341L19.5 7.91l1.28-1.299c.21-.228.472-.343.785-.345.313-.002.583.111.811.34.228.227.342.497.342.807 0 .311-.114.58-.342.809L21.097 9.5l1.298 1.304c.224.228.334.493.33.796-.005.303-.12.568-.349.796a1.164 1.164 0 0 1-.798.332 1.061 1.061 0 0 1-.799-.332l-1.28-1.274Zm-10.482.776c-1.16 0-2.15-.41-2.972-1.231-.82-.822-1.232-1.812-1.232-2.972s.411-2.15 1.232-2.968c.821-.82 1.812-1.23 2.972-1.23s2.15.41 2.971 1.23c.821.819 1.232 1.808 1.232 2.968s-.41 2.15-1.232 2.972c-.821.82-1.812 1.231-2.971 1.231ZM.814 18.03v-.74c0-.603.156-1.158.468-1.664a3.097 3.097 0 0 1 1.246-1.16c1.045-.52 2.11-.912 3.192-1.174a14.108 14.108 0 0 1 6.608-.003c1.082.26 2.142.65 3.18 1.171.519.266.934.652 1.246 1.157.311.505.467 1.062.467 1.673v.74c0 .63-.222 1.166-.665 1.61-.444.443-.98.665-1.61.665H3.089c-.63 0-1.166-.222-1.61-.665a2.193 2.193 0 0 1-.665-1.61Z"/>
</svg>
