<svg width="24" height="24" fill="currentColor" viewBox="0 0 24 24">
  <path d="m19.5 10.579-1.573 1.548a.743.743 0 0 1-.515.22.7.7 0 0 1-.541-.222.714.714 0 0 1-.215-.525c0-.206.072-.382.217-.527L18.431 9.5l-1.558-1.548a.677.677 0 0 1-.217-.513c0-.206.072-.386.215-.54a.742.742 0 0 1 .537-.234c.2 0 .38.078.534.233L19.5 8.456l1.548-1.573a.656.656 0 0 1 .513-.233c.206 0 .386.078.54.233a.735.735 0 0 1 .233.534c0 .202-.077.38-.232.535L20.554 9.5l1.563 1.573a.705.705 0 0 1 .22.522.787.787 0 0 1-.762.757.699.699 0 0 1-.527-.225L19.5 10.579ZM9 11.692c-.963 0-1.786-.342-2.472-1.028C5.843 9.98 5.5 9.154 5.5 8.192s.343-1.786 1.028-2.471C7.214 5.035 8.038 4.692 9 4.692s1.786.343 2.472 1.029c.685.685 1.028 1.509 1.028 2.471 0 .963-.343 1.787-1.028 2.472-.686.686-1.51 1.028-2.472 1.028Zm-7.5 6.096v-.703c0-.49.133-.944.399-1.36a2.664 2.664 0 0 1 1.066-.963 14.507 14.507 0 0 1 2.992-1.09 12.95 12.95 0 0 1 6.086 0c1.006.242 2.003.605 2.992 1.09.444.224.8.545 1.066.962.266.417.399.87.399 1.36v.704c0 .422-.148.78-.443 1.076a1.465 1.465 0 0 1-1.076.444H3.019c-.422 0-.78-.148-1.076-.444a1.465 1.465 0 0 1-.443-1.076Zm1.5.02h12v-.723a.98.98 0 0 0-.176-.563 1.333 1.333 0 0 0-.478-.422 12.854 12.854 0 0 0-2.635-.964 11.39 11.39 0 0 0-5.422 0 12.83 12.83 0 0 0-2.635.964c-.201.109-.36.25-.478.422a.98.98 0 0 0-.176.563v.723Zm6-7.616c.55 0 1.02-.195 1.412-.587.392-.392.588-.863.588-1.413s-.196-1.02-.588-1.412A1.926 1.926 0 0 0 9 6.192c-.55 0-1.02.196-1.413.588A1.926 1.926 0 0 0 7 8.192c0 .55.196 1.021.587 1.413.392.392.863.587 1.413.587Z"/>
</svg>
