<svg width="24" height="24" fill="currentColor" viewBox="0 0 24 24">
  <path d="M12 17.115c1.147 0 2.12-.399 2.918-1.197s1.197-1.77 1.197-2.918c0-1.148-.399-2.12-1.197-2.918S13.148 8.885 12 8.885c-1.148 0-2.12.399-2.918 1.197S7.885 11.852 7.885 13c0 1.147.399 2.12 1.197 2.918s1.77 1.197 2.918 1.197Zm0-1.5c-.739 0-1.359-.25-1.862-.754-.502-.502-.753-1.123-.753-1.861 0-.739.25-1.359.753-1.862.503-.502 1.123-.753 1.862-.753.738 0 1.359.25 1.861.753.503.503.754 1.123.754 1.862 0 .738-.25 1.359-.754 1.861-.502.503-1.123.754-1.861.754ZM4.308 20.5c-.505 0-.933-.175-1.283-.525a1.745 1.745 0 0 1-.525-1.283V7.308c0-.505.175-.933.525-1.283.35-.35.778-.525 1.283-.525h3.054l1.307-1.417c.164-.181.363-.323.595-.427.233-.104.478-.156.736-.156h4c.258 0 .503.052.736.156.232.104.43.246.595.427L16.638 5.5h3.054c.505 0 .933.175 1.283.525.35.35.525.778.525 1.283v11.384c0 .505-.175.933-.525 1.283-.35.35-.778.525-1.283.525H4.308Zm0-1.5h15.384a.3.3 0 0 0 .221-.087.3.3 0 0 0 .087-.22V7.307a.3.3 0 0 0-.087-.221.3.3 0 0 0-.22-.087h-3.724l-1.834-2h-4.27L8.031 7H4.308a.3.3 0 0 0-.221.087.3.3 0 0 0-.087.22v11.385a.3.3 0 0 0 .087.221.3.3 0 0 0 .22.087Z"/>
</svg>
