<svg width="24" height="24" fill="currentColor" viewBox="0 0 24 24">
  <path d="M12.75 11.25h7.22c-.193-1.93-.962-3.569-2.307-4.917-1.346-1.35-2.983-2.116-4.913-2.302v7.219Zm-1.5 8.72V4.03c-2.062.187-3.785 1.04-5.171 2.561C4.693 8.112 4 9.915 4 12s.693 3.888 2.079 5.409c1.386 1.52 3.11 2.374 5.171 2.56Zm1.5 0c1.93-.176 3.57-.941 4.92-2.295s2.117-2.995 2.3-4.925h-7.22v7.22Zm-.748 1.53a9.254 9.254 0 0 1-3.706-.748 9.596 9.596 0 0 1-3.016-2.03 9.595 9.595 0 0 1-2.032-3.016 9.246 9.246 0 0 1-.748-3.704c0-1.314.25-2.55.748-3.706a9.596 9.596 0 0 1 2.03-3.016 9.594 9.594 0 0 1 3.016-2.032 9.246 9.246 0 0 1 3.704-.748c1.314 0 2.547.25 3.697.749 1.15.5 2.156 1.18 3.017 2.04a9.66 9.66 0 0 1 2.039 3.015c.5 1.15.749 2.383.749 3.699 0 1.3-.25 2.528-.748 3.683a9.732 9.732 0 0 1-2.03 3.026 9.494 9.494 0 0 1-3.016 2.04 9.255 9.255 0 0 1-3.704.748Z"/>
</svg>
