<svg width="24" height="24" fill="currentColor" viewBox="0 0 24 24">
  <path d="M10.162 8.161V2.797h8.772c.63 0 1.167.221 1.61.665.444.443.665.98.665 1.61v3.09H10.162Zm-5.09 13.042c-.63 0-1.166-.222-1.61-.665a2.193 2.193 0 0 1-.665-1.61v-8.767h5.365v11.042h-3.09ZM2.797 8.161v-3.09c0-.629.222-1.166.665-1.61.444-.443.98-.664 1.61-.664h3.09V8.16H2.797Zm10.34 11.072.756.774a.98.98 0 0 1 .292.72c0 .286-.104.532-.312.74a.994.994 0 0 1-.732.293.995.995 0 0 1-.733-.293l-2.487-2.48a1.098 1.098 0 0 1-.342-.802c0-.306.114-.573.342-.801l2.487-2.487c.195-.195.436-.296.723-.302a.98.98 0 0 1 .742.302c.196.195.296.437.303.724.006.287-.088.534-.283.742l-.756.774h2.048c.534 0 .993-.192 1.377-.575a1.88 1.88 0 0 0 .576-1.377v-2.092l-.775.774a1.001 1.001 0 0 1-.73.296.993.993 0 0 1-1.023-1.023c0-.293.098-.537.293-.733l2.48-2.486a1.1 1.1 0 0 1 .802-.342c.307 0 .574.114.802.342l2.486 2.486a.99.99 0 0 1 .293.73.991.991 0 0 1-.293.73.994.994 0 0 1-.732.293.995.995 0 0 1-.733-.293l-.775-.774v2.092c0 1.116-.395 2.07-1.187 2.861-.791.791-1.745 1.187-2.86 1.187h-2.049Z"/>
</svg>
