<svg width="24" height="24" fill="currentColor" viewBox="0 0 24 24">
  <path d="M15.81 18.677c.661 0 1.22-.229 1.678-.685a2.278 2.278 0 0 0 .686-1.676c0-.661-.228-1.22-.685-1.678a2.277 2.277 0 0 0-1.676-.686c-.661 0-1.22.228-1.678.684a2.277 2.277 0 0 0-.686 1.677c0 .66.228 1.22.685 1.678a2.277 2.277 0 0 0 1.676.686Zm5.897 3.533a1.079 1.079 0 0 1-.796.317 1.08 1.08 0 0 1-.795-.317l-1.929-1.922a4.16 4.16 0 0 1-1.13.498c-.402.11-.818.166-1.246.166-1.288 0-2.383-.451-3.284-1.353-.902-.902-1.353-1.997-1.353-3.285s.45-2.383 1.353-3.285c.901-.902 1.996-1.352 3.284-1.352 1.289 0 2.384.45 3.285 1.352.902.902 1.353 1.997 1.353 3.285 0 .428-.056.843-.166 1.247a4.16 4.16 0 0 1-.498 1.13l1.922 1.928c.211.21.317.476.317.795 0 .32-.106.585-.317.796Zm-17.455-.33c-.63 0-1.167-.222-1.61-.665a2.193 2.193 0 0 1-.665-1.61V3.748c0-.63.221-1.166.665-1.61.443-.443.98-.665 1.61-.665h7.073a2.245 2.245 0 0 1 1.597.66l4.802 4.801a2.23 2.23 0 0 1 .66 1.598v1.663a6.589 6.589 0 0 0-2.572-.518 6.57 6.57 0 0 0-2.585.507 6.379 6.379 0 0 0-2.092 1.42H7.222c-.142 0-.277.027-.407.079a.992.992 0 0 0-.557.557 1.08 1.08 0 0 0-.078.405c0 .297.1.547.3.748.2.201.446.302.742.302h2.494c-.134.3-.239.61-.316.93-.077.32-.136.646-.177.98H7.222c-.296 0-.543.1-.743.3-.2.2-.3.447-.3.742s.1.544.3.745c.2.202.447.303.743.303h2.103c.171.865.5 1.66.988 2.383a6.2 6.2 0 0 0 1.874 1.802H4.252Zm6.856-18.132v3.863c0 .32.11.589.33.808.219.22.488.33.808.33h3.862l-5-5Z"/>
</svg>
