<svg width="24" height="24" fill="currentColor" viewBox="0 0 24 24">
  <path d="M3.5 20.88V3.12c0-.105.044-.174.13-.21a.228.228 0 0 1 .247.044l.715.629a.44.44 0 0 0 .585 0l.838-.704a.44.44 0 0 1 .585 0l.838.704a.44.44 0 0 0 .585 0l.839-.704a.44.44 0 0 1 .584 0l.839.704a.44.44 0 0 0 .584 0l.839-.704a.44.44 0 0 1 .584 0l.839.704a.439.439 0 0 0 .584 0l.839-.704a.44.44 0 0 1 .584 0l.839.704a.44.44 0 0 0 .584 0l.839-.704a.44.44 0 0 1 .585 0l.838.704a.44.44 0 0 0 .585 0l.715-.63a.228.228 0 0 1 .246-.042c.087.035.131.104.131.208v17.762c0 .104-.044.173-.13.208a.228.228 0 0 1-.247-.043l-.715-.629a.439.439 0 0 0-.585 0l-.838.704a.439.439 0 0 1-.585 0l-.838-.704a.44.44 0 0 0-.585 0l-.839.704a.439.439 0 0 1-.584 0l-.839-.704a.44.44 0 0 0-.584 0l-.839.704a.439.439 0 0 1-.584 0l-.839-.704a.44.44 0 0 0-.584 0l-.839.704a.439.439 0 0 1-.584 0l-.839-.704a.44.44 0 0 0-.585 0l-.838.704a.439.439 0 0 1-.585 0l-.838-.704a.44.44 0 0 0-.585 0l-.715.63a.228.228 0 0 1-.246.042c-.087-.035-.131-.104-.131-.208ZM7 16.443h10a.726.726 0 0 0 .535-.215.726.726 0 0 0 .215-.535.726.726 0 0 0-.215-.534.726.726 0 0 0-.535-.216H7a.726.726 0 0 0-.535.216.726.726 0 0 0-.215.534.73.73 0 0 0 .215.535.726.726 0 0 0 .535.215Zm0-3.692h10a.726.726 0 0 0 .535-.215.726.726 0 0 0 .215-.535.726.726 0 0 0-.215-.535.726.726 0 0 0-.535-.215H7a.726.726 0 0 0-.535.215.726.726 0 0 0-.215.535.73.73 0 0 0 .215.535.726.726 0 0 0 .535.214Zm0-3.692h10a.726.726 0 0 0 .535-.216.726.726 0 0 0 .215-.534.726.726 0 0 0-.215-.535.726.726 0 0 0-.535-.215H7a.726.726 0 0 0-.535.215.726.726 0 0 0-.215.535c0 .213.072.39.215.534A.726.726 0 0 0 7 9.058ZM5 19.1h14V4.9H5v14.2Z"/>
</svg>
