<svg width="24" height="24" fill="currentColor" viewBox="0 0 24 24">
  <path d="M15.877 10.137H9.775c-1.003 0-1.87.325-2.603.973-.734.65-1.1 1.456-1.1 2.42s.366 1.771 1.1 2.422c.733.65 1.6.976 2.603.976h6.016c.319 0 .588.11.808.33.22.22.33.489.33.808 0 .319-.11.588-.33.808a1.1 1.1 0 0 1-.808.33H9.775c-1.641 0-3.047-.545-4.22-1.633-1.172-1.087-1.758-2.433-1.758-4.035 0-1.603.586-2.949 1.758-4.039 1.173-1.09 2.579-1.635 4.22-1.635h6.102l-1.679-1.678a1.08 1.08 0 0 1-.316-.796 1.08 1.08 0 0 1 1.112-1.112c.32 0 .585.105.796.316l3.612 3.606c.112.112.194.236.245.373a1.2 1.2 0 0 1 .078.429 1.2 1.2 0 0 1-.078.429 1.052 1.052 0 0 1-.245.373l-3.612 3.605a1.08 1.08 0 0 1-.796.317 1.08 1.08 0 0 1-.796-.317 1.079 1.079 0 0 1-.316-.795c0-.32.105-.585.316-.796l1.68-1.679Z"/>
</svg>
