<svg width="24" height="24" fill="currentColor" viewBox="0 0 24 24">
  <path d="M16.642 9.837h-7.02c-1.045 0-1.943.343-2.695 1.028-.753.686-1.13 1.536-1.13 2.549 0 1.012.377 1.863 1.13 2.552.752.69 1.65 1.034 2.694 1.034h6.427c.213 0 .39.072.535.216a.726.726 0 0 1 .215.534.726.726 0 0 1-.215.535.726.726 0 0 1-.535.215H9.62c-1.463 0-2.716-.49-3.759-1.47-1.043-.979-1.564-2.184-1.564-3.616s.521-2.637 1.564-3.613c1.043-.976 2.296-1.464 3.76-1.464h7.02L14.386 6.08a.724.724 0 0 1-.212-.522.707.707 0 0 1 .212-.532.718.718 0 0 1 .527-.217c.207 0 .382.072.527.217l3.427 3.427a.826.826 0 0 1 .256.633.826.826 0 0 1-.256.633l-3.427 3.426a.725.725 0 0 1-.522.213.707.707 0 0 1-.532-.213.718.718 0 0 1-.217-.527c0-.206.072-.382.217-.527l2.256-2.255Z"/>
</svg>
