<svg width="24" height="24" fill="currentColor" viewBox="0 0 24 24">
  <path d="M10.243 22.462c.325-.015.612-.158.83-.411a14.882 14.882 0 0 0 2.838-4.533c.682-1.697 1.027-3.555 1.027-5.52 0-1.964-.345-3.821-1.027-5.52a14.907 14.907 0 0 0-2.846-4.542 1.138 1.138 0 0 0-.822-.401h-.007c-.364 0-.637.114-.85.329a1.06 1.06 0 0 0-.318.898c.031.289.15.558.353.799a12.524 12.524 0 0 1 3.21 8.438 12.524 12.524 0 0 1-3.2 8.425 1.485 1.485 0 0 0-.363.813c-.039.338.072.65.32.897.214.216.49.33.794.33l.061-.002Z"/>
</svg>
