<svg width="24" height="24" fill="currentColor" viewBox="0 0 24 24">
  <path d="M9.456 21.28a.68.68 0 0 0 .207.58.716.716 0 0 0 .562.214.752.752 0 0 0 .553-.275 14.458 14.458 0 0 0 2.772-4.425c.666-1.66.998-3.451.998-5.374 0-1.923-.332-3.714-.998-5.374A14.459 14.459 0 0 0 10.778 2.2a.752.752 0 0 0-.553-.275.716.716 0 0 0-.562.214.68.68 0 0 0-.207.58c.024.215.114.413.265.592l.001.002a12.94 12.94 0 0 1 2.43 3.961c.58 1.48.87 3.055.87 4.725 0 1.67-.29 3.245-.87 4.725a12.93 12.93 0 0 1-2.43 3.961l-.001.002a1.1 1.1 0 0 0-.265.593Z"/>
</svg>
