<svg width="24" height="24" fill="currentColor" viewBox="0 0 24 24">
  <path d="M12.005 19.625c-.45 0-.833-.158-1.15-.475A1.566 1.566 0 0 1 10.38 18c0-.45.158-.833.475-1.15.317-.317.7-.475 1.15-.475.45 0 .833.158 1.15.475.317.317.475.7.475 1.15 0 .45-.158.833-.475 1.15-.317.317-.7.475-1.15.475Zm6 0c-.45 0-.833-.158-1.15-.475A1.566 1.566 0 0 1 16.38 18c0-.45.158-.833.475-1.15.317-.317.7-.475 1.15-.475.45 0 .833.158 1.15.475.317.317.475.7.475 1.15 0 .45-.158.833-.475 1.15-.317.317-.7.475-1.15.475Zm-6-6c-.45 0-.833-.158-1.15-.475A1.566 1.566 0 0 1 10.38 12c0-.45.158-.833.475-1.15.317-.317.7-.475 1.15-.475.45 0 .833.158 1.15.475.317.317.475.7.475 1.15 0 .45-.158.833-.475 1.15-.317.317-.7.475-1.15.475Zm6 0c-.45 0-.833-.158-1.15-.475A1.566 1.566 0 0 1 16.38 12c0-.45.158-.833.475-1.15.317-.317.7-.475 1.15-.475.45 0 .833.158 1.15.475.317.317.475.7.475 1.15 0 .45-.158.833-.475 1.15-.317.317-.7.475-1.15.475Zm0-6c-.45 0-.833-.158-1.15-.475A1.566 1.566 0 0 1 16.38 6c0-.45.158-.833.475-1.15.317-.317.7-.475 1.15-.475.45 0 .833.158 1.15.475.317.317.475.7.475 1.15 0 .45-.158.833-.475 1.15-.317.317-.7.475-1.15.475Z"/>
  <path d="M10.855 19.15c.317.317.7.475 1.15.475.45 0 .833-.158 1.15-.475.317-.317.475-.7.475-1.15 0-.45-.158-.833-.475-1.15a1.566 1.566 0 0 0-1.15-.475c-.45 0-.833.158-1.15.475-.317.317-.475.7-.475 1.15 0 .45.158.833.475 1.15Zm0-6c.317.317.7.475 1.15.475.45 0 .833-.158 1.15-.475.317-.317.475-.7.475-1.15 0-.45-.158-.833-.475-1.15a1.566 1.566 0 0 0-1.15-.475c-.45 0-.833.158-1.15.475-.317.317-.475.7-.475 1.15 0 .45.158.833.475 1.15Zm-6.005 6c.317.317.7.475 1.15.475.45 0 .833-.158 1.15-.475.317-.317.475-.7.475-1.15 0-.45-.158-.833-.475-1.15A1.566 1.566 0 0 0 6 16.375c-.45 0-.833.158-1.15.475-.317.317-.475.7-.475 1.15 0 .45.158.833.475 1.15Z"/>
</svg>
