<svg width="24" height="24" fill="currentColor" viewBox="0 0 24 24">
  <path d="M12.75 11.46V7.514a.726.726 0 0 0-.216-.534.726.726 0 0 0-.534-.216.725.725 0 0 0-.535.216.726.726 0 0 0-.215.534v4.177a.9.9 0 0 0 .271.648l3.425 3.425c.139.139.313.21.522.213a.707.707 0 0 0 .532-.213.717.717 0 0 0 .217-.526.717.717 0 0 0-.217-.527l-3.25-3.25Zm-.748 9.804a9.255 9.255 0 0 1-3.705-.748 9.598 9.598 0 0 1-3.017-2.03 9.591 9.591 0 0 1-2.032-3.016 9.245 9.245 0 0 1-.748-3.704c0-1.314.25-2.549.748-3.705a9.596 9.596 0 0 1 2.03-3.017 9.591 9.591 0 0 1 3.016-2.031 9.245 9.245 0 0 1 3.704-.749c1.314 0 2.55.25 3.705.748a9.596 9.596 0 0 1 3.018 2.03 9.593 9.593 0 0 1 2.03 3.016 9.247 9.247 0 0 1 .749 3.705c0 1.314-.25 2.549-.748 3.705a9.597 9.597 0 0 1-2.03 3.017 9.592 9.592 0 0 1-3.016 2.031 9.245 9.245 0 0 1-3.704.748Zm-.002-1.5c2.217 0 4.104-.779 5.663-2.337C19.22 15.868 20 13.98 20 11.764s-.78-4.104-2.337-5.662C16.104 4.544 14.217 3.764 12 3.764s-4.104.78-5.662 2.338C4.779 7.66 4 9.548 4 11.764c0 2.217.78 4.104 2.338 5.663 1.558 1.558 3.445 2.337 5.662 2.337Z"/>
</svg>
