<svg width="24" height="24" fill="currentColor" viewBox="0 0 24 24">
  <path d="M14.454 21.604a2.2 2.2 0 0 1-1.617.659c-.638 0-1.177-.22-1.616-.66l-8.8-8.8a2.367 2.367 0 0 1-.5-.739 2.241 2.241 0 0 1-.184-.902v-7.15c0-.625.223-1.16.669-1.606a2.19 2.19 0 0 1 1.606-.668h7.15c.32 0 .62.06.902.183.282.122.529.289.74.5l8.8 8.82c.439.438.659.974.659 1.606 0 .632-.22 1.168-.66 1.607l-7.15 7.15ZM6.512 8.013c.417 0 .771-.146 1.063-.438.292-.292.437-.646.437-1.062 0-.417-.145-.771-.437-1.063a1.447 1.447 0 0 0-1.063-.437c-.416 0-.77.145-1.062.437a1.447 1.447 0 0 0-.438 1.063c0 .416.146.77.438 1.062.292.292.646.438 1.062.438Z"/>
</svg>
