<svg width="24" height="24" fill="currentColor" viewBox="0 0 24 24">
  <path d="M17.024 22.203c-.885 0-1.637-.309-2.256-.927a3.063 3.063 0 0 1-.93-2.252c0-.096.024-.312.07-.646l-6.822-3.975a3.131 3.131 0 0 1-2.104.788 3.07 3.07 0 0 1-2.256-.93c-.62-.62-.93-1.374-.93-2.26 0-.886.31-1.64.93-2.26a3.067 3.067 0 0 1 2.256-.932c.408 0 .793.07 1.155.212s.684.338.967.588l6.798-3.963a1.595 1.595 0 0 1-.054-.322 5.794 5.794 0 0 1-.01-.342c0-.885.31-1.637.93-2.256a3.072 3.072 0 0 1 2.256-.93c.885 0 1.637.31 2.257.93.619.62.928 1.371.928 2.256 0 .885-.31 1.637-.929 2.256-.619.62-1.371.93-2.256.93a3.14 3.14 0 0 1-2.146-.825l-6.774 3.939c.034.12.055.237.063.35a5.043 5.043 0 0 1-.003.748c-.01.117-.032.235-.066.356l6.768 3.938a3.18 3.18 0 0 1 .976-.617c.368-.15.762-.225 1.182-.225.885 0 1.637.31 2.256.93.62.621.93 1.374.93 2.26 0 .887-.31 1.638-.93 2.255a3.078 3.078 0 0 1-2.256.926Z"/>
</svg>
