<svg width="24" height="24" fill="currentColor" viewBox="0 0 24 24">
  <path d="M16.805 21.5a2.593 2.593 0 0 1-1.906-.785 2.6 2.6 0 0 1-.783-1.907c0-.1.034-.343.103-.73l-7.111-4.186a2.6 2.6 0 0 1-.86.588 2.686 2.686 0 0 1-1.065.212 2.577 2.577 0 0 1-1.9-.788A2.604 2.604 0 0 1 2.5 12c0-.743.26-1.378.783-1.904a2.577 2.577 0 0 1 1.9-.788c.379 0 .734.07 1.066.212.331.142.618.338.859.588l7.111-4.177a1.979 1.979 0 0 1-.082-.362 3.054 3.054 0 0 1-.021-.377c0-.748.261-1.383.785-1.907A2.6 2.6 0 0 1 16.81 2.5a2.59 2.59 0 0 1 1.906.786 2.6 2.6 0 0 1 .784 1.908c0 .749-.262 1.385-.785 1.907a2.6 2.6 0 0 1-1.907.784c-.381 0-.735-.073-1.063-.218a2.672 2.672 0 0 1-.853-.592l-7.111 4.186c.04.124.067.244.082.362a3.209 3.209 0 0 1-.001.754 1.991 1.991 0 0 1-.081.361l7.111 4.187a2.67 2.67 0 0 1 .853-.592 2.596 2.596 0 0 1 1.063-.217c.748 0 1.383.261 1.907.785a2.6 2.6 0 0 1 .785 1.909 2.59 2.59 0 0 1-.786 1.906 2.602 2.602 0 0 1-1.909.784Zm.003-1.5c.338 0 .62-.114.85-.343.228-.228.342-.511.342-.85 0-.337-.114-.62-.343-.849a1.153 1.153 0 0 0-.85-.343c-.337 0-.62.115-.849.343a1.153 1.153 0 0 0-.343.85c0 .338.115.62.343.85.229.228.512.342.85.342ZM5.183 13.192c.34 0 .626-.114.856-.342.23-.229.346-.512.346-.85 0-.338-.115-.621-.346-.85a1.168 1.168 0 0 0-.856-.342 1.14 1.14 0 0 0-.843.342c-.227.229-.34.512-.34.85 0 .338.113.621.34.85.227.228.508.342.843.342Zm11.625-6.807c.338 0 .62-.115.85-.343.228-.229.342-.512.342-.85 0-.338-.114-.62-.343-.85a1.153 1.153 0 0 0-.85-.342c-.337 0-.62.114-.849.343a1.153 1.153 0 0 0-.343.85c0 .337.115.62.343.849.229.228.512.343.85.343Z"/>
</svg>
