<svg width="24" height="24" fill="currentColor" viewBox="0 0 24 24">
  <path d="M8.256 21.654a1.69 1.69 0 0 1-1.24-.51c-.34-.341-.51-.754-.51-1.24s.17-.9.51-1.24c.341-.34.754-.51 1.24-.51s.9.17 1.24.51c.34.34.51.754.51 1.24s-.17.899-.51 1.24c-.34.34-.754.51-1.24.51Zm9.693 0c-.486 0-.9-.17-1.24-.51-.34-.341-.51-.754-.51-1.24s.17-.9.51-1.24c.34-.34.754-.51 1.24-.51.485 0 .899.17 1.239.51.34.34.51.754.51 1.24s-.17.899-.51 1.24c-.34.34-.753.51-1.24.51ZM7.118 5.846l2.534 5.308h7l2.77-5.039c.038-.07.041-.133.01-.187-.033-.055-.087-.082-.164-.082H7.118Zm1.138 10.808c-.666 0-1.167-.288-1.503-.863-.335-.575-.347-1.149-.035-1.722l1.427-2.565-3.639-7.658H3.328a.69.69 0 0 1-.518-.215.74.74 0 0 1-.207-.535c0-.213.071-.39.215-.534a.726.726 0 0 1 .534-.216h1.53a.896.896 0 0 1 .813.517l.704 1.483h13.884c.463 0 .789.17.978.51.19.34.182.7-.02 1.079l-3.204 5.803a1.772 1.772 0 0 1-.643.68 1.715 1.715 0 0 1-.895.236H9.202l-1.157 2.115c-.051.077-.053.16-.005.25s.12.135.216.135h10.718a.69.69 0 0 1 .517.215.74.74 0 0 1 .208.535.726.726 0 0 1-.216.534.726.726 0 0 1-.534.216H8.256Z"/>
</svg>
