<svg width="24" height="24" fill="currentColor" viewBox="0 0 24 24">
  <path d="M8.032 22.09c-.55 0-1.02-.196-1.412-.588a1.926 1.926 0 0 1-.588-1.412c0-.55.196-1.021.588-1.413a1.926 1.926 0 0 1 1.412-.587c.55 0 1.02.196 1.413.587.391.392.587.863.587 1.413s-.196 1.02-.587 1.412a1.926 1.926 0 0 1-1.413.588Zm10 0c-.55 0-1.02-.196-1.412-.588a1.926 1.926 0 0 1-.588-1.412c0-.55.196-1.021.588-1.413a1.926 1.926 0 0 1 1.412-.587c.55 0 1.02.196 1.413.587.391.392.587.863.587 1.413s-.196 1.02-.587 1.412a1.926 1.926 0 0 1-1.413.588Zm-10-5c-.794 0-1.39-.345-1.79-1.036-.399-.69-.414-1.374-.044-2.052L7.53 11.6 3.978 4.09h-.97c-.308 0-.562-.105-.764-.314A1.075 1.075 0 0 1 1.942 3c0-.309.105-.567.314-.776a1.05 1.05 0 0 1 .776-.314h1.595c.211 0 .41.057.598.17.188.114.328.275.422.483l.639 1.347h14.523c.565 0 .94.192 1.125.575.185.383.163.8-.064 1.25l-3.412 6.167a2.153 2.153 0 0 1-.757.808c-.314.193-.67.29-1.071.29H9.234l-1.046 1.91h10.87c.306 0 .56.105.762.314.201.208.302.467.302.776s-.105.568-.314.776a1.055 1.055 0 0 1-.776.314h-11Z"/>
</svg>
