<svg width="24" height="24" fill="currentColor" viewBox="0 0 24 24">
  <path d="M11.25 20.75V17.5H6.998a1.801 1.801 0 0 1-1.275-.527l-1.59-1.59a.867.867 0 0 1-.272-.633c0-.241.09-.452.271-.633l1.59-1.59A1.801 1.801 0 0 1 6.999 12h4.252v-2H5.404a.877.877 0 0 1-.644-.259.88.88 0 0 1-.26-.65V5.41a.88.88 0 0 1 .26-.65.877.877 0 0 1 .644-.259h5.846V3.25c0-.212.072-.39.216-.534A.726.726 0 0 1 12 2.5c.213 0 .39.072.534.216a.726.726 0 0 1 .216.534V4.5h4.252a1.801 1.801 0 0 1 1.275.527l1.59 1.59a.871.871 0 0 1 0 1.266l-1.59 1.59a1.802 1.802 0 0 1-1.275.527H12.75v2h5.846c.256 0 .47.086.644.259a.88.88 0 0 1 .26.65v3.682a.88.88 0 0 1-.26.65.877.877 0 0 1-.644.259H12.75v3.25c0 .212-.072.39-.216.534a.726.726 0 0 1-.535.216.725.725 0 0 1-.534-.216.726.726 0 0 1-.215-.534ZM6 8.5h11.136l1.25-1.25L17.136 6H6v2.5Zm.863 7.5H18v-2.5H6.863l-1.25 1.25L6.863 16Z"/>
</svg>
