<svg width="24" height="24" fill="currentColor" viewBox="0 0 24 24">
  <path d="M5.964 20.203a1.58 1.58 0 0 1-1.16-.477 1.58 1.58 0 0 1-.477-1.16v-2.534c0-.455.159-.841.477-1.16a1.58 1.58 0 0 1 1.16-.477c.455 0 .842.159 1.16.477.318.319.478.705.478 1.16v2.534c0 .455-.16.841-.478 1.16a1.58 1.58 0 0 1-1.16.477Zm6.036 0a1.58 1.58 0 0 1-1.16-.477 1.58 1.58 0 0 1-.477-1.16v-7.534c0-.455.159-.841.477-1.16A1.58 1.58 0 0 1 12 9.395c.455 0 .841.159 1.16.477.318.319.477.705.477 1.16v7.534c0 .455-.159.841-.477 1.16a1.58 1.58 0 0 1-1.16.477Zm6.036 0a1.58 1.58 0 0 1-1.16-.477 1.58 1.58 0 0 1-.478-1.16V5.434c0-.455.16-.841.478-1.16a1.579 1.579 0 0 1 1.16-.477c.455 0 .841.159 1.16.477.318.319.477.705.477 1.16v13.132c0 .455-.159.841-.477 1.16a1.58 1.58 0 0 1-1.16.477Z"/>
</svg>
