<svg width="24" height="24" fill="currentColor" viewBox="0 0 24 24">
  <path d="M6.154 19.5a1.11 1.11 0 0 1-.817-.337A1.113 1.113 0 0 1 5 18.346v-2.692c0-.32.112-.593.337-.817.224-.225.496-.337.817-.337.32 0 .593.112.817.337.224.224.337.496.337.817v2.692c0 .32-.113.593-.337.817a1.113 1.113 0 0 1-.817.337Zm5.904 0c-.32 0-.593-.112-.818-.337a1.112 1.112 0 0 1-.336-.817v-7.692c0-.32.112-.593.336-.817.225-.225.497-.337.818-.337.32 0 .593.112.817.337.224.224.336.496.336.817v7.692c0 .32-.112.593-.336.817a1.113 1.113 0 0 1-.817.337Zm5.788 0a1.11 1.11 0 0 1-.817-.337 1.113 1.113 0 0 1-.337-.817V5.654c0-.32.113-.593.337-.817a1.11 1.11 0 0 1 .817-.337c.32 0 .593.112.817.337.225.224.337.496.337.817v12.692c0 .32-.112.593-.337.817a1.113 1.113 0 0 1-.817.337Z"/>
</svg>
