<svg width="24" height="24" fill="currentColor" viewBox="0 0 24 24">
  <path d="M10.863 21.066v-2.72h-3.99a2.246 2.246 0 0 1-1.597-.658l-1.677-1.677a1.098 1.098 0 0 1-.342-.802c0-.306.114-.574.342-.801l1.677-1.678a2.246 2.246 0 0 1 1.597-.659h3.99v-2H4.935c-.32 0-.589-.11-.809-.329a1.097 1.097 0 0 1-.329-.808v-4c0-.32.11-.588.33-.808.219-.22.488-.33.808-.33h5.928v-.862c0-.32.11-.588.33-.808.219-.22.488-.33.807-.33.32 0 .589.11.809.33.219.22.329.489.329.808v.863h3.99a2.247 2.247 0 0 1 1.597.658l1.677 1.678c.228.227.342.495.342.801 0 .307-.114.574-.342.802l-1.677 1.677a2.246 2.246 0 0 1-1.597.659h-3.99v2h5.928c.32 0 .589.11.808.329.22.22.33.489.33.808v4c0 .32-.11.589-.33.808-.22.22-.489.33-.808.33h-5.928v2.719c0 .319-.11.588-.33.808-.22.22-.489.33-.808.33-.319 0-.588-.11-.808-.33a1.1 1.1 0 0 1-.33-.808Z"/>
</svg>
