<svg width="24" height="24" fill="currentColor" viewBox="0 0 24 24">
  <path d="M3.814 15.5a2.893 2.893 0 0 1-2.125-.875A2.893 2.893 0 0 1 .814 12.5c0-.833.292-1.542.875-2.125A2.893 2.893 0 0 1 3.814 9.5V7.315c0-.55.196-1.021.588-1.413a1.926 1.926 0 0 1 1.412-.587H9c0-.834.291-1.542.875-2.125A2.893 2.893 0 0 1 12 2.315c.833 0 1.541.291 2.125.875.583.583.875 1.291.875 2.125h3.185c.55 0 1.02.196 1.413.587.391.392.587.863.587 1.413V9.5c.833 0 1.542.292 2.125.875s.875 1.292.875 2.125-.292 1.542-.875 2.125a2.893 2.893 0 0 1-2.125.875v4.185a1.93 1.93 0 0 1-.587 1.413 1.926 1.926 0 0 1-1.413.587H5.815c-.55 0-1.021-.195-1.413-.587a1.926 1.926 0 0 1-.588-1.413V15.5Zm5.234-2.048a1.49 1.49 0 0 0 1.095-.446 1.49 1.49 0 0 0 .446-1.096 1.5 1.5 0 0 0-.446-1.098c-.298-.3-.663-.45-1.095-.45-.433 0-.8.15-1.099.45-.3.3-.45.666-.45 1.098 0 .433.15.798.45 1.096a1.5 1.5 0 0 0 1.099.446Zm5.904 0c.433 0 .799-.149 1.098-.446.3-.298.45-.663.45-1.096 0-.432-.15-.798-.45-1.098-.3-.3-.665-.45-1.098-.45-.433 0-.798.15-1.095.45-.298.3-.447.666-.447 1.098 0 .433.149.798.447 1.096.297.297.662.446 1.095.446ZM9.137 17.5h5.725c.297 0 .546-.1.747-.301.2-.201.301-.45.301-.747 0-.295-.1-.542-.301-.742-.201-.2-.45-.3-.747-.3H9.137c-.297 0-.545.1-.746.3-.201.2-.302.447-.302.742s.1.544.302.746c.2.201.45.302.746.302Z"/>
</svg>
