<svg width="24" height="24" fill="currentColor" viewBox="0 0 24 24">
  <path d="M4.5 14.75c-.699 0-1.29-.242-1.774-.726A2.413 2.413 0 0 1 2 12.25c0-.699.242-1.29.726-1.774A2.413 2.413 0 0 1 4.5 9.75v-2.5c0-.409.148-.761.443-1.057A1.443 1.443 0 0 1 6 5.75h3.5c0-.699.242-1.29.726-1.774A2.413 2.413 0 0 1 12 3.25c.699 0 1.29.242 1.774.726s.726 1.075.726 1.774H18c.409 0 .761.148 1.057.443.295.296.443.648.443 1.057v2.5c.699 0 1.29.242 1.774.726S22 11.55 22 12.25c0 .699-.242 1.29-.726 1.774a2.413 2.413 0 0 1-1.774.726v4.5c0 .409-.148.761-.443 1.057A1.443 1.443 0 0 1 18 20.75H6c-.409 0-.761-.148-1.057-.443A1.443 1.443 0 0 1 4.5 19.25v-4.5ZM8.999 13c.347 0 .642-.121.886-.364.243-.243.365-.538.365-.885s-.121-.642-.364-.886A1.202 1.202 0 0 0 9 10.5c-.347 0-.642.121-.886.364a1.202 1.202 0 0 0-.365.885c0 .347.121.642.364.885.243.244.538.366.885.366Zm6 0c.347 0 .642-.121.885-.364.244-.243.366-.538.366-.885s-.122-.642-.364-.886A1.203 1.203 0 0 0 15 10.5c-.347 0-.642.121-.886.364a1.202 1.202 0 0 0-.365.885c0 .347.121.642.364.885.243.244.538.366.885.366Zm-6 4h6a.724.724 0 0 0 .535-.216.726.726 0 0 0 .216-.534.725.725 0 0 0-.216-.535A.726.726 0 0 0 15 15.5H9a.726.726 0 0 0-.534.216.726.726 0 0 0-.216.534c0 .213.072.39.216.535A.726.726 0 0 0 9 17Zm-3 2.25h12v-12H6v12Z"/>
</svg>
