<svg width="24" height="24" fill="currentColor" viewBox="0 0 24 24">
  <path d="m18.523 12.1-4.838-1.782-1.782-4.842a1.492 1.492 0 0 0-2.8 0l-1.784 4.837-4.842 1.78a1.492 1.492 0 0 0 0 2.802l4.836 1.793 1.78 4.839a1.493 1.493 0 0 0 2.802 0l1.781-4.839 4.842-1.78a1.492 1.492 0 0 0 0-2.802l.005-.007Zm-5.361 3.181a1.488 1.488 0 0 0-.884.884l-1.782 4.825-1.777-4.828a1.488 1.488 0 0 0-.88-.88L3.013 13.5l4.825-1.781a1.488 1.488 0 0 0 .88-.88L10.5 6.013l1.781 4.824a1.487 1.487 0 0 0 .884.885l4.825 1.78-4.828 1.778ZM13.5 3.75a.75.75 0 0 1 .75-.75h1.5V1.5a.75.75 0 1 1 1.5 0V3h1.5a.75.75 0 0 1 0 1.5h-1.5V6a.75.75 0 0 1-1.5 0V4.5h-1.5a.75.75 0 0 1-.75-.75Zm9.75 4.5a.75.75 0 0 1-.75.75h-.75v.75a.75.75 0 0 1-1.5 0V9h-.75a.75.75 0 1 1 0-1.5h.75v-.75a.75.75 0 1 1 1.5 0v.75h.75a.75.75 0 0 1 .75.75Z"/>
</svg>
