<svg width="24" height="24" fill="currentColor" viewBox="0 0 24 24">
  <path d="M10.604 15.346c.355.355.812.524 1.372.506.56-.018.97-.22 1.232-.606l4.033-5.842c.143-.216.127-.411-.049-.587-.175-.175-.371-.192-.587-.049l-5.851 4.024c-.392.262-.604.664-.636 1.207-.031.543.13.992.486 1.347ZM12 4.5c.658 0 1.286.06 1.886.179a8.57 8.57 0 0 1 1.753.552c.202.08.404.225.604.433.2.207.252.404.154.59-.098.186-.31.31-.635.37-.326.061-.595.051-.808-.03a7.183 7.183 0 0 0-1.431-.448A7.725 7.725 0 0 0 12 6c-2.217 0-4.104.78-5.662 2.338C4.779 9.896 4 11.783 4 14c0 .7.096 1.392.287 2.075.192.683.463 1.325.813 1.925h13.8a7.299 7.299 0 0 0 .838-1.975A8.532 8.532 0 0 0 20 13.9a7.8 7.8 0 0 0-.141-1.453 6.614 6.614 0 0 0-.444-1.432 1.05 1.05 0 0 1-.05-.623.863.863 0 0 1 .337-.503.596.596 0 0 1 .537-.1.607.607 0 0 1 .413.353c.288.628.5 1.247.633 1.855.133.608.205 1.232.215 1.872.01.905-.092 1.76-.306 2.567a10.216 10.216 0 0 1-.967 2.364 1.39 1.39 0 0 1-.558.512 1.64 1.64 0 0 1-.769.188H5.1c-.267 0-.518-.064-.755-.192a1.507 1.507 0 0 1-.572-.546 10.199 10.199 0 0 1-.923-2.181A9.051 9.051 0 0 1 2.5 14c0-1.306.248-2.534.744-3.684a9.522 9.522 0 0 1 5.054-5.067A9.256 9.256 0 0 1 12 4.5Z"/>
</svg>
