<svg width="24" height="24" fill="currentColor" viewBox="0 0 24 24">
  <path d="M10.459 15.5c.417.416.94.612 1.569.587.63-.025 1.09-.254 1.38-.687l4.124-6.128c.174-.265.151-.507-.068-.727-.22-.22-.462-.242-.727-.068L10.609 12.6c-.433.308-.67.765-.71 1.371-.04.607.147 1.116.56 1.529Zm-5.35 4.703a2.41 2.41 0 0 1-1.114-.264 1.91 1.91 0 0 1-.81-.787 11.25 11.25 0 0 1-1.023-2.489A9.96 9.96 0 0 1 1.806 14a9.94 9.94 0 0 1 .802-3.978 10.305 10.305 0 0 1 2.182-3.24c.92-.92 2-1.648 3.241-2.183a9.937 9.937 0 0 1 3.978-.802 9.87 9.87 0 0 1 3.934.79 10.323 10.323 0 0 1 3.221 2.154c.92.91 1.652 1.973 2.195 3.19a9.728 9.728 0 0 1 .834 3.919c.013.937-.095 1.851-.324 2.744a9.941 9.941 0 0 1-1.056 2.558 2.03 2.03 0 0 1-.812.784 2.344 2.344 0 0 1-1.111.267H5.109Z"/>
</svg>
