<svg width="24" height="24" fill="currentColor" viewBox="0 0 24 24">
  <path d="M5.5 6.554V8.75c0 .213-.072.39-.216.534a.726.726 0 0 1-.534.216.725.725 0 0 1-.535-.216A.726.726 0 0 1 4 8.75V4.904c0-.256.087-.47.26-.644A.874.874 0 0 1 4.904 4H8.75c.213 0 .39.072.534.216a.726.726 0 0 1 .216.534.726.726 0 0 1-.216.535.726.726 0 0 1-.534.215H6.554l5.169 5.17a1.798 1.798 0 0 1 .527 1.274v6.306c0 .212-.072.39-.216.534A.726.726 0 0 1 11.5 19a.725.725 0 0 1-.534-.216.726.726 0 0 1-.216-.534v-6.321a.279.279 0 0 0-.086-.212L5.5 6.554Zm12 0-2.97 2.985a.74.74 0 0 1-1.069 0 .743.743 0 0 1-.232-.543c0-.206.077-.387.232-.542L16.447 5.5H14.25a.726.726 0 0 1-.534-.216.726.726 0 0 1-.216-.534c0-.213.072-.391.216-.535A.726.726 0 0 1 14.25 4h3.846c.256 0 .47.087.644.26.173.173.26.388.26.644V8.75c0 .213-.072.39-.216.534a.726.726 0 0 1-.534.216.725.725 0 0 1-.535-.216.726.726 0 0 1-.215-.534V6.554Z"/>
</svg>
