<svg width="24" height="24" fill="currentColor" viewBox="0 0 24 24">
  <path d="m12 17.767-4.168 2.512a1.093 1.093 0 0 1-1.255-.056 1.34 1.34 0 0 1-.395-.5.999.999 0 0 1-.053-.669l1.106-4.742-3.693-3.194a1.09 1.09 0 0 1-.358-.58A1.166 1.166 0 0 1 3.22 9.9c.07-.207.186-.38.345-.516.16-.136.37-.221.63-.255l4.868-.425L10.95 4.23c.096-.231.242-.403.439-.515.197-.112.4-.168.612-.168.211 0 .415.056.612.168.197.112.343.284.438.515l1.887 4.474 4.868.425c.262.034.472.119.631.255.16.137.274.309.345.516.07.207.082.42.035.637a1.084 1.084 0 0 1-.358.581l-3.693 3.194 1.106 4.742a.999.999 0 0 1-.053.669 1.34 1.34 0 0 1-.395.5 1.09 1.09 0 0 1-.596.227 1.053 1.053 0 0 1-.66-.171L12 17.767Z"/>
</svg>
