<svg width="24" height="24" fill="currentColor" viewBox="0 0 24 24">
  <path d="M12 18.5c-1.799 0-3.332-.634-4.6-1.901-1.266-1.267-1.9-2.8-1.9-4.599 0-1.799.634-3.332 1.901-4.6C8.668 6.135 10.2 5.5 12 5.5c1.799 0 3.332.634 4.599 1.901C17.866 8.668 18.5 10.2 18.5 12c0 1.799-.634 3.332-1.901 4.599-1.267 1.267-2.8 1.901-4.599 1.901Zm0-1.5c1.383 0 2.563-.488 3.537-1.463C16.512 14.563 17 13.383 17 12s-.488-2.563-1.463-3.538C14.563 7.487 13.383 7 12 7s-2.563.487-3.538 1.462C7.487 9.437 7 10.617 7 12s.487 2.563 1.462 3.537C9.437 16.512 10.617 17 12 17Z"/>
</svg>
