<svg width="24" height="24" fill="currentColor" viewBox="0 0 24 24">
  <path d="m5.872 15.874 1.642 1.642c.211.211.317.472.317.783 0 .31-.106.58-.317.808a1.089 1.089 0 0 1-.805.342c-.313 0-.583-.112-.811-.336l-3.575-3.575a1.05 1.05 0 0 1-.245-.373A1.202 1.202 0 0 1 2 14.737c0-.15.026-.293.078-.43.051-.136.133-.26.245-.372l3.6-3.594a1.07 1.07 0 0 1 .798-.326c.305.006.57.123.793.35.211.225.32.49.326.796.007.307-.102.572-.326.796l-1.642 1.642H11.6c.32 0 .588.11.808.33.22.219.33.488.33.807 0 .32-.11.589-.33.808-.22.22-.489.33-.808.33H5.872ZM17.577 9.85H11.85c-.32 0-.588-.11-.808-.33a1.094 1.094 0 0 1-.33-.807c0-.32.11-.589.33-.808.22-.22.489-.33.808-.33h5.727l-1.642-1.642a1.065 1.065 0 0 1-.317-.783c0-.31.106-.58.317-.808A1.09 1.09 0 0 1 16.74 4c.313 0 .583.112.811.336l3.575 3.575c.112.112.194.236.245.373a1.2 1.2 0 0 1 0 .857 1.052 1.052 0 0 1-.245.373l-3.6 3.594a1.07 1.07 0 0 1-.799.326 1.11 1.11 0 0 1-.792-.35 1.158 1.158 0 0 1-.327-.796 1.054 1.054 0 0 1 .327-.796l1.642-1.642Z"/>
</svg>
