<svg width="24" height="24" fill="currentColor" viewBox="0 0 24 24">
  <path d="M12.002 21.5a9.27 9.27 0 0 1-3.706-.748 9.596 9.596 0 0 1-3.016-2.03 9.595 9.595 0 0 1-2.032-3.016 9.246 9.246 0 0 1-.748-3.704c0-1.314.25-2.55.748-3.706a9.596 9.596 0 0 1 2.03-3.016 9.594 9.594 0 0 1 3.016-2.032 9.246 9.246 0 0 1 3.704-.748c1.314 0 2.55.25 3.706.748a9.596 9.596 0 0 1 3.017 2.03 9.594 9.594 0 0 1 2.03 3.016 9.247 9.247 0 0 1 .749 3.704 9.27 9.27 0 0 1-.748 3.706 9.596 9.596 0 0 1-2.03 3.017 9.595 9.595 0 0 1-3.016 2.03 9.247 9.247 0 0 1-3.704.749ZM12 20c2.233 0 4.125-.775 5.675-2.325C19.225 16.125 20 14.233 20 12c0-2.233-.775-4.125-2.325-5.675C16.125 4.775 14.233 4 12 4c-2.233 0-4.125.775-5.675 2.325C4.775 7.875 4 9.767 4 12c0 2.233.775 4.125 2.325 5.675C7.875 19.225 9.767 20 12 20Zm.002-2.5c-1.527 0-2.826-.535-3.896-1.604C7.036 14.828 6.5 13.53 6.5 12.002c0-1.527.535-2.826 1.604-3.896C9.172 7.036 10.47 6.5 11.998 6.5c1.527 0 2.826.535 3.896 1.604 1.07 1.069 1.606 2.367 1.606 3.894 0 1.527-.535 2.826-1.604 3.896-1.069 1.07-2.367 1.606-3.894 1.606ZM12 16c1.1 0 2.042-.392 2.825-1.175C15.608 14.042 16 13.1 16 12s-.392-2.042-1.175-2.825C14.042 8.392 13.1 8 12 8s-2.042.392-2.825 1.175C8.392 9.958 8 10.9 8 12s.392 2.042 1.175 2.825C9.958 15.608 10.9 16 12 16Zm0-2.5c-.409 0-.761-.148-1.057-.443A1.443 1.443 0 0 1 10.5 12c0-.409.148-.761.443-1.057A1.443 1.443 0 0 1 12 10.5c.409 0 .761.148 1.057.443.295.296.443.648.443 1.057 0 .409-.148.761-.443 1.057A1.443 1.443 0 0 1 12 13.5Z"/>
</svg>
