<svg width="24" height="24" fill="currentColor" viewBox="0 0 24 24">
  <path d="M11.998 22.365a10.11 10.11 0 0 1-4.042-.815 10.446 10.446 0 0 1-3.291-2.215 10.44 10.44 0 0 1-2.216-3.293 10.116 10.116 0 0 1-.814-4.044 10.1 10.1 0 0 1 .814-4.041 10.457 10.457 0 0 1 2.215-3.292 10.43 10.43 0 0 1 3.292-2.216 10.125 10.125 0 0 1 4.045-.814c1.434 0 2.782.272 4.043.815a10.427 10.427 0 0 1 3.292 2.215 10.456 10.456 0 0 1 2.214 3.293c.543 1.261.814 2.61.814 4.043a10.11 10.11 0 0 1-.814 4.043 10.446 10.446 0 0 1-2.216 3.291 10.442 10.442 0 0 1-3.293 2.215 10.11 10.11 0 0 1-4.043.815Zm.002-2.18c2.28 0 4.215-.793 5.803-2.38 1.588-1.587 2.382-3.522 2.382-5.805 0-2.281-.794-4.216-2.382-5.803-1.588-1.588-3.522-2.382-5.804-2.382-2.28 0-4.215.794-5.803 2.382C4.608 7.784 3.814 9.719 3.814 12s.794 4.216 2.382 5.803c1.588 1.588 3.522 2.382 5.803 2.382Zm0-1.91c-1.743 0-3.224-.61-4.445-1.83-1.22-1.22-1.83-2.701-1.83-4.444 0-1.743.61-3.225 1.83-4.445 1.22-1.22 2.7-1.831 4.444-1.831 1.743 0 3.224.61 4.445 1.83 1.22 1.22 1.83 2.701 1.83 4.444 0 1.743-.61 3.225-1.83 4.445-1.22 1.22-2.7 1.831-4.444 1.831Zm0-2.185c1.124 0 2.087-.4 2.888-1.201.802-.801 1.202-1.764 1.202-2.888 0-1.125-.4-2.087-1.201-2.889-.8-.801-1.763-1.202-2.888-1.202-1.124 0-2.087.401-2.888 1.204C8.31 9.915 7.91 10.877 7.91 12c0 1.124.4 2.087 1.201 2.888.8.8 1.763 1.2 2.888 1.2Zm0-1.905a2.106 2.106 0 0 1-1.543-.64 2.103 2.103 0 0 1-.642-1.544c0-.601.214-1.116.642-1.544a2.105 2.105 0 0 1 1.545-.642c.6 0 1.115.214 1.543.642.427.428.64.943.64 1.544a2.1 2.1 0 0 1-.641 1.543 2.106 2.106 0 0 1-1.544.641Z"/>
</svg>
