<svg width="24" height="24" fill="currentColor" viewBox="0 0 24 24">
  <path d="M12.002 21.5a9.27 9.27 0 0 1-3.706-.748 9.596 9.596 0 0 1-3.016-2.03 9.595 9.595 0 0 1-2.032-3.016 9.246 9.246 0 0 1-.748-3.704c0-1.314.25-2.55.748-3.706a9.593 9.593 0 0 1 2.03-3.016 9.597 9.597 0 0 1 3.017-2.032A9.25 9.25 0 0 1 12 2.5c.832 0 1.638.106 2.42.318.78.212 1.527.52 2.24.92a.763.763 0 0 1 .377.466.622.622 0 0 1-.104.567.818.818 0 0 1-.509.33.864.864 0 0 1-.61-.095 7.969 7.969 0 0 0-1.846-.748A7.619 7.619 0 0 0 12 4c-2.217 0-4.104.78-5.662 2.338C4.779 7.896 4 9.783 4 12s.78 4.104 2.338 5.663C7.896 19.22 9.783 20 12 20s4.104-.78 5.663-2.337C19.22 16.104 20 14.217 20 12a6.97 6.97 0 0 0-.022-.563 5.429 5.429 0 0 0-.076-.558.938.938 0 0 1 .11-.61.75.75 0 0 1 .48-.379.666.666 0 0 1 .56.075.649.649 0 0 1 .31.466A8.388 8.388 0 0 1 21.5 12c0 1.314-.25 2.55-.748 3.705a9.595 9.595 0 0 1-2.03 3.016 9.591 9.591 0 0 1-3.016 2.03 9.247 9.247 0 0 1-3.704.749Zm-1.421-7.354 9.338-9.354a.744.744 0 0 1 .515-.22.701.701 0 0 1 .541.223.715.715 0 0 1 .215.524.718.718 0 0 1-.217.527l-9.76 9.775a.867.867 0 0 1-.632.271.868.868 0 0 1-.633-.27l-2.744-2.745a.726.726 0 0 1-.213-.522.708.708 0 0 1 .213-.532.718.718 0 0 1 .527-.217c.206 0 .382.072.527.217l2.323 2.323Z"/>
</svg>
