<svg width="24" height="24" fill="currentColor" viewBox="0 0 24 24">
  <path d="M10.106 14.846a.433.433 0 0 1-.317-.135.433.433 0 0 1-.135-.317V9.606c0-.12.045-.226.135-.316a.433.433 0 0 1 .317-.136h3.355a.85.85 0 0 1 .626.259.853.853 0 0 1 .26.626v1.115a.83.83 0 0 1-.226.583.8.8 0 0 1-.563.263.844.844 0 0 1 .788.846v1.116a.853.853 0 0 1-.259.626.853.853 0 0 1-.626.258h-3.355Zm.74-3.442h2.308v-1.058h-2.308v1.058Zm0 2.25h2.308v-1.058h-2.308v1.058ZM3.77 14.846a.579.579 0 0 1-.596-.596v-4.21a.85.85 0 0 1 .259-.626.853.853 0 0 1 .626-.26H6.98c.244 0 .453.087.626.26a.853.853 0 0 1 .258.626v4.22a.579.579 0 0 1-.596.587.579.579 0 0 1-.596-.596v-1H4.365v1.01a.579.579 0 0 1-.596.587Zm.596-2.788h2.308v-1.712H4.365v1.712Zm12.654 2.788a.853.853 0 0 1-.626-.258.853.853 0 0 1-.258-.626v-3.923c0-.245.086-.454.258-.626a.853.853 0 0 1 .626-.26h2.923a.85.85 0 0 1 .626.26.853.853 0 0 1 .259.626v.663a.579.579 0 0 1-.596.587.579.579 0 0 1-.596-.597v-.346h-2.308v3.308h2.308v-.346a.58.58 0 0 1 .596-.596.579.579 0 0 1 .596.596v.654a.853.853 0 0 1-.259.626.853.853 0 0 1-.626.258H17.02Z"/>
</svg>
