<svg width="24" height="24" fill="currentColor" viewBox="0 0 24 24">
  <path d="M6.096 20.356a.726.726 0 0 1-.534-.216.726.726 0 0 1-.216-.535c0-.212.072-.39.216-.534a.726.726 0 0 1 .534-.215h11.808c.212 0 .39.072.534.215a.726.726 0 0 1 .216.535c0 .213-.072.39-.216.534a.726.726 0 0 1-.534.216H6.096ZM12 16.76c-1.555 0-2.769-.473-3.641-1.417-.873-.944-1.309-2.209-1.309-3.795V4.563c0-.252.093-.468.28-.648a.914.914 0 0 1 .657-.27c.252 0 .468.09.648.27.18.18.269.396.269.648v7.077c0 1.01.268 1.82.806 2.43.537.608 1.3.913 2.29.913s1.753-.305 2.29-.914c.538-.609.806-1.418.806-2.429V4.563c0-.252.093-.468.28-.648a.915.915 0 0 1 .657-.27c.252 0 .468.09.648.27.18.18.269.396.269.648v6.985c0 1.586-.436 2.851-1.309 3.795-.872.945-2.086 1.417-3.641 1.417Z"/>
</svg>
