<svg width="24" height="24" fill="currentColor" viewBox="0 0 24 24">
  <path d="M6 21.227c-.32 0-.589-.11-.808-.33a1.094 1.094 0 0 1-.33-.807c0-.32.11-.589.33-.808.22-.22.489-.33.808-.33h12c.32 0 .589.11.808.33.22.22.33.488.33.808 0 .319-.11.588-.33.808-.22.22-.489.33-.808.33H6Zm6-4.18c-1.763 0-3.141-.54-4.134-1.622-.993-1.082-1.49-2.523-1.49-4.325V4.18c0-.387.141-.717.423-.993a1.386 1.386 0 0 1 1.003-.414c.385 0 .716.138.992.414.276.276.414.606.414.992v7.036c0 .925.24 1.672.721 2.242.48.57 1.171.854 2.071.854.9 0 1.59-.285 2.07-.854.482-.57.722-1.317.722-2.242V4.179c0-.386.141-.716.423-.992a1.386 1.386 0 0 1 1.002-.414c.386 0 .717.138.993.414.276.276.414.606.414.992V11.1c0 1.802-.497 3.243-1.49 4.325-.993 1.082-2.371 1.623-4.134 1.623Z"/>
</svg>
