<svg width="24" height="24" fill="currentColor" viewBox="0 0 24 24">
  <path d="M8.858 18.625c-.422 0-.78-.148-1.076-.443a1.465 1.465 0 0 1-.444-1.076V6.894c0-.422.148-.78.444-1.076a1.465 1.465 0 0 1 1.076-.443H12.2c1.02 0 1.94.317 2.764.952.824.635 1.236 1.489 1.236 2.563 0 .748-.18 1.357-.541 1.828-.361.471-.75.813-1.167 1.026.513.177 1.003.527 1.47 1.05.466.522.7 1.225.7 2.11 0 1.278-.472 2.218-1.414 2.819s-1.892.902-2.848.902H8.858Zm.63-1.992h2.831c.787 0 1.344-.219 1.67-.656.325-.437.488-.857.488-1.258s-.163-.82-.489-1.258c-.325-.437-.897-.655-1.715-.655H9.488v3.827Zm0-5.758h2.595c.607 0 1.09-.174 1.445-.521.356-.348.534-.764.534-1.248 0-.516-.189-.937-.565-1.264-.376-.327-.837-.49-1.383-.49H9.488v3.523Z"/>
</svg>
