<svg width="24" height="24" fill="currentColor" viewBox="0 0 24 24">
  <path d="M10.018 15.048a.544.544 0 0 1-.398-.168.544.544 0 0 1-.168-.398V9.524c0-.153.056-.286.168-.4a.539.539 0 0 1 .398-.172H13.5c.297 0 .546.1.746.301.201.201.302.45.302.747v.952c0 .297-.1.546-.302.747-.2.2-.45.3-.746.3.297 0 .546.101.746.302.201.201.302.45.302.747V14c0 .297-.1.546-.302.746-.2.201-.45.302-.746.302h-3.482Zm1.03-3.798h1.904v-.702h-1.904v.702Zm0 2.202h1.904v-.702h-1.904v.702Zm-7.394 1.596a.767.767 0 0 1-.564-.228.767.767 0 0 1-.228-.564V10c0-.297.1-.546.302-.747.2-.2.45-.3.746-.3h3c.295 0 .543.1.743.3.2.201.3.45.3.747v4.256a.766.766 0 0 1-.227.567.778.778 0 0 1-.572.225.767.767 0 0 1-.564-.228.767.767 0 0 1-.228-.564v-.708h-1.91v.708a.766.766 0 0 1-.226.567.778.778 0 0 1-.572.225Zm.798-3.096h1.91v-1.404h-1.91v1.404Zm12.638 3.096c-.296 0-.543-.1-.743-.302-.2-.2-.3-.45-.3-.746v-4c0-.297.1-.546.3-.747.2-.2.447-.3.743-.3h3c.296 0 .545.1.746.3.2.201.301.45.301.747v.554a.766.766 0 0 1-.226.567.777.777 0 0 1-.571.225.766.766 0 0 1-.568-.227.778.778 0 0 1-.224-.571h-1.91v2.904h1.91c0-.225.075-.413.227-.564a.77.77 0 0 1 .568-.228.775.775 0 0 1 .794.792V14c0 .297-.1.546-.3.746-.202.201-.45.302-.747.302h-3Z"/>
</svg>
