<svg width="24" height="24" fill="currentColor" viewBox="0 0 24 24">
  <path d="M6.707 18.625a.872.872 0 0 1-.642-.262.874.874 0 0 1-.262-.643c0-.253.087-.467.262-.641a.874.874 0 0 1 .642-.262H9.62l3.24-9.634H9.948a.872.872 0 0 1-.642-.263.874.874 0 0 1-.262-.642c0-.253.088-.467.262-.641a.874.874 0 0 1 .642-.262h7.346c.253 0 .467.087.642.262a.874.874 0 0 1 .262.643.871.871 0 0 1-.262.641.874.874 0 0 1-.642.262h-2.606l-3.24 9.634h2.606a.87.87 0 0 1 .641.263.874.874 0 0 1 .263.642.871.871 0 0 1-.263.641.873.873 0 0 1-.641.262H6.707Z"/>
</svg>
