<svg width="24" height="24" fill="currentColor" viewBox="0 0 24 24">
  <path d="M9.942 3.375a.725.725 0 0 1-.534-.216.726.726 0 0 1-.216-.534c0-.213.072-.39.216-.534a.726.726 0 0 1 .534-.216h4.116c.212 0 .39.072.534.216a.726.726 0 0 1 .216.535c0 .212-.072.39-.216.534a.726.726 0 0 1-.534.215H9.942ZM12 14.433a.726.726 0 0 0 .535-.216.726.726 0 0 0 .215-.534V9.568a.725.725 0 0 0-.216-.535.726.726 0 0 0-.534-.215.725.725 0 0 0-.535.215.726.726 0 0 0-.215.535v4.115c0 .212.072.39.216.534a.726.726 0 0 0 .534.216Zm0 7.692a8.222 8.222 0 0 1-3.298-.67 8.626 8.626 0 0 1-2.706-1.826 8.627 8.627 0 0 1-1.827-2.706 8.222 8.222 0 0 1-.669-3.298c0-1.166.223-2.265.67-3.297A8.627 8.627 0 0 1 5.995 7.62a8.627 8.627 0 0 1 2.706-1.827A8.222 8.222 0 0 1 12 5.125c1.001 0 1.966.17 2.893.51.928.34 1.79.826 2.584 1.46l.72-.72a.725.725 0 0 1 .521-.212.707.707 0 0 1 .532.212c.145.145.217.32.217.527a.717.717 0 0 1-.217.527l-.72.72a9.21 9.21 0 0 1 1.46 2.583c.34.928.51 1.892.51 2.893a8.223 8.223 0 0 1-.67 3.298 8.63 8.63 0 0 1-1.826 2.706 8.627 8.627 0 0 1-2.706 1.827 8.222 8.222 0 0 1-3.298.67Zm0-1.5c1.933 0 3.583-.683 4.95-2.05C18.317 17.21 19 15.56 19 13.625c0-1.933-.683-3.583-2.05-4.95-1.367-1.366-3.017-2.05-4.95-2.05-1.933 0-3.583.684-4.95 2.05C5.683 10.042 5 11.692 5 13.625c0 1.934.683 3.584 2.05 4.95 1.367 1.367 3.017 2.05 4.95 2.05Z"/>
</svg>
