<svg width="24" height="24" fill="currentColor" viewBox="0 0 24 24">
  <path d="M9.904 3.41a1.05 1.05 0 0 1-.776-.317 1.065 1.065 0 0 1-.313-.778c0-.308.104-.566.313-.776.209-.21.468-.314.776-.314h4.192c.308 0 .567.104.776.313.209.21.313.468.313.777 0 .307-.104.566-.313.778a1.047 1.047 0 0 1-.776.317H9.904ZM12 14.578c.309 0 .568-.105.776-.314.21-.208.314-.467.314-.776V9.649c0-.308-.105-.567-.314-.776A1.054 1.054 0 0 0 12 8.56a1.05 1.05 0 0 0-.776.313 1.054 1.054 0 0 0-.314.776v3.839c0 .309.105.568.314.776.208.21.467.314.776.314Zm0 8.197a8.867 8.867 0 0 1-3.571-.727 9.394 9.394 0 0 1-2.925-1.976 9.356 9.356 0 0 1-1.98-2.923 8.86 8.86 0 0 1-.727-3.571 8.84 8.84 0 0 1 .728-3.571 9.393 9.393 0 0 1 1.98-2.925 9.392 9.392 0 0 1 2.924-1.98A8.852 8.852 0 0 1 12 4.374c1.041 0 2.045.167 3.01.5a9.633 9.633 0 0 1 2.706 1.456l.706-.706c.207-.207.463-.31.768-.31.306 0 .562.103.77.31.206.208.31.464.31.77 0 .304-.104.56-.31.768l-.707.706a9.586 9.586 0 0 1 1.453 2.702 9.19 9.19 0 0 1 .497 3.008 8.861 8.861 0 0 1-.727 3.57 9.357 9.357 0 0 1-1.98 2.924 9.393 9.393 0 0 1-2.925 1.976 8.868 8.868 0 0 1-3.571.727Z"/>
</svg>
