<svg width="24" height="24" fill="currentColor" viewBox="0 0 24 24">
  <path d="m18.965 16.048-5.392-5.333a.32.32 0 0 0-.221-.086.288.288 0 0 0-.212.086l-2.498 2.498a1.755 1.755 0 0 1-1.29.527 1.72 1.72 0 0 1-1.281-.527L3.027 8.13a.743.743 0 0 1-.22-.515.697.697 0 0 1 .22-.54.717.717 0 0 1 .526-.216c.207 0 .382.072.527.217l5.05 5.05a.3.3 0 0 0 .222.086.3.3 0 0 0 .22-.086l2.499-2.498a1.74 1.74 0 0 1 1.28-.517c.51 0 .936.172 1.281.517L20 14.994v-2.196c0-.213.071-.391.215-.535a.725.725 0 0 1 .535-.215c.212 0 .39.072.534.215a.726.726 0 0 1 .216.535v3.846a.876.876 0 0 1-.26.645.876.876 0 0 1-.644.259H16.75a.726.726 0 0 1-.535-.215.726.726 0 0 1-.215-.535c0-.213.071-.391.215-.535a.725.725 0 0 1 .535-.215h2.215Z"/>
</svg>
