<svg width="24" height="24" fill="currentColor" viewBox="0 0 24 24">
  <path d="M3.952 19.185c-.309 0-.567-.105-.776-.317a1.066 1.066 0 0 1-.313-.778c0-.308.104-.566.313-.776A1.05 1.05 0 0 1 3.952 17h4c.307 0 .567.104.778.313.212.21.318.468.318.777 0 .307-.106.566-.318.778a1.058 1.058 0 0 1-.778.317h-4ZM3.952 7c-.309 0-.567-.104-.776-.313a1.054 1.054 0 0 1-.313-.777c0-.307.104-.566.313-.778.209-.212.467-.317.776-.317h8c.307 0 .567.105.778.317.212.212.318.471.318.778 0 .308-.106.566-.318.776-.211.21-.47.314-.778.314h-8Zm8.096 14.185c-.307 0-.567-.105-.778-.317a1.058 1.058 0 0 1-.318-.778v-4c0-.309.106-.568.318-.777.211-.209.47-.313.778-.313.307 0 .566.104.775.313.21.21.314.468.314.777V17h6.91c.31 0 .568.104.777.313.21.21.313.468.313.777 0 .307-.104.566-.313.778a1.047 1.047 0 0 1-.776.317h-6.91v.905c0 .307-.105.566-.314.778a1.047 1.047 0 0 1-.776.317ZM7.952 15.09c-.307 0-.565-.105-.775-.314A1.052 1.052 0 0 1 6.863 14v-.91h-2.91c-.31 0-.568-.105-.777-.314A1.054 1.054 0 0 1 2.863 12c0-.309.104-.568.313-.776a1.05 1.05 0 0 1 .776-.314h2.91V10c0-.309.105-.568.314-.776a1.05 1.05 0 0 1 .776-.314c.307 0 .567.105.778.314.212.208.318.467.318.776v4c0 .309-.106.568-.318.776a1.065 1.065 0 0 1-.778.314Zm4.096-2c-.307 0-.567-.105-.778-.314a1.047 1.047 0 0 1-.318-.776c0-.309.106-.568.318-.776.211-.21.47-.314.778-.314h8c.309 0 .567.105.776.314.21.208.313.467.313.776s-.104.568-.313.776a1.054 1.054 0 0 1-.776.314h-8Zm4-4.09c-.307 0-.567-.104-.778-.313a1.047 1.047 0 0 1-.318-.777v-4c0-.307.106-.566.318-.778.211-.212.47-.317.778-.317.307 0 .566.105.775.317.21.212.314.471.314.778v.905h2.91c.31 0 .568.105.777.317.21.212.313.471.313.778 0 .308-.104.566-.313.776a1.05 1.05 0 0 1-.776.314h-2.91v.91c0 .31-.105.568-.314.777a1.055 1.055 0 0 1-.776.313Z"/>
</svg>
