<svg width="24" height="24" fill="currentColor" viewBox="0 0 24 24">
  <path d="M8.107 8.374c-.212-.211-.317-.484-.317-.818 0-.334.105-.606.317-.818L11.2 3.645c.115-.115.24-.197.372-.245a1.24 1.24 0 0 1 .423-.071c.15 0 .295.023.435.071.141.048.261.13.36.245l3.113 3.112c.211.212.313.481.307.809a1.127 1.127 0 0 1-.326.808c-.212.211-.484.317-.818.317-.334 0-.606-.106-.818-.317l-2.253-2.248L9.723 8.4c-.211.211-.48.312-.808.304a1.138 1.138 0 0 1-.808-.33Zm3.888 12.298c-.15 0-.29-.028-.423-.084a1.422 1.422 0 0 1-.372-.233l-3.093-3.093c-.212-.211-.317-.484-.317-.818 0-.334.105-.606.317-.817.21-.212.483-.317.817-.317.334 0 .607.105.818.316l2.253 2.248 2.272-2.272c.212-.212.481-.313.809-.305.327.008.596.118.808.33.211.21.317.483.317.817 0 .334-.106.607-.317.818l-3.093 3.093c-.1.099-.22.177-.36.233a1.174 1.174 0 0 1-.436.084Z"/>
</svg>
