<svg width="24" height="24" fill="currentColor" viewBox="0 0 24 24">
  <path d="M12 9.625c-.15 0-.296-.03-.438-.088A1.09 1.09 0 0 1 11.2 9.3L8.1 6.2a1.087 1.087 0 0 1-.325-.8c0-.317.108-.583.325-.8.217-.217.483-.325.8-.325.317 0 .583.108.8.325L12 6.9l2.3-2.3c.217-.217.483-.325.8-.325.317 0 .583.108.8.325.217.217.325.483.325.8 0 .317-.108.583-.325.8l-3.1 3.1c-.117.117-.242.2-.375.25a1.2 1.2 0 0 1-.425.075ZM8.1 19.4a1.087 1.087 0 0 1-.325-.8c0-.317.108-.583.325-.8l3.1-3.1c.117-.117.242-.2.375-.25a1.2 1.2 0 0 1 .425-.075c.15 0 .296.025.438.075.141.05.262.133.362.25l3.125 3.125c.2.217.3.479.3.787 0 .309-.108.571-.325.788a1.087 1.087 0 0 1-.8.325c-.317 0-.583-.108-.8-.325L12 17.1l-2.3 2.3a1.087 1.087 0 0 1-.8.325c-.317 0-.583-.108-.8-.325Z"/>
</svg>
