<svg width="24" height="24" fill="currentColor" viewBox="0 0 24 24">
  <path d="M12 9.175a.922.922 0 0 1-.337-.063.812.812 0 0 1-.288-.187l-3-3A.72.72 0 0 1 8.15 5.4c0-.2.075-.375.225-.525A.72.72 0 0 1 8.9 4.65c.2 0 .375.075.525.225L12 7.45l2.575-2.575a.72.72 0 0 1 .525-.225c.2 0 .375.075.525.225a.72.72 0 0 1 .225.525.72.72 0 0 1-.225.525l-3 3a.813.813 0 0 1-.287.187.93.93 0 0 1-.338.063Zm-3.625 9.95a.72.72 0 0 1-.225-.525c0-.2.075-.375.225-.525l3-3a.824.824 0 0 1 .288-.188.936.936 0 0 1 .675 0 .825.825 0 0 1 .287.188L15.65 18.1c.133.133.2.3.2.5a.72.72 0 0 1-.225.525.72.72 0 0 1-.525.225.72.72 0 0 1-.525-.225L12 16.55l-2.575 2.575a.72.72 0 0 1-.525.225.72.72 0 0 1-.525-.225Z"/>
</svg>
