<svg width="24" height="24" fill="currentColor" viewBox="0 0 24 24">
  <path d="M6.072 20.203c-.63 0-1.166-.221-1.61-.665a2.193 2.193 0 0 1-.665-1.61v-1.862c0-.32.11-.589.33-.808.219-.22.488-.33.807-.33.32 0 .589.11.809.33.22.22.329.489.329.808v1.862h11.856v-1.862c0-.32.11-.589.33-.808.22-.22.489-.33.808-.33.32 0 .588.11.808.33.22.22.33.489.33.808v1.862a2.19 2.19 0 0 1-.666 1.61 2.19 2.19 0 0 1-1.61.665H6.072Zm4.79-12.042L9.126 9.898c-.224.228-.491.34-.802.336-.31-.005-.58-.12-.808-.349a1.164 1.164 0 0 1-.333-.798 1.063 1.063 0 0 1 .333-.799l3.683-3.69a1.05 1.05 0 0 1 .373-.245 1.2 1.2 0 0 1 .43-.077c.148 0 .291.025.428.077s.26.133.373.245l3.69 3.69c.223.224.332.49.326.796a1.157 1.157 0 0 1-1.135 1.147c-.31.006-.58-.105-.808-.333l-1.737-1.737v6.63c0 .319-.11.588-.33.808-.22.22-.489.33-.808.33-.32 0-.588-.11-.808-.33-.22-.22-.33-.489-.33-.808V8.16Z"/>
</svg>
