<svg width="24" height="24" fill="currentColor" viewBox="0 0 24 24">
  <path d="M3.82 20.383c-.32 0-.585-.11-.796-.33a1.121 1.121 0 0 1-.317-.808c0-.319.11-.588.33-.808.219-.22.488-.33.808-.33H20.18c.32 0 .585.11.796.33.211.22.317.489.317.808 0 .32-.11.589-.33.808-.219.22-.488.33-.808.33H3.82Zm1.162-4.18a2.19 2.19 0 0 1-1.607-.668 2.19 2.19 0 0 1-.668-1.607v-3.856c0-.626.223-1.162.668-1.607a2.19 2.19 0 0 1 1.607-.668h14.036a2.19 2.19 0 0 1 1.607.668c.445.445.668.981.668 1.607v3.856a2.19 2.19 0 0 1-.668 1.607 2.19 2.19 0 0 1-1.607.668H4.982ZM3.82 5.893c-.32 0-.585-.11-.796-.33a1.121 1.121 0 0 1-.317-.808c0-.32.11-.589.33-.808.219-.22.488-.33.808-.33H20.18c.32 0 .585.11.796.33.211.22.317.489.317.808 0 .32-.11.589-.33.808-.219.22-.488.33-.808.33H3.82Z"/>
</svg>
