<svg width="24" height="24" fill="currentColor" viewBox="0 0 24 24">
  <path d="M7 16.964h4a.97.97 0 0 0 .712-.287.967.967 0 0 0 .288-.713.968.968 0 0 0-.288-.712.968.968 0 0 0-.712-.288H7a.968.968 0 0 0-.713.288.968.968 0 0 0-.287.712c0 .283.096.521.287.713.192.191.43.287.713.287Zm6-7.928h4c.283 0 .52-.096.712-.288A.967.967 0 0 0 18 8.036a.967.967 0 0 0-.288-.713.968.968 0 0 0-.712-.287h-4a.968.968 0 0 0-.713.287.967.967 0 0 0-.287.713c0 .283.096.52.287.712.192.192.43.288.713.288ZM10 13h4a.97.97 0 0 0 .712-.287A.968.968 0 0 0 15 12a.968.968 0 0 0-.288-.713A.968.968 0 0 0 14 11h-4a.967.967 0 0 0-.713.287A.968.968 0 0 0 9 12c0 .283.096.52.287.713.192.191.43.287.713.287Zm-4.928 8.203a2.19 2.19 0 0 1-1.61-.665 2.192 2.192 0 0 1-.665-1.61V5.072c0-.63.221-1.167.665-1.61a2.19 2.19 0 0 1 1.61-.665h13.856c.63 0 1.166.221 1.61.665.443.443.665.98.665 1.61v13.856c0 .63-.222 1.167-.665 1.61-.444.444-.98.665-1.61.665H5.072Z"/>
</svg>
