<svg width="24" height="24" fill="currentColor" viewBox="0 0 24 24">
  <path d="M5.308 20.5c-.505 0-.933-.175-1.283-.525a1.745 1.745 0 0 1-.525-1.283V5.308c0-.505.175-.933.525-1.283.35-.35.778-.525 1.283-.525h13.384c.505 0 .933.175 1.283.525.35.35.525.778.525 1.283v13.384c0 .505-.175.933-.525 1.283-.35.35-.778.525-1.283.525H5.308Zm0-1.5h13.384a.294.294 0 0 0 .212-.096.294.294 0 0 0 .096-.212V5.308a.294.294 0 0 0-.096-.212.294.294 0 0 0-.212-.096H5.308a.294.294 0 0 0-.212.096.294.294 0 0 0-.096.212v13.384c0 .077.032.148.096.212a.294.294 0 0 0 .212.096ZM8 7.25a.726.726 0 0 0-.535.215A.726.726 0 0 0 7.25 8v8a.73.73 0 0 0 .215.535.726.726 0 0 0 .535.215.726.726 0 0 0 .535-.215A.726.726 0 0 0 8.75 16V8a.726.726 0 0 0-.215-.535A.726.726 0 0 0 8 7.25Zm8 0a.726.726 0 0 0-.535.215.726.726 0 0 0-.215.535v6a.73.73 0 0 0 .215.535.726.726 0 0 0 .535.215.726.726 0 0 0 .535-.215.726.726 0 0 0 .215-.535V8a.726.726 0 0 0-.215-.535A.726.726 0 0 0 16 7.25Zm-4 0a.726.726 0 0 0-.535.215.726.726 0 0 0-.215.535v3a.73.73 0 0 0 .215.535.726.726 0 0 0 .535.215.726.726 0 0 0 .535-.215.726.726 0 0 0 .215-.535V8a.726.726 0 0 0-.215-.535A.726.726 0 0 0 12 7.25Z"/>
</svg>
