<svg width="24" height="24" fill="currentColor" viewBox="0 0 24 24">
  <path d="M4.225 19.385a.69.69 0 0 1-.517-.216.74.74 0 0 1-.208-.534.73.73 0 0 1 .215-.535.726.726 0 0 1 .535-.215h15.525c.206 0 .379.071.517.215a.74.74 0 0 1 .208.535.726.726 0 0 1-.215.534.726.726 0 0 1-.535.216H4.225Zm0-13.27a.69.69 0 0 1-.517-.215.74.74 0 0 1-.208-.535c0-.212.072-.39.215-.534a.726.726 0 0 1 .535-.216h15.525c.206 0 .379.072.517.216a.74.74 0 0 1 .208.534.726.726 0 0 1-.215.535.726.726 0 0 1-.535.215H4.225ZM5.308 15.5c-.499 0-.925-.177-1.278-.53a1.742 1.742 0 0 1-.53-1.278v-3.384c0-.499.177-.925.53-1.278.353-.353.779-.53 1.278-.53h13.384c.499 0 .925.177 1.278.53.353.353.53.78.53 1.278v3.384c0 .499-.177.925-.53 1.278-.353.353-.779.53-1.278.53H5.308Zm0-1.5h13.384a.3.3 0 0 0 .221-.086.3.3 0 0 0 .087-.222v-3.384a.3.3 0 0 0-.087-.221.3.3 0 0 0-.22-.087H5.307a.3.3 0 0 0-.221.087.3.3 0 0 0-.087.22v3.385a.3.3 0 0 0 .087.222.3.3 0 0 0 .22.086ZM5 10h.308a.3.3 0 0 0-.221.087.3.3 0 0 0-.087.22v3.385a.3.3 0 0 0 .087.222.3.3 0 0 0 .22.086H5v-4Z"/>
</svg>
