<svg width="24" height="24" fill="currentColor" viewBox="0 0 24 24">
  <path d="M5.072 21.203c-.63 0-1.167-.222-1.61-.665a2.193 2.193 0 0 1-.665-1.61V5.072c0-.63.221-1.167.665-1.61a2.19 2.19 0 0 1 1.61-.665h13.856c.63 0 1.166.221 1.61.665.443.443.665.98.665 1.61v13.856c0 .63-.222 1.166-.665 1.61-.444.443-.98.665-1.61.665H5.072ZM8.036 7.036a.968.968 0 0 0-.713.287.968.968 0 0 0-.287.713v7.928c0 .283.096.52.287.713.192.191.43.287.713.287s.52-.096.712-.287a.967.967 0 0 0 .288-.713V8.036a.968.968 0 0 0-.288-.713.968.968 0 0 0-.712-.287Zm7.928 0a.968.968 0 0 0-.713.287.968.968 0 0 0-.287.713v5.928c0 .283.096.52.287.713.192.191.43.287.713.287s.52-.096.713-.287a.967.967 0 0 0 .287-.713V8.036a.967.967 0 0 0-.287-.713.967.967 0 0 0-.713-.287Zm-3.964 0a.968.968 0 0 0-.713.287.967.967 0 0 0-.287.713v2.928c0 .283.096.52.287.713.192.191.43.287.713.287s.52-.096.712-.287a.967.967 0 0 0 .288-.713V8.036a.967.967 0 0 0-.288-.713.968.968 0 0 0-.712-.287Z"/>
</svg>
