<svg width="24" height="24" fill="currentColor" viewBox="0 0 24 24">
  <path d="M2.934 11c-.319 0-.588-.11-.808-.33a1.095 1.095 0 0 1-.33-.808V4.934c0-.32.11-.588.33-.808.22-.22.489-.33.808-.33h18.132c.319 0 .588.11.808.33.22.22.33.489.33.808v4.928c0 .32-.11.589-.33.809-.22.22-.489.329-.808.329H2.934Zm8.221 9.203c-.319 0-.588-.11-.808-.33a1.094 1.094 0 0 1-.33-.807v-4.929c0-.319.11-.588.33-.808.22-.22.49-.33.808-.33h9.91c.32 0 .59.11.809.33.22.22.33.49.33.808v4.929c0 .319-.11.588-.33.808a1.1 1.1 0 0 1-.808.33h-9.91Zm-8.22 0c-.32 0-.59-.11-.809-.33a1.094 1.094 0 0 1-.33-.807v-4.929c0-.319.11-.588.33-.808.22-.22.489-.33.808-.33H6.88c.32 0 .589.11.809.33.22.22.329.49.329.808v4.929c0 .319-.11.588-.33.808-.219.22-.488.33-.808.33H2.934Z"/>
</svg>
