<svg width="24" height="24" fill="currentColor" viewBox="0 0 24 24">
  <path d="m15.775 12.45-1.125-1.125c.15-.833-.088-1.579-.712-2.237-.626-.659-1.388-.913-2.288-.763L10.525 7.2c.233-.1.466-.175.7-.225.233-.05.491-.075.775-.075 1.133 0 2.095.396 2.887 1.188.792.791 1.188 1.754 1.188 2.887 0 .283-.025.546-.075.787-.05.242-.125.471-.225.688Zm3.175 3.1-1.1-1.025a10.962 10.962 0 0 0 1.688-1.588 8.9 8.9 0 0 0 1.262-1.962c-.834-1.683-2.03-3.021-3.588-4.013-1.558-.991-3.296-1.487-5.212-1.487-.484 0-.959.033-1.425.1a9.622 9.622 0 0 0-1.375.3L8.025 4.7c.633-.25 1.279-.433 1.938-.55A11.648 11.648 0 0 1 12 3.975c2.216 0 4.237.587 6.062 1.762 1.825 1.175 3.204 2.721 4.138 4.638a.902.902 0 0 1 .075.262 2.222 2.222 0 0 1 0 .675.905.905 0 0 1-.075.263 11.33 11.33 0 0 1-1.388 2.175 10.887 10.887 0 0 1-1.862 1.8Zm.275 5.275-3.5-3.5a9.65 9.65 0 0 1-1.712.475c-.626.117-1.297.175-2.013.175-2.234 0-4.259-.587-6.075-1.762-1.817-1.175-3.192-2.721-4.125-4.638a.902.902 0 0 1-.075-.263 2.208 2.208 0 0 1 0-.662c.016-.1.041-.192.075-.275.383-.767.841-1.475 1.375-2.125A12.051 12.051 0 0 1 4.9 6.525L2.65 4.25a.72.72 0 0 1-.225-.525c0-.2.075-.383.225-.55.15-.133.329-.2.538-.2.208 0 .378.067.512.2l16.6 16.6a.757.757 0 0 1 0 1.05.781.781 0 0 1-.537.2.782.782 0 0 1-.538-.2ZM5.95 7.575a10.03 10.03 0 0 0-1.537 1.513A8.945 8.945 0 0 0 3.2 10.975c.833 1.683 2.029 3.02 3.587 4.012 1.558.992 3.296 1.488 5.213 1.488.45 0 .9-.038 1.35-.113.45-.075.833-.154 1.15-.237l-1.25-1.3a3.9 3.9 0 0 1-1.25.225c-1.134 0-2.096-.396-2.887-1.188-.792-.791-1.188-1.754-1.188-2.887 0-.2.02-.413.063-.638.041-.225.095-.429.162-.612l-2.2-2.15Z"/>
</svg>
