<svg width="24" height="24" fill="currentColor" viewBox="0 0 24 24">
  <path d="M12 16.5c1.25 0 2.313-.438 3.188-1.313.874-.874 1.312-1.937 1.312-3.187 0-1.25-.438-2.313-1.313-3.188C14.313 7.937 13.25 7.5 12 7.5c-1.25 0-2.313.437-3.188 1.312S7.5 10.75 7.5 12c0 1.25.437 2.313 1.312 3.188.875.874 1.938 1.312 3.188 1.312Zm.001-1.926c-.715 0-1.323-.25-1.824-.75A2.48 2.48 0 0 1 9.426 12c0-.715.25-1.323.75-1.824A2.48 2.48 0 0 1 12 9.426c.715 0 1.323.25 1.824.75.5.5.751 1.108.751 1.823 0 .715-.25 1.323-.75 1.824a2.48 2.48 0 0 1-1.823.751ZM12 19.685c-2.345 0-4.488-.623-6.43-1.87-1.943-1.247-3.416-2.924-4.42-5.031a.913.913 0 0 1-.114-.354 3.216 3.216 0 0 1 0-.86.912.912 0 0 1 .115-.354C2.154 9.11 3.627 7.432 5.569 6.185 7.512 4.938 9.655 4.315 12 4.315c2.345 0 4.488.623 6.43 1.87 1.943 1.247 3.416 2.924 4.42 5.031a.913.913 0 0 1 .114.354 3.226 3.226 0 0 1 0 .86.913.913 0 0 1-.115.354c-1.003 2.107-2.476 3.784-4.418 5.03-1.943 1.248-4.087 1.871-6.431 1.871Z"/>
</svg>
