<svg width="24" height="24" fill="currentColor" viewBox="0 0 24 24">
  <path d="M2.79 21.084a1.07 1.07 0 0 1-.571-.158 1.11 1.11 0 0 1-.398-.414 1.22 1.22 0 0 1-.155-.554 1.04 1.04 0 0 1 .155-.584l9.184-15.892c.112-.19.259-.333.44-.426.18-.093.365-.14.556-.14.19 0 .375.047.555.14.18.093.327.235.439.426l9.184 15.892c.112.19.164.385.155.584-.008.2-.06.384-.155.554-.095.17-.228.308-.398.413-.17.106-.36.159-.572.159H2.791Zm9.21-3.12c.287 0 .53-.1.73-.3.2-.199.3-.443.3-.73s-.1-.53-.3-.727a.999.999 0 0 0-.73-.297.999.999 0 0 0-.73.297c-.2.197-.3.44-.3.727s.1.531.3.73c.2.2.443.3.73.3Zm0-2.982c.283 0 .52-.096.713-.287a.968.968 0 0 0 .287-.713v-2.934a.967.967 0 0 0-.287-.713.968.968 0 0 0-.713-.287.968.968 0 0 0-.713.287.967.967 0 0 0-.287.713v2.934c0 .283.096.52.287.713.192.191.43.287.713.287Z"/>
</svg>
