<svg width="24" height="24" fill="currentColor" viewBox="0 0 24 24">
  <path d="M3.425 20.298a.878.878 0 0 1-.772-.452.955.955 0 0 1-.128-.437.816.816 0 0 1 .127-.467l8.561-14.788A.896.896 0 0 1 12 3.702a.897.897 0 0 1 .787.452l8.56 14.788c.093.154.136.31.128.467a.955.955 0 0 1-.129.437.878.878 0 0 1-.771.452H3.425Zm1.025-1.5h15.1l-7.55-13-7.55 13ZM12 17.606a.78.78 0 0 0 .575-.233.781.781 0 0 0 .233-.575.782.782 0 0 0-.232-.575.782.782 0 0 0-.576-.233.781.781 0 0 0-.575.232.782.782 0 0 0-.233.576c0 .229.078.42.232.576a.781.781 0 0 0 .576.232Zm0-2.616a.73.73 0 0 0 .535-.215.726.726 0 0 0 .215-.535v-3.5a.725.725 0 0 0-.216-.534A.726.726 0 0 0 12 9.99a.725.725 0 0 0-.535.216.726.726 0 0 0-.215.534v3.5c0 .213.072.391.216.535a.726.726 0 0 0 .534.215Z"/>
</svg>
