<svg width="24" height="24" fill="currentColor" viewBox="0 0 24 24">
  <path d="m18.965 21.192-8.569-8.606a8.876 8.876 0 0 0-1.4.445 7.208 7.208 0 0 0-1.251.665 2.37 2.37 0 0 1-1.243.374 1.467 1.467 0 0 1-1.132-.467 1.46 1.46 0 0 1-.445-1.153c.023-.45.213-.805.57-1.067.36-.263.738-.504 1.135-.724.397-.22.807-.423 1.229-.61L5.747 7.935c-.41.225-.806.458-1.188.698-.383.24-.754.499-1.113.775a1.91 1.91 0 0 1-1.206.418 1.49 1.49 0 0 1-1.126-.48c-.32-.32-.47-.7-.451-1.138.018-.438.204-.799.557-1.082.347-.284.7-.553 1.06-.808.36-.255.738-.492 1.135-.709L2.063 4.258a.98.98 0 0 1-.29-.73 1 1 0 0 1 .296-.73.994.994 0 0 1 .733-.293c.293 0 .537.098.733.293L20.45 19.713c.208.208.312.455.312.74s-.104.531-.312.74a1.084 1.084 0 0 1-.743.301.98.98 0 0 1-.742-.302Zm-6.966-.93c-.7 0-1.292-.246-1.775-.737a2.426 2.426 0 0 1-.725-1.763c0-.7.241-1.291.725-1.775.483-.483 1.075-.725 1.775-.725s1.291.242 1.775.725c.483.484.725 1.075.725 1.775a2.43 2.43 0 0 1-.725 1.763 2.393 2.393 0 0 1-1.775.737Zm6.86-6.91c-.258.258-.56.384-.904.378a1.276 1.276 0 0 1-.905-.398l-4.046-4.04c1.088.112 2.11.36 3.065.746.955.385 1.83.889 2.628 1.51.288.225.451.518.491.877.04.359-.07.668-.328.926Zm4.03-4a1.54 1.54 0 0 1-1.116.49c-.44.01-.84-.123-1.197-.402a13.616 13.616 0 0 0-3.953-2.21 13.568 13.568 0 0 0-4.624-.782 11.346 11.346 0 0 0-1.713.12L7.55 3.832c.734-.2 1.463-.345 2.187-.435.724-.09 1.478-.135 2.262-.135 2.071 0 4.022.342 5.851 1.026a17.08 17.08 0 0 1 4.945 2.844c.345.292.526.656.543 1.092.017.437-.133.813-.45 1.129Z"/>
</svg>
