<svg width="24" height="24" fill="currentColor" viewBox="0 0 24 24">
  <path d="m19.168 20.224-5.754-5.754c-.5.413-1.075.736-1.725.97-.65.233-1.322.35-2.017.35-1.71 0-3.156-.592-4.34-1.776-1.183-1.184-1.775-2.63-1.775-4.338 0-1.71.591-3.156 1.775-4.34C6.516 4.15 7.962 3.558 9.67 3.558c1.71 0 3.156.592 4.34 1.775 1.185 1.184 1.777 2.63 1.777 4.34a5.86 5.86 0 0 1-.36 2.046 5.704 5.704 0 0 1-.959 1.696l5.779 5.78a.653.653 0 0 1 .195.512.746.746 0 0 1-.22.516.717.717 0 0 1-.527.217.717.717 0 0 1-.527-.217Zm-9.496-5.935c1.288 0 2.38-.447 3.274-1.341.894-.894 1.341-1.986 1.341-3.274 0-1.289-.447-2.38-1.341-3.274-.894-.894-1.986-1.341-3.274-1.341s-2.38.447-3.274 1.34c-.894.895-1.341 1.986-1.341 3.275 0 1.288.447 2.38 1.34 3.274.895.894 1.987 1.341 3.275 1.341Zm0-1.923a.725.725 0 0 1-.535-.215.726.726 0 0 1-.215-.535v-1.192H7.705a.689.689 0 0 1-.518-.216.74.74 0 0 1-.207-.534.73.73 0 0 1 .215-.535.726.726 0 0 1 .535-.215h1.192V7.707c0-.207.072-.38.216-.518a.74.74 0 0 1 .534-.207.73.73 0 0 1 .535.215.726.726 0 0 1 .215.535v1.192h1.217c.207 0 .38.072.518.216a.74.74 0 0 1 .207.534.73.73 0 0 1-.215.535.726.726 0 0 1-.535.215h-1.192v1.217a.689.689 0 0 1-.216.518.74.74 0 0 1-.534.207Z"/>
</svg>
