<svg width="24" height="24" fill="currentColor" viewBox="0 0 24 24">
  <path d="m19.026 20.626-5.547-5.546a5.997 5.997 0 0 1-1.716.914 6.283 6.283 0 0 1-2.078.338c-1.852 0-3.422-.643-4.708-1.93-1.286-1.285-1.93-2.855-1.93-4.707 0-1.853.644-3.422 1.93-4.709C6.263 3.7 7.833 3.057 9.685 3.057c1.853 0 3.422.643 4.708 1.93 1.287 1.286 1.93 2.855 1.93 4.708 0 .74-.113 1.434-.338 2.078a5.925 5.925 0 0 1-.914 1.704l5.577 5.583c.211.211.313.472.304.783-.008.31-.118.572-.33.783a1.083 1.083 0 0 1-.798.317c-.321 0-.587-.106-.798-.317Zm-9.34-6.569c1.213 0 2.244-.423 3.091-1.27.847-.848 1.27-1.878 1.27-3.092 0-1.215-.423-2.245-1.27-3.092s-1.877-1.27-3.092-1.27c-1.214 0-2.244.423-3.092 1.27-.847.847-1.27 1.877-1.27 3.092 0 1.214.423 2.244 1.27 3.091.848.848 1.878 1.271 3.092 1.271Zm0-1.398a.968.968 0 0 1-.713-.288.968.968 0 0 1-.288-.712v-.964h-.989a.927.927 0 0 1-.7-.288.99.99 0 0 1-.275-.712c0-.284.096-.521.288-.713a.966.966 0 0 1 .711-.287h.965v-.99c0-.283.096-.516.288-.7a.99.99 0 0 1 .712-.274c.284 0 .521.095.713.287.191.192.287.43.287.713v.964h.99c.283 0 .516.095.7.287.183.192.274.43.274.713s-.095.52-.287.712a.966.966 0 0 1-.712.288h-.965v.989a.927.927 0 0 1-.287.7.991.991 0 0 1-.713.275Z"/>
</svg>
